<svg width="58" height="83" viewBox="0 0 29 41.5" xmlns="http://www.w3.org/2000/svg"><g id="svgGroup" stroke-linecap="round" fill-rule="evenodd" font-size="9pt" stroke="#000" stroke-width="0.05mm" fill="#000" style="stroke:#000;stroke-width:0.05mm;fill:#000"><path d="M 13.65 7.4 L 13.6 6.1 A 4.409 4.409 0 0 1 13.604 5.913 Q 13.624 5.45 13.75 5.45 A 0.18 0.18 0 0 1 13.892 5.568 Q 14.08 5.909 14.166 7.242 A 27.445 27.445 0 0 1 14.2 7.9 A 33.809 33.809 0 0 0 14.226 8.311 Q 14.315 9.586 14.438 9.647 A 0.028 0.028 0 0 0 14.45 9.65 Q 14.545 9.65 14.617 9.27 A 3.497 3.497 0 0 0 14.625 9.225 Q 14.697 8.819 14.7 8.162 A 12.734 12.734 0 0 0 14.7 8.1 A 44.82 44.82 0 0 1 14.702 7.714 Q 14.712 6.547 14.788 6.458 A 0.017 0.017 0 0 1 14.8 6.45 A 0.228 0.228 0 0 1 14.992 6.581 Q 15.185 6.897 15.199 7.977 A 13.341 13.341 0 0 1 15.2 8.15 L 15.15 9.5 Q 15.15 9.679 15.203 9.751 A 0.114 0.114 0 0 0 15.3 9.8 A 0.173 0.173 0 0 0 15.452 9.717 Q 15.473 9.686 15.488 9.642 A 0.509 0.509 0 0 0 15.5 9.6 Q 15.55 9.35 15.825 8.175 A 6.566 6.566 0 0 1 15.927 7.791 Q 16.092 7.238 16.283 7.072 A 0.254 0.254 0 0 1 16.45 7 A 0.04 0.04 0 0 1 16.452 7 Q 16.498 7.002 16.544 7.11 A 0.717 0.717 0 0 1 16.55 7.125 Q 16.591 7.227 16.599 7.311 A 0.431 0.431 0 0 1 16.6 7.35 Q 16.6 7.616 16.456 8.112 A 9.081 9.081 0 0 1 16.35 8.45 L 16.2 9.05 Q 16.121 9.366 16.105 9.558 A 1.081 1.081 0 0 0 16.1 9.65 A 0.092 0.092 0 0 0 16.115 9.703 Q 16.139 9.739 16.204 9.748 A 0.346 0.346 0 0 0 16.25 9.75 Q 16.4 9.75 17.1 7.65 A 40.028 40.028 0 0 1 17.268 7.111 Q 17.827 5.364 18.047 5.351 A 0.055 0.055 0 0 1 18.05 5.35 A 0.117 0.117 0 0 1 18.149 5.416 Q 18.249 5.578 18.25 6.132 A 6.285 6.285 0 0 1 18.25 6.15 Q 18.169 6.681 17.687 8.013 A 47.299 47.299 0 0 1 17.45 8.65 L 17.15 9.6 A 0.216 0.216 0 0 0 17.158 9.66 Q 17.184 9.75 17.3 9.75 A 0.115 0.115 0 0 0 17.374 9.711 Q 17.503 9.588 17.713 9.08 A 9.77 9.77 0 0 0 17.775 8.925 A 63.972 63.972 0 0 1 17.889 8.638 Q 18.119 8.063 18.2 7.9 A 36.857 36.857 0 0 1 18.508 7.146 Q 19.074 5.804 19.344 5.556 A 0.172 0.172 0 0 1 19.45 5.5 Q 19.539 5.5 19.549 5.658 A 0.673 0.673 0 0 1 19.55 5.7 A 1.457 1.457 0 0 1 19.51 5.999 Q 19.397 6.515 18.966 7.561 A 35.804 35.804 0 0 1 18.65 8.3 Q 18.112 9.377 18.101 9.64 A 0.253 0.253 0 0 0 18.1 9.65 L 18.25 9.7 Q 18.35 9.7 18.75 9 L 19.35 7.95 Q 20.276 6.246 20.442 6.202 A 0.032 0.032 0 0 1 20.45 6.2 A 0.158 0.158 0 0 1 20.52 6.215 Q 20.6 6.254 20.6 6.4 Q 20.6 6.7 20.1 7.65 A 12.804 12.804 0 0 1 19.707 8.421 Q 19.495 8.803 19.275 9.125 A 21.004 21.004 0 0 0 19.129 9.343 Q 18.841 9.779 18.8 9.9 A 0.622 0.622 0 0 0 18.802 9.94 Q 18.806 10.006 18.825 10.025 A 0.055 0.055 0 0 0 18.844 10.037 Q 18.877 10.05 18.95 10.05 Q 19.145 10.05 19.577 9.339 A 8.609 8.609 0 0 0 19.6 9.3 Q 20.021 8.599 20.136 8.422 A 2.212 2.212 0 0 1 20.15 8.4 A 16.391 16.391 0 0 1 20.328 8.071 Q 20.726 7.35 20.85 7.35 A 0.158 0.158 0 0 1 20.92 7.365 Q 21 7.404 21 7.55 Q 21 8.05 20.3 9.025 A 63.966 63.966 0 0 0 20.059 9.364 Q 19.645 9.948 19.529 10.148 A 0.979 0.979 0 0 0 19.5 10.2 A 0.333 0.333 0 0 0 19.504 10.253 Q 19.52 10.35 19.6 10.35 Q 19.685 10.35 20.093 9.776 A 18.265 18.265 0 0 0 20.25 9.55 Q 20.6 9.1 20.95 8.675 Q 21.231 8.335 21.383 8.267 A 0.169 0.169 0 0 1 21.45 8.25 Q 21.539 8.25 21.549 8.408 A 0.673 0.673 0 0 1 21.55 8.45 A 0.467 0.467 0 0 1 21.499 8.634 Q 21.311 9.042 20.442 9.996 A 26.369 26.369 0 0 1 20.3 10.15 Q 19.659 10.792 19.605 10.971 A 0.103 0.103 0 0 0 19.6 11 A 0.308 0.308 0 0 0 19.603 11.042 Q 19.609 11.088 19.631 11.111 A 0.069 0.069 0 0 0 19.65 11.125 L 19.7 11.15 A 0.202 0.202 0 0 0 19.781 11.126 Q 19.992 11.024 20.575 10.5 A 1235.62 1235.62 0 0 0 21.088 10.041 Q 21.488 9.682 21.8 9.4 Q 22.1 9.1 22.7 8.375 Q 23.3 7.65 23.55 7.65 Q 23.639 7.65 23.649 7.808 A 0.673 0.673 0 0 1 23.65 7.85 Q 23.65 8.5 21.2 10.6 A 23.392 23.392 0 0 0 20.966 10.79 Q 20.366 11.283 20.236 11.47 A 0.162 0.162 0 0 0 20.2 11.55 A 0.092 0.092 0 0 0 20.215 11.603 Q 20.239 11.639 20.304 11.648 A 0.346 0.346 0 0 0 20.35 11.65 A 0.656 0.656 0 0 0 20.613 11.574 Q 21.247 11.275 22.8 9.8 A 39.374 39.374 0 0 1 23.18 9.449 Q 24.438 8.3 24.7 8.3 A 0.092 0.092 0 0 1 24.753 8.315 Q 24.789 8.339 24.798 8.404 A 0.346 0.346 0 0 1 24.8 8.45 A 0.318 0.318 0 0 1 24.761 8.585 Q 24.625 8.86 24.019 9.434 A 13.58 13.58 0 0 1 23.975 9.475 Q 23.15 10.25 22.25 10.95 A 76.213 76.213 0 0 0 21.911 11.233 Q 20.892 12.087 20.808 12.23 A 0.045 0.045 0 0 0 20.8 12.25 A 0.216 0.216 0 0 0 20.808 12.31 Q 20.834 12.4 20.95 12.4 A 0.367 0.367 0 0 0 21.086 12.36 Q 21.472 12.185 22.65 11.25 A 59.636 59.636 0 0 1 23.088 10.934 Q 24.531 9.901 24.75 9.9 A 0.092 0.092 0 0 1 24.803 9.915 Q 24.839 9.939 24.848 10.004 A 0.346 0.346 0 0 1 24.85 10.05 A 0.334 0.334 0 0 1 24.815 10.194 Q 24.762 10.305 24.632 10.428 A 1.708 1.708 0 0 1 24.55 10.5 A 115.98 115.98 0 0 1 24.025 10.88 Q 23.275 11.419 22.75 11.775 Q 22.05 12.25 21.625 12.5 A 2.934 2.934 0 0 0 21.481 12.591 Q 21.267 12.734 21.216 12.839 A 0.142 0.142 0 0 0 21.2 12.9 A 0.216 0.216 0 0 0 21.208 12.96 Q 21.234 13.05 21.35 13.05 A 0.257 0.257 0 0 0 21.432 13.031 Q 21.631 12.959 22.162 12.609 A 18.043 18.043 0 0 0 22.25 12.55 A 21.758 21.758 0 0 1 22.848 12.16 Q 23.775 11.576 24.254 11.441 A 0.933 0.933 0 0 1 24.5 11.4 A 0.365 0.365 0 0 1 24.557 11.404 Q 24.717 11.43 24.62 11.616 A 0.676 0.676 0 0 1 24.6 11.65 Q 24.519 11.773 24.104 12.012 A 8.867 8.867 0 0 1 23.9 12.125 A 20.107 20.107 0 0 0 23.641 12.268 Q 23.254 12.486 23.1 12.6 Q 22.268 12.997 21.813 13.299 A 3.492 3.492 0 0 0 21.6 13.45 Q 21.515 13.536 21.558 13.604 A 0.13 0.13 0 0 0 21.575 13.625 Q 21.65 13.7 21.75 13.7 A 0.22 0.22 0 0 0 21.813 13.683 Q 22.017 13.607 22.791 13.185 A 55.387 55.387 0 0 0 22.9 13.125 Q 23.76 12.655 24.151 12.569 A 0.716 0.716 0 0 1 24.3 12.55 A 0.666 0.666 0 0 1 24.406 12.558 Q 24.592 12.588 24.6 12.736 A 0.253 0.253 0 0 1 24.6 12.75 A 0.084 0.084 0 0 1 24.565 12.8 Q 24.413 12.935 23.6 13.3 Q 22 13.95 22 14.25 Q 22 14.292 22.035 14.333 A 0.249 0.249 0 0 0 22.05 14.35 Q 22.092 14.392 22.168 14.399 A 0.352 0.352 0 0 0 22.2 14.4 Q 22.4 14.4 23.25 14.15 Q 24.517 13.834 24.679 13.804 A 0.163 0.163 0 0 1 24.7 13.8 A 1.201 1.201 0 0 1 24.834 13.807 Q 25.1 13.837 25.1 14 A 0.128 0.128 0 0 1 25.032 14.089 Q 24.81 14.245 23.872 14.485 A 24.925 24.925 0 0 1 23.4 14.6 Q 22.113 14.85 21.895 15.03 A 0.099 0.099 0 0 0 21.85 15.1 Q 21.85 15.35 22 15.35 A 1.032 1.032 0 0 0 22.128 15.34 Q 22.414 15.302 23.125 15.13 A 42.192 42.192 0 0 0 23.45 15.05 A 26.464 26.464 0 0 1 23.835 14.949 Q 24.429 14.796 24.71 14.761 A 1.17 1.17 0 0 1 24.85 14.75 A 0.338 0.338 0 0 1 24.948 14.764 A 0.288 0.288 0 0 1 25.025 14.8 A 0.304 0.304 0 0 1 25.057 14.824 Q 25.089 14.852 25.098 14.881 A 0.069 0.069 0 0 1 25.1 14.9 Q 25.1 15.02 24.958 15.092 A 0.617 0.617 0 0 1 24.875 15.125 A 1.953 1.953 0 0 1 24.754 15.161 Q 24.558 15.212 24.191 15.281 A 24.374 24.374 0 0 1 23.95 15.325 A 9.841 9.841 0 0 0 22.964 15.556 A 11.554 11.554 0 0 0 22.5 15.7 A 1.075 1.075 0 0 0 22.391 15.743 Q 22.282 15.793 22.236 15.853 A 0.156 0.156 0 0 0 22.2 15.95 Q 22.2 16.084 22.437 16.099 A 1.01 1.01 0 0 0 22.5 16.1 Q 22.75 16.1 23.65 15.9 Q 24.55 15.7 24.7 15.7 A 0.338 0.338 0 0 1 24.798 15.714 A 0.288 0.288 0 0 1 24.875 15.75 A 0.304 0.304 0 0 1 24.907 15.774 Q 24.939 15.802 24.948 15.831 A 0.069 0.069 0 0 1 24.95 15.85 A 0.181 0.181 0 0 1 24.891 15.979 Q 24.779 16.093 24.45 16.175 A 10.767 10.767 0 0 1 24.158 16.243 Q 23.749 16.333 23.053 16.466 A 99.586 99.586 0 0 1 22.6 16.55 A 0.555 0.555 0 0 0 22.515 16.574 Q 22.358 16.633 22.375 16.771 A 0.24 0.24 0 0 0 22.375 16.775 A 0.174 0.174 0 0 0 22.487 16.916 Q 22.567 16.95 22.7 16.95 A 2.299 2.299 0 0 0 22.939 16.937 Q 23.17 16.912 23.479 16.845 A 8.994 8.994 0 0 0 23.675 16.8 A 11.182 11.182 0 0 1 23.956 16.737 Q 24.343 16.654 24.533 16.651 A 0.9 0.9 0 0 1 24.55 16.65 A 0.687 0.687 0 0 1 24.598 16.652 Q 24.7 16.659 24.7 16.7 A 0.201 0.201 0 0 1 24.614 16.852 Q 24.379 17.047 23.511 17.191 A 10.433 10.433 0 0 1 23.45 17.2 Q 22.4 17.4 22.4 17.6 A 0.06 0.06 0 0 0 22.412 17.635 Q 22.428 17.657 22.463 17.679 A 0.43 0.43 0 0 0 22.5 17.7 A 0.441 0.441 0 0 0 22.605 17.736 Q 22.671 17.75 22.75 17.75 A 1.508 1.508 0 0 0 22.903 17.742 Q 23.14 17.717 23.525 17.625 A 19.755 19.755 0 0 1 23.707 17.583 Q 24.069 17.5 24.15 17.5 Q 24.4 17.5 24.4 17.65 A 0.119 0.119 0 0 1 24.338 17.74 Q 24.15 17.875 23.39 18.01 A 13.945 13.945 0 0 1 23.15 18.05 A 10.091 10.091 0 0 0 22.616 18.127 Q 21.842 18.26 21.582 18.469 A 0.299 0.299 0 0 0 21.45 18.7 L 21.5 18.725 A 0.241 0.241 0 0 0 21.557 18.746 A 0.204 0.204 0 0 0 21.6 18.75 A 1.19 1.19 0 0 0 21.729 18.743 Q 21.855 18.729 22.031 18.69 A 5.828 5.828 0 0 0 22.2 18.65 Q 22.516 18.571 22.708 18.555 A 1.081 1.081 0 0 1 22.8 18.55 A 0.666 0.666 0 0 1 22.906 18.558 Q 23.092 18.588 23.1 18.736 A 0.253 0.253 0 0 1 23.1 18.75 Q 23.1 18.892 22.497 18.99 A 5.794 5.794 0 0 1 22.425 19 A 16.982 16.982 0 0 1 22.111 19.044 Q 21.675 19.1 21.45 19.1 A 0.763 0.763 0 0 0 21.351 19.106 Q 21.244 19.121 21.191 19.168 A 0.152 0.152 0 0 0 21.15 19.225 A 0.128 0.128 0 0 0 21.145 19.244 Q 21.12 19.35 21.35 19.35 Q 21.593 19.35 21.775 19.326 A 1.739 1.739 0 0 0 21.925 19.3 A 2.689 2.689 0 0 1 22.071 19.272 Q 22.141 19.261 22.201 19.255 A 1.127 1.127 0 0 1 22.3 19.25 Q 22.55 19.25 22.55 19.4 A 0.109 0.109 0 0 1 22.51 19.478 Q 22.398 19.584 21.975 19.675 Q 21.435 19.793 21.094 19.8 A 2.077 2.077 0 0 1 21.05 19.8 A 0.123 0.123 0 0 0 20.971 19.831 Q 20.919 19.874 20.875 19.975 A 0.65 0.65 0 0 0 20.862 20.01 Q 20.816 20.137 20.885 20.149 A 0.092 0.092 0 0 0 20.9 20.15 A 2.263 2.263 0 0 0 21.027 20.147 Q 21.206 20.136 21.475 20.1 Q 21.85 20.05 21.85 20.1 A 0.213 0.213 0 0 1 21.76 20.277 Q 21.727 20.303 21.682 20.323 A 0.516 0.516 0 0 1 21.675 20.325 Q 21.503 20.399 21.065 20.497 A 11.74 11.74 0 0 1 21.05 20.5 A 1.844 1.844 0 0 0 20.741 20.597 Q 20.567 20.669 20.436 20.774 A 1.04 1.04 0 0 0 20.35 20.85 Q 19.95 21.2 19.7 21.275 Q 19.512 21.332 19.251 21.36 A 4.303 4.303 0 0 1 19.075 21.375 A 3.058 3.058 0 0 0 18.698 21.423 A 2.356 2.356 0 0 0 18.4 21.5 A 0.937 0.937 0 0 0 18.292 21.567 Q 18.123 21.683 17.841 21.942 A 11.568 11.568 0 0 0 17.725 22.05 Q 17.25 22.5 16.825 22.775 Q 16.428 23.033 15.834 23.049 A 2.971 2.971 0 0 1 15.75 23.05 Q 15.55 23.05 15.025 22.875 A 6.198 6.198 0 0 0 14.78 22.799 Q 14.438 22.7 14.25 22.7 Q 14.05 22.7 13.6 22.85 Q 13.235 22.972 12.936 22.995 A 1.773 1.773 0 0 1 12.8 23 A 1.276 1.276 0 0 1 11.851 22.605 A 1.567 1.567 0 0 1 11.8 22.55 Q 11.475 22.185 11.315 22.083 A 0.307 0.307 0 0 0 11.25 22.05 Q 11.165 22.008 10.627 21.857 A 42.952 42.952 0 0 0 10.425 21.8 Q 9.7 21.6 9.7 21.35 A 0.092 0.092 0 0 1 9.715 21.298 Q 9.739 21.262 9.804 21.253 A 0.346 0.346 0 0 1 9.85 21.25 A 0.51 0.51 0 0 1 9.945 21.26 Q 10.078 21.286 10.275 21.375 Q 10.55 21.5 10.7 21.5 A 0.333 0.333 0 0 0 10.753 21.497 Q 10.85 21.481 10.85 21.4 A 0.096 0.096 0 0 0 10.806 21.331 Q 10.67 21.222 10.122 21.09 A 9.999 9.999 0 0 0 9.95 21.05 Q 9.114 20.864 9.055 20.678 A 0.093 0.093 0 0 1 9.05 20.65 A 0.092 0.092 0 0 1 9.065 20.598 Q 9.089 20.562 9.154 20.553 A 0.346 0.346 0 0 1 9.2 20.55 Q 9.439 20.55 9.815 20.665 A 4.575 4.575 0 0 1 9.85 20.675 Q 10.165 20.774 10.294 20.795 A 0.372 0.372 0 0 0 10.35 20.8 L 10.5 20.8 A 0.3 0.3 0 0 0 10.534 20.799 Q 10.567 20.795 10.584 20.783 A 0.038 0.038 0 0 0 10.6 20.75 A 0.198 0.198 0 0 0 10.584 20.674 Q 10.559 20.614 10.496 20.547 A 0.817 0.817 0 0 0 10.475 20.525 A 0.702 0.702 0 0 0 10.415 20.471 Q 10.325 20.4 10.25 20.4 A 4.445 4.445 0 0 1 10.049 20.366 Q 9.768 20.312 9.303 20.2 A 39.883 39.883 0 0 1 9 20.125 A 5.45 5.45 0 0 1 8.706 20.044 Q 8.289 19.914 8.159 19.776 A 0.185 0.185 0 0 1 8.1 19.65 A 0.216 0.216 0 0 1 8.108 19.591 Q 8.134 19.5 8.25 19.5 A 0.433 0.433 0 0 1 8.33 19.511 Q 8.515 19.549 8.999 19.719 A 24.85 24.85 0 0 1 9.225 19.8 A 17.898 17.898 0 0 0 9.513 19.902 Q 10.078 20.097 10.245 20.1 A 0.283 0.283 0 0 0 10.25 20.1 A 0.333 0.333 0 0 0 10.303 20.097 Q 10.4 20.081 10.4 20 Q 10.4 19.812 9.532 19.534 A 10.044 10.044 0 0 0 9.425 19.5 Q 8.655 19.264 8.244 19.027 A 1.922 1.922 0 0 1 8.05 18.9 A 11.964 11.964 0 0 1 6.863 18.014 A 15.188 15.188 0 0 1 6.05 17.275 A 14.137 14.137 0 0 1 5.711 16.934 Q 5.05 16.244 5.05 16 A 0.392 0.392 0 0 1 5.057 15.928 Q 5.079 15.808 5.187 15.801 A 0.21 0.21 0 0 1 5.2 15.8 A 0.186 0.186 0 0 1 5.28 15.827 Q 5.46 15.923 5.908 16.36 A 15.971 15.971 0 0 1 6.05 16.5 Q 7.225 17.581 7.561 17.646 A 0.209 0.209 0 0 0 7.6 17.65 A 0.216 0.216 0 0 0 7.66 17.643 Q 7.75 17.617 7.75 17.5 A 0.156 0.156 0 0 0 7.718 17.422 Q 7.603 17.252 7.09 16.852 A 15.446 15.446 0 0 0 6.925 16.725 A 6.351 6.351 0 0 1 6.255 16.144 Q 5.919 15.806 5.682 15.448 A 3.925 3.925 0 0 1 5.65 15.4 Q 5.424 15.129 5.403 14.919 A 0.427 0.427 0 0 1 5.4 14.875 A 0.764 0.764 0 0 1 5.404 14.802 Q 5.418 14.65 5.5 14.65 Q 5.635 14.65 6.208 15.29 A 17.26 17.26 0 0 1 6.35 15.45 A 21.025 21.025 0 0 0 7.172 16.322 A 22.771 22.771 0 0 0 7.2 16.35 A 3.58 3.58 0 0 0 7.388 16.526 Q 7.705 16.8 7.9 16.8 A 0.144 0.144 0 0 0 7.94 16.796 Q 7.984 16.783 7.996 16.738 A 0.147 0.147 0 0 0 8 16.7 Q 8 16.657 7.392 15.89 A 86.608 86.608 0 0 0 7.2 15.65 A 24.325 24.325 0 0 1 6.691 15.091 Q 5.727 13.996 5.701 13.62 A 0.294 0.294 0 0 1 5.7 13.6 A 0.333 0.333 0 0 1 5.704 13.548 Q 5.72 13.45 5.8 13.45 A 0.159 0.159 0 0 1 5.88 13.485 Q 6.06 13.608 6.508 14.17 A 18.896 18.896 0 0 1 6.65 14.35 Q 8 15.9 8.4 15.9 A 0.072 0.072 0 0 0 8.42 15.898 Q 8.442 15.892 8.448 15.869 A 0.074 0.074 0 0 0 8.45 15.85 L 8.45 15.8 A 0.061 0.061 0 0 0 8.44 15.777 Q 8.369 15.657 7.8 15 A 23.633 23.633 0 0 1 7.172 14.313 Q 6.259 13.271 6.028 12.69 A 0.947 0.947 0 0 1 5.95 12.35 A 0.3 0.3 0 0 1 5.952 12.317 Q 5.956 12.284 5.968 12.267 A 0.038 0.038 0 0 1 6 12.25 A 0.206 0.206 0 0 1 6.105 12.296 Q 6.376 12.485 7.1 13.45 A 7.391 7.391 0 0 0 7.173 13.546 Q 7.352 13.776 7.797 14.328 A 208.755 208.755 0 0 0 7.875 14.425 A 7.951 7.951 0 0 0 8.097 14.689 Q 8.421 15.057 8.618 15.16 A 0.295 0.295 0 0 0 8.75 15.2 A 0.333 0.333 0 0 0 8.803 15.197 Q 8.9 15.181 8.9 15.1 Q 8.9 14.888 7.922 13.733 A 41.665 41.665 0 0 0 7.55 13.3 Q 6.268 11.821 6.056 11.411 A 0.869 0.869 0 0 1 6.05 11.4 A 0.834 0.834 0 0 1 5.996 11.266 Q 5.959 11.14 5.975 11.025 Q 6 10.85 6.1 10.85 A 0.128 0.128 0 0 1 6.161 10.884 Q 6.341 11.029 6.963 11.793 A 43.488 43.488 0 0 1 7.05 11.9 A 31.726 31.726 0 0 0 7.536 12.522 Q 8.563 13.8 8.85 13.8 A 0.3 0.3 0 0 0 8.884 13.799 Q 8.917 13.795 8.934 13.783 A 0.038 0.038 0 0 0 8.95 13.75 A 0.202 0.202 0 0 0 8.928 13.671 Q 8.848 13.496 8.477 13.104 A 9.783 9.783 0 0 0 8.45 13.075 A 33.963 33.963 0 0 1 8.216 12.827 Q 7.888 12.475 7.7 12.25 Q 6.532 10.649 6.057 9.872 A 7.736 7.736 0 0 1 5.925 9.65 Q 5.508 8.914 5.501 8.563 A 0.593 0.593 0 0 1 5.5 8.55 A 0.158 0.158 0 0 1 5.515 8.481 Q 5.554 8.4 5.7 8.4 A 0.22 0.22 0 0 1 5.824 8.466 Q 6.157 8.747 7.05 10.25 A 46.461 46.461 0 0 0 7.629 11.146 Q 8.697 12.752 9.138 13.038 A 0.317 0.317 0 0 0 9.3 13.1 A 0.144 0.144 0 0 0 9.34 13.096 Q 9.384 13.083 9.396 13.038 A 0.147 0.147 0 0 0 9.4 13 A 0.245 0.245 0 0 0 9.382 12.919 Q 9.316 12.741 9.011 12.339 A 9.536 9.536 0 0 0 9 12.325 Q 8.6 11.8 8.45 11.55 A 102.432 102.432 0 0 1 8.049 11.004 Q 7.659 10.469 7.369 10.053 A 31.312 31.312 0 0 1 7.125 9.7 A 5.029 5.029 0 0 1 6.918 9.369 Q 6.73 9.04 6.674 8.794 A 0.877 0.877 0 0 1 6.65 8.6 A 0.216 0.216 0 0 1 6.658 8.541 Q 6.684 8.45 6.8 8.45 A 0.079 0.079 0 0 1 6.84 8.475 Q 7.032 8.644 7.95 10 Q 9.536 12.428 9.845 12.45 A 0.078 0.078 0 0 0 9.85 12.45 A 0.3 0.3 0 0 0 9.884 12.449 Q 9.917 12.445 9.934 12.433 A 0.038 0.038 0 0 0 9.95 12.4 A 0.347 0.347 0 0 0 9.912 12.28 Q 9.735 11.895 8.75 10.5 Q 7.664 8.996 7.486 8.539 A 0.418 0.418 0 0 1 7.45 8.4 A 0.216 0.216 0 0 1 7.458 8.341 Q 7.484 8.25 7.6 8.25 Q 7.746 8.25 8.106 8.772 A 6.899 6.899 0 0 1 8.125 8.8 A 12.868 12.868 0 0 1 8.652 9.643 A 15.031 15.031 0 0 1 8.85 10 A 3.005 3.005 0 0 1 8.929 10.112 Q 9.055 10.297 9.279 10.661 A 45.022 45.022 0 0 1 9.425 10.9 Q 9.82 11.55 9.977 11.597 A 0.081 0.081 0 0 0 10 11.6 A 0.144 0.144 0 0 0 10.04 11.596 Q 10.084 11.583 10.096 11.538 A 0.147 0.147 0 0 0 10.1 11.5 A 0.3 0.3 0 0 0 10.083 11.417 Q 10.025 11.234 9.771 10.768 A 18.899 18.899 0 0 0 9.65 10.55 A 28.616 28.616 0 0 1 9.413 10.1 Q 8.979 9.258 8.952 9.028 A 0.241 0.241 0 0 1 8.95 9 A 0.955 0.955 0 0 1 8.953 8.922 Q 8.964 8.795 9.012 8.762 A 0.066 0.066 0 0 1 9.05 8.75 Q 9.193 8.75 9.964 10.414 A 56.351 56.351 0 0 1 10.05 10.6 A 70.453 70.453 0 0 0 10.192 10.893 Q 10.607 11.748 10.686 11.84 A 0.026 0.026 0 0 0 10.7 11.85 A 0.158 0.158 0 0 0 10.77 11.836 Q 10.85 11.797 10.85 11.65 A 0.575 0.575 0 0 0 10.828 11.516 Q 10.746 11.206 10.376 10.384 A 37.296 37.296 0 0 0 10.2 10 A 9.113 9.113 0 0 1 10.119 9.833 Q 10.029 9.643 9.912 9.38 A 37.003 37.003 0 0 1 9.8 9.125 A 10.451 10.451 0 0 1 9.716 8.925 Q 9.551 8.523 9.55 8.401 A 0.216 0.216 0 0 1 9.558 8.341 Q 9.584 8.25 9.7 8.25 Q 9.827 8.25 10.308 9.261 A 28.34 28.34 0 0 1 10.5 9.675 Q 11.15 11.1 11.25 11.3 A 1.84 1.84 0 0 0 11.337 11.408 Q 11.438 11.523 11.525 11.575 Q 11.65 11.65 11.65 11.55 Q 11.65 11.45 11.3 10.3 Q 11.2 10 10.775 8.5 Q 10.449 7.347 10.373 6.666 A 3.353 3.353 0 0 1 10.35 6.3 Q 10.35 6.122 10.403 6.05 A 0.114 0.114 0 0 1 10.5 6 A 0.107 0.107 0 0 1 10.573 6.041 Q 10.69 6.163 10.853 6.652 A 8.508 8.508 0 0 1 10.9 6.8 Q 11.15 7.6 11.35 8.55 A 4.851 4.851 0 0 1 11.401 8.715 Q 11.505 9.069 11.7 9.85 Q 11.914 10.703 12.054 10.829 A 0.072 0.072 0 0 0 12.1 10.85 Q 12.281 10.85 12.299 10.647 A 0.539 0.539 0 0 0 12.3 10.6 Q 12.3 10.473 12.083 9.657 A 53.787 53.787 0 0 0 12 9.35 A 17.423 17.423 0 0 1 11.658 8.2 Q 11.362 7.054 11.351 6.215 A 4.911 4.911 0 0 1 11.35 6.15 Q 11.35 5.6 11.45 5.6 A 0.206 0.206 0 0 1 11.594 5.668 Q 11.76 5.83 11.9 6.375 Q 12.1 7.15 12.4 8.65 Q 12.638 10.026 12.74 10.097 A 0.019 0.019 0 0 0 12.75 10.1 Q 12.935 10.1 12.949 9.633 A 2.684 2.684 0 0 0 12.95 9.55 Q 12.95 9.226 12.822 8.429 A 26.994 26.994 0 0 0 12.8 8.3 A 190.341 190.341 0 0 1 12.742 7.851 Q 12.56 6.441 12.551 6.174 A 0.737 0.737 0 0 1 12.55 6.15 A 7.537 7.537 0 0 1 12.554 5.906 Q 12.57 5.416 12.656 5.322 A 0.06 0.06 0 0 1 12.7 5.3 A 0.12 0.12 0 0 1 12.789 5.361 Q 12.95 5.579 13.125 6.575 Q 13.35 7.85 13.35 9.1 Q 13.35 9.368 13.39 9.577 A 1.705 1.705 0 0 0 13.4 9.625 Q 13.45 9.85 13.6 9.85 A 0.079 0.079 0 0 0 13.666 9.801 Q 13.75 9.652 13.75 9.05 A 8.594 8.594 0 0 0 13.744 8.741 Q 13.725 8.225 13.65 7.4 Z M 0 38.5 L 0 3 A 2.89 2.89 0 0 1 0.848 0.903 A 3.442 3.442 0 0 1 0.875 0.875 A 2.889 2.889 0 0 1 2.961 0.001 A 3.547 3.547 0 0 1 3 0 L 26 0 A 2.89 2.89 0 0 1 28.098 0.848 A 3.442 3.442 0 0 1 28.125 0.875 A 2.889 2.889 0 0 1 29 2.961 A 3.547 3.547 0 0 1 29 3 L 29 38.5 A 2.89 2.89 0 0 1 28.153 40.598 A 3.442 3.442 0 0 1 28.125 40.625 A 2.889 2.889 0 0 1 26.039 41.5 A 3.547 3.547 0 0 1 26 41.5 L 3 41.5 A 2.89 2.89 0 0 1 0.903 40.653 A 3.442 3.442 0 0 1 0.875 40.625 A 2.889 2.889 0 0 1 0.001 38.539 A 3.547 3.547 0 0 1 0 38.5 Z M 3 40 L 26 40 A 1.628 1.628 0 0 0 26.542 39.914 A 1.403 1.403 0 0 0 27.075 39.575 A 1.436 1.436 0 0 0 27.498 38.602 A 1.91 1.91 0 0 0 27.5 38.5 L 27.5 3 A 1.628 1.628 0 0 0 27.414 2.459 A 1.403 1.403 0 0 0 27.075 1.925 A 1.436 1.436 0 0 0 26.102 1.503 A 1.91 1.91 0 0 0 26 1.5 L 3 1.5 A 1.628 1.628 0 0 0 2.459 1.587 A 1.403 1.403 0 0 0 1.925 1.925 A 1.436 1.436 0 0 0 1.503 2.899 A 1.91 1.91 0 0 0 1.5 3 L 1.5 38.5 A 1.628 1.628 0 0 0 1.587 39.042 A 1.403 1.403 0 0 0 1.925 39.575 A 1.436 1.436 0 0 0 2.899 39.998 A 1.91 1.91 0 0 0 3 40 Z M 10.3 27.55 L 10.25 29.35 A 5.75 5.75 0 0 0 10.268 29.818 Q 10.317 30.413 10.5 30.725 A 0.825 0.825 0 0 0 11.072 31.124 A 1.37 1.37 0 0 0 11.35 31.15 A 1.59 1.59 0 0 0 11.603 31.127 Q 11.972 31.067 12.55 30.85 Q 13.17 30.575 13.672 30.489 A 2.548 2.548 0 0 1 14.1 30.45 L 14.75 30.5 Q 15.117 30.5 15.336 30.207 A 0.97 0.97 0 0 0 15.375 30.15 A 1.424 1.424 0 0 0 15.598 29.448 A 1.737 1.737 0 0 0 15.6 29.35 A 0.619 0.619 0 0 0 15.516 29.047 Q 15.409 28.855 15.166 28.662 A 2.314 2.314 0 0 0 15.15 28.65 A 2.132 2.132 0 0 0 14.864 28.46 Q 14.701 28.372 14.546 28.332 A 0.995 0.995 0 0 0 14.3 28.3 A 0.899 0.899 0 0 0 13.695 28.533 A 1.156 1.156 0 0 0 13.675 28.55 A 3.651 3.651 0 0 0 13.478 28.746 Q 13.28 28.955 13.05 29.25 Q 12.8 29.55 12.5 29.825 Q 12.28 30.028 12.06 30.081 A 0.671 0.671 0 0 1 11.9 30.1 A 0.649 0.649 0 0 1 11.382 29.856 A 1.008 1.008 0 0 1 11.275 29.7 A 1.766 1.766 0 0 1 11.055 28.939 A 2.134 2.134 0 0 1 11.05 28.8 A 2.701 2.701 0 0 1 11.08 28.423 Q 11.135 28.033 11.295 27.521 A 9.689 9.689 0 0 1 11.35 27.35 A 41.308 41.308 0 0 0 11.435 26.951 Q 11.6 26.154 11.6 25.95 A 2.782 2.782 0 0 0 11.583 25.629 Q 11.545 25.296 11.418 25.108 A 0.589 0.589 0 0 0 11.325 25 A 1.446 1.446 0 0 0 11.003 24.776 A 1.232 1.232 0 0 0 10.725 24.675 A 3.604 3.604 0 0 1 10.632 24.653 Q 10.4 24.593 10.4 24.55 A 0.301 0.301 0 0 1 10.492 24.489 A 0.37 0.37 0 0 1 10.525 24.475 Q 10.596 24.452 10.688 24.451 A 0.782 0.782 0 0 1 10.7 24.45 A 1.004 1.004 0 0 1 10.964 24.483 A 0.762 0.762 0 0 1 11.275 24.65 A 2.943 2.943 0 0 1 11.451 24.822 Q 11.604 24.982 11.775 25.2 A 2.612 2.612 0 0 0 11.882 25.328 Q 12.044 25.509 12.153 25.543 A 0.161 0.161 0 0 0 12.2 25.55 Q 12.3 25.55 12.7 25.025 Q 13.1 24.5 13.65 24.125 Q 14.121 23.805 14.847 23.758 A 3.971 3.971 0 0 1 15.1 23.75 Q 15.671 23.75 16.051 23.954 A 1.281 1.281 0 0 1 16.325 24.15 A 4.172 4.172 0 0 1 16.939 24.883 A 4.846 4.846 0 0 1 17.075 25.1 Q 17.394 25.64 17.545 25.65 A 0.085 0.085 0 0 0 17.55 25.65 Q 17.724 25.65 18.199 25.481 A 10.129 10.129 0 0 0 18.35 25.425 Q 18.841 25.242 19.833 25.208 A 13.855 13.855 0 0 1 20.3 25.2 Q 21.25 25.2 22.425 25.925 A 6.373 6.373 0 0 1 24.063 27.394 A 7.708 7.708 0 0 1 24.45 27.925 A 5.081 5.081 0 0 1 25.293 30.544 A 6.21 6.21 0 0 1 25.3 30.85 Q 25.3 31.197 25.271 31.395 A 1.122 1.122 0 0 1 25.25 31.5 Q 25.205 31.681 25.16 31.739 A 0.117 0.117 0 0 1 25.15 31.75 L 24.05 31.6 A 27.945 27.945 0 0 0 22.454 31.326 Q 21.68 31.218 21.003 31.176 A 13.135 13.135 0 0 0 20.2 31.15 Q 18.513 31.15 17.743 31.188 A 10.824 10.824 0 0 0 17.525 31.2 A 25.579 25.579 0 0 1 17.013 31.231 Q 16.813 31.241 16.635 31.246 A 12.252 12.252 0 0 1 16.3 31.25 A 3.008 3.008 0 0 1 16.012 31.235 Q 15.597 31.194 14.95 31.05 A 4.507 4.507 0 0 0 14.787 31.013 Q 14.713 30.997 14.629 30.982 A 9.618 9.618 0 0 0 14.45 30.95 A 3.658 3.658 0 0 0 14.056 30.907 A 4.522 4.522 0 0 0 13.8 30.9 A 0.724 0.724 0 0 0 13.666 30.916 Q 13.381 30.972 12.775 31.225 A 5.907 5.907 0 0 1 12.329 31.393 Q 11.848 31.55 11.5 31.55 L 10.5 31.45 Q 9.8 31.3 9.2 31.3 A 18.102 18.102 0 0 0 6.48 31.495 A 13.137 13.137 0 0 0 3.75 32.2 A 1.965 1.965 0 0 1 3.657 31.722 A 2.326 2.326 0 0 1 3.65 31.55 A 5.541 5.541 0 0 1 4.012 29.538 A 5.229 5.229 0 0 1 4.35 28.825 A 6.487 6.487 0 0 1 5.241 27.606 A 5.455 5.455 0 0 1 6.075 26.875 A 4.696 4.696 0 0 1 6.803 26.448 Q 7.242 26.243 7.667 26.18 A 2.575 2.575 0 0 1 8.05 26.15 A 2.922 2.922 0 0 1 8.667 26.214 A 2.519 2.519 0 0 1 8.975 26.3 A 6.431 6.431 0 0 0 9.148 26.359 Q 9.395 26.438 9.516 26.449 A 0.395 0.395 0 0 0 9.55 26.45 Q 9.8 26.45 9.8 26.3 A 0.929 0.929 0 0 0 9.756 26.222 Q 9.713 26.154 9.65 26.075 A 1.821 1.821 0 0 1 9.582 25.985 Q 9.551 25.941 9.527 25.9 A 0.859 0.859 0 0 1 9.5 25.85 A 1.374 1.374 0 0 1 9.503 25.756 Q 9.513 25.615 9.555 25.571 A 0.06 0.06 0 0 1 9.6 25.55 Q 9.8 25.55 10.05 26.125 A 2.767 2.767 0 0 1 10.221 26.681 Q 10.3 27.072 10.3 27.55 Z M 17.95 28.55 L 17.85 28.5 A 0.223 0.223 0 0 1 17.909 28.355 Q 17.977 28.274 18.125 28.204 A 1.561 1.561 0 0 1 18.25 28.15 A 14.582 14.582 0 0 1 18.674 27.981 Q 18.873 27.906 19.048 27.847 A 6.596 6.596 0 0 1 19.275 27.775 A 8.169 8.169 0 0 0 19.474 27.715 Q 19.68 27.648 19.816 27.589 A 1.657 1.657 0 0 0 19.9 27.55 Q 20.035 27.483 20.079 27.416 A 0.119 0.119 0 0 0 20.1 27.35 Q 20.1 27.208 19.874 27.201 A 0.774 0.774 0 0 0 19.85 27.2 Q 19.572 27.2 18.907 27.437 A 11.506 11.506 0 0 0 18.8 27.475 A 19.389 19.389 0 0 1 18.54 27.569 Q 18.051 27.74 17.915 27.75 A 0.212 0.212 0 0 1 17.9 27.75 A 0.687 0.687 0 0 1 17.853 27.749 Q 17.75 27.742 17.75 27.7 Q 17.75 27.55 18.725 27.1 Q 19.685 26.658 19.7 26.554 A 0.022 0.022 0 0 0 19.7 26.55 A 0.158 0.158 0 0 0 19.686 26.481 Q 19.647 26.4 19.5 26.4 A 0.442 0.442 0 0 0 19.392 26.418 Q 19.142 26.485 18.55 26.8 A 15.958 15.958 0 0 1 18.29 26.936 Q 17.801 27.186 17.665 27.2 A 0.146 0.146 0 0 1 17.65 27.2 A 0.144 0.144 0 0 1 17.611 27.196 Q 17.567 27.183 17.555 27.138 A 0.147 0.147 0 0 1 17.55 27.1 A 0.233 0.233 0 0 1 17.605 26.965 Q 17.729 26.798 18.137 26.574 A 6.54 6.54 0 0 1 18.425 26.425 Q 19.174 26.062 19.282 25.9 A 0.092 0.092 0 0 0 19.3 25.85 Q 19.3 25.708 19.074 25.701 A 0.774 0.774 0 0 0 19.05 25.7 A 1.69 1.69 0 0 0 18.555 25.781 Q 18.339 25.847 18.104 25.968 A 4.247 4.247 0 0 0 17.675 26.225 A 100.511 100.511 0 0 1 17.492 26.349 Q 16.917 26.737 16.81 26.795 A 0.311 0.311 0 0 1 16.8 26.8 Q 16.6 26.8 16.6 26.6 A 0.087 0.087 0 0 1 16.607 26.574 Q 16.628 26.513 16.727 26.352 A 6.466 6.466 0 0 1 16.775 26.275 Q 16.95 26 16.95 25.9 Q 16.95 25.65 16.65 25.65 A 0.376 0.376 0 0 0 16.488 25.698 Q 16.165 25.861 15.522 26.576 A 14.299 14.299 0 0 0 15.5 26.6 A 27.223 27.223 0 0 0 15.301 26.825 Q 14.789 27.411 14.68 27.617 A 0.205 0.205 0 0 0 14.65 27.7 A 0.157 0.157 0 0 0 14.681 27.787 Q 14.765 27.911 15.075 28.075 A 3.249 3.249 0 0 1 15.536 28.369 A 2.697 2.697 0 0 1 15.8 28.6 Q 16.049 28.849 16.092 29.303 A 2.11 2.11 0 0 1 16.1 29.5 A 1.433 1.433 0 0 1 16.072 29.777 Q 16.045 29.912 15.994 30.059 A 2.72 2.72 0 0 1 15.95 30.175 Q 15.84 30.453 15.701 30.635 A 1.143 1.143 0 0 1 15.6 30.75 L 16.35 30.85 Q 16.95 30.85 17.75 30.7 A 22.018 22.018 0 0 1 20.155 30.43 A 18.959 18.959 0 0 1 21.2 30.4 A 4.403 4.403 0 0 0 21.417 30.396 Q 21.92 30.371 21.949 30.219 A 0.101 0.101 0 0 0 21.95 30.2 Q 21.95 29.83 21.274 29.765 A 3.366 3.366 0 0 0 20.95 29.75 A 2.371 2.371 0 0 0 20.774 29.759 Q 20.329 29.794 19.158 29.969 A 98.287 98.287 0 0 0 18.95 30 Q 17.85 30.2 17.7 30.2 A 1.252 1.252 0 0 1 17.643 30.199 Q 17.5 30.193 17.5 30.15 Q 17.5 29.9 18.85 29.6 A 23.452 23.452 0 0 1 19.479 29.469 Q 20.35 29.3 20.8 29.3 A 2.201 2.201 0 0 0 20.989 29.293 Q 21.305 29.266 21.378 29.137 A 0.172 0.172 0 0 0 21.4 29.05 A 0.49 0.49 0 0 0 21.394 28.965 Q 21.371 28.839 21.275 28.8 A 0.49 0.49 0 0 0 21.197 28.777 Q 21.071 28.75 20.85 28.75 Q 20.433 28.75 19.641 28.923 A 18.522 18.522 0 0 0 19.1 29.05 A 7.106 7.106 0 0 1 18.682 29.177 Q 18.27 29.286 17.975 29.299 A 1.755 1.755 0 0 1 17.9 29.3 A 0.333 0.333 0 0 1 17.848 29.297 Q 17.75 29.281 17.75 29.2 A 0.071 0.071 0 0 1 17.783 29.154 Q 17.89 29.066 18.346 28.904 A 12.706 12.706 0 0 1 18.575 28.825 A 9.349 9.349 0 0 1 19.529 28.561 A 7.587 7.587 0 0 1 20.15 28.45 Q 20.475 28.41 20.602 28.369 A 0.344 0.344 0 0 0 20.65 28.35 Q 20.743 28.304 20.75 28.171 A 0.42 0.42 0 0 0 20.75 28.15 Q 20.75 28.017 20.514 28.002 A 1.01 1.01 0 0 0 20.45 28 A 1.952 1.952 0 0 0 20.206 28.018 Q 19.947 28.051 19.575 28.147 A 11.3 11.3 0 0 0 19.2 28.25 Q 18.35 28.5 17.95 28.55 Z M 14.448 36.786 A 0.092 0.092 0 0 0 14.5 36.8 A 0.336 0.336 0 0 0 14.525 36.8 Q 14.717 36.785 15.044 36.556 A 4.141 4.141 0 0 0 15.25 36.4 A 24.319 24.319 0 0 1 15.302 36.359 Q 15.671 36.066 15.77 36.012 A 0.081 0.081 0 0 1 15.8 36 A 4.864 4.864 0 0 1 15.986 36.004 A 4.269 4.269 0 0 1 16.75 36.1 A 6.957 6.957 0 0 0 16.893 36.131 Q 17.118 36.176 17.284 36.192 A 1.753 1.753 0 0 0 17.45 36.2 Q 17.601 36.2 17.661 36.164 A 0.072 0.072 0 0 0 17.7 36.1 A 0.069 0.069 0 0 0 17.698 36.081 Q 17.689 36.052 17.657 36.024 A 0.304 0.304 0 0 0 17.625 36 A 0.354 0.354 0 0 1 17.612 35.991 Q 17.55 35.946 17.55 35.9 A 2.464 2.464 0 0 0 17.169 35.725 A 3.268 3.268 0 0 0 16.725 35.6 A 2.712 2.712 0 0 1 16.634 35.58 Q 16.383 35.518 16.227 35.424 A 0.635 0.635 0 0 1 16.075 35.3 A 0.334 0.334 0 0 1 16.046 35.261 Q 15.935 35.088 15.909 34.652 A 5 5 0 0 1 15.9 34.35 Q 15.9 34 15.95 33.575 Q 16 33.15 16 32.8 A 0.323 0.323 0 0 0 15.931 32.596 Q 15.887 32.539 15.814 32.493 A 0.793 0.793 0 0 0 15.675 32.425 A 3.156 3.156 0 0 0 15.614 32.402 Q 15.331 32.3 15.15 32.3 L 15 32.3 A 0.107 0.107 0 0 0 14.982 32.302 Q 14.913 32.314 14.942 32.424 A 0.443 0.443 0 0 0 14.95 32.45 A 21.227 21.227 0 0 1 15.03 32.917 Q 15.107 33.399 15.135 33.748 A 4.487 4.487 0 0 1 15.15 34.1 A 1.665 1.665 0 0 1 15.129 34.372 A 1.157 1.157 0 0 1 14.775 35.05 A 3.539 3.539 0 0 1 14.694 35.124 Q 14.34 35.435 13.825 35.725 A 4.196 4.196 0 0 0 13.681 35.811 Q 13.25 36.077 13.25 36.25 Q 13.25 36.367 13.341 36.393 A 0.216 0.216 0 0 0 13.4 36.4 A 0.405 0.405 0 0 0 13.443 36.398 Q 13.602 36.381 13.911 36.248 A 6.209 6.209 0 0 0 14.125 36.15 A 13.805 13.805 0 0 1 14.303 36.067 Q 14.686 35.891 14.85 35.85 A 0.204 0.204 0 0 1 14.862 35.851 Q 15.021 35.86 14.811 36.127 A 2.237 2.237 0 0 1 14.75 36.2 A 12.386 12.386 0 0 0 14.642 36.328 Q 14.441 36.57 14.4 36.65 A 0.346 0.346 0 0 0 14.403 36.697 Q 14.412 36.762 14.448 36.786 Z M 10.291 36.793 A 0.216 0.216 0 0 0 10.35 36.8 Q 10.65 36.8 11.45 36.25 Q 12.1 35.804 12.354 35.654 A 1.655 1.655 0 0 1 12.45 35.6 A 0.054 0.054 0 0 1 12.452 35.6 Q 12.494 35.602 12.631 35.666 A 3.534 3.534 0 0 1 12.7 35.7 A 1.268 1.268 0 0 0 12.804 35.747 Q 12.868 35.772 12.926 35.785 A 0.557 0.557 0 0 0 13.05 35.8 Q 13.1 35.8 13.175 35.75 A 0.354 0.354 0 0 0 13.189 35.741 Q 13.25 35.696 13.25 35.65 A 0.367 0.367 0 0 0 13.21 35.491 Q 13.115 35.295 12.8 35.05 Q 12.875 34.825 12.936 34.446 A 9.305 9.305 0 0 0 12.975 34.175 Q 13.022 33.816 13.059 33.525 A 132.656 132.656 0 0 0 13.1 33.2 A 4.252 4.252 0 0 0 13.1 33.114 Q 13.094 32.838 13.05 32.75 A 0.168 0.168 0 0 0 13.032 32.722 Q 12.959 32.629 12.7 32.5 A 2.44 2.44 0 0 0 12.674 32.488 Q 12.493 32.4 12.35 32.368 A 0.698 0.698 0 0 0 12.2 32.35 A 0.346 0.346 0 0 0 12.154 32.353 Q 12.089 32.362 12.065 32.398 A 0.092 0.092 0 0 0 12.05 32.45 A 0.518 0.518 0 0 0 12.053 32.5 Q 12.063 32.592 12.1 32.778 A 9.883 9.883 0 0 0 12.125 32.9 Q 12.2 33.25 12.2 33.65 Q 12.2 34.55 12.075 34.75 A 0.44 0.44 0 0 1 11.941 34.885 Q 11.872 34.931 11.78 34.96 A 1.089 1.089 0 0 1 11.6 35 A 17.796 17.796 0 0 0 11.393 35.023 Q 9.65 35.222 9.65 35.6 A 0.076 0.076 0 0 0 9.684 35.665 Q 9.717 35.69 9.784 35.697 A 0.601 0.601 0 0 0 9.85 35.7 Q 9.963 35.7 10.188 35.658 A 6.47 6.47 0 0 0 10.35 35.625 Q 10.7 35.55 11.1 35.55 Q 11.2 35.55 11.2 35.6 A 0.013 0.013 0 0 1 11.2 35.603 Q 11.191 35.653 10.818 36.013 A 21.814 21.814 0 0 1 10.7 36.125 A 24.308 24.308 0 0 0 10.649 36.175 Q 10.282 36.525 10.215 36.621 A 0.068 0.068 0 0 0 10.2 36.65 Q 10.2 36.767 10.291 36.793 Z M 24 20.8 L 22.95 21.35 A 87.246 87.246 0 0 0 22.605 21.524 Q 22.014 21.823 21.843 21.924 A 0.977 0.977 0 0 0 21.8 21.95 A 45.843 45.843 0 0 0 20.525 22.782 A 33.932 33.932 0 0 0 19.4 23.575 Q 18.35 24.35 18.25 24.35 A 0.046 0.046 0 0 1 18.224 24.343 Q 18.206 24.331 18.202 24.299 A 0.173 0.173 0 0 1 18.2 24.275 A 0.118 0.118 0 0 1 18.211 24.231 Q 18.24 24.161 18.35 24.05 A 19.488 19.488 0 0 1 19.958 22.513 A 15.18 15.18 0 0 1 21.4 21.425 Q 22.588 20.64 23.365 20.456 A 1.905 1.905 0 0 1 23.8 20.4 Q 24.05 20.4 24.1 20.575 A 0.36 0.36 0 0 1 24.109 20.611 Q 24.13 20.731 24.041 20.783 A 0.223 0.223 0 0 1 24 20.8 Z M 9.523 23.292 A 0.062 0.062 0 0 0 9.55 23.3 Q 9.631 23.3 9.647 23.203 A 0.333 0.333 0 0 0 9.65 23.15 L 9.45 22.55 A 6.797 6.797 0 0 0 9.08 21.922 A 5.502 5.502 0 0 0 7.8 20.55 A 12.041 12.041 0 0 0 7.522 20.347 Q 7.107 20.055 6.715 19.833 A 6.587 6.587 0 0 0 5.925 19.45 Q 5.05 19.1 4.75 19.1 A 1.596 1.596 0 0 0 4.746 19.1 Q 4.607 19.101 4.567 19.126 A 0.029 0.029 0 0 0 4.55 19.15 A 0.058 0.058 0 0 0 4.569 19.186 Q 4.673 19.3 5.35 19.575 A 1.054 1.054 0 0 1 5.385 19.59 Q 6.21 19.96 9 22.75 A 12.013 12.013 0 0 1 9.111 22.862 Q 9.225 22.979 9.305 23.069 A 3.169 3.169 0 0 1 9.375 23.15 A 1.558 1.558 0 0 0 9.419 23.201 Q 9.484 23.272 9.523 23.292 Z M 7.715 23.61 A 0.356 0.356 0 0 0 7.85 23.65 A 0.147 0.147 0 0 0 7.888 23.646 Q 7.933 23.634 7.946 23.59 A 0.144 0.144 0 0 0 7.95 23.55 A 0.27 0.27 0 0 0 7.928 23.454 Q 7.863 23.289 7.604 22.994 A 6.6 6.6 0 0 0 7.425 22.8 A 4.394 4.394 0 0 0 7.35 22.723 Q 7.081 22.455 6.74 22.205 A 7.242 7.242 0 0 0 6.075 21.775 A 4.45 4.45 0 0 0 5.687 21.576 A 3.624 3.624 0 0 0 4.4 21.25 Q 4 21.25 4 21.35 Q 4 21.394 4.69 21.706 A 35.098 35.098 0 0 0 4.9 21.8 Q 5.463 22.05 5.889 22.3 A 5.648 5.648 0 0 1 6.35 22.6 A 27.299 27.299 0 0 0 6.684 22.876 Q 7.419 23.474 7.715 23.61 Z M 11.25 15.85 A 1.395 1.395 0 0 0 12.262 15.439 A 1.697 1.697 0 0 0 12.275 15.425 A 1.652 1.652 0 0 0 12.53 15.103 A 1.162 1.162 0 0 0 12.7 14.5 Q 12.7 13.9 12.275 13.45 A 1.694 1.694 0 0 0 11.974 13.194 A 1.12 1.12 0 0 0 11.35 13 Q 10.7 13 10.2 13.4 A 1.3 1.3 0 0 0 9.706 14.351 A 1.83 1.83 0 0 0 9.7 14.5 A 1.623 1.623 0 0 0 9.747 14.901 A 1.04 1.04 0 0 0 10.175 15.525 Q 10.65 15.85 11.25 15.85 Z M 13.8 19.05 A 1.421 1.421 0 0 0 14.229 18.989 A 1.11 1.11 0 0 0 14.8 18.575 A 2.369 2.369 0 0 0 14.985 18.286 Q 15.15 17.975 15.15 17.7 A 1.605 1.605 0 0 0 15.093 17.256 A 1.121 1.121 0 0 0 14.6 16.6 A 2.249 2.249 0 0 0 13.948 16.313 A 2.004 2.004 0 0 0 13.45 16.25 A 1.14 1.14 0 0 0 12.597 16.62 A 1.538 1.538 0 0 0 12.525 16.7 Q 12.15 17.15 12.15 17.75 A 1.214 1.214 0 0 0 12.514 18.64 A 1.466 1.466 0 0 0 12.55 18.675 A 1.214 1.214 0 0 0 12.968 18.925 Q 13.309 19.05 13.8 19.05 Z M 15.2 16 A 1.22 1.22 0 0 0 15.532 15.951 Q 15.682 15.909 15.845 15.83 A 2.999 2.999 0 0 0 16.125 15.675 A 1.011 1.011 0 0 0 16.542 15.149 Q 16.65 14.859 16.65 14.45 A 1.911 1.911 0 0 0 16.621 14.099 Q 16.541 13.675 16.25 13.475 A 1.93 1.93 0 0 0 15.981 13.319 Q 15.73 13.2 15.5 13.2 A 1.856 1.856 0 0 0 15.043 13.262 Q 14.837 13.314 14.614 13.411 A 3.86 3.86 0 0 0 14.375 13.525 A 1.245 1.245 0 0 0 14.013 13.8 Q 13.787 14.055 13.756 14.426 A 1.46 1.46 0 0 0 13.75 14.55 A 1.352 1.352 0 0 0 14.166 15.542 A 1.724 1.724 0 0 0 14.2 15.575 A 1.662 1.662 0 0 0 14.598 15.858 A 1.331 1.331 0 0 0 15.2 16 Z M 20.223 23.934 A 1.385 1.385 0 0 0 20.15 24 Q 20.106 24.134 20.46 23.989 A 3.39 3.39 0 0 0 20.55 23.95 L 23.175 22.825 A 11.311 11.311 0 0 0 23.348 22.75 Q 23.885 22.509 24.012 22.374 A 0.117 0.117 0 0 0 24.05 22.3 A 0.091 0.091 0 0 0 24.02 22.233 Q 23.934 22.15 23.6 22.15 A 1.349 1.349 0 0 0 23.507 22.154 Q 23.03 22.187 22.325 22.55 A 12.588 12.588 0 0 0 21.81 22.831 A 10.435 10.435 0 0 0 20.925 23.4 Q 20.418 23.766 20.223 23.934 Z M 10.1 19.1 A 3.152 3.152 0 0 0 10.488 19.078 Q 11.065 19.007 11.275 18.7 Q 11.55 18.3 11.55 17.9 A 1.312 1.312 0 0 0 11.213 17.02 A 1.756 1.756 0 0 0 11.125 16.925 A 1.395 1.395 0 0 0 10.119 16.501 A 1.685 1.685 0 0 0 10.1 16.5 Q 9.674 16.5 9.248 16.815 A 2.283 2.283 0 0 0 9.2 16.85 A 1.079 1.079 0 0 0 8.843 17.368 Q 8.779 17.553 8.76 17.782 A 2.524 2.524 0 0 0 8.75 18 A 0.926 0.926 0 0 0 8.824 18.354 Q 8.876 18.479 8.963 18.608 A 1.906 1.906 0 0 0 9.05 18.725 A 0.88 0.88 0 0 0 9.415 18.988 Q 9.565 19.05 9.756 19.077 A 2.395 2.395 0 0 0 10.1 19.1 Z M 15.9 22.35 A 1.789 1.789 0 0 0 16.584 22.21 A 2.346 2.346 0 0 0 16.9 22.05 Q 17.4 21.75 17.4 20.85 A 1.115 1.115 0 0 0 17.35 20.504 Q 17.245 20.181 16.922 20.011 A 1.145 1.145 0 0 0 16.9 20 A 2.408 2.408 0 0 0 16.338 19.798 A 2.042 2.042 0 0 0 15.9 19.75 A 1.085 1.085 0 0 0 15.431 19.85 A 1.08 1.08 0 0 0 15.075 20.125 A 1.221 1.221 0 0 0 14.837 20.565 Q 14.78 20.745 14.761 20.962 A 2.666 2.666 0 0 0 14.75 21.2 Q 14.75 21.75 15.1 22.05 Q 15.45 22.35 15.9 22.35 Z M 17 18.55 A 1.557 1.557 0 0 0 17.554 18.455 A 1.42 1.42 0 0 0 17.95 18.225 Q 18.35 17.9 18.35 17.3 A 1.177 1.177 0 0 0 18.174 16.686 A 1.642 1.642 0 0 0 18 16.45 A 1.217 1.217 0 0 0 17.669 16.179 A 1.064 1.064 0 0 0 17.15 16.05 A 1.849 1.849 0 0 0 16.642 16.117 A 1.443 1.443 0 0 0 16.075 16.425 A 1.38 1.38 0 0 0 15.812 16.731 A 1.06 1.06 0 0 0 15.65 17.3 Q 15.65 17.85 16.05 18.2 Q 16.45 18.55 17 18.55 Z M 19.35 15.15 A 1.546 1.546 0 0 0 20.144 14.928 A 1.969 1.969 0 0 0 20.3 14.825 Q 20.735 14.512 20.75 13.989 A 1.316 1.316 0 0 0 20.75 13.95 A 1.454 1.454 0 0 0 20.525 13.176 A 1.79 1.79 0 0 0 20.475 13.1 Q 20.227 12.74 19.674 12.704 A 1.942 1.942 0 0 0 19.55 12.7 A 1.731 1.731 0 0 0 19.027 12.776 A 1.418 1.418 0 0 0 18.475 13.1 A 1.66 1.66 0 0 0 18.242 13.368 Q 18.113 13.556 18.071 13.754 A 0.936 0.936 0 0 0 18.05 13.95 A 1.28 1.28 0 0 0 18.319 14.734 A 1.606 1.606 0 0 0 18.35 14.775 A 0.91 0.91 0 0 0 18.758 15.06 Q 18.913 15.116 19.106 15.138 A 2.231 2.231 0 0 0 19.35 15.15 Z M 20.3 18.1 Q 20.85 18.1 21.275 17.85 A 0.813 0.813 0 0 0 21.65 17.352 Q 21.691 17.208 21.699 17.033 A 1.873 1.873 0 0 0 21.7 16.95 Q 21.7 16.45 21.4 16.05 A 0.969 0.969 0 0 0 20.784 15.676 A 1.501 1.501 0 0 0 20.5 15.65 A 1.501 1.501 0 0 0 19.979 15.748 Q 19.792 15.817 19.601 15.935 A 2.592 2.592 0 0 0 19.575 15.95 Q 19.1 16.25 19.1 16.9 Q 19.1 17.4 19.425 17.75 A 1.076 1.076 0 0 0 20.078 18.085 A 1.527 1.527 0 0 0 20.3 18.1 Z M 12.95 22.1 A 1.483 1.483 0 0 0 13.267 22.069 Q 13.586 21.999 13.775 21.775 Q 14.05 21.45 14.05 21 Q 14.05 20.5 13.775 20.075 Q 13.568 19.755 13.061 19.676 A 2.358 2.358 0 0 0 12.7 19.65 Q 12.236 19.65 11.936 19.845 A 0.989 0.989 0 0 0 11.775 19.975 A 1.095 1.095 0 0 0 11.513 20.381 A 1.084 1.084 0 0 0 11.45 20.75 A 1.179 1.179 0 0 0 11.661 21.417 A 1.716 1.716 0 0 0 11.875 21.675 A 1.436 1.436 0 0 0 12.849 22.098 A 1.91 1.91 0 0 0 12.95 22.1 Z M 13.7 12.85 A 1.707 1.707 0 0 0 14.745 12.493 A 2.141 2.141 0 0 0 14.8 12.45 A 1.844 1.844 0 0 0 15.042 12.222 Q 15.165 12.08 15.23 11.932 A 0.822 0.822 0 0 0 15.3 11.6 Q 15.3 11.25 14.95 10.875 A 1.178 1.178 0 0 0 14.551 10.589 A 1.136 1.136 0 0 0 14.1 10.5 Q 13.5 10.5 13.025 10.85 Q 12.561 11.193 12.551 11.917 A 2.327 2.327 0 0 0 12.55 11.95 A 0.794 0.794 0 0 0 12.611 12.266 Q 12.69 12.45 12.871 12.576 A 0.992 0.992 0 0 0 12.95 12.625 A 2.039 2.039 0 0 0 13.243 12.763 Q 13.415 12.826 13.576 12.844 A 1.136 1.136 0 0 0 13.7 12.85 Z M 9.414 25.121 A 1.541 1.541 0 0 0 9.7 25.15 A 1.527 1.527 0 0 0 9.736 25.15 Q 9.888 25.147 9.957 25.112 A 0.112 0.112 0 0 0 10 25.075 Q 10.038 25.019 10.047 24.891 A 1.259 1.259 0 0 0 10.05 24.8 A 0.408 0.408 0 0 0 10.044 24.73 Q 9.983 24.383 9.35 23.75 A 15.971 15.971 0 0 0 9.208 23.61 Q 8.76 23.173 8.58 23.077 A 0.186 0.186 0 0 0 8.5 23.05 Q 8.4 23.05 8.4 23.1 A 0.125 0.125 0 0 0 8.413 23.145 Q 8.474 23.291 8.85 23.75 A 6.725 6.725 0 0 1 8.968 23.898 Q 9.211 24.213 9.277 24.39 A 0.329 0.329 0 0 1 9.3 24.5 A 0.147 0.147 0 0 1 9.296 24.538 Q 9.284 24.583 9.24 24.596 A 0.144 0.144 0 0 1 9.2 24.6 Q 9.088 24.6 8.905 24.544 A 2.732 2.732 0 0 1 8.775 24.5 Q 8.5 24.4 8.2 24.4 Q 8.103 24.4 8.069 24.422 A 0.033 0.033 0 0 0 8.05 24.45 Q 8.05 24.6 8.675 24.875 Q 9.095 25.06 9.414 25.121 Z M 18.209 12.575 A 3.667 3.667 0 0 0 18.25 12.55 A 0.988 0.988 0 0 0 18.723 11.857 A 1.613 1.613 0 0 0 18.75 11.55 Q 18.75 10.45 17.6 10.45 A 2.378 2.378 0 0 0 17.074 10.503 Q 16.346 10.669 16.225 11.356 A 1.697 1.697 0 0 0 16.2 11.65 A 1.4 1.4 0 0 0 16.25 12.031 A 1.05 1.05 0 0 0 16.55 12.525 Q 16.9 12.85 17.4 12.85 Q 17.736 12.85 18.209 12.575 Z M 19.05 20.75 A 1.221 1.221 0 0 0 19.617 20.607 A 1.754 1.754 0 0 0 19.925 20.4 A 1.765 1.765 0 0 0 20.121 20.215 Q 20.35 19.957 20.35 19.7 Q 20.35 19.25 19.95 18.85 A 1.355 1.355 0 0 0 19.472 18.534 A 1.317 1.317 0 0 0 19 18.45 A 1.076 1.076 0 0 0 18.2 18.796 A 1.444 1.444 0 0 0 18.15 18.85 A 1.426 1.426 0 0 0 17.88 19.297 A 1.301 1.301 0 0 0 17.8 19.75 A 0.571 0.571 0 0 0 17.891 20.052 Q 18.003 20.234 18.251 20.408 A 2.234 2.234 0 0 0 18.275 20.425 Q 18.672 20.697 18.947 20.742 A 0.645 0.645 0 0 0 19.05 20.75 Z M 7.7 30.9 L 9.35 30.85 A 1.906 1.906 0 0 0 9.549 30.839 Q 9.668 30.827 9.8 30.8 A 1.011 1.011 0 0 0 9.885 30.78 Q 10.05 30.732 10.05 30.65 A 0.16 0.16 0 0 0 9.952 30.501 Q 9.874 30.462 9.735 30.453 A 1.347 1.347 0 0 0 9.65 30.45 A 46.246 46.246 0 0 0 9.029 30.454 Q 7.089 30.481 7.004 30.682 A 0.048 0.048 0 0 0 7 30.7 A 0.124 0.124 0 0 0 7.069 30.806 Q 7.183 30.878 7.49 30.895 A 3.788 3.788 0 0 0 7.7 30.9 Z M 23.85 24.1 L 23.85 24.15 A 0.052 0.052 0 0 1 23.818 24.193 Q 23.73 24.243 23.403 24.25 A 5.204 5.204 0 0 1 23.3 24.25 Q 22.442 24.298 21.924 24.414 A 3.807 3.807 0 0 0 21.875 24.425 A 19.755 19.755 0 0 1 21.694 24.468 Q 21.332 24.55 21.25 24.55 A 0.687 0.687 0 0 1 21.203 24.549 Q 21.1 24.542 21.1 24.5 A 0.073 0.073 0 0 1 21.131 24.454 Q 21.257 24.342 21.9 24.1 A 6.718 6.718 0 0 1 22.36 23.946 Q 22.801 23.816 23.126 23.802 A 1.78 1.78 0 0 1 23.2 23.8 Q 23.469 23.8 23.636 23.887 A 0.476 0.476 0 0 1 23.85 24.1 Z M 9.2 29.95 A 2.915 2.915 0 0 0 9.343 29.971 Q 9.505 29.99 9.621 29.981 A 0.782 0.782 0 0 0 9.675 29.975 Q 9.85 29.95 9.85 29.85 A 0.128 0.128 0 0 0 9.79 29.751 Q 9.625 29.624 9 29.55 Q 8.218 29.458 7.859 29.451 A 2.888 2.888 0 0 0 7.8 29.45 A 2.582 2.582 0 0 0 7.596 29.458 Q 7.269 29.484 7.182 29.602 A 0.161 0.161 0 0 0 7.15 29.7 Q 7.15 29.835 7.311 29.869 A 0.473 0.473 0 0 0 7.35 29.875 Q 7.549 29.9 7.797 29.9 A 3.172 3.172 0 0 0 7.8 29.9 L 8.2 29.9 A 11.958 11.958 0 0 1 8.606 29.907 Q 8.796 29.913 8.961 29.926 A 5.303 5.303 0 0 1 9.2 29.95 Z M 6.82 24.387 A 2.389 2.389 0 0 0 7.05 24.4 Q 7.15 24.4 7.15 24.35 A 0.061 0.061 0 0 0 7.132 24.314 Q 7.052 24.221 6.619 24.013 A 12.263 12.263 0 0 0 6.375 23.9 A 6.908 6.908 0 0 0 6.143 23.8 Q 5.752 23.641 5.455 23.583 A 1.609 1.609 0 0 0 5.15 23.55 A 5.204 5.204 0 0 0 5.048 23.551 Q 4.721 23.558 4.633 23.608 A 0.052 0.052 0 0 0 4.6 23.65 A 0.214 0.214 0 0 0 4.663 23.794 Q 4.808 23.956 5.29 24.092 A 5.766 5.766 0 0 0 5.625 24.175 A 23.934 23.934 0 0 0 5.772 24.207 Q 6.443 24.35 6.82 24.387 Z M 5.431 31.281 A 16.203 16.203 0 0 0 5.625 31.225 A 5.213 5.213 0 0 0 5.879 31.145 Q 6.4 30.965 6.4 30.8 A 0.133 0.133 0 0 0 6.328 30.686 Q 6.216 30.615 5.927 30.603 A 3.028 3.028 0 0 0 5.8 30.6 A 3.942 3.942 0 0 0 5.404 30.619 Q 5.004 30.66 4.748 30.789 A 1.12 1.12 0 0 0 4.725 30.8 Q 4.41 30.969 4.36 31.172 A 0.326 0.326 0 0 0 4.35 31.25 Q 4.35 31.431 4.554 31.449 A 0.539 0.539 0 0 0 4.6 31.45 Q 4.818 31.45 5.431 31.281 Z M 23.95 29.5 A 0.666 0.666 0 0 0 24.056 29.493 Q 24.242 29.463 24.25 29.315 A 0.253 0.253 0 0 0 24.25 29.3 A 0.349 0.349 0 0 0 24.061 28.996 Q 23.784 28.825 23.102 28.803 A 6.473 6.473 0 0 0 22.9 28.8 A 6.447 6.447 0 0 0 22.718 28.803 Q 22.448 28.811 22.326 28.843 A 0.428 0.428 0 0 0 22.3 28.85 A 0.182 0.182 0 0 0 22.24 28.883 Q 22.162 28.949 22.2 29.1 A 0.098 0.098 0 0 0 22.244 29.173 Q 22.365 29.274 22.826 29.362 A 6.322 6.322 0 0 0 22.9 29.375 A 13.447 13.447 0 0 0 23.229 29.43 Q 23.688 29.5 23.95 29.5 Z M 9.79 29.077 A 0.041 0.041 0 0 0 9.8 29.05 A 0.188 0.188 0 0 0 9.74 28.918 Q 9.637 28.812 9.355 28.733 A 2.387 2.387 0 0 0 9.325 28.725 Q 8.85 28.6 8.35 28.6 A 2.582 2.582 0 0 0 8.146 28.608 Q 7.819 28.634 7.732 28.752 A 0.161 0.161 0 0 0 7.7 28.85 A 0.064 0.064 0 0 0 7.729 28.897 Q 7.824 28.974 8.225 29.05 Q 8.75 29.15 9.3 29.15 Q 9.729 29.15 9.79 29.077 Z M 24.2 30.8 L 24.25 30.8 Q 24.5 30.8 24.5 30.65 A 0.289 0.289 0 0 0 24.465 30.515 Q 24.44 30.468 24.399 30.422 A 0.757 0.757 0 0 0 24.325 30.35 Q 24.15 30.2 23.95 30.15 A 3.246 3.246 0 0 0 23.497 30.072 A 4.346 4.346 0 0 0 23.05 30.05 Q 22.717 30.05 22.631 30.133 A 0.091 0.091 0 0 0 22.6 30.2 A 0.222 0.222 0 0 0 22.653 30.338 Q 22.75 30.462 23.025 30.575 Q 23.446 30.749 24.185 30.799 A 7.647 7.647 0 0 0 24.2 30.8 Z M 5.2 30.15 Q 5.6 30.15 6.075 29.975 Q 6.55 29.8 6.55 29.7 A 0.111 0.111 0 0 0 6.521 29.628 Q 6.487 29.587 6.413 29.552 A 0.78 0.78 0 0 0 6.35 29.525 A 1.153 1.153 0 0 0 6.025 29.453 A 1.069 1.069 0 0 0 5.95 29.45 A 2.891 2.891 0 0 0 5.255 29.532 A 2.64 2.64 0 0 0 5.1 29.575 A 1.403 1.403 0 0 0 4.954 29.629 Q 4.7 29.741 4.7 29.9 A 0.2 0.2 0 0 0 4.824 30.087 Q 4.921 30.136 5.095 30.147 A 1.683 1.683 0 0 0 5.2 30.15 Z M 23 28.3 A 2.544 2.544 0 0 0 23.158 28.296 Q 23.387 28.282 23.463 28.222 A 0.089 0.089 0 0 0 23.5 28.15 Q 23.5 28.052 23.306 27.929 A 1.275 1.275 0 0 0 23.3 27.925 Q 23.1 27.8 22.65 27.8 A 5.088 5.088 0 0 0 22.336 27.809 Q 21.878 27.838 21.726 27.958 A 0.177 0.177 0 0 0 21.65 28.1 A 0.1 0.1 0 0 0 21.72 28.181 Q 21.912 28.278 22.641 28.296 A 14.56 14.56 0 0 0 23 28.3 Z M 21.25 27.3 L 22.4 27.25 A 0.666 0.666 0 0 0 22.506 27.243 Q 22.692 27.213 22.7 27.065 A 0.253 0.253 0 0 0 22.7 27.05 A 0.146 0.146 0 0 0 22.681 26.981 Q 22.642 26.909 22.525 26.825 A 0.672 0.672 0 0 0 22.316 26.723 A 0.61 0.61 0 0 0 22.15 26.7 Q 21.85 26.7 21.4 26.85 A 2.427 2.427 0 0 0 21.248 26.907 Q 21.024 26.998 20.969 27.09 A 0.116 0.116 0 0 0 20.95 27.15 Q 20.95 27.284 21.187 27.299 A 1.01 1.01 0 0 0 21.25 27.3 Z M 6.2 28.9 Q 6.5 28.9 6.775 28.825 A 1.29 1.29 0 0 0 6.869 28.796 Q 7.009 28.746 7.041 28.686 A 0.076 0.076 0 0 0 7.05 28.65 A 0.101 0.101 0 0 0 7.026 28.588 Q 6.977 28.526 6.832 28.464 A 1.433 1.433 0 0 0 6.8 28.45 A 1.311 1.311 0 0 0 6.544 28.379 Q 6.418 28.356 6.275 28.352 A 2.339 2.339 0 0 0 6.2 28.35 A 2.659 2.659 0 0 0 5.907 28.366 Q 5.761 28.382 5.636 28.416 A 1.363 1.363 0 0 0 5.525 28.45 A 1.406 1.406 0 0 0 5.432 28.488 Q 5.25 28.569 5.25 28.65 A 0.079 0.079 0 0 0 5.278 28.706 Q 5.331 28.759 5.491 28.804 A 1.862 1.862 0 0 0 5.575 28.825 A 2.925 2.925 0 0 0 6.006 28.893 A 2.504 2.504 0 0 0 6.2 28.9 Z M 9.55 28.4 A 1.956 1.956 0 0 0 9.622 28.399 Q 9.77 28.394 9.795 28.364 A 0.02 0.02 0 0 0 9.8 28.35 Q 9.8 28.218 9.49 28.047 A 2.553 2.553 0 0 0 9.4 28 A 1.904 1.904 0 0 0 8.729 27.811 A 2.337 2.337 0 0 0 8.5 27.8 Q 8.119 27.8 8.101 28.074 A 0.421 0.421 0 0 0 8.1 28.1 Q 8.1 28.15 8.7 28.25 Q 9.3 28.35 9.55 28.4 Z M 11.25 14.95 Q 11.05 14.95 10.85 14.825 A 0.514 0.514 0 0 1 10.745 14.74 A 0.341 0.341 0 0 1 10.65 14.5 A 0.419 0.419 0 0 1 10.69 14.329 Q 10.719 14.264 10.769 14.196 A 1.137 1.137 0 0 1 10.875 14.075 Q 11.008 13.943 11.132 13.888 A 0.417 0.417 0 0 1 11.3 13.85 A 0.399 0.399 0 0 1 11.488 13.9 Q 11.55 13.933 11.612 13.987 A 1.008 1.008 0 0 1 11.7 14.075 A 1.089 1.089 0 0 1 11.802 14.207 Q 11.849 14.28 11.874 14.351 A 0.452 0.452 0 0 1 11.9 14.5 Q 11.9 14.7 11.7 14.825 Q 11.5 14.95 11.25 14.95 Z M 20.35 26.45 A 2.507 2.507 0 0 0 20.558 26.441 Q 20.778 26.422 21.076 26.369 A 9.526 9.526 0 0 0 21.175 26.35 A 2.966 2.966 0 0 0 21.347 26.313 Q 21.59 26.251 21.666 26.174 A 0.105 0.105 0 0 0 21.7 26.1 A 0.058 0.058 0 0 0 21.691 26.071 Q 21.666 26.03 21.575 25.975 A 0.486 0.486 0 0 0 21.443 25.922 Q 21.357 25.9 21.25 25.9 A 1.818 1.818 0 0 0 21.008 25.918 Q 20.886 25.935 20.749 25.966 A 4.005 4.005 0 0 0 20.525 26.025 Q 20.122 26.144 20.102 26.24 A 0.049 0.049 0 0 0 20.1 26.25 Q 20.1 26.431 20.304 26.449 A 0.539 0.539 0 0 0 20.35 26.45 Z M 13.9 12.2 Q 13.7 12.2 13.525 12.025 A 0.699 0.699 0 0 1 13.424 11.899 A 0.467 0.467 0 0 1 13.35 11.65 A 0.384 0.384 0 0 1 13.445 11.399 A 0.618 0.618 0 0 1 13.55 11.3 Q 13.75 11.15 14.05 11.15 A 0.648 0.648 0 0 1 14.229 11.173 Q 14.5 11.251 14.5 11.6 A 0.578 0.578 0 0 1 14.331 12.02 A 0.691 0.691 0 0 1 14.325 12.025 A 0.578 0.578 0 0 1 13.908 12.2 A 0.708 0.708 0 0 1 13.9 12.2 Z M 7.2 28 Q 7.55 28 7.55 27.8 A 0.259 0.259 0 0 0 7.45 27.595 Q 7.384 27.54 7.275 27.5 Q 7 27.4 6.7 27.4 A 2.582 2.582 0 0 0 6.496 27.408 Q 6.169 27.434 6.082 27.552 A 0.161 0.161 0 0 0 6.05 27.65 A 0.075 0.075 0 0 0 6.076 27.701 Q 6.149 27.775 6.43 27.862 A 3.786 3.786 0 0 0 6.475 27.875 A 3.82 3.82 0 0 0 6.765 27.949 Q 7.008 28 7.2 28 Z M 15.078 15.129 A 1.052 1.052 0 0 0 15.3 15.15 A 0.521 0.521 0 0 0 15.523 15.1 A 0.671 0.671 0 0 0 15.675 15 A 0.616 0.616 0 0 0 15.739 14.937 A 0.426 0.426 0 0 0 15.85 14.65 A 0.467 0.467 0 0 0 15.777 14.402 A 0.699 0.699 0 0 0 15.675 14.275 Q 15.5 14.1 15.3 14.1 A 0.708 0.708 0 0 0 15.293 14.101 A 0.578 0.578 0 0 0 14.875 14.275 Q 14.7 14.45 14.7 14.65 A 0.702 0.702 0 0 0 14.709 14.761 Q 14.756 15.059 15.078 15.129 Z M 17 17.9 Q 16.55 17.9 16.55 17.4 A 0.956 0.956 0 0 1 16.564 17.232 Q 16.581 17.139 16.618 17.066 A 0.445 0.445 0 0 1 16.7 16.95 A 0.523 0.523 0 0 1 16.855 16.842 A 0.47 0.47 0 0 1 17.05 16.8 A 0.621 0.621 0 0 1 17.217 16.821 A 0.411 0.411 0 0 1 17.475 17.025 A 1.131 1.131 0 0 1 17.555 17.201 Q 17.592 17.305 17.599 17.403 A 0.656 0.656 0 0 1 17.6 17.45 Q 17.6 17.65 17.425 17.775 A 0.665 0.665 0 0 1 17.137 17.89 A 0.885 0.885 0 0 1 17 17.9 Z M 20.5 17.5 Q 20.25 17.5 20.05 17.35 A 0.618 0.618 0 0 1 19.945 17.252 A 0.384 0.384 0 0 1 19.85 17 A 0.538 0.538 0 0 1 20.023 16.6 A 0.722 0.722 0 0 1 20.05 16.575 A 0.713 0.713 0 0 1 20.274 16.44 A 0.651 0.651 0 0 1 20.5 16.4 A 0.406 0.406 0 0 1 20.689 16.442 Q 20.858 16.529 20.892 16.801 A 1.209 1.209 0 0 1 20.9 16.95 Q 20.9 17.5 20.5 17.5 Z M 9.85 27.75 A 0.144 0.144 0 0 0 9.89 27.746 Q 9.934 27.733 9.946 27.688 A 0.147 0.147 0 0 0 9.95 27.65 Q 9.95 27.553 9.571 27.361 A 4.323 4.323 0 0 0 9.55 27.35 Q 9.191 27.171 8.872 27.153 A 1.254 1.254 0 0 0 8.8 27.15 A 1.233 1.233 0 0 0 8.686 27.155 Q 8.45 27.177 8.45 27.3 Q 8.45 27.45 9 27.6 Q 9.55 27.75 9.85 27.75 Z M 10.1 18.3 Q 9.9 18.3 9.725 18.175 A 0.592 0.592 0 0 1 9.642 18.104 Q 9.6 18.06 9.577 18.014 A 0.256 0.256 0 0 1 9.55 17.9 A 0.531 0.531 0 0 1 9.588 17.711 Q 9.631 17.597 9.725 17.475 A 0.656 0.656 0 0 1 9.86 17.343 A 0.487 0.487 0 0 1 10.15 17.25 A 0.384 0.384 0 0 1 10.402 17.345 A 0.618 0.618 0 0 1 10.5 17.45 Q 10.65 17.65 10.65 17.9 A 0.406 0.406 0 0 1 10.609 18.089 Q 10.522 18.258 10.25 18.292 A 1.209 1.209 0 0 1 10.1 18.3 Z M 19.15 14.375 A 0.755 0.755 0 0 0 19.175 14.395 Q 19.313 14.5 19.45 14.5 A 0.81 0.81 0 0 0 19.654 14.477 Q 19.903 14.412 19.973 14.168 A 0.792 0.792 0 0 0 20 13.95 Q 20 13.75 19.875 13.6 A 0.407 0.407 0 0 0 19.72 13.483 A 0.432 0.432 0 0 0 19.55 13.45 A 0.81 0.81 0 0 0 19.347 13.474 Q 19.098 13.539 19.028 13.783 A 0.792 0.792 0 0 0 19 14 Q 19 14.091 19.02 14.166 A 0.399 0.399 0 0 0 19.15 14.375 Z M 17.163 12.089 A 0.426 0.426 0 0 0 17.45 12.2 A 0.467 0.467 0 0 0 17.699 12.127 A 0.699 0.699 0 0 0 17.825 12.025 A 0.691 0.691 0 0 0 17.831 12.02 A 0.578 0.578 0 0 0 18 11.6 A 0.507 0.507 0 0 0 17.999 11.564 A 0.399 0.399 0 0 0 17.85 11.275 Q 17.7 11.15 17.5 11.15 A 0.679 0.679 0 0 0 17.458 11.152 A 0.492 0.492 0 0 0 17.1 11.325 A 0.725 0.725 0 0 0 17.037 11.412 A 0.535 0.535 0 0 0 16.95 11.7 A 0.347 0.347 0 0 0 16.971 11.816 Q 17.006 11.916 17.1 12.025 A 0.616 0.616 0 0 0 17.163 12.089 Z M 15.813 21.589 A 0.426 0.426 0 0 0 16.1 21.7 A 0.384 0.384 0 0 0 16.352 21.606 A 0.618 0.618 0 0 0 16.45 21.5 Q 16.6 21.3 16.6 21.05 A 0.577 0.577 0 0 0 16.591 20.945 Q 16.55 20.723 16.32 20.668 A 0.737 0.737 0 0 0 16.15 20.65 A 1.184 1.184 0 0 0 16.062 20.654 Q 15.726 20.679 15.635 20.904 A 0.52 0.52 0 0 0 15.6 21.1 A 0.799 0.799 0 0 0 15.602 21.147 A 0.62 0.62 0 0 0 15.75 21.525 A 0.616 0.616 0 0 0 15.813 21.589 Z M 13.65 18.15 Q 13.45 18.15 13.275 18.05 Q 13.1 17.95 13.1 17.75 A 0.58 0.58 0 0 1 13.153 17.513 Q 13.187 17.437 13.243 17.361 A 1.026 1.026 0 0 1 13.25 17.35 A 0.618 0.618 0 0 1 13.349 17.245 A 0.384 0.384 0 0 1 13.6 17.15 A 0.416 0.416 0 0 1 13.823 17.217 Q 13.885 17.255 13.943 17.315 A 0.876 0.876 0 0 1 13.975 17.35 A 0.864 0.864 0 0 1 14.074 17.486 Q 14.124 17.573 14.141 17.66 A 0.465 0.465 0 0 1 14.15 17.75 Q 14.15 18.15 13.65 18.15 Z M 12.8 21.35 Q 12.6 21.35 12.425 21.225 A 0.452 0.452 0 0 1 12.319 21.121 A 0.37 0.37 0 0 1 12.25 20.9 Q 12.25 20.7 12.425 20.525 Q 12.591 20.36 12.734 20.351 A 0.261 0.261 0 0 1 12.75 20.35 Q 12.95 20.35 13.125 20.525 A 0.578 0.578 0 0 1 13.3 20.943 A 0.708 0.708 0 0 1 13.3 20.95 Q 13.3 21.35 12.8 21.35 Z M 12.1 29.65 Q 12.25 29.65 12.525 29.35 A 1.551 1.551 0 0 0 12.658 29.186 Q 12.8 28.98 12.8 28.8 Q 12.8 28.55 12.65 28.55 A 0.303 0.303 0 0 0 12.516 28.586 Q 12.409 28.639 12.284 28.773 A 2.008 2.008 0 0 0 12.175 28.9 Q 11.9 29.25 11.9 29.45 Q 11.9 29.65 12.1 29.65 Z M 7.85 27.15 A 0.426 0.426 0 0 0 8.004 27.121 A 0.523 0.523 0 0 0 8.05 27.1 A 0.43 0.43 0 0 0 8.088 27.079 Q 8.125 27.056 8.14 27.033 A 0.059 0.059 0 0 0 8.15 27 Q 8.15 26.65 7.35 26.65 Q 7.054 26.65 6.933 26.739 A 0.19 0.19 0 0 0 6.85 26.9 Q 6.85 27.038 7.189 27.092 A 1.941 1.941 0 0 0 7.25 27.1 Q 7.574 27.141 7.767 27.149 A 2.101 2.101 0 0 0 7.85 27.15 Z M 19.1 20.05 Q 18.95 20.05 18.775 19.95 A 0.483 0.483 0 0 1 18.693 19.892 Q 18.648 19.852 18.625 19.806 A 0.233 0.233 0 0 1 18.6 19.7 A 0.586 0.586 0 0 1 18.612 19.588 Q 18.635 19.473 18.7 19.325 A 0.409 0.409 0 0 1 18.785 19.2 Q 18.865 19.119 18.989 19.104 A 0.497 0.497 0 0 1 19.05 19.1 A 0.72 0.72 0 0 1 19.248 19.125 Q 19.55 19.212 19.55 19.6 Q 19.55 19.75 19.4 19.9 A 0.676 0.676 0 0 1 19.309 19.978 Q 19.254 20.016 19.2 20.034 A 0.314 0.314 0 0 1 19.1 20.05 Z M 11.6 29.1 A 0.123 0.123 0 0 0 11.655 29.084 Q 11.759 29.03 11.95 28.8 Q 12.15 28.562 12.19 28.386 A 0.381 0.381 0 0 0 12.2 28.3 Q 12.2 28.158 12.088 28.083 A 0.319 0.319 0 0 0 12.075 28.075 Q 11.95 28 11.8 28 Q 11.686 28 11.585 28.118 A 0.691 0.691 0 0 0 11.525 28.2 A 0.729 0.729 0 0 0 11.443 28.392 Q 11.418 28.483 11.408 28.592 A 1.68 1.68 0 0 0 11.4 28.75 Q 11.4 29.1 11.6 29.1 Z M 12.55 27.85 Q 12.65 27.85 12.8 27.65 A 1.652 1.652 0 0 0 12.859 27.568 Q 12.945 27.437 12.95 27.36 A 0.144 0.144 0 0 0 12.95 27.35 A 0.576 0.576 0 0 0 12.931 27.192 Q 12.88 27.015 12.699 26.968 A 0.589 0.589 0 0 0 12.55 26.95 A 0.692 0.692 0 0 0 12.323 26.987 A 0.605 0.605 0 0 0 12.125 27.1 A 0.561 0.561 0 0 0 12.021 27.217 A 0.416 0.416 0 0 0 11.95 27.45 A 0.217 0.217 0 0 0 11.995 27.579 Q 12.045 27.648 12.151 27.712 A 0.952 0.952 0 0 0 12.175 27.725 A 1.471 1.471 0 0 0 12.296 27.786 Q 12.425 27.843 12.525 27.85 A 0.384 0.384 0 0 0 12.55 27.85 Z M 10.85 26.15 Q 10.65 26.15 10.45 25.825 A 2.212 2.212 0 0 1 10.358 25.662 Q 10.275 25.495 10.256 25.37 A 0.47 0.47 0 0 1 10.25 25.3 A 0.144 0.144 0 0 1 10.255 25.261 Q 10.268 25.217 10.313 25.205 A 0.147 0.147 0 0 1 10.35 25.2 A 0.348 0.348 0 0 1 10.507 25.241 Q 10.637 25.306 10.775 25.475 A 1.283 1.283 0 0 1 10.897 25.649 Q 10.953 25.748 10.979 25.844 A 0.6 0.6 0 0 1 11 26 A 0.216 0.216 0 0 1 10.993 26.06 Q 10.967 26.15 10.85 26.15 Z M 14.1 27.55 Q 14.25 27.55 14.375 27.45 Q 14.5 27.35 14.5 27.2 A 0.521 0.521 0 0 0 14.48 27.05 A 0.41 0.41 0 0 0 14.375 26.875 A 0.702 0.702 0 0 0 14.315 26.821 Q 14.225 26.75 14.15 26.75 Q 13.95 26.75 13.8 26.875 A 0.525 0.525 0 0 0 13.721 26.956 Q 13.677 27.013 13.66 27.075 A 0.29 0.29 0 0 0 13.65 27.15 A 0.508 0.508 0 0 0 13.675 27.316 Q 13.753 27.541 14.074 27.55 A 0.967 0.967 0 0 0 14.1 27.55 Z M 15.55 26.1 Q 15.7 26.1 15.85 25.95 A 0.523 0.523 0 0 0 15.959 25.796 A 0.47 0.47 0 0 0 16 25.6 A 0.275 0.275 0 0 0 15.957 25.443 Q 15.885 25.336 15.691 25.309 A 1.039 1.039 0 0 0 15.55 25.3 A 0.18 0.18 0 0 0 15.483 25.315 Q 15.425 25.339 15.355 25.399 A 1.049 1.049 0 0 0 15.3 25.45 A 0.676 0.676 0 0 0 15.223 25.542 Q 15.185 25.596 15.167 25.651 A 0.314 0.314 0 0 0 15.15 25.75 A 0.436 0.436 0 0 0 15.173 25.897 Q 15.242 26.09 15.519 26.1 A 0.861 0.861 0 0 0 15.55 26.1 Z M 14.35 26.4 L 14.35 26.45 A 0.27 0.27 0 0 0 14.437 26.649 A 0.431 0.431 0 0 0 14.5 26.7 A 0.931 0.931 0 0 0 14.58 26.748 Q 14.662 26.792 14.725 26.799 A 0.22 0.22 0 0 0 14.75 26.8 A 0.282 0.282 0 0 0 14.816 26.792 Q 14.883 26.776 14.971 26.73 A 1.423 1.423 0 0 0 15.025 26.7 A 0.483 0.483 0 0 0 15.108 26.642 Q 15.153 26.602 15.176 26.556 A 0.233 0.233 0 0 0 15.2 26.45 A 0.648 0.648 0 0 0 15.178 26.272 Q 15.1 26 14.75 26 A 0.305 0.305 0 0 0 14.575 26.058 Q 14.523 26.093 14.475 26.15 A 0.942 0.942 0 0 0 14.421 26.222 Q 14.37 26.297 14.356 26.358 A 0.19 0.19 0 0 0 14.35 26.4 Z M 13.25 26.9 A 0.383 0.383 0 0 0 13.408 26.871 Q 13.571 26.798 13.596 26.547 A 0.974 0.974 0 0 0 13.6 26.45 A 0.504 0.504 0 0 0 13.583 26.312 Q 13.523 26.1 13.25 26.1 Q 13.113 26.1 12.975 26.206 A 0.755 0.755 0 0 0 12.95 26.225 A 0.525 0.525 0 0 0 12.871 26.306 Q 12.827 26.363 12.81 26.425 A 0.29 0.29 0 0 0 12.8 26.5 A 0.508 0.508 0 0 0 12.825 26.666 Q 12.903 26.891 13.224 26.9 A 0.967 0.967 0 0 0 13.25 26.9 Z M 9.7 27.1 A 0.601 0.601 0 0 0 9.767 27.097 Q 9.834 27.09 9.867 27.065 A 0.076 0.076 0 0 0 9.9 27 A 0.184 0.184 0 0 0 9.859 26.887 Q 9.809 26.822 9.698 26.762 A 1.123 1.123 0 0 0 9.625 26.725 Q 9.436 26.639 9.282 26.613 A 0.769 0.769 0 0 0 9.15 26.6 L 8.975 26.6 A 0.229 0.229 0 0 0 8.93 26.605 Q 8.85 26.621 8.85 26.7 A 0.161 0.161 0 0 0 8.891 26.803 Q 8.964 26.893 9.171 26.974 A 1.822 1.822 0 0 0 9.175 26.975 A 2.728 2.728 0 0 0 9.357 27.039 Q 9.56 27.1 9.7 27.1 Z M 14.7 25.45 A 0.917 0.917 0 0 0 14.883 25.434 Q 15.164 25.377 15.196 25.12 A 0.56 0.56 0 0 0 15.2 25.05 A 0.37 0.37 0 0 0 15.178 24.919 A 0.332 0.332 0 0 0 15.1 24.8 Q 15.018 24.718 14.866 24.703 A 0.703 0.703 0 0 0 14.8 24.7 A 0.305 0.305 0 0 0 14.625 24.758 Q 14.573 24.793 14.525 24.85 Q 14.4 25 14.4 25.15 A 0.432 0.432 0 0 0 14.415 25.269 Q 14.453 25.402 14.589 25.438 A 0.442 0.442 0 0 0 14.7 25.45 Z M 13.15 25.6 A 0.72 0.72 0 0 0 13.348 25.576 Q 13.65 25.489 13.65 25.1 A 0.183 0.183 0 0 0 13.622 24.996 Q 13.573 24.924 13.444 24.906 A 0.693 0.693 0 0 0 13.35 24.9 Q 13.15 24.9 12.975 25.025 A 0.452 0.452 0 0 0 12.869 25.13 A 0.37 0.37 0 0 0 12.8 25.35 Q 12.8 25.45 12.925 25.525 A 0.67 0.67 0 0 0 13.007 25.567 Q 13.05 25.586 13.089 25.594 A 0.303 0.303 0 0 0 13.15 25.6 Z M 13.35 28.35 A 0.27 0.27 0 0 0 13.549 28.264 A 0.431 0.431 0 0 0 13.6 28.2 A 0.596 0.596 0 0 0 13.697 27.921 A 0.75 0.75 0 0 0 13.7 27.85 Q 13.7 27.566 13.386 27.551 A 0.754 0.754 0 0 0 13.35 27.55 Q 13.265 27.55 13.161 27.66 A 0.854 0.854 0 0 0 13.125 27.7 Q 13 27.85 13 28 A 0.504 0.504 0 0 0 13.018 28.139 Q 13.078 28.35 13.35 28.35 Z M 14.05 26.15 A 0.436 0.436 0 0 0 14.197 26.128 Q 14.39 26.059 14.4 25.782 A 0.861 0.861 0 0 0 14.4 25.75 A 0.504 0.504 0 0 0 14.383 25.612 Q 14.323 25.4 14.05 25.4 A 0.355 0.355 0 0 0 13.844 25.468 A 0.506 0.506 0 0 0 13.775 25.525 A 0.702 0.702 0 0 0 13.721 25.586 Q 13.65 25.675 13.65 25.75 Q 13.65 25.95 13.8 26.05 A 0.931 0.931 0 0 0 13.88 26.098 Q 13.962 26.142 14.025 26.149 A 0.22 0.22 0 0 0 14.05 26.15 Z M 15.65 24.8 A 0.676 0.676 0 0 0 15.846 24.773 A 0.576 0.576 0 0 0 16 24.7 A 0.323 0.323 0 0 0 16.146 24.466 A 0.471 0.471 0 0 0 16.15 24.4 Q 16.15 24.31 16.028 24.22 A 0.707 0.707 0 0 0 16 24.2 A 0.651 0.651 0 0 0 15.874 24.134 A 0.479 0.479 0 0 0 15.7 24.1 A 0.198 0.198 0 0 0 15.624 24.117 Q 15.564 24.142 15.497 24.205 A 0.817 0.817 0 0 0 15.475 24.225 A 0.478 0.478 0 0 0 15.399 24.323 A 0.348 0.348 0 0 0 15.35 24.5 A 0.432 0.432 0 0 0 15.365 24.619 Q 15.403 24.752 15.539 24.788 A 0.442 0.442 0 0 0 15.65 24.8 Z M 14.227 24.822 A 0.33 0.33 0 0 0 14.25 24.8 A 0.337 0.337 0 0 0 14.35 24.56 A 0.444 0.444 0 0 0 14.35 24.55 A 0.595 0.595 0 0 0 14.337 24.419 Q 14.296 24.237 14.124 24.206 A 0.424 0.424 0 0 0 14.05 24.2 A 0.486 0.486 0 0 0 13.858 24.241 A 0.667 0.667 0 0 0 13.75 24.3 Q 13.63 24.381 13.606 24.462 A 0.138 0.138 0 0 0 13.6 24.5 A 0.198 0.198 0 0 0 13.617 24.577 Q 13.642 24.637 13.705 24.704 A 0.817 0.817 0 0 0 13.725 24.725 A 0.421 0.421 0 0 0 13.978 24.846 A 0.578 0.578 0 0 0 14.05 24.85 Q 14.139 24.895 14.227 24.822 Z M 14.8 24.45 A 0.726 0.726 0 0 0 14.924 24.441 Q 15.145 24.403 15.15 24.211 A 0.346 0.346 0 0 0 15.15 24.2 Q 15.15 24.1 15.025 24.025 A 0.67 0.67 0 0 0 14.944 23.984 Q 14.901 23.965 14.862 23.957 A 0.303 0.303 0 0 0 14.8 23.95 A 0.323 0.323 0 0 0 14.712 23.964 Q 14.648 23.982 14.575 24.025 Q 14.504 24.068 14.473 24.12 A 0.155 0.155 0 0 0 14.45 24.2 A 0.248 0.248 0 0 0 14.478 24.321 Q 14.534 24.423 14.702 24.445 A 0.777 0.777 0 0 0 14.8 24.45 Z M 16.35 25.35 A 0.29 0.29 0 0 0 16.469 25.324 Q 16.51 25.306 16.55 25.275 Q 16.65 25.2 16.65 25.05 A 0.239 0.239 0 0 0 16.58 24.88 A 0.313 0.313 0 0 0 16.575 24.875 Q 16.5 24.8 16.4 24.8 A 0.526 0.526 0 0 0 16.289 24.811 Q 16.1 24.852 16.1 25.05 A 0.526 0.526 0 0 0 16.111 25.162 Q 16.152 25.35 16.35 25.35 Z" vector-effect="non-scaling-stroke"/></g></svg>