<svg width="58" height="83" viewBox="0 0 29 41.5" xmlns="http://www.w3.org/2000/svg"><g id="svgGroup" stroke-linecap="round" fill-rule="evenodd" font-size="9pt" stroke="#000" stroke-width="0.05mm" fill="#000" style="stroke:#000;stroke-width:0.05mm;fill:#000"><path d="M 0 38.5 L 0 3 A 2.89 2.89 0 0 1 0.848 0.903 A 3.442 3.442 0 0 1 0.875 0.875 A 2.889 2.889 0 0 1 2.961 0.001 A 3.547 3.547 0 0 1 3 0 L 26 0 A 2.89 2.89 0 0 1 28.098 0.848 A 3.442 3.442 0 0 1 28.125 0.875 A 2.889 2.889 0 0 1 29 2.961 A 3.547 3.547 0 0 1 29 3 L 29 38.5 A 2.89 2.89 0 0 1 28.153 40.598 A 3.442 3.442 0 0 1 28.125 40.625 A 2.889 2.889 0 0 1 26.039 41.5 A 3.547 3.547 0 0 1 26 41.5 L 3 41.5 A 2.89 2.89 0 0 1 0.903 40.653 A 3.442 3.442 0 0 1 0.875 40.625 A 2.889 2.889 0 0 1 0.001 38.539 A 3.547 3.547 0 0 1 0 38.5 Z M 3 40 L 26 40 A 1.628 1.628 0 0 0 26.542 39.914 A 1.403 1.403 0 0 0 27.075 39.575 A 1.436 1.436 0 0 0 27.498 38.602 A 1.91 1.91 0 0 0 27.5 38.5 L 27.5 3 A 1.628 1.628 0 0 0 27.414 2.459 A 1.403 1.403 0 0 0 27.075 1.925 A 1.436 1.436 0 0 0 26.102 1.503 A 1.91 1.91 0 0 0 26 1.5 L 3 1.5 A 1.628 1.628 0 0 0 2.459 1.587 A 1.403 1.403 0 0 0 1.925 1.925 A 1.436 1.436 0 0 0 1.503 2.899 A 1.91 1.91 0 0 0 1.5 3 L 1.5 38.5 A 1.628 1.628 0 0 0 1.587 39.042 A 1.403 1.403 0 0 0 1.925 39.575 A 1.436 1.436 0 0 0 2.899 39.998 A 1.91 1.91 0 0 0 3 40 Z M 9.55 33.25 L 8.95 33.25 A 5.266 5.266 0 0 1 7.822 33.133 A 4.52 4.52 0 0 1 7.2 32.95 Q 6.807 32.803 6.607 32.595 A 0.693 0.693 0 0 1 6.4 32.1 L 6.45 31.75 Q 6.9 31.75 7.7 31.85 Q 8.36 31.933 8.781 31.947 A 4.936 4.936 0 0 0 8.95 31.95 L 9.15 31.95 Q 9.112 31.529 8.986 30.991 A 11.594 11.594 0 0 0 8.9 30.65 A 74.505 74.505 0 0 1 8.799 30.132 Q 8.627 29.242 8.604 28.97 A 0.854 0.854 0 0 1 8.6 28.9 Q 8.6 28.8 8.8 28.6 Q 9.196 28.666 9.429 28.852 A 0.832 0.832 0 0 1 9.625 29.075 Q 9.821 29.402 9.998 30.049 A 9.684 9.684 0 0 1 10.05 30.25 A 14.485 14.485 0 0 0 10.229 30.855 Q 10.409 31.419 10.589 31.783 A 3.346 3.346 0 0 0 10.65 31.9 A 4.793 4.793 0 0 0 11.303 31.858 A 3.574 3.574 0 0 0 11.9 31.725 A 30.298 30.298 0 0 0 12.091 31.664 Q 12.427 31.555 12.529 31.511 A 0.463 0.463 0 0 0 12.55 31.5 L 12.6 30.05 A 0.435 0.435 0 0 0 12.519 30.061 Q 12.322 30.101 11.818 30.294 A 18.101 18.101 0 0 0 11.8 30.3 Q 11.722 30.418 11.614 30.626 A 8.587 8.587 0 0 0 11.55 30.75 A 2.11 2.11 0 0 1 11.152 31.299 A 2.247 2.247 0 0 1 11.15 31.3 Q 10.85 31.15 10.625 30.275 A 7.223 7.223 0 0 1 10.415 28.893 A 8.49 8.49 0 0 1 10.4 28.4 Q 10.4 26.939 10.519 26.099 A 5.048 5.048 0 0 1 10.6 25.65 A 23.841 23.841 0 0 0 11.744 25.445 Q 12.931 25.205 14.52 24.791 A 85.105 85.105 0 0 0 15.05 24.65 A 29.137 29.137 0 0 1 15.81 24.444 Q 16.953 24.15 17.45 24.15 A 2.33 2.33 0 0 1 17.821 24.177 Q 18.469 24.282 18.499 24.8 A 0.884 0.884 0 0 1 18.5 24.85 Q 18.5 24.978 18.247 25.812 A 50.803 50.803 0 0 1 18.15 26.125 Q 17.8 27.25 17.8 28.85 A 14.389 14.389 0 0 0 17.84 29.89 A 17.328 17.328 0 0 0 17.9 30.55 A 11.993 11.993 0 0 1 19.876 30.901 A 15.67 15.67 0 0 1 21.5 31.425 Q 22.512 31.811 22.985 32.403 A 1.863 1.863 0 0 1 23.4 33.6 A 1.765 1.765 0 0 1 23.313 34.171 A 1.434 1.434 0 0 1 22.75 34.9 A 2.429 2.429 0 0 1 21.908 35.264 Q 21.538 35.35 21.1 35.35 A 1.034 1.034 0 0 0 20.951 35.362 Q 20.797 35.385 20.6 35.45 L 20.15 35.6 Q 19.373 35.911 18.898 35.981 A 1.731 1.731 0 0 1 18.65 36 A 2.151 2.151 0 0 1 18.287 35.963 Q 17.596 35.842 16.275 35.325 Q 14.975 34.817 14.257 34.436 A 5.701 5.701 0 0 1 13.85 34.2 Q 13.681 34.243 13.44 34.428 A 3.007 3.007 0 0 0 13.35 34.5 A 2.496 2.496 0 0 1 13.226 34.598 Q 13.037 34.737 12.923 34.749 A 0.201 0.201 0 0 1 12.9 34.75 Q 12.4 34.75 11.95 34.575 A 14.371 14.371 0 0 0 11.741 34.496 Q 11.55 34.425 11.42 34.385 A 2.242 2.242 0 0 0 11.3 34.35 A 2.991 2.991 0 0 1 11.299 34.439 Q 11.295 34.578 11.279 34.817 A 26.186 26.186 0 0 1 11.275 34.875 Q 11.25 35.25 11.15 35.475 A 0.409 0.409 0 0 1 11.066 35.601 Q 10.986 35.681 10.862 35.697 A 0.497 0.497 0 0 1 10.8 35.7 Q 10.35 35.7 9.975 34.575 Q 9.641 33.573 9.565 33.305 A 1.846 1.846 0 0 1 9.55 33.25 Z M 8.95 15.7 L 7.65 14.45 A 17.116 17.116 0 0 1 6.826 13.711 Q 6.396 13.299 6.05 12.9 Q 5.553 12.326 4.791 11.254 A 56.931 56.931 0 0 1 4.3 10.55 Q 4.5 10.2 4.85 10.2 A 1.338 1.338 0 0 1 5.097 10.231 Q 5.707 10.353 7.3 10.95 A 120.617 120.617 0 0 1 9.863 9.957 Q 12.201 9.083 13.812 8.621 A 19.057 19.057 0 0 1 15.3 8.25 A 1.668 1.668 0 0 0 15.41 7.966 A 2.045 2.045 0 0 0 15.45 7.8 A 1.376 1.376 0 0 1 15.566 7.457 A 1.245 1.245 0 0 1 15.625 7.35 A 0.68 0.68 0 0 1 15.69 7.263 Q 15.726 7.221 15.765 7.194 A 0.237 0.237 0 0 1 15.9 7.15 A 0.402 0.402 0 0 1 16.064 7.19 Q 16.201 7.251 16.365 7.407 A 2.682 2.682 0 0 1 16.525 7.575 A 58.447 58.447 0 0 0 16.656 7.723 Q 16.898 7.996 16.986 8.086 A 1.489 1.489 0 0 0 17 8.1 Q 18.225 8.215 18.996 8.33 A 13.719 13.719 0 0 1 19.425 8.4 Q 20.071 8.518 21.1 8.819 A 39.12 39.12 0 0 1 21.7 9 A 13.85 13.85 0 0 1 22.505 9.255 Q 23.279 9.529 23.741 9.823 A 2.396 2.396 0 0 1 24.075 10.075 A 1.782 1.782 0 0 1 24.553 10.831 Q 24.65 11.117 24.683 11.467 A 4.045 4.045 0 0 1 24.7 11.85 Q 24.7 12.75 22.875 14.2 A 44.378 44.378 0 0 1 21.566 15.204 Q 20.525 15.969 19.65 16.5 A 4.093 4.093 0 0 1 19.482 16.44 Q 19.2 16.332 18.75 16.125 Q 18.15 15.85 17.525 15.7 A 4.742 4.742 0 0 0 17.011 15.609 Q 16.544 15.55 15.95 15.55 A 6.201 6.201 0 0 0 15.084 15.608 Q 14.627 15.672 14.236 15.81 A 3.714 3.714 0 0 0 14.125 15.85 A 8.761 8.761 0 0 0 13.098 16.33 A 10.626 10.626 0 0 0 12.55 16.65 A 1.866 1.866 0 0 0 12.5 16.677 Q 12.386 16.739 12.104 16.901 A 73.806 73.806 0 0 0 11.975 16.975 A 2.232 2.232 0 0 1 11.568 17.162 A 1.621 1.621 0 0 1 11.05 17.25 Q 10.55 17.25 10.175 16.95 A 6.743 6.743 0 0 1 9.538 16.368 A 7.473 7.473 0 0 1 9.45 16.275 A 16.06 16.06 0 0 1 9.288 16.099 Q 9.063 15.85 8.95 15.7 Z M 9.201 24.854 A 9.165 9.165 0 0 0 10.5 24.95 Q 10.947 24.95 11.548 24.832 A 10.478 10.478 0 0 0 12.125 24.7 Q 13.1 24.45 14.1 24.15 A 108.546 108.546 0 0 1 14.178 24.129 Q 15.33 23.806 16.205 23.588 A 38.539 38.539 0 0 1 16.775 23.45 Q 17.85 23.2 18.85 23.2 A 138.346 138.346 0 0 1 19.554 23.202 Q 21.019 23.21 21.55 23.25 A 2.785 2.785 0 0 0 21.597 23.228 A 2.24 2.24 0 0 0 22.65 22.2 Q 22.447 21.916 21.353 21.863 A 11.414 11.414 0 0 0 20.8 21.85 A 11.53 11.53 0 0 0 20.626 21.852 Q 20.013 21.861 19.335 21.935 A 18.974 18.974 0 0 0 17.9 22.15 Q 17.625 22.219 17.209 22.288 A 19.208 19.208 0 0 1 16.8 22.35 A 2.34 2.34 0 0 1 16.89 21.855 A 2.525 2.525 0 0 1 17.3 21.05 A 5.151 5.151 0 0 0 17.308 21.037 Q 17.555 20.602 17.647 20.245 A 1.593 1.593 0 0 0 17.7 19.85 A 2.743 2.743 0 0 0 17.698 19.73 A 2.296 2.296 0 0 0 17.4 18.675 A 2.362 2.362 0 0 0 17.286 18.494 Q 17.176 18.336 17.053 18.223 A 1.08 1.08 0 0 0 16.7 18 A 2.964 2.964 0 0 0 16.479 18.084 A 3.151 3.151 0 0 0 15.6 18.65 A 6.386 6.386 0 0 0 15.436 18.804 Q 15.197 19.034 15.063 19.22 A 1.306 1.306 0 0 0 14.95 19.4 A 0.629 0.629 0 0 0 14.978 19.449 Q 15.054 19.573 15.21 19.714 A 2.76 2.76 0 0 0 15.375 19.85 Q 15.514 19.957 15.593 20.072 A 0.57 0.57 0 0 1 15.7 20.4 Q 15.7 20.783 15.363 21.547 A 11.639 11.639 0 0 1 15.125 22.05 A 11.89 11.89 0 0 1 15.096 22.109 Q 14.678 22.934 14.409 23.135 A 0.274 0.274 0 0 1 14.25 23.2 Q 14.103 23.2 13.982 23.064 A 0.768 0.768 0 0 1 13.9 22.95 A 8.908 8.908 0 0 1 13.939 22.783 Q 14.01 22.494 14.121 22.107 A 31.183 31.183 0 0 1 14.225 21.75 A 5.746 5.746 0 0 0 14.38 21.111 A 4.324 4.324 0 0 0 14.45 20.35 A 0.75 0.75 0 0 0 14.447 20.28 A 0.596 0.596 0 0 0 14.35 20 A 0.431 0.431 0 0 0 14.299 19.937 A 0.27 0.27 0 0 0 14.1 19.85 A 0.532 0.532 0 0 0 13.841 19.915 A 0.609 0.609 0 0 0 13.675 20.05 A 2.274 2.274 0 0 0 13.612 20.127 Q 13.504 20.262 13.371 20.463 A 8.839 8.839 0 0 0 13.25 20.65 Q 13 21.05 12.85 21.3 A 2.258 2.258 0 0 1 12.768 21.428 A 2.556 2.556 0 0 1 12.475 21.775 A 1.109 1.109 0 0 0 12.454 21.798 Q 12.25 22.013 12.25 22.25 Q 12.35 22.4 12.625 22.475 A 0.98 0.98 0 0 1 12.68 22.492 Q 12.789 22.529 12.844 22.58 A 0.161 0.161 0 0 1 12.9 22.7 Q 12.9 23.4 12.55 23.6 A 0.677 0.677 0 0 1 12.538 23.608 Q 12.182 23.8 11.2 23.8 Q 10.65 23.8 10.125 23.7 Q 9.728 23.625 9.516 23.578 A 4.723 4.723 0 0 1 9.4 23.55 A 8.01 8.01 0 0 0 8.954 23.432 Q 8.386 23.3 7.95 23.3 A 1.98 1.98 0 0 0 7.917 23.301 A 1.656 1.656 0 0 0 7.05 23.55 A 22.963 22.963 0 0 0 6.939 23.62 Q 6.708 23.767 6.632 23.825 A 0.323 0.323 0 0 0 6.6 23.85 Q 6.926 24.248 7.643 24.502 A 5.519 5.519 0 0 0 8.25 24.675 A 11.67 11.67 0 0 0 9.201 24.854 Z M 17.637 34.439 A 2.606 2.606 0 0 0 17.8 34.325 Q 18.172 34.047 18.405 33.92 A 1.397 1.397 0 0 1 18.55 33.85 A 1.24 1.24 0 0 1 18.699 33.803 Q 18.949 33.739 19.422 33.687 A 13.403 13.403 0 0 1 19.525 33.675 A 5.364 5.364 0 0 0 19.925 33.62 Q 20.316 33.549 20.568 33.429 A 1.403 1.403 0 0 0 20.625 33.4 A 0.669 0.669 0 0 0 20.964 32.96 Q 21 32.822 21 32.65 Q 21 32.285 20.123 31.94 A 5.883 5.883 0 0 0 19.95 31.875 A 8.778 8.778 0 0 0 19.1 31.617 Q 18.664 31.509 18.269 31.468 A 4.871 4.871 0 0 0 18.05 31.45 A 0.903 0.903 0 0 0 18.055 31.536 Q 18.065 31.634 18.093 31.776 A 5.316 5.316 0 0 0 18.125 31.925 Q 18.188 32.196 18.198 32.415 A 1.797 1.797 0 0 1 18.2 32.5 A 0.985 0.985 0 0 1 18.168 32.746 Q 18.13 32.891 18.05 33.05 Q 17.7 33.3 17.15 33.5 Q 16.6 33.7 16.2 33.7 Q 16.1 33.55 16.05 33.375 Q 16 33.2 15.9 33.05 A 1.93 1.93 0 0 0 15.631 33.165 Q 15.449 33.259 15.25 33.4 A 3.358 3.358 0 0 1 14.995 33.567 Q 14.788 33.688 14.6 33.75 Q 14.8 34.05 15.6 34.375 A 7.206 7.206 0 0 0 15.979 34.518 Q 16.513 34.7 16.85 34.7 Q 17.226 34.7 17.637 34.439 Z M 17.6 9.65 L 17.65 9.95 A 0.998 0.998 0 0 1 17.632 10.116 Q 17.56 10.518 17.212 11.565 A 42.178 42.178 0 0 1 17.2 11.6 A 23.291 23.291 0 0 0 16.771 12.802 Q 16.584 13.377 16.455 13.893 A 12.158 12.158 0 0 0 16.35 14.35 A 12.48 12.48 0 0 1 17.294 14.388 A 16.534 16.534 0 0 1 18.325 14.5 A 67.013 67.013 0 0 0 18.698 14.551 Q 19.438 14.65 19.6 14.65 A 0.281 0.281 0 0 0 19.756 14.586 Q 20.075 14.355 20.7 13.3 A 25.17 25.17 0 0 0 20.972 12.831 Q 21.5 11.894 21.5 11.65 Q 21.5 11.25 20 10.5 A 14.483 14.483 0 0 0 19.204 10.13 Q 18.425 9.798 17.851 9.689 A 3.275 3.275 0 0 0 17.6 9.65 Z M 11.75 15.4 L 12.35 15.1 A 10.66 10.66 0 0 0 12.088 13.209 A 12.057 12.057 0 0 0 12 12.85 A 54.916 54.916 0 0 1 11.932 12.505 Q 11.819 11.916 11.803 11.745 A 0.508 0.508 0 0 1 11.8 11.7 A 1.571 1.571 0 0 0 11.783 11.456 Q 11.763 11.331 11.721 11.232 A 0.582 0.582 0 0 0 11.55 11 Q 11.153 11.1 10.532 11.298 A 42.311 42.311 0 0 0 10.525 11.3 Q 9.9 11.5 9.35 11.5 A 10.274 10.274 0 0 0 9.072 11.504 Q 8.642 11.516 8.447 11.566 A 0.499 0.499 0 0 0 8.35 11.6 A 3.841 3.841 0 0 0 8.497 11.898 Q 8.573 12.034 8.651 12.145 A 1.753 1.753 0 0 0 8.775 12.3 A 9.704 9.704 0 0 0 8.899 12.435 Q 9.037 12.583 9.223 12.771 A 31.25 31.25 0 0 0 9.4 12.95 Q 9.868 13.372 11.518 15.15 A 224.369 224.369 0 0 1 11.75 15.4 Z M 13.6 14.8 Q 13.9 14.75 14.175 14.65 A 3.924 3.924 0 0 1 14.501 14.547 A 3.19 3.19 0 0 1 14.7 14.5 Q 14.885 11.554 15.026 10.133 A 32.333 32.333 0 0 1 15.05 9.9 A 2.902 2.902 0 0 0 13.736 10.221 A 3.541 3.541 0 0 0 13.5 10.35 A 6.202 6.202 0 0 0 13.586 10.59 Q 13.636 10.721 13.698 10.868 A 12.054 12.054 0 0 0 13.775 11.05 A 1.91 1.91 0 0 1 13.895 11.439 Q 13.933 11.627 13.945 11.846 A 3.767 3.767 0 0 1 13.95 12.05 A 10.655 10.655 0 0 1 13.892 13.189 A 8.84 8.84 0 0 1 13.8 13.825 A 49.489 49.489 0 0 1 13.748 14.111 Q 13.655 14.603 13.612 14.76 A 0.779 0.779 0 0 1 13.6 14.8 Z M 13.8 29.8 L 13.8 31.15 Q 14.9 30.95 15.75 30.6 Q 15.75 29.75 15.7 29.3 Q 15.3 29.4 14.825 29.525 A 106.671 106.671 0 0 0 14.332 29.657 A 133.293 133.293 0 0 0 13.8 29.8 Z M 13.7 27.8 L 13.7 28.9 A 4.585 4.585 0 0 0 14.142 28.845 Q 14.766 28.738 15.7 28.45 Q 15.7 27.7 15.75 27.3 A 15.93 15.93 0 0 1 14.624 27.616 A 12.106 12.106 0 0 1 13.7 27.8 Z M 15.8 26.55 L 15.85 25.4 A 12.657 12.657 0 0 0 15.492 25.486 Q 15.175 25.566 14.8 25.675 A 13.178 13.178 0 0 1 14.516 25.755 Q 14.207 25.838 13.981 25.879 A 3.425 3.425 0 0 1 13.85 25.9 Q 13.8 26.2 13.75 26.45 Q 13.7 26.7 13.7 26.95 A 14.764 14.764 0 0 0 14.194 26.872 Q 14.428 26.83 14.63 26.785 A 6.908 6.908 0 0 0 14.875 26.725 Q 15.35 26.6 15.8 26.55 Z M 14.1 32.85 A 0.905 0.905 0 0 0 14.259 32.835 Q 14.427 32.804 14.66 32.717 A 4.688 4.688 0 0 0 14.825 32.65 A 7.877 7.877 0 0 1 15.564 32.384 A 9.177 9.177 0 0 1 15.85 32.3 A 5.525 5.525 0 0 1 15.815 32.084 Q 15.763 31.713 15.798 31.515 A 0.66 0.66 0 0 1 15.8 31.5 Q 15.332 31.547 14.776 31.726 A 7.074 7.074 0 0 0 14.7 31.75 Q 14.148 31.935 13.892 32.034 A 4.556 4.556 0 0 0 13.85 32.05 A 2.09 2.09 0 0 0 13.876 32.381 A 1.697 1.697 0 0 0 13.925 32.6 A 1.096 1.096 0 0 0 13.954 32.685 Q 14.019 32.85 14.1 32.85 Z M 12.55 32.4 L 10.85 32.95 L 11.2 33.75 Q 11.9 33.6 12.8 33.2 Q 12.564 32.916 12.551 32.453 A 1.938 1.938 0 0 1 12.55 32.4 Z M 12.8 26.15 L 11.6 26.35 L 11.6 27.25 L 11.8 27.3 Q 12.068 27.3 12.277 27.261 A 1.705 1.705 0 0 0 12.325 27.25 Q 12.493 27.213 12.619 27.176 A 2.49 2.49 0 0 0 12.7 27.15 Q 12.7 26.879 12.747 26.514 A 9.456 9.456 0 0 1 12.8 26.15 Z M 12.6 29.15 L 12.6 28 Q 12.2 28.05 11.9 28.1 A 1.436 1.436 0 0 0 11.802 28.12 Q 11.6 28.168 11.6 28.25 L 11.6 28.55 L 11.65 29.25 A 2.208 2.208 0 0 0 11.792 29.245 Q 12.001 29.231 12.364 29.183 A 23.597 23.597 0 0 0 12.6 29.15 Z" vector-effect="non-scaling-stroke"/></g></svg>