<svg width="58" height="83" viewBox="0 0 29 41.5" xmlns="http://www.w3.org/2000/svg"><g id="svgGroup" stroke-linecap="round" fill-rule="evenodd" font-size="9pt" stroke="#000" stroke-width="0.05mm" fill="#000" style="stroke:#000;stroke-width:0.05mm;fill:#000"><path d="M 0 38.5 L 0 3 A 2.89 2.89 0 0 1 0.848 0.903 A 3.442 3.442 0 0 1 0.875 0.875 A 2.889 2.889 0 0 1 2.961 0.001 A 3.547 3.547 0 0 1 3 0 L 26 0 A 2.89 2.89 0 0 1 28.098 0.848 A 3.442 3.442 0 0 1 28.125 0.875 A 2.889 2.889 0 0 1 29 2.961 A 3.547 3.547 0 0 1 29 3 L 29 38.5 A 2.89 2.89 0 0 1 28.153 40.598 A 3.442 3.442 0 0 1 28.125 40.625 A 2.889 2.889 0 0 1 26.039 41.5 A 3.547 3.547 0 0 1 26 41.5 L 3 41.5 A 2.89 2.89 0 0 1 0.903 40.653 A 3.442 3.442 0 0 1 0.875 40.625 A 2.889 2.889 0 0 1 0.001 38.539 A 3.547 3.547 0 0 1 0 38.5 Z M 3 40 L 26 40 A 1.628 1.628 0 0 0 26.542 39.914 A 1.403 1.403 0 0 0 27.075 39.575 A 1.436 1.436 0 0 0 27.498 38.602 A 1.91 1.91 0 0 0 27.5 38.5 L 27.5 3 A 1.628 1.628 0 0 0 27.414 2.459 A 1.403 1.403 0 0 0 27.075 1.925 A 1.436 1.436 0 0 0 26.102 1.503 A 1.91 1.91 0 0 0 26 1.5 L 3 1.5 A 1.628 1.628 0 0 0 2.459 1.587 A 1.403 1.403 0 0 0 1.925 1.925 A 1.436 1.436 0 0 0 1.503 2.899 A 1.91 1.91 0 0 0 1.5 3 L 1.5 38.5 A 1.628 1.628 0 0 0 1.587 39.042 A 1.403 1.403 0 0 0 1.925 39.575 A 1.436 1.436 0 0 0 2.899 39.998 A 1.91 1.91 0 0 0 3 40 Z M 6.85 34.25 L 6.85 31.9 Q 6.85 31.689 6.404 31.174 A 8.219 8.219 0 0 0 6.225 30.975 A 3.582 3.582 0 0 1 5.93 30.616 Q 5.631 30.193 5.603 29.825 A 0.993 0.993 0 0 1 5.6 29.75 A 1.181 1.181 0 0 1 5.692 29.311 Q 5.83 28.966 6.176 28.579 A 4.379 4.379 0 0 1 6.225 28.525 Q 6.733 27.978 6.828 27.71 A 0.332 0.332 0 0 0 6.85 27.6 L 6.85 25.2 A 0.776 0.776 0 0 0 6.605 24.628 A 1.036 1.036 0 0 0 6.575 24.6 Q 6.3 24.35 6.2 24.25 Q 5.45 23.8 5.45 23.2 A 1.205 1.205 0 0 1 5.506 22.827 A 0.952 0.952 0 0 1 5.85 22.35 A 1.938 1.938 0 0 1 6.096 22.192 Q 6.36 22.05 6.6 22.05 A 0.698 0.698 0 0 0 6.805 22.016 Q 6.995 21.958 7.234 21.8 A 3.406 3.406 0 0 0 7.375 21.7 A 1.794 1.794 0 0 1 8.302 21.359 A 2.272 2.272 0 0 1 8.5 21.35 Q 9.15 21.35 9.625 21.7 A 3.113 3.113 0 0 0 9.852 21.854 Q 10.175 22.05 10.4 22.05 A 0.953 0.953 0 0 1 10.728 22.112 Q 10.855 22.159 10.989 22.24 A 2.079 2.079 0 0 1 11.15 22.35 A 0.971 0.971 0 0 1 11.544 23.063 A 1.389 1.389 0 0 1 11.55 23.2 Q 11.55 23.699 11.034 24.093 A 2.52 2.52 0 0 1 10.8 24.25 A 3.852 3.852 0 0 1 10.742 24.308 Q 10.634 24.411 10.425 24.6 A 0.868 0.868 0 0 0 10.235 24.843 A 0.766 0.766 0 0 0 10.15 25.2 L 10.15 27.6 Q 10.15 27.812 10.597 28.327 A 8.219 8.219 0 0 0 10.775 28.525 A 3.582 3.582 0 0 1 11.071 28.885 Q 11.37 29.308 11.398 29.676 A 0.993 0.993 0 0 1 11.4 29.75 A 1.181 1.181 0 0 1 11.309 30.19 Q 11.171 30.535 10.825 30.922 A 4.379 4.379 0 0 1 10.775 30.975 Q 10.268 31.523 10.173 31.791 A 0.332 0.332 0 0 0 10.15 31.9 L 10.15 34.25 A 0.776 0.776 0 0 0 10.396 34.823 A 1.036 1.036 0 0 0 10.425 34.85 Q 10.7 35.1 10.8 35.2 Q 11.55 35.65 11.55 36.25 A 1.085 1.085 0 0 1 11.451 36.72 A 1.08 1.08 0 0 1 11.175 37.075 A 1.321 1.321 0 0 1 10.418 37.393 A 1.733 1.733 0 0 1 10.25 37.4 A 1.625 1.625 0 0 1 9.811 37.337 Q 9.63 37.286 9.44 37.195 A 2.777 2.777 0 0 1 9.4 37.175 Q 8.95 36.95 8.5 36.95 A 1.915 1.915 0 0 0 7.811 37.082 A 2.352 2.352 0 0 0 7.6 37.175 Q 7.177 37.387 6.798 37.4 A 1.439 1.439 0 0 1 6.75 37.4 A 1.542 1.542 0 0 1 6.288 37.334 A 1.285 1.285 0 0 1 5.825 37.075 A 1.037 1.037 0 0 1 5.453 36.328 A 1.281 1.281 0 0 1 5.45 36.25 Q 5.45 35.752 5.967 35.358 A 2.52 2.52 0 0 1 6.2 35.2 A 3.852 3.852 0 0 1 6.259 35.143 Q 6.367 35.04 6.575 34.85 A 0.868 0.868 0 0 0 6.766 34.608 A 0.766 0.766 0 0 0 6.85 34.25 Z M 18.85 34.25 L 18.85 31.9 Q 18.85 31.689 18.404 31.174 A 8.219 8.219 0 0 0 18.225 30.975 A 3.582 3.582 0 0 1 17.93 30.616 Q 17.631 30.193 17.603 29.825 A 0.993 0.993 0 0 1 17.6 29.75 A 1.181 1.181 0 0 1 17.692 29.311 Q 17.83 28.966 18.176 28.579 A 4.379 4.379 0 0 1 18.225 28.525 Q 18.733 27.978 18.828 27.71 A 0.332 0.332 0 0 0 18.85 27.6 L 18.85 25.2 A 0.776 0.776 0 0 0 18.605 24.628 A 1.036 1.036 0 0 0 18.575 24.6 Q 18.3 24.35 18.2 24.25 Q 17.45 23.8 17.45 23.2 A 1.205 1.205 0 0 1 17.506 22.827 A 0.952 0.952 0 0 1 17.85 22.35 A 1.938 1.938 0 0 1 18.096 22.192 Q 18.36 22.05 18.6 22.05 A 0.698 0.698 0 0 0 18.805 22.016 Q 18.995 21.958 19.234 21.8 A 3.406 3.406 0 0 0 19.375 21.7 A 1.794 1.794 0 0 1 20.302 21.359 A 2.272 2.272 0 0 1 20.5 21.35 Q 21.15 21.35 21.625 21.7 A 3.113 3.113 0 0 0 21.852 21.854 Q 22.175 22.05 22.4 22.05 A 0.953 0.953 0 0 1 22.728 22.112 Q 22.855 22.159 22.989 22.24 A 2.079 2.079 0 0 1 23.15 22.35 A 0.971 0.971 0 0 1 23.544 23.063 A 1.389 1.389 0 0 1 23.55 23.2 Q 23.55 23.699 23.034 24.093 A 2.52 2.52 0 0 1 22.8 24.25 A 3.852 3.852 0 0 1 22.742 24.308 Q 22.634 24.411 22.425 24.6 A 0.868 0.868 0 0 0 22.235 24.843 A 0.766 0.766 0 0 0 22.15 25.2 L 22.15 27.6 Q 22.15 27.812 22.597 28.327 A 8.219 8.219 0 0 0 22.775 28.525 A 3.582 3.582 0 0 1 23.071 28.885 Q 23.37 29.308 23.398 29.676 A 0.993 0.993 0 0 1 23.4 29.75 A 1.181 1.181 0 0 1 23.309 30.19 Q 23.171 30.535 22.825 30.922 A 4.379 4.379 0 0 1 22.775 30.975 Q 22.268 31.523 22.173 31.791 A 0.332 0.332 0 0 0 22.15 31.9 L 22.15 34.25 A 0.776 0.776 0 0 0 22.396 34.823 A 1.036 1.036 0 0 0 22.425 34.85 Q 22.7 35.1 22.8 35.2 Q 23.55 35.65 23.55 36.25 A 1.085 1.085 0 0 1 23.451 36.72 A 1.08 1.08 0 0 1 23.175 37.075 A 1.321 1.321 0 0 1 22.418 37.393 A 1.733 1.733 0 0 1 22.25 37.4 A 1.625 1.625 0 0 1 21.811 37.337 Q 21.63 37.286 21.44 37.195 A 2.777 2.777 0 0 1 21.4 37.175 Q 20.95 36.95 20.5 36.95 A 1.915 1.915 0 0 0 19.811 37.082 A 2.352 2.352 0 0 0 19.6 37.175 Q 19.177 37.387 18.798 37.4 A 1.439 1.439 0 0 1 18.75 37.4 A 1.542 1.542 0 0 1 18.288 37.334 A 1.285 1.285 0 0 1 17.825 37.075 A 1.037 1.037 0 0 1 17.453 36.328 A 1.281 1.281 0 0 1 17.45 36.25 Q 17.45 35.752 17.967 35.358 A 2.52 2.52 0 0 1 18.2 35.2 A 3.852 3.852 0 0 1 18.259 35.143 Q 18.367 35.04 18.575 34.85 A 0.868 0.868 0 0 0 18.766 34.608 A 0.766 0.766 0 0 0 18.85 34.25 Z M 6.85 16.5 L 6.85 14.15 Q 6.85 13.939 6.404 13.424 A 8.219 8.219 0 0 0 6.225 13.225 A 3.582 3.582 0 0 1 5.93 12.866 Q 5.631 12.443 5.603 12.075 A 0.993 0.993 0 0 1 5.6 12 A 1.181 1.181 0 0 1 5.692 11.561 Q 5.83 11.216 6.176 10.829 A 4.379 4.379 0 0 1 6.225 10.775 Q 6.733 10.228 6.828 9.96 A 0.332 0.332 0 0 0 6.85 9.85 L 6.85 7.45 A 0.776 0.776 0 0 0 6.605 6.878 A 1.036 1.036 0 0 0 6.575 6.85 Q 6.3 6.6 6.2 6.5 Q 5.45 6.05 5.45 5.45 A 1.205 1.205 0 0 1 5.506 5.077 A 0.952 0.952 0 0 1 5.85 4.6 A 1.938 1.938 0 0 1 6.096 4.442 Q 6.36 4.3 6.6 4.3 A 0.698 0.698 0 0 0 6.805 4.266 Q 6.995 4.208 7.234 4.05 A 3.406 3.406 0 0 0 7.375 3.95 A 1.794 1.794 0 0 1 8.302 3.609 A 2.272 2.272 0 0 1 8.5 3.6 Q 9.15 3.6 9.625 3.95 A 3.113 3.113 0 0 0 9.852 4.104 Q 10.175 4.3 10.4 4.3 A 0.953 0.953 0 0 1 10.728 4.362 Q 10.855 4.409 10.989 4.49 A 2.079 2.079 0 0 1 11.15 4.6 A 0.971 0.971 0 0 1 11.544 5.313 A 1.389 1.389 0 0 1 11.55 5.45 Q 11.55 5.949 11.034 6.343 A 2.52 2.52 0 0 1 10.8 6.5 A 3.852 3.852 0 0 1 10.742 6.558 Q 10.634 6.661 10.425 6.85 A 0.868 0.868 0 0 0 10.235 7.093 A 0.766 0.766 0 0 0 10.15 7.45 L 10.15 9.85 Q 10.15 10.062 10.597 10.577 A 8.219 8.219 0 0 0 10.775 10.775 A 3.582 3.582 0 0 1 11.071 11.135 Q 11.37 11.558 11.398 11.926 A 0.993 0.993 0 0 1 11.4 12 A 1.181 1.181 0 0 1 11.309 12.44 Q 11.171 12.785 10.825 13.172 A 4.379 4.379 0 0 1 10.775 13.225 Q 10.268 13.773 10.173 14.041 A 0.332 0.332 0 0 0 10.15 14.15 L 10.15 16.5 A 0.776 0.776 0 0 0 10.396 17.073 A 1.036 1.036 0 0 0 10.425 17.1 Q 10.7 17.35 10.8 17.45 Q 11.55 17.9 11.55 18.5 A 1.085 1.085 0 0 1 11.451 18.97 A 1.08 1.08 0 0 1 11.175 19.325 A 1.321 1.321 0 0 1 10.418 19.643 A 1.733 1.733 0 0 1 10.25 19.65 A 1.625 1.625 0 0 1 9.811 19.587 Q 9.63 19.536 9.44 19.445 A 2.777 2.777 0 0 1 9.4 19.425 Q 8.95 19.2 8.5 19.2 A 1.915 1.915 0 0 0 7.811 19.332 A 2.352 2.352 0 0 0 7.6 19.425 Q 7.177 19.637 6.798 19.65 A 1.439 1.439 0 0 1 6.75 19.65 A 1.542 1.542 0 0 1 6.288 19.584 A 1.285 1.285 0 0 1 5.825 19.325 A 1.037 1.037 0 0 1 5.453 18.578 A 1.281 1.281 0 0 1 5.45 18.5 Q 5.45 18.002 5.967 17.608 A 2.52 2.52 0 0 1 6.2 17.45 A 3.852 3.852 0 0 1 6.259 17.393 Q 6.367 17.29 6.575 17.1 A 0.868 0.868 0 0 0 6.766 16.858 A 0.766 0.766 0 0 0 6.85 16.5 Z M 18.85 16.5 L 18.85 14.15 Q 18.85 13.939 18.404 13.424 A 8.219 8.219 0 0 0 18.225 13.225 A 3.582 3.582 0 0 1 17.93 12.866 Q 17.631 12.443 17.603 12.075 A 0.993 0.993 0 0 1 17.6 12 A 1.181 1.181 0 0 1 17.692 11.561 Q 17.83 11.216 18.176 10.829 A 4.379 4.379 0 0 1 18.225 10.775 Q 18.733 10.228 18.828 9.96 A 0.332 0.332 0 0 0 18.85 9.85 L 18.85 7.45 A 0.776 0.776 0 0 0 18.605 6.878 A 1.036 1.036 0 0 0 18.575 6.85 Q 18.3 6.6 18.2 6.5 Q 17.45 6.05 17.45 5.45 A 1.205 1.205 0 0 1 17.506 5.077 A 0.952 0.952 0 0 1 17.85 4.6 A 1.938 1.938 0 0 1 18.096 4.442 Q 18.36 4.3 18.6 4.3 A 0.698 0.698 0 0 0 18.805 4.266 Q 18.995 4.208 19.234 4.05 A 3.406 3.406 0 0 0 19.375 3.95 A 1.794 1.794 0 0 1 20.302 3.609 A 2.272 2.272 0 0 1 20.5 3.6 Q 21.15 3.6 21.625 3.95 A 3.113 3.113 0 0 0 21.852 4.104 Q 22.175 4.3 22.4 4.3 A 0.953 0.953 0 0 1 22.728 4.362 Q 22.855 4.409 22.989 4.49 A 2.079 2.079 0 0 1 23.15 4.6 A 0.971 0.971 0 0 1 23.544 5.313 A 1.389 1.389 0 0 1 23.55 5.45 Q 23.55 5.949 23.034 6.343 A 2.52 2.52 0 0 1 22.8 6.5 A 3.852 3.852 0 0 1 22.742 6.558 Q 22.634 6.661 22.425 6.85 A 0.868 0.868 0 0 0 22.235 7.093 A 0.766 0.766 0 0 0 22.15 7.45 L 22.15 9.85 Q 22.15 10.062 22.597 10.577 A 8.219 8.219 0 0 0 22.775 10.775 A 3.582 3.582 0 0 1 23.071 11.135 Q 23.37 11.558 23.398 11.926 A 0.993 0.993 0 0 1 23.4 12 A 1.181 1.181 0 0 1 23.309 12.44 Q 23.171 12.785 22.825 13.172 A 4.379 4.379 0 0 1 22.775 13.225 Q 22.268 13.773 22.173 14.041 A 0.332 0.332 0 0 0 22.15 14.15 L 22.15 16.5 A 0.776 0.776 0 0 0 22.396 17.073 A 1.036 1.036 0 0 0 22.425 17.1 Q 22.7 17.35 22.8 17.45 Q 23.55 17.9 23.55 18.5 A 1.085 1.085 0 0 1 23.451 18.97 A 1.08 1.08 0 0 1 23.175 19.325 A 1.321 1.321 0 0 1 22.418 19.643 A 1.733 1.733 0 0 1 22.25 19.65 A 1.625 1.625 0 0 1 21.811 19.587 Q 21.63 19.536 21.44 19.445 A 2.777 2.777 0 0 1 21.4 19.425 Q 20.95 19.2 20.5 19.2 A 1.915 1.915 0 0 0 19.811 19.332 A 2.352 2.352 0 0 0 19.6 19.425 Q 19.177 19.637 18.798 19.65 A 1.439 1.439 0 0 1 18.75 19.65 A 1.542 1.542 0 0 1 18.288 19.584 A 1.285 1.285 0 0 1 17.825 19.325 Q 17.474 19.021 17.452 18.564 A 1.29 1.29 0 0 1 17.45 18.5 Q 17.45 18.002 17.967 17.608 A 2.52 2.52 0 0 1 18.2 17.45 A 3.852 3.852 0 0 1 18.259 17.393 Q 18.367 17.29 18.575 17.1 A 0.868 0.868 0 0 0 18.766 16.858 A 0.766 0.766 0 0 0 18.85 16.5 Z M 7.75 28.25 L 9.25 28.25 L 9.25 24.15 A 1.311 1.311 0 0 0 9.54 23.88 A 1.002 1.002 0 0 0 9.75 23.25 A 0.968 0.968 0 0 0 9.458 22.553 A 1.351 1.351 0 0 0 9.375 22.475 Q 9 22.15 8.5 22.15 Q 8 22.15 7.625 22.475 A 1.168 1.168 0 0 0 7.386 22.754 A 0.944 0.944 0 0 0 7.25 23.25 A 1.019 1.019 0 0 0 7.606 24.036 A 1.482 1.482 0 0 0 7.75 24.15 L 7.75 28.25 Z M 19.75 28.25 L 21.25 28.25 L 21.25 24.15 A 1.311 1.311 0 0 0 21.54 23.88 A 1.002 1.002 0 0 0 21.75 23.25 A 0.968 0.968 0 0 0 21.458 22.553 A 1.351 1.351 0 0 0 21.375 22.475 Q 21 22.15 20.5 22.15 Q 20 22.15 19.625 22.475 A 1.168 1.168 0 0 0 19.386 22.754 A 0.944 0.944 0 0 0 19.25 23.25 A 1.019 1.019 0 0 0 19.606 24.036 A 1.482 1.482 0 0 0 19.75 24.15 L 19.75 28.25 Z M 7.75 10.5 L 9.25 10.5 L 9.25 6.4 A 1.311 1.311 0 0 0 9.54 6.13 A 1.002 1.002 0 0 0 9.75 5.5 A 0.968 0.968 0 0 0 9.458 4.803 A 1.351 1.351 0 0 0 9.375 4.725 Q 9 4.4 8.5 4.4 Q 8 4.4 7.625 4.725 A 1.168 1.168 0 0 0 7.386 5.004 A 0.944 0.944 0 0 0 7.25 5.5 A 1.019 1.019 0 0 0 7.606 6.286 A 1.482 1.482 0 0 0 7.75 6.4 L 7.75 10.5 Z M 19.75 10.5 L 21.25 10.5 L 21.25 6.4 A 1.311 1.311 0 0 0 21.54 6.13 A 1.002 1.002 0 0 0 21.75 5.5 A 0.968 0.968 0 0 0 21.458 4.803 A 1.351 1.351 0 0 0 21.375 4.725 Q 21 4.4 20.5 4.4 Q 20 4.4 19.625 4.725 A 1.168 1.168 0 0 0 19.386 5.004 A 0.944 0.944 0 0 0 19.25 5.5 A 1.019 1.019 0 0 0 19.606 6.286 A 1.482 1.482 0 0 0 19.75 6.4 L 19.75 10.5 Z M 9.25 35.65 L 9.25 31.25 L 7.75 31.25 L 7.75 35.65 A 0.8 0.8 0 0 0 7.794 35.925 Q 7.922 36.276 8.429 36.299 A 1.608 1.608 0 0 0 8.5 36.3 A 1.259 1.259 0 0 0 8.784 36.272 Q 9.171 36.182 9.237 35.812 A 0.926 0.926 0 0 0 9.25 35.65 Z M 21.25 35.65 L 21.25 31.25 L 19.75 31.25 L 19.75 35.65 A 0.8 0.8 0 0 0 19.794 35.925 Q 19.922 36.276 20.429 36.299 A 1.608 1.608 0 0 0 20.5 36.3 A 1.259 1.259 0 0 0 20.784 36.272 Q 21.171 36.182 21.237 35.812 A 0.926 0.926 0 0 0 21.25 35.65 Z M 9.25 17.9 L 9.25 13.5 L 7.75 13.5 L 7.75 17.9 A 0.8 0.8 0 0 0 7.794 18.175 Q 7.922 18.526 8.429 18.549 A 1.608 1.608 0 0 0 8.5 18.55 A 1.259 1.259 0 0 0 8.784 18.522 Q 9.171 18.432 9.237 18.062 A 0.926 0.926 0 0 0 9.25 17.9 Z M 21.25 17.9 L 21.25 13.5 L 19.75 13.5 L 19.75 17.9 A 0.8 0.8 0 0 0 19.794 18.175 Q 19.922 18.526 20.429 18.549 A 1.608 1.608 0 0 0 20.5 18.55 A 1.259 1.259 0 0 0 20.784 18.522 Q 21.171 18.432 21.237 18.062 A 0.926 0.926 0 0 0 21.25 17.9 Z M 19.35 11.75 L 21.65 11.75 Q 21.85 11.75 22 11.625 A 0.525 0.525 0 0 0 22.08 11.545 Q 22.124 11.488 22.14 11.426 A 0.29 0.29 0 0 0 22.15 11.35 A 0.34 0.34 0 0 0 22.109 11.178 Q 22.03 11.041 21.8 11.01 A 1.112 1.112 0 0 0 21.65 11 L 19.35 11 Q 18.864 11 18.851 11.332 A 0.47 0.47 0 0 0 18.85 11.35 Q 18.85 11.75 19.35 11.75 Z M 19.35 13 L 21.65 13 Q 21.85 13 22 12.875 A 0.525 0.525 0 0 0 22.08 12.795 Q 22.124 12.738 22.14 12.676 A 0.29 0.29 0 0 0 22.15 12.6 A 0.34 0.34 0 0 0 22.109 12.428 Q 22.03 12.291 21.8 12.26 A 1.112 1.112 0 0 0 21.65 12.25 L 19.35 12.25 Q 18.864 12.25 18.851 12.582 A 0.47 0.47 0 0 0 18.85 12.6 Q 18.85 13 19.35 13 Z M 7.35 29.5 L 9.65 29.5 Q 9.85 29.5 10 29.375 A 0.525 0.525 0 0 0 10.08 29.295 Q 10.124 29.238 10.14 29.176 A 0.29 0.29 0 0 0 10.15 29.1 A 0.34 0.34 0 0 0 10.109 28.928 Q 10.03 28.791 9.8 28.76 A 1.112 1.112 0 0 0 9.65 28.75 L 7.35 28.75 Q 6.864 28.75 6.851 29.082 A 0.47 0.47 0 0 0 6.85 29.1 Q 6.85 29.5 7.35 29.5 Z M 19.35 29.5 L 21.65 29.5 Q 21.85 29.5 22 29.375 A 0.525 0.525 0 0 0 22.08 29.295 Q 22.124 29.238 22.14 29.176 A 0.29 0.29 0 0 0 22.15 29.1 A 0.34 0.34 0 0 0 22.109 28.928 Q 22.03 28.791 21.8 28.76 A 1.112 1.112 0 0 0 21.65 28.75 L 19.35 28.75 Q 18.864 28.75 18.851 29.082 A 0.47 0.47 0 0 0 18.85 29.1 Q 18.85 29.5 19.35 29.5 Z M 7.35 30.75 L 9.65 30.75 Q 9.85 30.75 10 30.625 A 0.525 0.525 0 0 0 10.08 30.545 Q 10.124 30.488 10.14 30.426 A 0.29 0.29 0 0 0 10.15 30.35 A 0.34 0.34 0 0 0 10.109 30.178 Q 10.03 30.041 9.8 30.01 A 1.112 1.112 0 0 0 9.65 30 L 7.35 30 Q 6.864 30 6.851 30.332 A 0.47 0.47 0 0 0 6.85 30.35 Q 6.85 30.75 7.35 30.75 Z M 19.35 30.75 L 21.65 30.75 Q 21.85 30.75 22 30.625 A 0.525 0.525 0 0 0 22.08 30.545 Q 22.124 30.488 22.14 30.426 A 0.29 0.29 0 0 0 22.15 30.35 A 0.34 0.34 0 0 0 22.109 30.178 Q 22.03 30.041 21.8 30.01 A 1.112 1.112 0 0 0 21.65 30 L 19.35 30 Q 18.864 30 18.851 30.332 A 0.47 0.47 0 0 0 18.85 30.35 Q 18.85 30.75 19.35 30.75 Z M 7.35 11.75 L 9.65 11.75 Q 9.85 11.75 10 11.625 A 0.525 0.525 0 0 0 10.08 11.545 Q 10.124 11.488 10.14 11.426 A 0.29 0.29 0 0 0 10.15 11.35 A 0.34 0.34 0 0 0 10.109 11.178 Q 10.03 11.041 9.8 11.01 A 1.112 1.112 0 0 0 9.65 11 L 7.35 11 Q 6.864 11 6.851 11.332 A 0.47 0.47 0 0 0 6.85 11.35 Q 6.85 11.75 7.35 11.75 Z M 7.35 13 L 9.65 13 Q 9.85 13 10 12.875 A 0.525 0.525 0 0 0 10.08 12.795 Q 10.124 12.738 10.14 12.676 A 0.29 0.29 0 0 0 10.15 12.6 A 0.34 0.34 0 0 0 10.109 12.428 Q 10.03 12.291 9.8 12.26 A 1.112 1.112 0 0 0 9.65 12.25 L 7.35 12.25 Q 6.864 12.25 6.851 12.582 A 0.47 0.47 0 0 0 6.85 12.6 Q 6.85 13 7.35 13 Z" vector-effect="non-scaling-stroke"/></g></svg>