<svg width="58" height="83" viewBox="0 0 29 41.5" xmlns="http://www.w3.org/2000/svg"><g id="svgGroup" stroke-linecap="round" fill-rule="evenodd" font-size="9pt" stroke="#b23227" stroke-width="0.05mm" fill="#b23227" style="stroke:#b23227;stroke-width:0.05mm;fill:#b23227"><path d="M 0 38.5 L 0 3 A 2.89 2.89 0 0 1 0.848 0.903 A 3.442 3.442 0 0 1 0.875 0.875 A 2.889 2.889 0 0 1 2.961 0.001 A 3.547 3.547 0 0 1 3 0 L 26 0 A 2.89 2.89 0 0 1 28.098 0.848 A 3.442 3.442 0 0 1 28.125 0.875 A 2.889 2.889 0 0 1 29 2.961 A 3.547 3.547 0 0 1 29 3 L 29 38.5 A 2.89 2.89 0 0 1 28.153 40.598 A 3.442 3.442 0 0 1 28.125 40.625 A 2.889 2.889 0 0 1 26.039 41.5 A 3.547 3.547 0 0 1 26 41.5 L 3 41.5 A 2.89 2.89 0 0 1 0.903 40.653 A 3.442 3.442 0 0 1 0.875 40.625 A 2.889 2.889 0 0 1 0.001 38.539 A 3.547 3.547 0 0 1 0 38.5 Z M 3 40 L 26 40 A 1.628 1.628 0 0 0 26.542 39.914 A 1.403 1.403 0 0 0 27.075 39.575 A 1.436 1.436 0 0 0 27.498 38.602 A 1.91 1.91 0 0 0 27.5 38.5 L 27.5 3 A 1.628 1.628 0 0 0 27.414 2.459 A 1.403 1.403 0 0 0 27.075 1.925 A 1.436 1.436 0 0 0 26.102 1.503 A 1.91 1.91 0 0 0 26 1.5 L 3 1.5 A 1.628 1.628 0 0 0 2.459 1.587 A 1.403 1.403 0 0 0 1.925 1.925 A 1.436 1.436 0 0 0 1.503 2.899 A 1.91 1.91 0 0 0 1.5 3 L 1.5 38.5 A 1.628 1.628 0 0 0 1.587 39.042 A 1.403 1.403 0 0 0 1.925 39.575 A 1.436 1.436 0 0 0 2.899 39.998 A 1.91 1.91 0 0 0 3 40 Z M 23.412 18.355 A 1.002 1.002 0 0 0 23.7 18.4 A 0.944 0.944 0 0 0 24.197 18.265 A 1.168 1.168 0 0 0 24.475 18.025 Q 24.8 17.65 24.8 17.15 Q 24.8 16.622 24.403 16.217 A 2.184 2.184 0 0 0 24 15.9 Q 23.2 15.4 21.5 14.7 Q 19.997 14.091 19.418 13.845 A 15.441 15.441 0 0 1 19.2 13.75 A 62.836 62.836 0 0 1 19.134 13.218 Q 19.036 12.406 19.01 11.969 A 4.617 4.617 0 0 1 19 11.7 A 1.478 1.478 0 0 1 19.008 11.552 Q 19.018 11.452 19.042 11.339 A 3.198 3.198 0 0 1 19.1 11.1 A 6.337 6.337 0 0 0 19.104 11.089 Q 19.2 10.748 19.2 10.6 A 1.131 1.131 0 0 0 19.198 10.52 Q 19.184 10.325 19.1 10.2 Q 18.882 9.692 18.295 9.5 A 2.346 2.346 0 0 0 17.8 9.4 Q 17.75 9.9 17.6 10.125 A 0.646 0.646 0 0 1 17.539 10.203 Q 17.369 10.389 16.975 10.575 Q 16.619 10.744 15.911 10.983 A 30.555 30.555 0 0 1 15.4 11.15 A 5.09 5.09 0 0 1 15.425 11.009 Q 15.495 10.631 15.616 10.312 A 2.872 2.872 0 0 1 16 9.6 A 3.064 3.064 0 0 1 16.577 9.019 A 4.039 4.039 0 0 1 17.25 8.6 A 29.15 29.15 0 0 1 17.77 8.359 Q 18.996 7.805 19.675 7.655 A 2.035 2.035 0 0 1 20.1 7.6 A 1.24 1.24 0 0 1 20.223 7.608 Q 20.493 7.635 21.05 7.766 A 23.668 23.668 0 0 1 21.4 7.85 A 4.067 4.067 0 0 0 21.861 7.998 A 3.207 3.207 0 0 0 22.65 8.1 A 0.784 0.784 0 0 0 23.104 7.962 A 1.008 1.008 0 0 0 23.325 7.75 A 1.11 1.11 0 0 0 23.44 7.571 Q 23.528 7.4 23.568 7.183 A 2.119 2.119 0 0 0 23.6 6.8 Q 23.6 6.313 22.759 6.09 A 4.285 4.285 0 0 0 22.325 6 Q 21.05 5.8 20 5.8 A 0.08 0.08 0 0 0 19.999 5.8 Q 19.843 5.804 18.55 6.4 A 122.571 122.571 0 0 1 18.157 6.576 Q 16.978 7.098 16.08 7.465 A 40.322 40.322 0 0 1 15.425 7.725 A 9.38 9.38 0 0 1 14.732 7.965 Q 14.357 8.078 14.025 8.136 A 3.895 3.895 0 0 1 13.35 8.2 Q 13.05 7.8 12.625 7.525 Q 12.36 7.354 12.163 7.191 A 2.938 2.938 0 0 1 11.95 7 A 2.54 2.54 0 0 1 11.942 7.007 Q 11.806 7.108 11.605 7.23 A 8.696 8.696 0 0 1 11.4 7.35 A 2.718 2.718 0 0 0 11.374 7.366 Q 11.22 7.456 11.097 7.556 A 1.607 1.607 0 0 0 10.85 7.8 Q 10.65 8 10.475 8.425 A 3.227 3.227 0 0 1 10.321 8.75 A 2.51 2.51 0 0 1 10.05 9.15 Q 10.15 9.35 10.4 9.7 A 1.548 1.548 0 0 1 10.438 9.756 A 1.251 1.251 0 0 1 10.65 10.45 A 2.407 2.407 0 0 1 10.554 11.107 Q 10.196 12.374 8.5 13.95 A 21.261 21.261 0 0 1 6.485 15.617 A 15.571 15.571 0 0 1 4.2 17 A 0.437 0.437 0 0 0 4.386 17.14 Q 4.462 17.172 4.558 17.187 A 1.248 1.248 0 0 0 4.75 17.2 Q 5.55 17.2 7.3 16.15 A 17.783 17.783 0 0 0 8.543 15.335 A 14.269 14.269 0 0 0 10.3 13.85 Q 10.468 13.918 10.546 13.996 A 0.242 0.242 0 0 1 10.6 14.075 Q 10.636 14.165 10.647 14.32 A 2.009 2.009 0 0 1 10.65 14.45 A 1.045 1.045 0 0 1 10.649 14.503 Q 10.637 14.733 10.527 15.042 A 4.057 4.057 0 0 1 10.4 15.35 A 4.711 4.711 0 0 0 10.355 15.453 Q 10.225 15.759 10.177 15.999 A 1.304 1.304 0 0 0 10.15 16.25 Q 10.15 17.05 10.65 17.6 A 1.609 1.609 0 0 0 11.401 18.07 A 2.118 2.118 0 0 0 12 18.15 A 1.653 1.653 0 0 0 12.039 18.15 Q 12.219 18.146 12.298 18.102 A 0.123 0.123 0 0 0 12.35 18.05 A 0.929 0.929 0 0 1 12.638 17.463 A 1.41 1.41 0 0 1 12.925 17.25 A 3.124 3.124 0 0 1 12.987 17.216 Q 13.534 16.92 14.95 16.4 A 17.488 17.488 0 0 0 15.566 16.211 Q 15.984 16.075 16.46 15.901 A 38.869 38.869 0 0 0 17.5 15.5 A 5.624 5.624 0 0 1 17.499 15.63 Q 17.494 15.831 17.475 15.972 A 1.248 1.248 0 0 1 17.45 16.1 Q 17.415 16.244 17.404 16.336 A 0.595 0.595 0 0 0 17.4 16.4 Q 17.4 16.6 17.75 16.6 A 0.811 0.811 0 0 0 17.82 16.597 Q 17.918 16.589 18.06 16.558 A 4.277 4.277 0 0 0 18.2 16.525 A 2.39 2.39 0 0 1 18.432 16.48 A 2.872 2.872 0 0 1 18.85 16.45 A 5.061 5.061 0 0 1 19.569 16.5 A 3.897 3.897 0 0 1 20.625 16.8 A 10.149 10.149 0 0 1 20.935 16.947 Q 21.283 17.118 21.663 17.336 A 18.537 18.537 0 0 1 22.35 17.75 A 0.526 0.526 0 0 1 22.365 17.758 Q 22.457 17.807 22.744 17.997 A 33.383 33.383 0 0 1 22.9 18.1 Q 23.175 18.283 23.412 18.355 Z M 9.55 33.25 L 8.95 33.25 A 5.266 5.266 0 0 1 7.822 33.133 A 4.52 4.52 0 0 1 7.2 32.95 Q 6.807 32.803 6.607 32.595 A 0.693 0.693 0 0 1 6.4 32.1 L 6.45 31.75 Q 6.9 31.75 7.7 31.85 Q 8.36 31.933 8.781 31.947 A 4.936 4.936 0 0 0 8.95 31.95 L 9.15 31.95 Q 9.112 31.529 8.986 30.991 A 11.594 11.594 0 0 0 8.9 30.65 A 74.505 74.505 0 0 1 8.799 30.132 Q 8.627 29.242 8.604 28.97 A 0.854 0.854 0 0 1 8.6 28.9 Q 8.6 28.8 8.8 28.6 Q 9.196 28.666 9.429 28.852 A 0.832 0.832 0 0 1 9.625 29.075 Q 9.821 29.402 9.998 30.049 A 9.684 9.684 0 0 1 10.05 30.25 A 14.485 14.485 0 0 0 10.229 30.855 Q 10.409 31.419 10.589 31.783 A 3.346 3.346 0 0 0 10.65 31.9 A 4.793 4.793 0 0 0 11.303 31.858 A 3.574 3.574 0 0 0 11.9 31.725 A 30.298 30.298 0 0 0 12.091 31.664 Q 12.427 31.555 12.529 31.511 A 0.463 0.463 0 0 0 12.55 31.5 L 12.6 30.05 A 0.435 0.435 0 0 0 12.519 30.061 Q 12.322 30.101 11.818 30.294 A 18.101 18.101 0 0 0 11.8 30.3 Q 11.722 30.418 11.614 30.626 A 8.587 8.587 0 0 0 11.55 30.75 A 2.11 2.11 0 0 1 11.152 31.299 A 2.247 2.247 0 0 1 11.15 31.3 Q 10.85 31.15 10.625 30.275 A 7.223 7.223 0 0 1 10.415 28.893 A 8.49 8.49 0 0 1 10.4 28.4 Q 10.4 26.939 10.519 26.099 A 5.048 5.048 0 0 1 10.6 25.65 A 23.841 23.841 0 0 0 11.744 25.445 Q 12.931 25.205 14.52 24.791 A 85.105 85.105 0 0 0 15.05 24.65 A 29.137 29.137 0 0 1 15.81 24.444 Q 16.953 24.15 17.45 24.15 A 2.33 2.33 0 0 1 17.821 24.177 Q 18.469 24.282 18.499 24.8 A 0.884 0.884 0 0 1 18.5 24.85 Q 18.5 24.978 18.247 25.812 A 50.803 50.803 0 0 1 18.15 26.125 Q 17.8 27.25 17.8 28.85 A 14.389 14.389 0 0 0 17.84 29.89 A 17.328 17.328 0 0 0 17.9 30.55 A 11.993 11.993 0 0 1 19.876 30.901 A 15.67 15.67 0 0 1 21.5 31.425 Q 22.512 31.811 22.985 32.403 A 1.863 1.863 0 0 1 23.4 33.6 A 1.765 1.765 0 0 1 23.313 34.171 A 1.434 1.434 0 0 1 22.75 34.9 A 2.429 2.429 0 0 1 21.908 35.264 Q 21.538 35.35 21.1 35.35 A 1.034 1.034 0 0 0 20.951 35.362 Q 20.797 35.385 20.6 35.45 L 20.15 35.6 Q 19.373 35.911 18.898 35.981 A 1.731 1.731 0 0 1 18.65 36 A 2.151 2.151 0 0 1 18.287 35.963 Q 17.596 35.842 16.275 35.325 Q 14.975 34.817 14.257 34.436 A 5.701 5.701 0 0 1 13.85 34.2 Q 13.681 34.243 13.44 34.428 A 3.007 3.007 0 0 0 13.35 34.5 A 2.496 2.496 0 0 1 13.226 34.598 Q 13.037 34.737 12.923 34.749 A 0.201 0.201 0 0 1 12.9 34.75 Q 12.4 34.75 11.95 34.575 A 14.371 14.371 0 0 0 11.741 34.496 Q 11.55 34.425 11.42 34.385 A 2.242 2.242 0 0 0 11.3 34.35 A 2.991 2.991 0 0 1 11.299 34.439 Q 11.295 34.578 11.279 34.817 A 26.186 26.186 0 0 1 11.275 34.875 Q 11.25 35.25 11.15 35.475 A 0.409 0.409 0 0 1 11.066 35.601 Q 10.986 35.681 10.862 35.697 A 0.497 0.497 0 0 1 10.8 35.7 Q 10.35 35.7 9.975 34.575 Q 9.641 33.573 9.565 33.305 A 1.846 1.846 0 0 1 9.55 33.25 Z M 9.201 24.854 A 9.165 9.165 0 0 0 10.5 24.95 Q 10.947 24.95 11.548 24.832 A 10.478 10.478 0 0 0 12.125 24.7 Q 13.1 24.45 14.1 24.15 A 108.546 108.546 0 0 1 14.178 24.129 Q 15.33 23.806 16.205 23.588 A 38.539 38.539 0 0 1 16.775 23.45 Q 17.85 23.2 18.85 23.2 A 138.346 138.346 0 0 1 19.554 23.202 Q 21.019 23.21 21.55 23.25 A 2.785 2.785 0 0 0 21.597 23.228 A 2.24 2.24 0 0 0 22.65 22.2 Q 22.447 21.916 21.353 21.863 A 11.414 11.414 0 0 0 20.8 21.85 A 11.53 11.53 0 0 0 20.626 21.852 Q 20.013 21.861 19.335 21.935 A 18.974 18.974 0 0 0 17.9 22.15 Q 17.625 22.219 17.209 22.288 A 19.208 19.208 0 0 1 16.8 22.35 A 2.34 2.34 0 0 1 16.89 21.855 A 2.525 2.525 0 0 1 17.3 21.05 A 5.151 5.151 0 0 0 17.308 21.037 Q 17.555 20.602 17.647 20.245 A 1.593 1.593 0 0 0 17.7 19.85 A 2.743 2.743 0 0 0 17.698 19.73 A 2.296 2.296 0 0 0 17.4 18.675 A 2.362 2.362 0 0 0 17.286 18.494 Q 17.176 18.336 17.053 18.223 A 1.08 1.08 0 0 0 16.7 18 A 2.964 2.964 0 0 0 16.479 18.084 A 3.151 3.151 0 0 0 15.6 18.65 A 6.386 6.386 0 0 0 15.436 18.804 Q 15.197 19.034 15.063 19.22 A 1.306 1.306 0 0 0 14.95 19.4 A 0.629 0.629 0 0 0 14.978 19.449 Q 15.054 19.573 15.21 19.714 A 2.76 2.76 0 0 0 15.375 19.85 Q 15.514 19.957 15.593 20.072 A 0.57 0.57 0 0 1 15.7 20.4 Q 15.7 20.783 15.363 21.547 A 11.639 11.639 0 0 1 15.125 22.05 A 11.89 11.89 0 0 1 15.096 22.109 Q 14.678 22.934 14.409 23.135 A 0.274 0.274 0 0 1 14.25 23.2 Q 14.103 23.2 13.982 23.064 A 0.768 0.768 0 0 1 13.9 22.95 A 8.908 8.908 0 0 1 13.939 22.783 Q 14.01 22.494 14.121 22.107 A 31.183 31.183 0 0 1 14.225 21.75 A 5.746 5.746 0 0 0 14.38 21.111 A 4.324 4.324 0 0 0 14.45 20.35 A 0.75 0.75 0 0 0 14.447 20.28 A 0.596 0.596 0 0 0 14.35 20 A 0.431 0.431 0 0 0 14.299 19.937 A 0.27 0.27 0 0 0 14.1 19.85 A 0.532 0.532 0 0 0 13.841 19.915 A 0.609 0.609 0 0 0 13.675 20.05 A 2.274 2.274 0 0 0 13.612 20.127 Q 13.504 20.262 13.371 20.463 A 8.839 8.839 0 0 0 13.25 20.65 Q 13 21.05 12.85 21.3 A 2.258 2.258 0 0 1 12.768 21.428 A 2.556 2.556 0 0 1 12.475 21.775 A 1.109 1.109 0 0 0 12.454 21.798 Q 12.25 22.013 12.25 22.25 Q 12.35 22.4 12.625 22.475 A 0.98 0.98 0 0 1 12.68 22.492 Q 12.789 22.529 12.844 22.58 A 0.161 0.161 0 0 1 12.9 22.7 Q 12.9 23.4 12.55 23.6 A 0.677 0.677 0 0 1 12.538 23.608 Q 12.182 23.8 11.2 23.8 Q 10.65 23.8 10.125 23.7 Q 9.728 23.625 9.516 23.578 A 4.723 4.723 0 0 1 9.4 23.55 A 8.01 8.01 0 0 0 8.954 23.432 Q 8.386 23.3 7.95 23.3 A 1.98 1.98 0 0 0 7.917 23.301 A 1.656 1.656 0 0 0 7.05 23.55 A 22.963 22.963 0 0 0 6.939 23.62 Q 6.708 23.767 6.632 23.825 A 0.323 0.323 0 0 0 6.6 23.85 Q 6.926 24.248 7.643 24.502 A 5.519 5.519 0 0 0 8.25 24.675 A 11.67 11.67 0 0 0 9.201 24.854 Z M 17.637 34.439 A 2.606 2.606 0 0 0 17.8 34.325 Q 18.172 34.047 18.405 33.92 A 1.397 1.397 0 0 1 18.55 33.85 A 1.24 1.24 0 0 1 18.699 33.803 Q 18.949 33.739 19.422 33.687 A 13.403 13.403 0 0 1 19.525 33.675 A 5.364 5.364 0 0 0 19.925 33.62 Q 20.316 33.549 20.568 33.429 A 1.403 1.403 0 0 0 20.625 33.4 A 0.669 0.669 0 0 0 20.964 32.96 Q 21 32.822 21 32.65 Q 21 32.285 20.123 31.94 A 5.883 5.883 0 0 0 19.95 31.875 A 8.778 8.778 0 0 0 19.1 31.617 Q 18.664 31.509 18.269 31.468 A 4.871 4.871 0 0 0 18.05 31.45 A 0.903 0.903 0 0 0 18.055 31.536 Q 18.065 31.634 18.093 31.776 A 5.316 5.316 0 0 0 18.125 31.925 Q 18.188 32.196 18.198 32.415 A 1.797 1.797 0 0 1 18.2 32.5 A 0.985 0.985 0 0 1 18.168 32.746 Q 18.13 32.891 18.05 33.05 Q 17.7 33.3 17.15 33.5 Q 16.6 33.7 16.2 33.7 Q 16.1 33.55 16.05 33.375 Q 16 33.2 15.9 33.05 A 1.93 1.93 0 0 0 15.631 33.165 Q 15.449 33.259 15.25 33.4 A 3.358 3.358 0 0 1 14.995 33.567 Q 14.788 33.688 14.6 33.75 Q 14.8 34.05 15.6 34.375 A 7.206 7.206 0 0 0 15.979 34.518 Q 16.513 34.7 16.85 34.7 Q 17.226 34.7 17.637 34.439 Z M 17.45 13.6 L 17.5 12.55 A 2.703 2.703 0 0 0 17.483 12.231 Q 17.445 11.908 17.319 11.75 A 0.387 0.387 0 0 0 17 11.6 Q 16.872 11.6 16.305 11.948 A 16.199 16.199 0 0 0 16.1 12.075 A 18.428 18.428 0 0 1 15.744 12.296 Q 15.357 12.529 15.068 12.672 A 4.574 4.574 0 0 1 14.9 12.75 Q 14.343 13.768 14.151 14.613 A 3.791 3.791 0 0 0 14.05 15.45 A 2.012 2.012 0 0 0 14.363 15.422 Q 14.7 15.369 15.18 15.213 A 11.587 11.587 0 0 0 15.575 15.075 A 19.14 19.14 0 0 0 17.043 14.471 A 16.957 16.957 0 0 0 17.5 14.25 Q 17.45 14.05 17.45 13.6 Z M 13.729 11.818 A 3.533 3.533 0 0 0 14.05 11.65 A 4.309 4.309 0 0 0 14.096 11.556 Q 14.207 11.319 14.456 10.745 A 106.008 106.008 0 0 0 14.475 10.7 A 6.019 6.019 0 0 0 14.633 10.302 Q 14.772 9.904 14.796 9.613 A 1.405 1.405 0 0 0 14.8 9.5 Q 14.8 9.118 14.367 8.896 A 1.461 1.461 0 0 0 14.325 8.875 Q 13.85 8.65 13.35 8.65 A 1.987 1.987 0 0 0 13.328 8.792 Q 13.295 9.065 13.275 9.6 A 7.991 7.991 0 0 1 13.228 10.243 Q 13.191 10.557 13.129 10.833 A 4.879 4.879 0 0 1 13.125 10.85 A 1.92 1.92 0 0 1 13.049 11.107 Q 12.94 11.395 12.758 11.517 A 0.525 0.525 0 0 1 12.7 11.55 A 1.67 1.67 0 0 0 12.741 11.703 Q 12.831 11.98 12.979 11.999 A 0.172 0.172 0 0 0 13 12 Q 13.325 12 13.729 11.818 Z M 13.4 13.1 L 12.95 13.15 Q 12.55 13.15 12.15 13.05 Q 11.75 12.95 11.65 12.8 A 0.744 0.744 0 0 0 11.625 12.903 Q 11.606 13.009 11.602 13.16 A 3.193 3.193 0 0 0 11.6 13.25 A 2.424 2.424 0 0 0 11.621 13.551 Q 11.66 13.865 11.775 14.275 A 12.27 12.27 0 0 1 11.844 14.529 Q 11.931 14.868 11.947 15.035 A 0.699 0.699 0 0 1 11.95 15.1 L 11.9 15.35 A 0.641 0.641 0 0 0 12.056 15.444 Q 12.216 15.51 12.395 15.467 A 0.7 0.7 0 0 0 12.45 15.45 Q 13 14.9 13.4 13.1 Z M 13.8 29.8 L 13.8 31.15 Q 14.9 30.95 15.75 30.6 Q 15.75 29.75 15.7 29.3 Q 15.3 29.4 14.825 29.525 A 106.671 106.671 0 0 0 14.332 29.657 A 133.293 133.293 0 0 0 13.8 29.8 Z M 13.7 27.8 L 13.7 28.9 A 4.585 4.585 0 0 0 14.142 28.845 Q 14.766 28.738 15.7 28.45 Q 15.7 27.7 15.75 27.3 A 15.93 15.93 0 0 1 14.624 27.616 A 12.106 12.106 0 0 1 13.7 27.8 Z M 15.8 26.55 L 15.85 25.4 A 12.657 12.657 0 0 0 15.492 25.486 Q 15.175 25.566 14.8 25.675 A 13.178 13.178 0 0 1 14.516 25.755 Q 14.207 25.838 13.981 25.879 A 3.425 3.425 0 0 1 13.85 25.9 Q 13.8 26.2 13.75 26.45 Q 13.7 26.7 13.7 26.95 A 14.764 14.764 0 0 0 14.194 26.872 Q 14.428 26.83 14.63 26.785 A 6.908 6.908 0 0 0 14.875 26.725 Q 15.35 26.6 15.8 26.55 Z M 14.1 32.85 A 0.905 0.905 0 0 0 14.259 32.835 Q 14.427 32.804 14.66 32.717 A 4.688 4.688 0 0 0 14.825 32.65 A 7.877 7.877 0 0 1 15.564 32.384 A 9.177 9.177 0 0 1 15.85 32.3 A 5.525 5.525 0 0 1 15.815 32.084 Q 15.763 31.713 15.798 31.515 A 0.66 0.66 0 0 1 15.8 31.5 Q 15.332 31.547 14.776 31.726 A 7.074 7.074 0 0 0 14.7 31.75 Q 14.148 31.935 13.892 32.034 A 4.556 4.556 0 0 0 13.85 32.05 A 2.09 2.09 0 0 0 13.876 32.381 A 1.697 1.697 0 0 0 13.925 32.6 A 1.096 1.096 0 0 0 13.954 32.685 Q 14.019 32.85 14.1 32.85 Z M 12.55 32.4 L 10.85 32.95 L 11.2 33.75 Q 11.9 33.6 12.8 33.2 Q 12.564 32.916 12.551 32.453 A 1.938 1.938 0 0 1 12.55 32.4 Z M 12.8 26.15 L 11.6 26.35 L 11.6 27.25 L 11.8 27.3 Q 12.068 27.3 12.277 27.261 A 1.705 1.705 0 0 0 12.325 27.25 Q 12.493 27.213 12.619 27.176 A 2.49 2.49 0 0 0 12.7 27.15 Q 12.7 26.879 12.747 26.514 A 9.456 9.456 0 0 1 12.8 26.15 Z M 12.6 29.15 L 12.6 28 Q 12.2 28.05 11.9 28.1 A 1.436 1.436 0 0 0 11.802 28.12 Q 11.6 28.168 11.6 28.25 L 11.6 28.55 L 11.65 29.25 A 2.208 2.208 0 0 0 11.792 29.245 Q 12.001 29.231 12.364 29.183 A 23.597 23.597 0 0 0 12.6 29.15 Z" vector-effect="non-scaling-stroke"/></g></svg>