<svg width="58" height="83" viewBox="0 0 29 41.5" xmlns="http://www.w3.org/2000/svg"><g id="svgGroup" stroke-linecap="round" fill-rule="evenodd" font-size="9pt" stroke="#000" stroke-width="0.05mm" fill="#000" style="stroke:#000;stroke-width:0.05mm;fill:#000"><path d="M 0 38.5 L 0 3 A 2.89 2.89 0 0 1 0.848 0.903 A 3.442 3.442 0 0 1 0.875 0.875 A 2.889 2.889 0 0 1 2.961 0.001 A 3.547 3.547 0 0 1 3 0 L 26 0 A 2.89 2.89 0 0 1 28.098 0.848 A 3.442 3.442 0 0 1 28.125 0.875 A 2.889 2.889 0 0 1 29 2.961 A 3.547 3.547 0 0 1 29 3 L 29 38.5 A 2.89 2.89 0 0 1 28.153 40.598 A 3.442 3.442 0 0 1 28.125 40.625 A 2.889 2.889 0 0 1 26.039 41.5 A 3.547 3.547 0 0 1 26 41.5 L 3 41.5 A 2.89 2.89 0 0 1 0.903 40.653 A 3.442 3.442 0 0 1 0.875 40.625 A 2.889 2.889 0 0 1 0.001 38.539 A 3.547 3.547 0 0 1 0 38.5 Z M 3 40 L 26 40 A 1.628 1.628 0 0 0 26.542 39.914 A 1.403 1.403 0 0 0 27.075 39.575 A 1.436 1.436 0 0 0 27.498 38.602 A 1.91 1.91 0 0 0 27.5 38.5 L 27.5 3 A 1.628 1.628 0 0 0 27.414 2.459 A 1.403 1.403 0 0 0 27.075 1.925 A 1.436 1.436 0 0 0 26.102 1.503 A 1.91 1.91 0 0 0 26 1.5 L 3 1.5 A 1.628 1.628 0 0 0 2.459 1.587 A 1.403 1.403 0 0 0 1.925 1.925 A 1.436 1.436 0 0 0 1.503 2.899 A 1.91 1.91 0 0 0 1.5 3 L 1.5 38.5 A 1.628 1.628 0 0 0 1.587 39.042 A 1.403 1.403 0 0 0 1.925 39.575 A 1.436 1.436 0 0 0 2.899 39.998 A 1.91 1.91 0 0 0 3 40 Z M 4.712 34.862 A 3.846 3.846 0 0 0 7.5 36 Q 8.6 36 9.525 35.425 Q 10.45 34.85 11 33.95 Q 11.55 34.85 12.475 35.425 Q 13.4 36 14.5 36 Q 15.6 36 16.525 35.425 Q 17.45 34.85 18 33.95 Q 18.55 34.85 19.475 35.425 Q 20.4 36 21.5 36 A 4.604 4.604 0 0 0 21.552 36 A 3.848 3.848 0 0 0 24.325 34.825 A 4.701 4.701 0 0 0 24.362 34.789 A 3.846 3.846 0 0 0 25.5 32 A 4.604 4.604 0 0 0 25.5 31.949 A 3.848 3.848 0 0 0 24.325 29.175 A 4.701 4.701 0 0 0 24.289 29.139 A 3.846 3.846 0 0 0 21.5 28 Q 20.4 28 19.475 28.575 Q 18.55 29.15 18 30.05 Q 17.45 29.15 16.525 28.575 Q 15.6 28 14.5 28 Q 13.4 28 12.475 28.575 Q 11.55 29.15 11 30.05 Q 10.45 29.15 9.525 28.575 Q 8.6 28 7.5 28 A 4.604 4.604 0 0 0 7.449 28.001 A 3.848 3.848 0 0 0 4.675 29.175 A 4.701 4.701 0 0 0 4.639 29.212 A 3.846 3.846 0 0 0 3.5 32 A 4.604 4.604 0 0 0 3.501 32.052 A 3.848 3.848 0 0 0 4.675 34.825 A 4.701 4.701 0 0 0 4.712 34.862 Z M 4.712 23.612 A 3.846 3.846 0 0 0 7.5 24.75 Q 8.6 24.75 9.525 24.175 Q 10.45 23.6 11 22.7 Q 11.55 23.6 12.475 24.175 Q 13.4 24.75 14.5 24.75 Q 15.6 24.75 16.525 24.175 Q 17.45 23.6 18 22.7 Q 18.55 23.6 19.475 24.175 Q 20.4 24.75 21.5 24.75 A 4.604 4.604 0 0 0 21.552 24.75 A 3.848 3.848 0 0 0 24.325 23.575 A 4.701 4.701 0 0 0 24.362 23.539 A 3.846 3.846 0 0 0 25.5 20.75 A 4.604 4.604 0 0 0 25.5 20.699 A 3.848 3.848 0 0 0 24.325 17.925 A 4.701 4.701 0 0 0 24.289 17.889 A 3.846 3.846 0 0 0 21.5 16.75 Q 20.4 16.75 19.475 17.325 Q 18.55 17.9 18 18.8 Q 17.45 17.9 16.525 17.325 Q 15.6 16.75 14.5 16.75 Q 13.4 16.75 12.475 17.325 Q 11.55 17.9 11 18.8 Q 10.45 17.9 9.525 17.325 Q 8.6 16.75 7.5 16.75 A 4.604 4.604 0 0 0 7.449 16.751 A 3.848 3.848 0 0 0 4.675 17.925 A 4.701 4.701 0 0 0 4.639 17.962 A 3.846 3.846 0 0 0 3.5 20.75 A 4.604 4.604 0 0 0 3.501 20.802 A 3.848 3.848 0 0 0 4.675 23.575 A 4.701 4.701 0 0 0 4.712 23.612 Z M 4.712 12.362 A 3.846 3.846 0 0 0 7.5 13.5 Q 8.6 13.5 9.525 12.925 Q 10.45 12.35 11 11.45 Q 11.55 12.35 12.475 12.925 Q 13.4 13.5 14.5 13.5 Q 15.6 13.5 16.525 12.925 Q 17.45 12.35 18 11.45 Q 18.55 12.35 19.475 12.925 Q 20.4 13.5 21.5 13.5 A 4.604 4.604 0 0 0 21.552 13.5 A 3.848 3.848 0 0 0 24.325 12.325 A 4.701 4.701 0 0 0 24.362 12.289 A 3.846 3.846 0 0 0 25.5 9.5 A 4.604 4.604 0 0 0 25.5 9.449 A 3.848 3.848 0 0 0 24.325 6.675 A 4.701 4.701 0 0 0 24.289 6.639 A 3.846 3.846 0 0 0 21.5 5.5 Q 20.4 5.5 19.475 6.075 Q 18.55 6.65 18 7.55 Q 17.45 6.65 16.525 6.075 Q 15.6 5.5 14.5 5.5 Q 13.4 5.5 12.475 6.075 Q 11.55 6.65 11 7.55 Q 10.45 6.65 9.525 6.075 Q 8.6 5.5 7.5 5.5 A 4.604 4.604 0 0 0 7.449 5.501 A 3.848 3.848 0 0 0 4.675 6.675 A 4.701 4.701 0 0 0 4.639 6.712 A 3.846 3.846 0 0 0 3.5 9.5 A 4.604 4.604 0 0 0 3.501 9.552 A 3.848 3.848 0 0 0 4.675 12.325 A 4.701 4.701 0 0 0 4.712 12.362 Z M 21.5 12.5 A 2.89 2.89 0 0 0 23.598 11.653 A 3.442 3.442 0 0 0 23.625 11.625 A 2.889 2.889 0 0 0 24.5 9.539 A 3.547 3.547 0 0 0 24.5 9.5 A 2.89 2.89 0 0 0 23.653 7.403 A 3.442 3.442 0 0 0 23.625 7.375 A 2.889 2.889 0 0 0 21.539 6.501 A 3.547 3.547 0 0 0 21.5 6.5 A 2.89 2.89 0 0 0 19.403 7.348 A 3.442 3.442 0 0 0 19.375 7.375 A 2.889 2.889 0 0 0 18.501 9.461 A 3.547 3.547 0 0 0 18.5 9.5 A 2.89 2.89 0 0 0 19.348 11.598 A 3.442 3.442 0 0 0 19.375 11.625 A 2.889 2.889 0 0 0 21.461 12.5 A 3.547 3.547 0 0 0 21.5 12.5 Z M 7.5 35 A 2.89 2.89 0 0 0 9.598 34.153 A 3.442 3.442 0 0 0 9.625 34.125 A 2.889 2.889 0 0 0 10.5 32.039 A 3.547 3.547 0 0 0 10.5 32 A 2.89 2.89 0 0 0 9.653 29.903 A 3.442 3.442 0 0 0 9.625 29.875 A 2.889 2.889 0 0 0 7.539 29.001 A 3.547 3.547 0 0 0 7.5 29 A 2.89 2.89 0 0 0 5.403 29.848 A 3.442 3.442 0 0 0 5.375 29.875 A 2.889 2.889 0 0 0 4.501 31.961 A 3.547 3.547 0 0 0 4.5 32 A 2.89 2.89 0 0 0 5.348 34.098 A 3.442 3.442 0 0 0 5.375 34.125 A 2.889 2.889 0 0 0 7.461 35 A 3.547 3.547 0 0 0 7.5 35 Z M 14.5 12.5 A 2.89 2.89 0 0 0 16.598 11.653 A 3.442 3.442 0 0 0 16.625 11.625 A 2.889 2.889 0 0 0 17.5 9.539 A 3.547 3.547 0 0 0 17.5 9.5 A 2.89 2.89 0 0 0 16.653 7.403 A 3.442 3.442 0 0 0 16.625 7.375 A 2.889 2.889 0 0 0 14.539 6.501 A 3.547 3.547 0 0 0 14.5 6.5 A 2.89 2.89 0 0 0 12.403 7.348 A 3.442 3.442 0 0 0 12.375 7.375 A 2.889 2.889 0 0 0 11.501 9.461 A 3.547 3.547 0 0 0 11.5 9.5 A 2.89 2.89 0 0 0 12.348 11.598 A 3.442 3.442 0 0 0 12.375 11.625 A 2.889 2.889 0 0 0 14.461 12.5 A 3.547 3.547 0 0 0 14.5 12.5 Z M 7.5 23.75 A 2.89 2.89 0 0 0 9.598 22.903 A 3.442 3.442 0 0 0 9.625 22.875 A 2.889 2.889 0 0 0 10.5 20.789 A 3.547 3.547 0 0 0 10.5 20.75 A 2.89 2.89 0 0 0 9.653 18.653 A 3.442 3.442 0 0 0 9.625 18.625 A 2.889 2.889 0 0 0 7.539 17.751 A 3.547 3.547 0 0 0 7.5 17.75 A 2.89 2.89 0 0 0 5.403 18.598 A 3.442 3.442 0 0 0 5.375 18.625 A 2.889 2.889 0 0 0 4.501 20.711 A 3.547 3.547 0 0 0 4.5 20.75 A 2.89 2.89 0 0 0 5.348 22.848 A 3.442 3.442 0 0 0 5.375 22.875 A 2.889 2.889 0 0 0 7.461 23.75 A 3.547 3.547 0 0 0 7.5 23.75 Z M 21.5 23.75 A 2.89 2.89 0 0 0 23.598 22.903 A 3.442 3.442 0 0 0 23.625 22.875 A 2.889 2.889 0 0 0 24.5 20.789 A 3.547 3.547 0 0 0 24.5 20.75 A 2.89 2.89 0 0 0 23.653 18.653 A 3.442 3.442 0 0 0 23.625 18.625 A 2.889 2.889 0 0 0 21.539 17.751 A 3.547 3.547 0 0 0 21.5 17.75 A 2.89 2.89 0 0 0 19.403 18.598 A 3.442 3.442 0 0 0 19.375 18.625 A 2.889 2.889 0 0 0 18.501 20.711 A 3.547 3.547 0 0 0 18.5 20.75 A 2.89 2.89 0 0 0 19.348 22.848 A 3.442 3.442 0 0 0 19.375 22.875 A 2.889 2.889 0 0 0 21.461 23.75 A 3.547 3.547 0 0 0 21.5 23.75 Z M 21.5 35 A 2.89 2.89 0 0 0 23.598 34.153 A 3.442 3.442 0 0 0 23.625 34.125 A 2.889 2.889 0 0 0 24.5 32.039 A 3.547 3.547 0 0 0 24.5 32 A 2.89 2.89 0 0 0 23.653 29.903 A 3.442 3.442 0 0 0 23.625 29.875 A 2.889 2.889 0 0 0 21.539 29.001 A 3.547 3.547 0 0 0 21.5 29 A 2.89 2.89 0 0 0 19.403 29.848 A 3.442 3.442 0 0 0 19.375 29.875 A 2.889 2.889 0 0 0 18.501 31.961 A 3.547 3.547 0 0 0 18.5 32 A 2.89 2.89 0 0 0 19.348 34.098 A 3.442 3.442 0 0 0 19.375 34.125 A 2.889 2.889 0 0 0 21.461 35 A 3.547 3.547 0 0 0 21.5 35 Z M 7.5 12.5 A 2.89 2.89 0 0 0 9.598 11.653 A 3.442 3.442 0 0 0 9.625 11.625 A 2.889 2.889 0 0 0 10.5 9.539 A 3.547 3.547 0 0 0 10.5 9.5 A 2.89 2.89 0 0 0 9.653 7.403 A 3.442 3.442 0 0 0 9.625 7.375 A 2.889 2.889 0 0 0 7.539 6.501 A 3.547 3.547 0 0 0 7.5 6.5 A 2.89 2.89 0 0 0 5.403 7.348 A 3.442 3.442 0 0 0 5.375 7.375 A 2.889 2.889 0 0 0 4.501 9.461 A 3.547 3.547 0 0 0 4.5 9.5 A 2.89 2.89 0 0 0 5.348 11.598 A 3.442 3.442 0 0 0 5.375 11.625 A 2.889 2.889 0 0 0 7.461 12.5 A 3.547 3.547 0 0 0 7.5 12.5 Z M 14.5 23.75 A 2.89 2.89 0 0 0 16.598 22.903 A 3.442 3.442 0 0 0 16.625 22.875 A 2.889 2.889 0 0 0 17.5 20.789 A 3.547 3.547 0 0 0 17.5 20.75 A 2.89 2.89 0 0 0 16.653 18.653 A 3.442 3.442 0 0 0 16.625 18.625 A 2.889 2.889 0 0 0 14.539 17.751 A 3.547 3.547 0 0 0 14.5 17.75 A 2.89 2.89 0 0 0 12.403 18.598 A 3.442 3.442 0 0 0 12.375 18.625 A 2.889 2.889 0 0 0 11.501 20.711 A 3.547 3.547 0 0 0 11.5 20.75 A 2.89 2.89 0 0 0 12.348 22.848 A 3.442 3.442 0 0 0 12.375 22.875 A 2.889 2.889 0 0 0 14.461 23.75 A 3.547 3.547 0 0 0 14.5 23.75 Z M 14.5 35 A 2.89 2.89 0 0 0 16.598 34.153 A 3.442 3.442 0 0 0 16.625 34.125 A 2.889 2.889 0 0 0 17.5 32.039 A 3.547 3.547 0 0 0 17.5 32 A 2.89 2.89 0 0 0 16.653 29.903 A 3.442 3.442 0 0 0 16.625 29.875 A 2.889 2.889 0 0 0 14.539 29.001 A 3.547 3.547 0 0 0 14.5 29 A 2.89 2.89 0 0 0 12.403 29.848 A 3.442 3.442 0 0 0 12.375 29.875 A 2.889 2.889 0 0 0 11.501 31.961 A 3.547 3.547 0 0 0 11.5 32 A 2.89 2.89 0 0 0 12.348 34.098 A 3.442 3.442 0 0 0 12.375 34.125 A 2.889 2.889 0 0 0 14.461 35 A 3.547 3.547 0 0 0 14.5 35 Z M 20.429 23.024 A 2.504 2.504 0 0 0 21.5 23.25 Q 22.55 23.25 23.275 22.525 A 2.466 2.466 0 0 0 23.774 21.822 A 2.504 2.504 0 0 0 24 20.75 Q 24 19.7 23.275 18.975 A 2.466 2.466 0 0 0 22.572 18.477 A 2.504 2.504 0 0 0 21.5 18.25 Q 20.45 18.25 19.725 18.975 A 2.466 2.466 0 0 0 19.227 19.679 A 2.504 2.504 0 0 0 19 20.75 Q 19 21.8 19.725 22.525 A 2.466 2.466 0 0 0 20.429 23.024 Z M 20.429 34.274 A 2.504 2.504 0 0 0 21.5 34.5 Q 22.55 34.5 23.275 33.775 A 2.466 2.466 0 0 0 23.774 33.072 A 2.504 2.504 0 0 0 24 32 Q 24 30.95 23.275 30.225 A 2.466 2.466 0 0 0 22.572 29.727 A 2.504 2.504 0 0 0 21.5 29.5 Q 20.45 29.5 19.725 30.225 A 2.466 2.466 0 0 0 19.227 30.929 A 2.504 2.504 0 0 0 19 32 Q 19 33.05 19.725 33.775 A 2.466 2.466 0 0 0 20.429 34.274 Z M 13.429 23.024 A 2.504 2.504 0 0 0 14.5 23.25 Q 15.55 23.25 16.275 22.525 A 2.466 2.466 0 0 0 16.774 21.822 A 2.504 2.504 0 0 0 17 20.75 Q 17 19.7 16.275 18.975 A 2.466 2.466 0 0 0 15.572 18.477 A 2.504 2.504 0 0 0 14.5 18.25 Q 13.45 18.25 12.725 18.975 A 2.466 2.466 0 0 0 12.227 19.679 A 2.504 2.504 0 0 0 12 20.75 Q 12 21.8 12.725 22.525 A 2.466 2.466 0 0 0 13.429 23.024 Z M 13.429 34.274 A 2.504 2.504 0 0 0 14.5 34.5 Q 15.55 34.5 16.275 33.775 A 2.466 2.466 0 0 0 16.774 33.072 A 2.504 2.504 0 0 0 17 32 Q 17 30.95 16.275 30.225 A 2.466 2.466 0 0 0 15.572 29.727 A 2.504 2.504 0 0 0 14.5 29.5 Q 13.45 29.5 12.725 30.225 A 2.466 2.466 0 0 0 12.227 30.929 A 2.504 2.504 0 0 0 12 32 Q 12 33.05 12.725 33.775 A 2.466 2.466 0 0 0 13.429 34.274 Z M 13.429 11.774 A 2.504 2.504 0 0 0 14.5 12 Q 15.55 12 16.275 11.275 A 2.466 2.466 0 0 0 16.774 10.572 A 2.504 2.504 0 0 0 17 9.5 Q 17 8.45 16.275 7.725 A 2.466 2.466 0 0 0 15.572 7.227 A 2.504 2.504 0 0 0 14.5 7 Q 13.45 7 12.725 7.725 A 2.466 2.466 0 0 0 12.227 8.429 A 2.504 2.504 0 0 0 12 9.5 Q 12 10.55 12.725 11.275 A 2.466 2.466 0 0 0 13.429 11.774 Z M 20.429 11.774 A 2.504 2.504 0 0 0 21.5 12 Q 22.55 12 23.275 11.275 A 2.466 2.466 0 0 0 23.774 10.572 A 2.504 2.504 0 0 0 24 9.5 Q 24 8.45 23.275 7.725 A 2.466 2.466 0 0 0 22.572 7.227 A 2.504 2.504 0 0 0 21.5 7 Q 20.45 7 19.725 7.725 A 2.466 2.466 0 0 0 19.227 8.429 A 2.504 2.504 0 0 0 19 9.5 Q 19 10.55 19.725 11.275 A 2.466 2.466 0 0 0 20.429 11.774 Z M 6.429 34.274 A 2.504 2.504 0 0 0 7.5 34.5 Q 8.55 34.5 9.275 33.775 A 2.466 2.466 0 0 0 9.774 33.072 A 2.504 2.504 0 0 0 10 32 Q 10 30.95 9.275 30.225 A 2.466 2.466 0 0 0 8.572 29.727 A 2.504 2.504 0 0 0 7.5 29.5 Q 6.45 29.5 5.725 30.225 A 2.466 2.466 0 0 0 5.227 30.929 A 2.504 2.504 0 0 0 5 32 Q 5 33.05 5.725 33.775 A 2.466 2.466 0 0 0 6.429 34.274 Z M 6.429 11.774 A 2.504 2.504 0 0 0 7.5 12 Q 8.55 12 9.275 11.275 A 2.466 2.466 0 0 0 9.774 10.572 A 2.504 2.504 0 0 0 10 9.5 Q 10 8.45 9.275 7.725 A 2.466 2.466 0 0 0 8.572 7.227 A 2.504 2.504 0 0 0 7.5 7 Q 6.45 7 5.725 7.725 A 2.466 2.466 0 0 0 5.227 8.429 A 2.504 2.504 0 0 0 5 9.5 Q 5 10.55 5.725 11.275 A 2.466 2.466 0 0 0 6.429 11.774 Z M 6.429 23.024 A 2.504 2.504 0 0 0 7.5 23.25 Q 8.55 23.25 9.275 22.525 A 2.466 2.466 0 0 0 9.774 21.822 A 2.504 2.504 0 0 0 10 20.75 Q 10 19.7 9.275 18.975 A 2.466 2.466 0 0 0 8.572 18.477 A 2.504 2.504 0 0 0 7.5 18.25 Q 6.45 18.25 5.725 18.975 A 2.466 2.466 0 0 0 5.227 19.679 A 2.504 2.504 0 0 0 5 20.75 Q 5 21.8 5.725 22.525 A 2.466 2.466 0 0 0 6.429 23.024 Z M 7.5 21.75 A 0.954 0.954 0 0 0 8.181 21.469 A 1.253 1.253 0 0 0 8.2 21.45 A 1.045 1.045 0 0 0 8.418 21.142 A 0.94 0.94 0 0 0 8.5 20.75 A 0.954 0.954 0 0 0 8.219 20.07 A 1.253 1.253 0 0 0 8.2 20.05 A 1.045 1.045 0 0 0 7.892 19.833 A 0.94 0.94 0 0 0 7.5 19.75 A 0.954 0.954 0 0 0 6.82 20.031 A 1.253 1.253 0 0 0 6.8 20.05 A 1.045 1.045 0 0 0 6.583 20.359 A 0.94 0.94 0 0 0 6.5 20.75 A 0.954 0.954 0 0 0 6.781 21.431 A 1.253 1.253 0 0 0 6.8 21.45 A 1.045 1.045 0 0 0 7.109 21.668 A 0.94 0.94 0 0 0 7.5 21.75 Z M 7.5 33 A 0.954 0.954 0 0 0 8.181 32.719 A 1.253 1.253 0 0 0 8.2 32.7 A 1.045 1.045 0 0 0 8.418 32.392 A 0.94 0.94 0 0 0 8.5 32 A 0.954 0.954 0 0 0 8.219 31.32 A 1.253 1.253 0 0 0 8.2 31.3 A 1.045 1.045 0 0 0 7.892 31.083 A 0.94 0.94 0 0 0 7.5 31 A 0.954 0.954 0 0 0 6.82 31.281 A 1.253 1.253 0 0 0 6.8 31.3 A 1.045 1.045 0 0 0 6.583 31.609 A 0.94 0.94 0 0 0 6.5 32 A 0.954 0.954 0 0 0 6.781 32.681 A 1.253 1.253 0 0 0 6.8 32.7 A 1.045 1.045 0 0 0 7.109 32.918 A 0.94 0.94 0 0 0 7.5 33 Z M 21.5 33 A 0.954 0.954 0 0 0 22.181 32.719 A 1.253 1.253 0 0 0 22.2 32.7 A 1.045 1.045 0 0 0 22.418 32.392 A 0.94 0.94 0 0 0 22.5 32 A 0.954 0.954 0 0 0 22.219 31.32 A 1.253 1.253 0 0 0 22.2 31.3 A 1.045 1.045 0 0 0 21.892 31.083 A 0.94 0.94 0 0 0 21.5 31 A 0.954 0.954 0 0 0 20.82 31.281 A 1.253 1.253 0 0 0 20.8 31.3 A 1.045 1.045 0 0 0 20.583 31.609 A 0.94 0.94 0 0 0 20.5 32 A 0.954 0.954 0 0 0 20.781 32.681 A 1.253 1.253 0 0 0 20.8 32.7 A 1.045 1.045 0 0 0 21.109 32.918 A 0.94 0.94 0 0 0 21.5 33 Z M 7.5 10.5 A 0.954 0.954 0 0 0 8.181 10.219 A 1.253 1.253 0 0 0 8.2 10.2 A 1.045 1.045 0 0 0 8.418 9.892 A 0.94 0.94 0 0 0 8.5 9.5 A 0.954 0.954 0 0 0 8.219 8.82 A 1.253 1.253 0 0 0 8.2 8.8 A 1.045 1.045 0 0 0 7.892 8.583 A 0.94 0.94 0 0 0 7.5 8.5 A 0.954 0.954 0 0 0 6.82 8.781 A 1.253 1.253 0 0 0 6.8 8.8 A 1.045 1.045 0 0 0 6.583 9.109 A 0.94 0.94 0 0 0 6.5 9.5 A 0.954 0.954 0 0 0 6.781 10.181 A 1.253 1.253 0 0 0 6.8 10.2 A 1.045 1.045 0 0 0 7.109 10.418 A 0.94 0.94 0 0 0 7.5 10.5 Z M 14.5 21.75 A 0.954 0.954 0 0 0 15.181 21.469 A 1.253 1.253 0 0 0 15.2 21.45 A 1.045 1.045 0 0 0 15.418 21.142 A 0.94 0.94 0 0 0 15.5 20.75 A 0.954 0.954 0 0 0 15.219 20.07 A 1.253 1.253 0 0 0 15.2 20.05 A 1.045 1.045 0 0 0 14.892 19.833 A 0.94 0.94 0 0 0 14.5 19.75 A 0.954 0.954 0 0 0 13.82 20.031 A 1.253 1.253 0 0 0 13.8 20.05 A 1.045 1.045 0 0 0 13.583 20.359 A 0.94 0.94 0 0 0 13.5 20.75 A 0.954 0.954 0 0 0 13.781 21.431 A 1.253 1.253 0 0 0 13.8 21.45 A 1.045 1.045 0 0 0 14.109 21.668 A 0.94 0.94 0 0 0 14.5 21.75 Z M 14.5 33 A 0.954 0.954 0 0 0 15.181 32.719 A 1.253 1.253 0 0 0 15.2 32.7 A 1.045 1.045 0 0 0 15.418 32.392 A 0.94 0.94 0 0 0 15.5 32 A 0.954 0.954 0 0 0 15.219 31.32 A 1.253 1.253 0 0 0 15.2 31.3 A 1.045 1.045 0 0 0 14.892 31.083 A 0.94 0.94 0 0 0 14.5 31 A 0.954 0.954 0 0 0 13.82 31.281 A 1.253 1.253 0 0 0 13.8 31.3 A 1.045 1.045 0 0 0 13.583 31.609 A 0.94 0.94 0 0 0 13.5 32 A 0.954 0.954 0 0 0 13.781 32.681 A 1.253 1.253 0 0 0 13.8 32.7 A 1.045 1.045 0 0 0 14.109 32.918 A 0.94 0.94 0 0 0 14.5 33 Z M 21.5 10.5 A 0.954 0.954 0 0 0 22.181 10.219 A 1.253 1.253 0 0 0 22.2 10.2 A 1.045 1.045 0 0 0 22.418 9.892 A 0.94 0.94 0 0 0 22.5 9.5 A 0.954 0.954 0 0 0 22.219 8.82 A 1.253 1.253 0 0 0 22.2 8.8 A 1.045 1.045 0 0 0 21.892 8.583 A 0.94 0.94 0 0 0 21.5 8.5 A 0.954 0.954 0 0 0 20.82 8.781 A 1.253 1.253 0 0 0 20.8 8.8 A 1.045 1.045 0 0 0 20.583 9.109 A 0.94 0.94 0 0 0 20.5 9.5 A 0.954 0.954 0 0 0 20.781 10.181 A 1.253 1.253 0 0 0 20.8 10.2 A 1.045 1.045 0 0 0 21.109 10.418 A 0.94 0.94 0 0 0 21.5 10.5 Z M 21.5 21.75 A 0.954 0.954 0 0 0 22.181 21.469 A 1.253 1.253 0 0 0 22.2 21.45 A 1.045 1.045 0 0 0 22.418 21.142 A 0.94 0.94 0 0 0 22.5 20.75 A 0.954 0.954 0 0 0 22.219 20.07 A 1.253 1.253 0 0 0 22.2 20.05 A 1.045 1.045 0 0 0 21.892 19.833 A 0.94 0.94 0 0 0 21.5 19.75 A 0.954 0.954 0 0 0 20.82 20.031 A 1.253 1.253 0 0 0 20.8 20.05 A 1.045 1.045 0 0 0 20.583 20.359 A 0.94 0.94 0 0 0 20.5 20.75 A 0.954 0.954 0 0 0 20.781 21.431 A 1.253 1.253 0 0 0 20.8 21.45 A 1.045 1.045 0 0 0 21.109 21.668 A 0.94 0.94 0 0 0 21.5 21.75 Z M 14.5 10.5 A 0.954 0.954 0 0 0 15.181 10.219 A 1.253 1.253 0 0 0 15.2 10.2 A 1.045 1.045 0 0 0 15.418 9.892 A 0.94 0.94 0 0 0 15.5 9.5 A 0.954 0.954 0 0 0 15.219 8.82 A 1.253 1.253 0 0 0 15.2 8.8 A 1.045 1.045 0 0 0 14.892 8.583 A 0.94 0.94 0 0 0 14.5 8.5 A 0.954 0.954 0 0 0 13.82 8.781 A 1.253 1.253 0 0 0 13.8 8.8 A 1.045 1.045 0 0 0 13.583 9.109 A 0.94 0.94 0 0 0 13.5 9.5 A 0.954 0.954 0 0 0 13.781 10.181 A 1.253 1.253 0 0 0 13.8 10.2 A 1.045 1.045 0 0 0 14.109 10.418 A 0.94 0.94 0 0 0 14.5 10.5 Z M 8.55 30.35 L 8.35 29.9 Q 8 29.75 7.5 29.75 A 2.779 2.779 0 0 0 7.119 29.775 Q 6.858 29.811 6.65 29.9 L 6.45 30.35 A 0.844 0.844 0 0 0 6.575 30.595 Q 6.728 30.797 6.999 30.843 A 0.907 0.907 0 0 0 7.05 30.85 Q 7.35 30.75 7.5 30.75 A 0.671 0.671 0 0 1 7.596 30.758 Q 7.699 30.773 7.846 30.817 A 3.61 3.61 0 0 1 7.95 30.85 A 0.737 0.737 0 0 0 8.235 30.763 Q 8.454 30.639 8.55 30.35 Z M 8.55 19.1 L 8.35 18.65 Q 8 18.5 7.5 18.5 A 2.779 2.779 0 0 0 7.119 18.525 Q 6.858 18.561 6.65 18.65 L 6.45 19.1 A 0.844 0.844 0 0 0 6.575 19.345 Q 6.728 19.547 6.999 19.593 A 0.907 0.907 0 0 0 7.05 19.6 Q 7.35 19.5 7.5 19.5 A 0.671 0.671 0 0 1 7.596 19.508 Q 7.699 19.523 7.846 19.567 A 3.61 3.61 0 0 1 7.95 19.6 A 0.737 0.737 0 0 0 8.235 19.513 Q 8.454 19.389 8.55 19.1 Z M 15.55 30.35 L 15.35 29.9 Q 15 29.75 14.5 29.75 A 2.401 2.401 0 0 0 13.652 29.9 A 2.704 2.704 0 0 0 13.65 29.9 L 13.45 30.35 A 0.844 0.844 0 0 0 13.575 30.595 Q 13.728 30.797 13.999 30.843 A 0.907 0.907 0 0 0 14.05 30.85 Q 14.35 30.75 14.5 30.75 A 0.671 0.671 0 0 1 14.596 30.758 Q 14.699 30.773 14.846 30.817 A 3.61 3.61 0 0 1 14.95 30.85 A 0.737 0.737 0 0 0 15.235 30.763 Q 15.454 30.639 15.55 30.35 Z M 22.55 30.35 L 22.35 29.9 Q 22 29.75 21.5 29.75 A 2.401 2.401 0 0 0 20.652 29.9 A 2.704 2.704 0 0 0 20.65 29.9 L 20.45 30.35 A 0.844 0.844 0 0 0 20.575 30.595 Q 20.728 30.797 20.999 30.843 A 0.907 0.907 0 0 0 21.05 30.85 Q 21.35 30.75 21.5 30.75 A 0.671 0.671 0 0 1 21.596 30.758 Q 21.699 30.773 21.846 30.817 A 3.61 3.61 0 0 1 21.95 30.85 A 0.737 0.737 0 0 0 22.235 30.763 Q 22.454 30.639 22.55 30.35 Z M 15.55 19.1 L 15.35 18.65 A 2.401 2.401 0 0 0 14.501 18.5 A 2.779 2.779 0 0 0 14.119 18.525 Q 13.858 18.561 13.65 18.65 L 13.45 19.1 A 0.844 0.844 0 0 0 13.575 19.345 Q 13.728 19.547 13.999 19.593 A 0.907 0.907 0 0 0 14.05 19.6 Q 14.35 19.5 14.5 19.5 A 0.671 0.671 0 0 1 14.596 19.508 Q 14.699 19.523 14.846 19.567 A 3.61 3.61 0 0 1 14.95 19.6 A 0.737 0.737 0 0 0 15.235 19.513 Q 15.454 19.389 15.55 19.1 Z M 8.55 7.85 L 8.35 7.4 A 2.401 2.401 0 0 0 7.501 7.25 A 2.401 2.401 0 0 0 6.652 7.4 A 2.704 2.704 0 0 0 6.65 7.4 L 6.45 7.85 A 0.844 0.844 0 0 0 6.575 8.095 Q 6.728 8.297 6.999 8.343 A 0.907 0.907 0 0 0 7.05 8.35 Q 7.35 8.25 7.5 8.25 A 0.671 0.671 0 0 1 7.596 8.258 Q 7.699 8.273 7.846 8.317 A 3.61 3.61 0 0 1 7.95 8.35 A 0.737 0.737 0 0 0 8.235 8.263 Q 8.454 8.139 8.55 7.85 Z M 15.55 7.85 L 15.35 7.4 A 2.401 2.401 0 0 0 14.501 7.25 A 2.401 2.401 0 0 0 13.652 7.4 A 2.704 2.704 0 0 0 13.65 7.4 L 13.45 7.85 A 0.844 0.844 0 0 0 13.575 8.095 Q 13.728 8.297 13.999 8.343 A 0.907 0.907 0 0 0 14.05 8.35 Q 14.35 8.25 14.5 8.25 A 0.671 0.671 0 0 1 14.596 8.258 Q 14.699 8.273 14.846 8.317 A 3.61 3.61 0 0 1 14.95 8.35 A 0.737 0.737 0 0 0 15.235 8.263 Q 15.454 8.139 15.55 7.85 Z M 22.55 19.1 L 22.35 18.65 A 2.401 2.401 0 0 0 21.501 18.5 A 2.401 2.401 0 0 0 20.652 18.65 A 2.704 2.704 0 0 0 20.65 18.65 L 20.45 19.1 A 0.844 0.844 0 0 0 20.575 19.345 Q 20.728 19.547 20.999 19.593 A 0.907 0.907 0 0 0 21.05 19.6 Q 21.35 19.5 21.5 19.5 A 0.671 0.671 0 0 1 21.596 19.508 Q 21.699 19.523 21.846 19.567 A 3.61 3.61 0 0 1 21.95 19.6 A 0.737 0.737 0 0 0 22.235 19.513 Q 22.454 19.389 22.55 19.1 Z M 22.55 7.85 L 22.35 7.4 A 2.401 2.401 0 0 0 21.501 7.25 Q 21.05 7.25 20.65 7.4 L 20.45 7.85 A 0.844 0.844 0 0 0 20.575 8.095 Q 20.728 8.297 20.999 8.343 A 0.907 0.907 0 0 0 21.05 8.35 Q 21.35 8.25 21.5 8.25 A 0.671 0.671 0 0 1 21.596 8.258 Q 21.699 8.273 21.846 8.317 A 3.61 3.61 0 0 1 21.95 8.35 A 0.737 0.737 0 0 0 22.235 8.263 Q 22.454 8.139 22.55 7.85 Z M 13.95 11.65 L 14.4 11.45 L 14.4 11.05 L 14.2 10.7 Q 13.7 10.6 13.45 10.15 L 13.05 10.05 L 12.7 10.2 L 12.6 10.7 A 2.654 2.654 0 0 0 13.047 11.208 A 1.896 1.896 0 0 0 13.95 11.65 Z M 6.95 11.65 L 7.4 11.45 L 7.4 11.05 L 7.2 10.7 Q 6.7 10.6 6.45 10.15 L 6.05 10.05 L 5.7 10.2 L 5.6 10.7 A 2.654 2.654 0 0 0 6.047 11.208 A 1.896 1.896 0 0 0 6.95 11.65 Z M 20.95 11.65 L 21.4 11.45 L 21.4 11.05 L 21.2 10.7 Q 20.7 10.6 20.45 10.15 L 20.05 10.05 L 19.7 10.2 L 19.6 10.7 A 2.654 2.654 0 0 0 20.047 11.208 A 1.896 1.896 0 0 0 20.95 11.65 Z M 6.95 34.15 L 7.4 33.95 L 7.4 33.55 L 7.2 33.2 Q 6.7 33.1 6.45 32.65 L 6.05 32.55 L 5.7 32.7 L 5.6 33.2 A 2.654 2.654 0 0 0 6.047 33.708 A 1.896 1.896 0 0 0 6.95 34.15 Z M 13.95 22.9 L 14.4 22.7 L 14.4 22.3 L 14.2 21.95 Q 13.7 21.85 13.45 21.4 L 13.05 21.3 L 12.7 21.45 L 12.6 21.95 A 2.654 2.654 0 0 0 13.047 22.458 A 1.896 1.896 0 0 0 13.95 22.9 Z M 20.95 34.15 L 21.4 33.95 L 21.4 33.55 L 21.2 33.2 Q 20.7 33.1 20.45 32.65 L 20.05 32.55 L 19.7 32.7 L 19.6 33.2 A 2.654 2.654 0 0 0 20.047 33.708 A 1.896 1.896 0 0 0 20.95 34.15 Z M 20.95 22.9 L 21.4 22.7 L 21.4 22.3 L 21.2 21.95 Q 20.7 21.85 20.45 21.4 L 20.05 21.3 L 19.7 21.45 L 19.6 21.95 A 2.654 2.654 0 0 0 20.047 22.458 A 1.896 1.896 0 0 0 20.95 22.9 Z M 6.95 22.9 L 7.4 22.7 L 7.4 22.3 L 7.2 21.95 Q 6.7 21.85 6.45 21.4 L 6.05 21.3 L 5.7 21.45 L 5.6 21.95 A 2.654 2.654 0 0 0 6.047 22.458 A 1.896 1.896 0 0 0 6.95 22.9 Z M 13.95 34.15 L 14.4 33.95 L 14.4 33.55 L 14.2 33.2 Q 13.7 33.1 13.45 32.65 L 13.05 32.55 L 12.7 32.7 L 12.6 33.2 A 2.654 2.654 0 0 0 13.047 33.708 A 1.896 1.896 0 0 0 13.95 34.15 Z M 9.4 10.7 L 9.3 10.2 L 8.95 10.05 L 8.55 10.15 Q 8.3 10.6 7.8 10.7 L 7.6 11.05 L 7.6 11.45 L 8.05 11.65 Q 8.85 11.5 9.4 10.7 Z M 16.4 10.7 L 16.3 10.2 L 15.95 10.05 L 15.55 10.15 Q 15.3 10.6 14.8 10.7 L 14.6 11.05 L 14.6 11.45 L 15.05 11.65 Q 15.85 11.5 16.4 10.7 Z M 23.4 10.7 L 23.3 10.2 L 22.95 10.05 L 22.55 10.15 Q 22.3 10.6 21.8 10.7 L 21.6 11.05 L 21.6 11.45 L 22.05 11.65 Q 22.85 11.5 23.4 10.7 Z M 9.4 33.2 L 9.3 32.7 L 8.95 32.55 L 8.55 32.65 Q 8.3 33.1 7.8 33.2 L 7.6 33.55 L 7.6 33.95 L 8.05 34.15 Q 8.85 34 9.4 33.2 Z M 9.4 21.95 L 9.3 21.45 L 8.95 21.3 L 8.55 21.4 Q 8.3 21.85 7.8 21.95 L 7.6 22.3 L 7.6 22.7 L 8.05 22.9 Q 8.85 22.75 9.4 21.95 Z M 16.4 33.2 L 16.3 32.7 L 15.95 32.55 L 15.55 32.65 Q 15.3 33.1 14.8 33.2 L 14.6 33.55 L 14.6 33.95 L 15.05 34.15 Q 15.85 34 16.4 33.2 Z M 23.4 33.2 L 23.3 32.7 L 22.95 32.55 L 22.55 32.65 Q 22.3 33.1 21.8 33.2 L 21.6 33.55 L 21.6 33.95 L 22.05 34.15 Q 22.85 34 23.4 33.2 Z M 16.4 21.95 L 16.3 21.45 L 15.95 21.3 L 15.55 21.4 Q 15.3 21.85 14.8 21.95 L 14.6 22.3 L 14.6 22.7 L 15.05 22.9 Q 15.85 22.75 16.4 21.95 Z M 23.4 21.95 L 23.3 21.45 L 22.95 21.3 L 22.55 21.4 Q 22.3 21.85 21.8 21.95 L 21.6 22.3 L 21.6 22.7 L 22.05 22.9 Q 22.85 22.75 23.4 21.95 Z M 9.4 21.25 L 9.75 20.9 L 9.75 20.75 A 2.174 2.174 0 0 0 9.251 19.362 A 2.751 2.751 0 0 0 9.2 19.3 L 8.75 19.25 A 1.045 1.045 0 0 0 8.533 19.559 A 0.94 0.94 0 0 0 8.45 19.95 A 1.012 1.012 0 0 1 8.75 20.672 A 1.328 1.328 0 0 1 8.75 20.7 Q 9 21.2 9.4 21.25 Z M 9.4 32.5 L 9.75 32.15 L 9.75 32 A 2.174 2.174 0 0 0 9.251 30.612 A 2.751 2.751 0 0 0 9.2 30.55 L 8.75 30.5 A 1.045 1.045 0 0 0 8.533 30.809 A 0.94 0.94 0 0 0 8.45 31.2 A 1.012 1.012 0 0 1 8.75 31.922 A 1.328 1.328 0 0 1 8.75 31.95 Q 9 32.45 9.4 32.5 Z M 9.4 10 L 9.75 9.65 L 9.75 9.5 A 2.174 2.174 0 0 0 9.251 8.112 A 2.751 2.751 0 0 0 9.2 8.05 L 8.75 8 A 1.045 1.045 0 0 0 8.533 8.309 A 0.94 0.94 0 0 0 8.45 8.7 A 1.012 1.012 0 0 1 8.75 9.422 A 1.328 1.328 0 0 1 8.75 9.45 Q 9 9.95 9.4 10 Z M 23.4 21.25 L 23.75 20.9 L 23.75 20.75 A 2.174 2.174 0 0 0 23.251 19.362 A 2.751 2.751 0 0 0 23.2 19.3 L 22.75 19.25 A 1.045 1.045 0 0 0 22.533 19.559 A 0.94 0.94 0 0 0 22.45 19.95 A 1.012 1.012 0 0 1 22.75 20.672 A 1.328 1.328 0 0 1 22.75 20.7 Q 23 21.2 23.4 21.25 Z M 16.4 10 L 16.75 9.65 L 16.75 9.5 A 2.174 2.174 0 0 0 16.251 8.112 A 2.751 2.751 0 0 0 16.2 8.05 L 15.75 8 A 1.045 1.045 0 0 0 15.533 8.309 A 0.94 0.94 0 0 0 15.45 8.7 A 1.012 1.012 0 0 1 15.75 9.422 A 1.328 1.328 0 0 1 15.75 9.45 Q 16 9.95 16.4 10 Z M 23.4 10 L 23.75 9.65 L 23.75 9.5 A 2.174 2.174 0 0 0 23.251 8.112 A 2.751 2.751 0 0 0 23.2 8.05 L 22.75 8 A 1.045 1.045 0 0 0 22.533 8.309 A 0.94 0.94 0 0 0 22.45 8.7 A 1.012 1.012 0 0 1 22.75 9.422 A 1.328 1.328 0 0 1 22.75 9.45 Q 23 9.95 23.4 10 Z M 16.4 21.25 L 16.75 20.9 L 16.75 20.75 A 2.174 2.174 0 0 0 16.251 19.362 A 2.751 2.751 0 0 0 16.2 19.3 L 15.75 19.25 A 1.045 1.045 0 0 0 15.533 19.559 A 0.94 0.94 0 0 0 15.45 19.95 A 1.012 1.012 0 0 1 15.75 20.672 A 1.328 1.328 0 0 1 15.75 20.7 Q 16 21.2 16.4 21.25 Z M 23.4 32.5 L 23.75 32.15 L 23.75 32 A 2.174 2.174 0 0 0 23.251 30.612 A 2.751 2.751 0 0 0 23.2 30.55 L 22.75 30.5 A 1.045 1.045 0 0 0 22.533 30.809 A 0.94 0.94 0 0 0 22.45 31.2 A 1.012 1.012 0 0 1 22.75 31.922 A 1.328 1.328 0 0 1 22.75 31.95 Q 23 32.45 23.4 32.5 Z M 16.4 32.5 L 16.75 32.15 L 16.75 32 A 2.174 2.174 0 0 0 16.251 30.612 A 2.751 2.751 0 0 0 16.2 30.55 L 15.75 30.5 A 1.045 1.045 0 0 0 15.533 30.809 A 0.94 0.94 0 0 0 15.45 31.2 A 1.012 1.012 0 0 1 15.75 31.922 A 1.328 1.328 0 0 1 15.75 31.95 Q 16 32.45 16.4 32.5 Z M 6.25 30.5 L 5.8 30.55 Q 5.25 31.2 5.25 32 L 5.25 32.15 L 5.6 32.5 A 0.699 0.699 0 0 0 6.013 32.292 Q 6.145 32.161 6.25 31.95 A 1.109 1.109 0 0 1 6.319 31.556 A 0.997 0.997 0 0 1 6.55 31.2 A 0.954 0.954 0 0 0 6.269 30.52 A 1.253 1.253 0 0 0 6.25 30.5 Z M 13.25 30.5 L 12.8 30.55 Q 12.25 31.2 12.25 32 L 12.25 32.15 L 12.6 32.5 A 0.699 0.699 0 0 0 13.013 32.292 Q 13.145 32.161 13.25 31.95 A 1.109 1.109 0 0 1 13.319 31.556 A 0.997 0.997 0 0 1 13.55 31.2 A 0.954 0.954 0 0 0 13.269 30.52 A 1.253 1.253 0 0 0 13.25 30.5 Z M 6.25 8 L 5.8 8.05 Q 5.25 8.7 5.25 9.5 L 5.25 9.65 L 5.6 10 A 0.699 0.699 0 0 0 6.013 9.792 Q 6.145 9.661 6.25 9.45 A 1.109 1.109 0 0 1 6.319 9.056 A 0.997 0.997 0 0 1 6.55 8.7 A 0.954 0.954 0 0 0 6.269 8.02 A 1.253 1.253 0 0 0 6.25 8 Z M 13.25 19.25 L 12.8 19.3 Q 12.25 19.95 12.25 20.75 L 12.25 20.9 L 12.6 21.25 A 0.699 0.699 0 0 0 13.013 21.042 Q 13.145 20.911 13.25 20.7 A 1.109 1.109 0 0 1 13.319 20.306 A 0.997 0.997 0 0 1 13.55 19.95 A 0.954 0.954 0 0 0 13.269 19.27 A 1.253 1.253 0 0 0 13.25 19.25 Z M 6.25 19.25 L 5.8 19.3 Q 5.25 19.95 5.25 20.75 L 5.25 20.9 L 5.6 21.25 A 0.699 0.699 0 0 0 6.013 21.042 Q 6.145 20.911 6.25 20.7 A 1.109 1.109 0 0 1 6.319 20.306 A 0.997 0.997 0 0 1 6.55 19.95 A 0.954 0.954 0 0 0 6.269 19.27 A 1.253 1.253 0 0 0 6.25 19.25 Z M 20.25 30.5 L 19.8 30.55 Q 19.25 31.2 19.25 32 L 19.25 32.15 L 19.6 32.5 A 0.699 0.699 0 0 0 20.013 32.292 Q 20.145 32.161 20.25 31.95 A 1.109 1.109 0 0 1 20.319 31.556 A 0.997 0.997 0 0 1 20.55 31.2 A 0.954 0.954 0 0 0 20.269 30.52 A 1.253 1.253 0 0 0 20.25 30.5 Z M 13.25 8 L 12.8 8.05 Q 12.25 8.7 12.25 9.5 L 12.25 9.65 L 12.6 10 A 0.699 0.699 0 0 0 13.013 9.792 Q 13.145 9.661 13.25 9.45 A 1.109 1.109 0 0 1 13.319 9.056 A 0.997 0.997 0 0 1 13.55 8.7 A 0.954 0.954 0 0 0 13.269 8.02 A 1.253 1.253 0 0 0 13.25 8 Z M 20.25 8 L 19.8 8.05 Q 19.25 8.7 19.25 9.5 L 19.25 9.65 L 19.6 10 A 0.699 0.699 0 0 0 20.013 9.792 Q 20.145 9.661 20.25 9.45 A 1.109 1.109 0 0 1 20.319 9.056 A 0.997 0.997 0 0 1 20.55 8.7 A 0.954 0.954 0 0 0 20.269 8.02 A 1.253 1.253 0 0 0 20.25 8 Z M 20.25 19.25 L 19.8 19.3 Q 19.25 19.95 19.25 20.75 L 19.25 20.9 L 19.6 21.25 A 0.699 0.699 0 0 0 20.013 21.042 Q 20.145 20.911 20.25 20.7 A 1.109 1.109 0 0 1 20.319 20.306 A 0.997 0.997 0 0 1 20.55 19.95 A 0.954 0.954 0 0 0 20.269 19.27 A 1.253 1.253 0 0 0 20.25 19.25 Z M 7.303 9.976 A 0.72 0.72 0 0 0 7.5 10 Q 7.889 10 7.976 9.698 A 0.72 0.72 0 0 0 8 9.5 Q 8 9.112 7.698 9.025 A 0.72 0.72 0 0 0 7.5 9 Q 7.112 9 7.025 9.303 A 0.72 0.72 0 0 0 7 9.5 Q 7 9.889 7.303 9.976 Z M 7.303 21.226 A 0.72 0.72 0 0 0 7.5 21.25 Q 7.889 21.25 7.976 20.948 A 0.72 0.72 0 0 0 8 20.75 Q 8 20.362 7.698 20.275 A 0.72 0.72 0 0 0 7.5 20.25 Q 7.112 20.25 7.025 20.553 A 0.72 0.72 0 0 0 7 20.75 Q 7 21.139 7.303 21.226 Z M 7.303 32.476 A 0.72 0.72 0 0 0 7.5 32.5 Q 7.889 32.5 7.976 32.198 A 0.72 0.72 0 0 0 8 32 Q 8 31.612 7.698 31.525 A 0.72 0.72 0 0 0 7.5 31.5 Q 7.112 31.5 7.025 31.803 A 0.72 0.72 0 0 0 7 32 Q 7 32.389 7.303 32.476 Z M 14.303 21.226 A 0.72 0.72 0 0 0 14.5 21.25 Q 14.889 21.25 14.976 20.948 A 0.72 0.72 0 0 0 15 20.75 Q 15 20.362 14.698 20.275 A 0.72 0.72 0 0 0 14.5 20.25 Q 14.112 20.25 14.025 20.553 A 0.72 0.72 0 0 0 14 20.75 Q 14 21.139 14.303 21.226 Z M 14.303 9.976 A 0.72 0.72 0 0 0 14.5 10 Q 14.889 10 14.976 9.698 A 0.72 0.72 0 0 0 15 9.5 Q 15 9.112 14.698 9.025 A 0.72 0.72 0 0 0 14.5 9 Q 14.112 9 14.025 9.303 A 0.72 0.72 0 0 0 14 9.5 Q 14 9.889 14.303 9.976 Z M 21.303 9.976 A 0.72 0.72 0 0 0 21.5 10 Q 21.889 10 21.976 9.698 A 0.72 0.72 0 0 0 22 9.5 Q 22 9.112 21.698 9.025 A 0.72 0.72 0 0 0 21.5 9 Q 21.112 9 21.025 9.303 A 0.72 0.72 0 0 0 21 9.5 Q 21 9.889 21.303 9.976 Z M 21.303 21.226 A 0.72 0.72 0 0 0 21.5 21.25 Q 21.889 21.25 21.976 20.948 A 0.72 0.72 0 0 0 22 20.75 Q 22 20.362 21.698 20.275 A 0.72 0.72 0 0 0 21.5 20.25 Q 21.112 20.25 21.025 20.553 A 0.72 0.72 0 0 0 21 20.75 Q 21 21.139 21.303 21.226 Z M 14.303 32.476 A 0.72 0.72 0 0 0 14.5 32.5 Q 14.889 32.5 14.976 32.198 A 0.72 0.72 0 0 0 15 32 Q 15 31.612 14.698 31.525 A 0.72 0.72 0 0 0 14.5 31.5 Q 14.112 31.5 14.025 31.803 A 0.72 0.72 0 0 0 14 32 Q 14 32.389 14.303 32.476 Z M 21.303 32.476 A 0.72 0.72 0 0 0 21.5 32.5 Q 21.889 32.5 21.976 32.198 A 0.72 0.72 0 0 0 22 32 Q 22 31.612 21.698 31.525 A 0.72 0.72 0 0 0 21.5 31.5 Q 21.112 31.5 21.025 31.803 A 0.72 0.72 0 0 0 21 32 Q 21 32.389 21.303 32.476 Z" vector-effect="non-scaling-stroke"/></g></svg>