<svg width="58" height="83" viewBox="0 0 29 41.5" xmlns="http://www.w3.org/2000/svg"><g id="svgGroup" stroke-linecap="round" fill-rule="evenodd" font-size="9pt" stroke="#000" stroke-width="0.05mm" fill="#000" style="stroke:#000;stroke-width:0.05mm;fill:#000"><path d="M 0 38.5 L 0 3 A 2.89 2.89 0 0 1 0.848 0.903 A 3.442 3.442 0 0 1 0.875 0.875 A 2.889 2.889 0 0 1 2.961 0.001 A 3.547 3.547 0 0 1 3 0 L 26 0 A 2.89 2.89 0 0 1 28.098 0.848 A 3.442 3.442 0 0 1 28.125 0.875 A 2.889 2.889 0 0 1 29 2.961 A 3.547 3.547 0 0 1 29 3 L 29 38.5 A 2.89 2.89 0 0 1 28.153 40.598 A 3.442 3.442 0 0 1 28.125 40.625 A 2.889 2.889 0 0 1 26.039 41.5 A 3.547 3.547 0 0 1 26 41.5 L 3 41.5 A 2.89 2.89 0 0 1 0.903 40.653 A 3.442 3.442 0 0 1 0.875 40.625 A 2.889 2.889 0 0 1 0.001 38.539 A 3.547 3.547 0 0 1 0 38.5 Z M 3 40 L 26 40 A 1.628 1.628 0 0 0 26.542 39.914 A 1.403 1.403 0 0 0 27.075 39.575 A 1.436 1.436 0 0 0 27.498 38.602 A 1.91 1.91 0 0 0 27.5 38.5 L 27.5 3 A 1.628 1.628 0 0 0 27.414 2.459 A 1.403 1.403 0 0 0 27.075 1.925 A 1.436 1.436 0 0 0 26.102 1.503 A 1.91 1.91 0 0 0 26 1.5 L 3 1.5 A 1.628 1.628 0 0 0 2.459 1.587 A 1.403 1.403 0 0 0 1.925 1.925 A 1.436 1.436 0 0 0 1.503 2.899 A 1.91 1.91 0 0 0 1.5 3 L 1.5 38.5 A 1.628 1.628 0 0 0 1.587 39.042 A 1.403 1.403 0 0 0 1.925 39.575 A 1.436 1.436 0 0 0 2.899 39.998 A 1.91 1.91 0 0 0 3 40 Z M 12.85 34.25 L 12.85 31.9 Q 12.85 31.689 12.404 31.174 A 8.219 8.219 0 0 0 12.225 30.975 A 3.582 3.582 0 0 1 11.93 30.616 Q 11.631 30.193 11.603 29.825 A 0.993 0.993 0 0 1 11.6 29.75 A 1.181 1.181 0 0 1 11.692 29.311 Q 11.83 28.966 12.176 28.579 A 4.379 4.379 0 0 1 12.225 28.525 Q 12.733 27.978 12.828 27.71 A 0.332 0.332 0 0 0 12.85 27.6 L 12.85 25.2 A 0.776 0.776 0 0 0 12.605 24.628 A 1.036 1.036 0 0 0 12.575 24.6 Q 12.3 24.35 12.2 24.25 Q 11.45 23.8 11.45 23.2 A 1.205 1.205 0 0 1 11.506 22.827 A 0.952 0.952 0 0 1 11.85 22.35 A 1.938 1.938 0 0 1 12.096 22.192 Q 12.36 22.05 12.6 22.05 A 0.698 0.698 0 0 0 12.805 22.016 Q 12.995 21.958 13.234 21.8 A 3.406 3.406 0 0 0 13.375 21.7 A 1.794 1.794 0 0 1 14.302 21.359 A 2.272 2.272 0 0 1 14.5 21.35 Q 15.15 21.35 15.625 21.7 A 3.113 3.113 0 0 0 15.852 21.854 Q 16.175 22.05 16.4 22.05 A 0.953 0.953 0 0 1 16.728 22.112 Q 16.855 22.159 16.989 22.24 A 2.079 2.079 0 0 1 17.15 22.35 A 0.971 0.971 0 0 1 17.544 23.063 A 1.389 1.389 0 0 1 17.55 23.2 Q 17.55 23.699 17.034 24.093 A 2.52 2.52 0 0 1 16.8 24.25 A 3.852 3.852 0 0 1 16.742 24.308 Q 16.634 24.411 16.425 24.6 A 0.868 0.868 0 0 0 16.235 24.843 A 0.766 0.766 0 0 0 16.15 25.2 L 16.15 27.6 Q 16.15 27.812 16.597 28.327 A 8.219 8.219 0 0 0 16.775 28.525 A 3.582 3.582 0 0 1 17.071 28.885 Q 17.37 29.308 17.398 29.676 A 0.993 0.993 0 0 1 17.4 29.75 A 1.181 1.181 0 0 1 17.309 30.19 Q 17.171 30.535 16.825 30.922 A 4.379 4.379 0 0 1 16.775 30.975 Q 16.268 31.523 16.173 31.791 A 0.332 0.332 0 0 0 16.15 31.9 L 16.15 34.25 A 0.776 0.776 0 0 0 16.396 34.823 A 1.036 1.036 0 0 0 16.425 34.85 Q 16.7 35.1 16.8 35.2 Q 17.55 35.65 17.55 36.25 A 1.085 1.085 0 0 1 17.451 36.72 A 1.08 1.08 0 0 1 17.175 37.075 A 1.321 1.321 0 0 1 16.418 37.393 A 1.733 1.733 0 0 1 16.25 37.4 A 1.625 1.625 0 0 1 15.811 37.337 Q 15.63 37.286 15.44 37.195 A 2.777 2.777 0 0 1 15.4 37.175 Q 14.95 36.95 14.5 36.95 A 1.915 1.915 0 0 0 13.811 37.082 A 2.352 2.352 0 0 0 13.6 37.175 Q 13.177 37.387 12.798 37.4 A 1.439 1.439 0 0 1 12.75 37.4 A 1.542 1.542 0 0 1 12.288 37.334 A 1.285 1.285 0 0 1 11.825 37.075 A 1.037 1.037 0 0 1 11.453 36.328 A 1.281 1.281 0 0 1 11.45 36.25 Q 11.45 35.752 11.967 35.358 A 2.52 2.52 0 0 1 12.2 35.2 A 3.852 3.852 0 0 1 12.259 35.143 Q 12.367 35.04 12.575 34.85 A 0.868 0.868 0 0 0 12.766 34.608 A 0.766 0.766 0 0 0 12.85 34.25 Z M 12.85 16.5 L 12.85 14.15 Q 12.85 13.939 12.404 13.424 A 8.219 8.219 0 0 0 12.225 13.225 A 3.582 3.582 0 0 1 11.93 12.866 Q 11.631 12.443 11.603 12.075 A 0.993 0.993 0 0 1 11.6 12 A 1.181 1.181 0 0 1 11.692 11.561 Q 11.83 11.216 12.176 10.829 A 4.379 4.379 0 0 1 12.225 10.775 Q 12.733 10.228 12.828 9.96 A 0.332 0.332 0 0 0 12.85 9.85 L 12.85 7.45 A 0.776 0.776 0 0 0 12.605 6.878 A 1.036 1.036 0 0 0 12.575 6.85 Q 12.3 6.6 12.2 6.5 Q 11.45 6.05 11.45 5.45 A 1.205 1.205 0 0 1 11.506 5.077 A 0.952 0.952 0 0 1 11.85 4.6 A 1.938 1.938 0 0 1 12.096 4.442 Q 12.36 4.3 12.6 4.3 A 0.698 0.698 0 0 0 12.805 4.266 Q 12.995 4.208 13.234 4.05 A 3.406 3.406 0 0 0 13.375 3.95 A 1.794 1.794 0 0 1 14.302 3.609 A 2.272 2.272 0 0 1 14.5 3.6 Q 15.15 3.6 15.625 3.95 A 3.113 3.113 0 0 0 15.852 4.104 Q 16.175 4.3 16.4 4.3 A 0.953 0.953 0 0 1 16.728 4.362 Q 16.855 4.409 16.989 4.49 A 2.079 2.079 0 0 1 17.15 4.6 A 0.971 0.971 0 0 1 17.544 5.313 A 1.389 1.389 0 0 1 17.55 5.45 Q 17.55 5.949 17.034 6.343 A 2.52 2.52 0 0 1 16.8 6.5 A 3.852 3.852 0 0 1 16.742 6.558 Q 16.634 6.661 16.425 6.85 A 0.868 0.868 0 0 0 16.235 7.093 A 0.766 0.766 0 0 0 16.15 7.45 L 16.15 9.85 Q 16.15 10.062 16.597 10.577 A 8.219 8.219 0 0 0 16.775 10.775 A 3.582 3.582 0 0 1 17.071 11.135 Q 17.37 11.558 17.398 11.926 A 0.993 0.993 0 0 1 17.4 12 A 1.181 1.181 0 0 1 17.309 12.44 Q 17.171 12.785 16.825 13.172 A 4.379 4.379 0 0 1 16.775 13.225 Q 16.268 13.773 16.173 14.041 A 0.332 0.332 0 0 0 16.15 14.15 L 16.15 16.5 A 0.776 0.776 0 0 0 16.396 17.073 A 1.036 1.036 0 0 0 16.425 17.1 Q 16.7 17.35 16.8 17.45 Q 17.55 17.9 17.55 18.5 A 1.085 1.085 0 0 1 17.451 18.97 A 1.08 1.08 0 0 1 17.175 19.325 A 1.321 1.321 0 0 1 16.418 19.643 A 1.733 1.733 0 0 1 16.25 19.65 A 1.625 1.625 0 0 1 15.811 19.587 Q 15.63 19.536 15.44 19.445 A 2.777 2.777 0 0 1 15.4 19.425 Q 14.95 19.2 14.5 19.2 A 1.915 1.915 0 0 0 13.811 19.332 A 2.352 2.352 0 0 0 13.6 19.425 Q 13.177 19.637 12.798 19.65 A 1.439 1.439 0 0 1 12.75 19.65 A 1.542 1.542 0 0 1 12.288 19.584 A 1.285 1.285 0 0 1 11.825 19.325 Q 11.474 19.021 11.452 18.564 A 1.29 1.29 0 0 1 11.45 18.5 Q 11.45 18.002 11.967 17.608 A 2.52 2.52 0 0 1 12.2 17.45 A 3.852 3.852 0 0 1 12.259 17.393 Q 12.367 17.29 12.575 17.1 A 0.868 0.868 0 0 0 12.766 16.858 A 0.766 0.766 0 0 0 12.85 16.5 Z M 13.75 28.25 L 15.25 28.25 L 15.25 24.15 A 1.311 1.311 0 0 0 15.54 23.88 A 1.002 1.002 0 0 0 15.75 23.25 A 0.968 0.968 0 0 0 15.458 22.553 A 1.351 1.351 0 0 0 15.375 22.475 Q 15 22.15 14.5 22.15 Q 14 22.15 13.625 22.475 A 1.168 1.168 0 0 0 13.386 22.754 A 0.944 0.944 0 0 0 13.25 23.25 A 1.019 1.019 0 0 0 13.606 24.036 A 1.482 1.482 0 0 0 13.75 24.15 L 13.75 28.25 Z M 13.75 10.5 L 15.25 10.5 L 15.25 6.4 A 1.311 1.311 0 0 0 15.54 6.13 A 1.002 1.002 0 0 0 15.75 5.5 A 0.968 0.968 0 0 0 15.458 4.803 A 1.351 1.351 0 0 0 15.375 4.725 Q 15 4.4 14.5 4.4 Q 14 4.4 13.625 4.725 A 1.168 1.168 0 0 0 13.386 5.004 A 0.944 0.944 0 0 0 13.25 5.5 A 1.019 1.019 0 0 0 13.606 6.286 A 1.482 1.482 0 0 0 13.75 6.4 L 13.75 10.5 Z M 15.25 35.65 L 15.25 31.25 L 13.75 31.25 L 13.75 35.65 A 0.8 0.8 0 0 0 13.794 35.925 Q 13.922 36.276 14.429 36.299 A 1.608 1.608 0 0 0 14.5 36.3 A 1.259 1.259 0 0 0 14.784 36.272 Q 15.171 36.182 15.237 35.812 A 0.926 0.926 0 0 0 15.25 35.65 Z M 15.25 17.9 L 15.25 13.5 L 13.75 13.5 L 13.75 17.9 A 0.8 0.8 0 0 0 13.794 18.175 Q 13.922 18.526 14.429 18.549 A 1.608 1.608 0 0 0 14.5 18.55 A 1.259 1.259 0 0 0 14.784 18.522 Q 15.171 18.432 15.237 18.062 A 0.926 0.926 0 0 0 15.25 17.9 Z M 13.35 11.75 L 15.65 11.75 Q 15.85 11.75 16 11.625 A 0.525 0.525 0 0 0 16.08 11.545 Q 16.124 11.488 16.14 11.426 A 0.29 0.29 0 0 0 16.15 11.35 A 0.34 0.34 0 0 0 16.109 11.178 Q 16.03 11.041 15.8 11.01 A 1.112 1.112 0 0 0 15.65 11 L 13.35 11 Q 12.864 11 12.851 11.332 A 0.47 0.47 0 0 0 12.85 11.35 A 0.453 0.453 0 0 0 12.882 11.525 Q 12.975 11.75 13.35 11.75 Z M 13.35 13 L 15.65 13 Q 15.85 13 16 12.875 A 0.525 0.525 0 0 0 16.08 12.795 Q 16.124 12.738 16.14 12.676 A 0.29 0.29 0 0 0 16.15 12.6 A 0.34 0.34 0 0 0 16.109 12.428 Q 16.03 12.291 15.8 12.26 A 1.112 1.112 0 0 0 15.65 12.25 L 13.35 12.25 Q 12.864 12.25 12.851 12.582 A 0.47 0.47 0 0 0 12.85 12.6 A 0.453 0.453 0 0 0 12.882 12.775 Q 12.975 13 13.35 13 Z M 13.35 29.5 L 15.65 29.5 Q 15.85 29.5 16 29.375 A 0.525 0.525 0 0 0 16.08 29.295 Q 16.124 29.238 16.14 29.176 A 0.29 0.29 0 0 0 16.15 29.1 A 0.34 0.34 0 0 0 16.109 28.928 Q 16.03 28.791 15.8 28.76 A 1.112 1.112 0 0 0 15.65 28.75 L 13.35 28.75 Q 12.864 28.75 12.851 29.082 A 0.47 0.47 0 0 0 12.85 29.1 A 0.453 0.453 0 0 0 12.882 29.275 Q 12.975 29.5 13.35 29.5 Z M 13.35 30.75 L 15.65 30.75 Q 15.85 30.75 16 30.625 A 0.525 0.525 0 0 0 16.08 30.545 Q 16.124 30.488 16.14 30.426 A 0.29 0.29 0 0 0 16.15 30.35 A 0.34 0.34 0 0 0 16.109 30.178 Q 16.03 30.041 15.8 30.01 A 1.112 1.112 0 0 0 15.65 30 L 13.35 30 Q 12.864 30 12.851 30.332 A 0.47 0.47 0 0 0 12.85 30.35 A 0.453 0.453 0 0 0 12.882 30.525 Q 12.975 30.75 13.35 30.75 Z" vector-effect="non-scaling-stroke"/></g></svg>