<svg width="58" height="83" viewBox="0 0 29 41.5" xmlns="http://www.w3.org/2000/svg"><g id="svgGroup" stroke-linecap="round" fill-rule="evenodd" font-size="9pt" stroke="#000" stroke-width="0.05mm" fill="#000" style="stroke:#000;stroke-width:0.05mm;fill:#000"><path d="M 0 38.5 L 0 3 A 2.89 2.89 0 0 1 0.848 0.903 A 3.442 3.442 0 0 1 0.875 0.875 A 2.889 2.889 0 0 1 2.961 0.001 A 3.547 3.547 0 0 1 3 0 L 26 0 A 2.89 2.89 0 0 1 28.098 0.848 A 3.442 3.442 0 0 1 28.125 0.875 A 2.889 2.889 0 0 1 29 2.961 A 3.547 3.547 0 0 1 29 3 L 29 38.5 A 2.89 2.89 0 0 1 28.153 40.598 A 3.442 3.442 0 0 1 28.125 40.625 A 2.889 2.889 0 0 1 26.039 41.5 A 3.547 3.547 0 0 1 26 41.5 L 3 41.5 A 2.89 2.89 0 0 1 0.903 40.653 A 3.442 3.442 0 0 1 0.875 40.625 A 2.889 2.889 0 0 1 0.001 38.539 A 3.547 3.547 0 0 1 0 38.5 Z M 3 40 L 26 40 A 1.628 1.628 0 0 0 26.542 39.914 A 1.403 1.403 0 0 0 27.075 39.575 A 1.436 1.436 0 0 0 27.498 38.602 A 1.91 1.91 0 0 0 27.5 38.5 L 27.5 3 A 1.628 1.628 0 0 0 27.414 2.459 A 1.403 1.403 0 0 0 27.075 1.925 A 1.436 1.436 0 0 0 26.102 1.503 A 1.91 1.91 0 0 0 26 1.5 L 3 1.5 A 1.628 1.628 0 0 0 2.459 1.587 A 1.403 1.403 0 0 0 1.925 1.925 A 1.436 1.436 0 0 0 1.503 2.899 A 1.91 1.91 0 0 0 1.5 3 L 1.5 38.5 A 1.628 1.628 0 0 0 1.587 39.042 A 1.403 1.403 0 0 0 1.925 39.575 A 1.436 1.436 0 0 0 2.899 39.998 A 1.91 1.91 0 0 0 3 40 Z" vector-effect="non-scaling-stroke"/></g><text x="3.5" y="15.1" font-family="'Noto Serif', 'Noto Serif JP', 'Yu Mincho', 'Hiragino Mincho ProN', Georgia, serif" font-size="14.6" font-weight="700" fill="#1f3f99">1</text><svg x="10.8" y="15.9" width="15.9" height="20.9" viewBox="1.747 7.997 25.506 25.506" overflow="visible" preserveAspectRatio="xMidYMid meet"><g id="svgGroup" stroke-linecap="round" fill-rule="evenodd" font-size="9pt" stroke="#000" stroke-width="0.05mm" fill="#000" style="stroke:#000;stroke-width:0.05mm;fill:#000"><path d="M 14.5 32.45 Q 11.35 32.45 8.65 30.875 Q 5.95 29.3 4.375 26.6 Q 2.8 23.9 2.8 20.75 Q 2.8 17.6 4.375 14.9 Q 5.95 12.2 8.65 10.625 Q 11.35 9.05 14.5 9.05 Q 17.65 9.05 20.35 10.625 Q 23.05 12.2 24.625 14.9 Q 26.2 17.6 26.2 20.75 Q 26.2 23.9 24.625 26.6 Q 23.05 29.3 20.35 30.875 Q 17.65 32.45 14.5 32.45 Z M 14.5 31.45 Q 17.4 31.45 19.85 30 Q 22.3 28.55 23.75 26.1 Q 25.2 23.65 25.2 20.75 Q 25.2 17.85 23.75 15.4 Q 22.3 12.95 19.85 11.5 Q 17.4 10.05 14.5 10.05 Q 11.6 10.05 9.15 11.5 Q 6.7 12.95 5.25 15.4 Q 3.8 17.85 3.8 20.75 Q 3.8 23.65 5.25 26.1 Q 6.7 28.55 9.15 30 Q 11.6 31.45 14.5 31.45 Z M 14.5 30.95 Q 11.7 30.95 9.375 29.575 Q 7.05 28.2 5.675 25.875 Q 4.3 23.55 4.3 20.75 Q 4.3 17.95 5.675 15.625 Q 7.05 13.3 9.375 11.925 Q 11.7 10.55 14.5 10.55 Q 17.3 10.55 19.625 11.925 Q 21.95 13.3 23.325 15.625 Q 24.7 17.95 24.7 20.75 Q 24.7 23.55 23.325 25.875 Q 21.95 28.2 19.625 29.575 Q 17.3 30.95 14.5 30.95 Z M 14.5 28.35 Q 16.55 28.35 18.3 27.325 Q 20.05 26.3 21.075 24.55 Q 22.1 22.8 22.1 20.75 Q 22.1 18.7 21.075 16.95 Q 20.05 15.2 18.3 14.175 Q 16.55 13.15 14.5 13.15 Q 12.45 13.15 10.7 14.175 Q 8.95 15.2 7.925 16.95 Q 6.9 18.7 6.9 20.75 Q 6.9 22.8 7.925 24.55 Q 8.95 26.3 10.7 27.325 Q 12.45 28.35 14.5 28.35 Z M 14.5 27.85 Q 12.55 27.85 10.925 26.9 Q 9.3 25.95 8.35 24.325 Q 7.4 22.7 7.4 20.75 Q 7.4 18.8 8.35 17.175 Q 9.3 15.55 10.925 14.6 Q 12.55 13.65 14.5 13.65 Q 16.45 13.65 18.075 14.6 Q 19.7 15.55 20.65 17.175 Q 21.6 18.8 21.6 20.75 Q 21.6 22.7 20.65 24.325 Q 19.7 25.95 18.075 26.9 Q 16.45 27.85 14.5 27.85 Z M 14.5 23.6 Q 15.65 23.6 16.5 22.75 Q 17.35 21.9 17.35 20.75 Q 17.35 19.6 16.5 18.75 Q 15.65 17.9 14.5 17.9 Q 13.35 17.9 12.5 18.75 Q 11.65 19.6 11.65 20.75 Q 11.65 21.9 12.5 22.75 Q 13.35 23.6 14.5 23.6 Z M 10.1 25 L 12.2 22.85 A 1.844 1.844 0 0 0 12.138 22.735 Q 12.104 22.678 12.07 22.632 A 0.734 0.734 0 0 0 12 22.55 L 10.4 23.6 L 10.25 23.4 L 11.9 22.35 A 0.731 0.731 0 0 1 11.832 22.27 Q 11.766 22.182 11.7 22.05 L 8.9 23.15 L 8.6 24.7 L 10.1 25 Z M 12.7 18.25 L 11.65 16.65 L 11.85 16.5 L 12.9 18.15 A 0.731 0.731 0 0 1 12.981 18.082 Q 13.025 18.049 13.08 18.016 A 1.826 1.826 0 0 1 13.2 17.95 L 12.1 15.15 L 10.55 14.85 L 10.25 16.35 L 12.4 18.45 A 1.844 1.844 0 0 0 12.516 18.388 Q 12.573 18.354 12.618 18.32 A 0.734 0.734 0 0 0 12.7 18.25 Z M 18.45 26.65 L 18.75 25.15 L 16.6 23.05 A 1.844 1.844 0 0 0 16.485 23.113 Q 16.428 23.147 16.382 23.181 A 0.734 0.734 0 0 0 16.3 23.25 L 17.35 24.85 L 17.15 25 L 16.1 23.35 A 0.731 0.731 0 0 1 16.02 23.419 Q 15.976 23.452 15.921 23.485 A 1.826 1.826 0 0 1 15.8 23.55 L 16.9 26.35 L 18.45 26.65 Z M 17.3 19.45 L 20.1 18.35 L 20.4 16.8 L 18.9 16.5 L 16.8 18.65 A 1.844 1.844 0 0 0 16.863 18.766 Q 16.897 18.823 16.931 18.868 A 0.734 0.734 0 0 0 17 18.95 L 18.6 17.9 L 18.75 18.1 L 17.1 19.15 A 0.731 0.731 0 0 1 17.169 19.231 Q 17.202 19.275 17.235 19.33 A 1.826 1.826 0 0 1 17.3 19.45 Z M 11.9 19.15 L 10.25 18.1 L 10.4 17.9 L 12 18.95 A 0.731 0.731 0 0 0 12.069 18.87 Q 12.102 18.826 12.135 18.771 A 1.826 1.826 0 0 0 12.2 18.65 L 10.1 16.5 L 8.6 16.8 L 8.9 18.35 L 11.7 19.45 A 1.844 1.844 0 0 1 11.763 19.335 Q 11.797 19.278 11.831 19.232 A 0.734 0.734 0 0 1 11.9 19.15 Z M 16.6 18.45 L 18.75 16.35 L 18.45 14.85 L 16.9 15.15 L 15.8 17.95 A 1.844 1.844 0 0 1 15.916 18.013 Q 15.973 18.047 16.018 18.081 A 0.734 0.734 0 0 1 16.1 18.15 L 17.15 16.5 L 17.35 16.65 L 16.3 18.25 A 0.731 0.731 0 0 0 16.381 18.319 Q 16.425 18.352 16.48 18.385 A 1.826 1.826 0 0 0 16.6 18.45 Z M 18.9 25 L 20.4 24.7 L 20.1 23.15 L 17.3 22.05 A 1.844 1.844 0 0 1 17.238 22.166 Q 17.204 22.223 17.17 22.268 A 0.734 0.734 0 0 1 17.1 22.35 L 18.75 23.4 L 18.6 23.6 L 17 22.55 A 0.731 0.731 0 0 0 16.932 22.631 Q 16.899 22.675 16.866 22.73 A 1.826 1.826 0 0 0 16.8 22.85 L 18.9 25 Z M 10.55 26.65 L 12.1 26.35 L 13.2 23.55 A 1.844 1.844 0 0 1 13.085 23.488 Q 13.028 23.454 12.982 23.42 A 0.734 0.734 0 0 1 12.9 23.35 L 11.85 25 L 11.65 24.85 L 12.7 23.25 A 0.731 0.731 0 0 0 12.62 23.182 Q 12.576 23.149 12.521 23.116 A 1.826 1.826 0 0 0 12.4 23.05 L 10.25 25.15 L 10.55 26.65 Z M 13.8 17.75 L 13.4 15.9 L 13.65 15.85 L 14 17.7 Q 14.093 17.654 14.358 17.651 A 3.346 3.346 0 0 1 14.4 17.65 L 14.4 14.65 L 13.1 13.8 L 12.25 15.05 L 13.4 17.85 A 4.973 4.973 0 0 1 13.522 17.812 Q 13.689 17.761 13.771 17.752 A 0.29 0.29 0 0 1 13.8 17.75 Z M 15.9 27.7 L 16.75 26.45 L 15.6 23.65 A 4.973 4.973 0 0 1 15.479 23.689 Q 15.312 23.74 15.23 23.749 A 0.29 0.29 0 0 1 15.2 23.75 L 15.6 25.6 L 15.35 25.65 L 15 23.8 Q 14.908 23.847 14.643 23.85 A 3.346 3.346 0 0 1 14.6 23.85 L 14.6 26.85 L 15.9 27.7 Z M 8.8 23 L 11.6 21.85 A 4.973 4.973 0 0 1 11.562 21.729 Q 11.511 21.562 11.502 21.48 A 0.29 0.29 0 0 1 11.5 21.45 L 9.65 21.85 L 9.6 21.6 L 11.45 21.25 Q 11.404 21.158 11.401 20.893 A 3.346 3.346 0 0 1 11.4 20.85 L 8.4 20.85 L 7.55 22.15 L 8.8 23 Z M 17.6 20.65 L 20.6 20.65 L 21.45 19.35 L 20.2 18.5 L 17.4 19.65 A 4.973 4.973 0 0 1 17.439 19.772 Q 17.49 19.939 17.499 20.021 A 0.29 0.29 0 0 1 17.5 20.05 L 19.35 19.65 L 19.4 19.9 L 17.55 20.25 Q 17.597 20.343 17.6 20.608 A 3.346 3.346 0 0 1 17.6 20.65 Z M 15.6 17.85 L 16.75 15.05 L 15.9 13.8 L 14.6 14.65 L 14.6 17.65 Q 14.88 17.65 14.986 17.694 A 0.215 0.215 0 0 1 15 17.7 L 15.35 15.85 L 15.6 15.9 L 15.2 17.75 A 0.364 0.364 0 0 1 15.254 17.755 Q 15.347 17.769 15.525 17.826 A 5.488 5.488 0 0 1 15.6 17.85 Z M 8.4 20.65 L 11.4 20.65 Q 11.4 20.371 11.444 20.265 A 0.215 0.215 0 0 1 11.45 20.25 L 9.6 19.9 L 9.65 19.65 L 11.5 20.05 A 0.364 0.364 0 0 1 11.505 19.997 Q 11.519 19.904 11.576 19.726 A 5.488 5.488 0 0 1 11.6 19.65 L 8.8 18.5 L 7.55 19.35 L 8.4 20.65 Z M 13.1 27.7 L 14.4 26.85 L 14.4 23.85 Q 14.121 23.85 14.015 23.807 A 0.215 0.215 0 0 1 14 23.8 L 13.65 25.65 L 13.4 25.6 L 13.8 23.75 A 0.364 0.364 0 0 1 13.747 23.746 Q 13.654 23.731 13.476 23.675 A 5.488 5.488 0 0 1 13.4 23.65 L 12.25 26.45 L 13.1 27.7 Z M 20.2 23 L 21.45 22.15 L 20.6 20.85 L 17.6 20.85 Q 17.6 21.13 17.557 21.236 A 0.215 0.215 0 0 1 17.55 21.25 L 19.4 21.6 L 19.35 21.85 L 17.5 21.45 A 0.364 0.364 0 0 1 17.496 21.504 Q 17.481 21.597 17.425 21.775 A 5.488 5.488 0 0 1 17.4 21.85 L 20.2 23 Z M 6.2 23.95 L 7.2 23.55 A 7.237 7.237 0 0 1 6.78 22.01 A 8.66 8.66 0 0 1 6.7 21.35 L 6.35 21 L 5.2 21 L 5.95 22.55 L 4.6 22.1 L 4.9 23.45 L 6.2 23.95 Z M 15.85 30.65 L 17.2 30.35 L 17.7 29.05 L 17.3 28.05 A 7.237 7.237 0 0 1 15.76 28.47 A 8.66 8.66 0 0 1 15.1 28.55 L 14.75 28.9 L 14.75 30.05 L 16.3 29.3 L 15.85 30.65 Z M 13.9 12.95 L 14.25 12.6 L 14.25 11.45 L 12.7 12.2 L 13.15 10.85 L 11.8 11.15 L 11.3 12.45 L 11.7 13.45 A 7.237 7.237 0 0 1 13.241 13.03 A 8.66 8.66 0 0 1 13.9 12.95 Z M 22.65 20.5 L 23.8 20.5 L 23.05 18.95 L 24.4 19.4 L 24.1 18.05 L 22.8 17.55 L 21.8 17.95 A 7.237 7.237 0 0 1 22.22 19.491 A 8.66 8.66 0 0 1 22.3 20.15 L 22.65 20.5 Z M 5.2 20.5 L 6.35 20.5 L 6.7 20.15 A 8.076 8.076 0 0 1 6.952 18.695 A 6.863 6.863 0 0 1 7.2 17.95 L 6.2 17.55 L 4.9 18.05 L 4.6 19.4 L 5.95 18.95 L 5.2 20.5 Z M 17.3 13.45 L 17.7 12.45 L 17.2 11.15 L 15.85 10.85 L 16.3 12.2 L 14.75 11.45 L 14.75 12.6 L 15.1 12.95 A 8.076 8.076 0 0 1 16.556 13.202 A 6.863 6.863 0 0 1 17.3 13.45 Z M 22.8 23.95 L 24.1 23.45 L 24.4 22.1 L 23.05 22.55 L 23.8 21 L 22.65 21 L 22.3 21.35 A 8.076 8.076 0 0 1 22.049 22.806 A 6.863 6.863 0 0 1 21.8 23.55 L 22.8 23.95 Z M 13.15 30.65 L 12.7 29.3 L 14.25 30.05 L 14.25 28.9 L 13.9 28.55 A 8.076 8.076 0 0 1 12.445 28.299 A 6.863 6.863 0 0 1 11.7 28.05 L 11.3 29.05 L 11.8 30.35 L 13.15 30.65 Z M 7.2 17.45 L 7.45 17.3 L 8.1 16.15 L 6.85 15.8 L 8.35 14.9 L 7.5 14.05 L 6.95 14.2 Q 6.35 14.95 5.75 15.95 L 6.15 17 L 7.2 17.45 Z M 9.7 29.5 L 10.75 29.1 L 11.2 28.05 L 11.05 27.8 L 9.9 27.15 L 9.55 28.4 L 8.65 26.9 L 7.8 27.75 L 7.95 28.3 Q 8.7 28.9 9.7 29.5 Z M 20.35 14.6 L 21.2 13.75 L 21.05 13.2 Q 20.3 12.6 19.3 12 L 18.25 12.4 L 17.8 13.45 L 17.95 13.7 L 19.1 14.35 L 19.45 13.1 L 20.35 14.6 Z M 21.5 27.45 L 22.05 27.3 Q 22.65 26.55 23.25 25.55 L 22.85 24.5 L 21.8 24.05 L 21.55 24.2 L 20.9 25.35 L 22.15 25.7 L 20.65 26.6 L 21.5 27.45 Z M 7.5 27.45 L 8.35 26.6 L 6.85 25.7 L 8.1 25.35 A 32.896 32.896 0 0 1 7.938 25.093 Q 7.713 24.732 7.6 24.525 Q 7.45 24.25 7.2 24.05 L 6.15 24.5 L 5.75 25.55 A 9.225 9.225 0 0 0 6.45 26.619 A 11.701 11.701 0 0 0 7.05 27.35 L 7.5 27.45 Z M 21.1 28.2 L 21.2 27.75 L 20.35 26.9 L 19.45 28.4 L 19.1 27.15 A 32.896 32.896 0 0 1 18.843 27.313 Q 18.482 27.538 18.275 27.65 Q 18 27.8 17.8 28.05 L 18.25 29.1 L 19.3 29.5 A 9.225 9.225 0 0 0 20.369 28.801 A 11.701 11.701 0 0 0 21.1 28.2 Z M 21.8 17.45 L 22.85 17 L 23.25 15.95 A 9.225 9.225 0 0 0 22.551 14.882 A 11.701 11.701 0 0 0 21.95 14.15 L 21.5 14.05 L 20.65 14.9 L 22.15 15.8 L 20.9 16.15 A 32.896 32.896 0 0 1 21.063 16.408 Q 21.288 16.769 21.4 16.975 Q 21.55 17.25 21.8 17.45 Z M 8.65 14.6 L 9.55 13.1 L 9.9 14.35 A 32.896 32.896 0 0 1 10.158 14.188 Q 10.519 13.963 10.725 13.85 Q 11 13.7 11.2 13.45 L 10.75 12.4 L 9.7 12 A 9.225 9.225 0 0 0 8.632 12.7 A 11.701 11.701 0 0 0 7.9 13.3 L 7.8 13.75 L 8.65 14.6 Z M 14.3 20.1 L 13.5 18.95 L 13.55 18.55 A 1.836 1.836 0 0 1 14.048 18.389 A 2.545 2.545 0 0 1 14.5 18.35 A 2.545 2.545 0 0 1 14.953 18.389 A 1.836 1.836 0 0 1 15.45 18.55 L 15.5 18.95 L 14.7 20.1 A 0.127 0.127 0 0 0 14.659 20.074 Q 14.619 20.057 14.553 20.052 A 0.742 0.742 0 0 0 14.5 20.05 Q 14.39 20.05 14.334 20.078 A 0.121 0.121 0 0 0 14.3 20.1 Z M 12.5 21.2 L 12.1 21 L 12.1 20.75 A 2.112 2.112 0 0 1 12.73 19.221 A 2.638 2.638 0 0 1 12.75 19.2 L 13.1 19.25 L 13.95 20.3 Q 13.8 20.5 13.8 20.75 L 12.5 21.2 Z M 16.5 21.2 L 15.2 20.75 Q 15.2 20.5 15.05 20.3 L 15.9 19.25 L 16.25 19.2 A 2.189 2.189 0 0 1 16.776 20.011 A 2.169 2.169 0 0 1 16.9 20.75 L 16.9 21 L 16.5 21.2 Z M 15 23.1 L 14.75 22.8 L 14.75 21.4 A 0.623 0.623 0 0 0 14.891 21.332 Q 14.951 21.293 15.01 21.239 A 1.19 1.19 0 0 0 15.05 21.2 L 16.35 21.6 L 16.55 21.95 A 2.935 2.935 0 0 1 16.034 22.573 A 2.203 2.203 0 0 1 15 23.1 Z M 12.45 21.95 L 12.65 21.6 L 13.95 21.2 A 1.056 1.056 0 0 0 14.063 21.299 Q 14.127 21.347 14.192 21.377 A 0.562 0.562 0 0 0 14.25 21.4 L 14.25 22.8 L 14 23.1 Q 13.05 22.9 12.45 21.95 Z M 14.402 20.988 A 0.36 0.36 0 0 0 14.5 21 A 0.368 0.368 0 0 0 14.593 20.99 Q 14.706 20.96 14.738 20.849 A 0.36 0.36 0 0 0 14.75 20.75 A 0.368 0.368 0 0 0 14.74 20.658 Q 14.71 20.545 14.599 20.513 A 0.36 0.36 0 0 0 14.5 20.5 A 0.368 0.368 0 0 0 14.408 20.511 Q 14.295 20.541 14.263 20.652 A 0.36 0.36 0 0 0 14.25 20.75 A 0.368 0.368 0 0 0 14.261 20.843 Q 14.291 20.956 14.402 20.988 Z" vector-effect="non-scaling-stroke"/></g></svg></svg>