<svg width="58" height="83" viewBox="0 0 29 41.5" xmlns="http://www.w3.org/2000/svg"><g id="svgGroup" stroke-linecap="round" fill-rule="evenodd" font-size="9pt" stroke="#000" stroke-width="0.05mm" fill="#000" style="stroke:#000;stroke-width:0.05mm;fill:#000"><path d="M 0 38.5 L 0 3 A 2.89 2.89 0 0 1 0.848 0.903 A 3.442 3.442 0 0 1 0.875 0.875 A 2.889 2.889 0 0 1 2.961 0.001 A 3.547 3.547 0 0 1 3 0 L 26 0 A 2.89 2.89 0 0 1 28.098 0.848 A 3.442 3.442 0 0 1 28.125 0.875 A 2.889 2.889 0 0 1 29 2.961 A 3.547 3.547 0 0 1 29 3 L 29 38.5 A 2.89 2.89 0 0 1 28.153 40.598 A 3.442 3.442 0 0 1 28.125 40.625 A 2.889 2.889 0 0 1 26.039 41.5 A 3.547 3.547 0 0 1 26 41.5 L 3 41.5 A 2.89 2.89 0 0 1 0.903 40.653 A 3.442 3.442 0 0 1 0.875 40.625 A 2.889 2.889 0 0 1 0.001 38.539 A 3.547 3.547 0 0 1 0 38.5 Z M 3 40 L 26 40 A 1.628 1.628 0 0 0 26.542 39.914 A 1.403 1.403 0 0 0 27.075 39.575 A 1.436 1.436 0 0 0 27.498 38.602 A 1.91 1.91 0 0 0 27.5 38.5 L 27.5 3 A 1.628 1.628 0 0 0 27.414 2.459 A 1.403 1.403 0 0 0 27.075 1.925 A 1.436 1.436 0 0 0 26.102 1.503 A 1.91 1.91 0 0 0 26 1.5 L 3 1.5 A 1.628 1.628 0 0 0 2.459 1.587 A 1.403 1.403 0 0 0 1.925 1.925 A 1.436 1.436 0 0 0 1.503 2.899 A 1.91 1.91 0 0 0 1.5 3 L 1.5 38.5 A 1.628 1.628 0 0 0 1.587 39.042 A 1.403 1.403 0 0 0 1.925 39.575 A 1.436 1.436 0 0 0 2.899 39.998 A 1.91 1.91 0 0 0 3 40 Z" vector-effect="non-scaling-stroke"/></g><text x="3.5" y="15.1" font-family="'Noto Serif', 'Noto Serif JP', 'Yu Mincho', 'Hiragino Mincho ProN', Georgia, serif" font-size="14.6" font-weight="700" fill="#1f3f99">5</text><svg x="10.8" y="15.9" width="15.9" height="20.9" viewBox="2.510 3.038 23.980 35.425" overflow="visible" preserveAspectRatio="xMidYMid meet"><g id="svgGroupRed" stroke-linecap="round" fill-rule="evenodd" font-size="9pt" stroke="#d00000" stroke-width="0.05mm" fill="#d00000" style="stroke:#d00000;stroke-width:0.05mm;fill:#d00000"><path d="M 5.022 13.071 A 4.803 4.803 0 0 0 8.5 14.5 A 4.973 4.973 0 0 0 10.1 14.248 A 4.942 4.942 0 0 0 12.025 13.025 A 5.962 5.962 0 0 0 12.071 12.979 A 4.803 4.803 0 0 0 13.5 9.5 A 4.973 4.973 0 0 0 13.248 7.901 A 4.942 4.942 0 0 0 12.025 5.975 A 5.962 5.962 0 0 0 11.979 5.93 A 4.803 4.803 0 0 0 8.5 4.5 A 4.973 4.973 0 0 0 6.901 4.753 A 4.942 4.942 0 0 0 4.975 5.975 A 5.962 5.962 0 0 0 4.93 6.022 A 4.803 4.803 0 0 0 3.5 9.5 A 4.973 4.973 0 0 0 3.753 11.1 A 4.942 4.942 0 0 0 4.975 13.025 A 5.962 5.962 0 0 0 5.022 13.071 Z M 17.022 35.571 A 4.803 4.803 0 0 0 20.5 37 A 4.973 4.973 0 0 0 22.1 36.748 A 4.942 4.942 0 0 0 24.025 35.525 A 5.962 5.962 0 0 0 24.071 35.479 A 4.803 4.803 0 0 0 25.5 32 A 4.973 4.973 0 0 0 25.248 30.401 A 4.942 4.942 0 0 0 24.025 28.475 A 5.962 5.962 0 0 0 23.979 28.43 A 4.803 4.803 0 0 0 20.5 27 A 4.973 4.973 0 0 0 18.901 27.253 A 4.942 4.942 0 0 0 16.975 28.475 A 5.962 5.962 0 0 0 16.93 28.522 A 4.803 4.803 0 0 0 15.5 32 A 4.973 4.973 0 0 0 15.753 33.6 A 4.942 4.942 0 0 0 16.975 35.525 A 5.962 5.962 0 0 0 17.022 35.571 Z M 5.022 35.571 A 4.803 4.803 0 0 0 8.5 37 A 4.973 4.973 0 0 0 10.1 36.748 A 4.942 4.942 0 0 0 12.025 35.525 A 5.962 5.962 0 0 0 12.071 35.479 A 4.803 4.803 0 0 0 13.5 32 A 4.973 4.973 0 0 0 13.248 30.401 A 4.942 4.942 0 0 0 12.025 28.475 A 5.962 5.962 0 0 0 11.979 28.43 A 4.803 4.803 0 0 0 8.5 27 A 4.973 4.973 0 0 0 6.901 27.253 A 4.942 4.942 0 0 0 4.975 28.475 A 5.962 5.962 0 0 0 4.93 28.522 A 4.803 4.803 0 0 0 3.5 32 A 4.973 4.973 0 0 0 3.753 33.6 A 4.942 4.942 0 0 0 4.975 35.525 A 5.962 5.962 0 0 0 5.022 35.571 Z M 17.022 13.071 A 4.803 4.803 0 0 0 20.5 14.5 A 4.973 4.973 0 0 0 22.1 14.248 A 4.942 4.942 0 0 0 24.025 13.025 A 5.962 5.962 0 0 0 24.071 12.979 A 4.803 4.803 0 0 0 25.5 9.5 A 4.973 4.973 0 0 0 25.248 7.901 A 4.942 4.942 0 0 0 24.025 5.975 A 5.962 5.962 0 0 0 23.979 5.93 A 4.803 4.803 0 0 0 20.5 4.5 A 4.973 4.973 0 0 0 18.901 4.753 A 4.942 4.942 0 0 0 16.975 5.975 A 5.962 5.962 0 0 0 16.93 6.022 A 4.803 4.803 0 0 0 15.5 9.5 A 4.973 4.973 0 0 0 15.753 11.1 A 4.942 4.942 0 0 0 16.975 13.025 A 5.962 5.962 0 0 0 17.022 13.071 Z M 11.022 24.321 A 4.803 4.803 0 0 0 14.5 25.75 A 4.973 4.973 0 0 0 16.1 25.498 A 4.942 4.942 0 0 0 18.025 24.275 A 5.962 5.962 0 0 0 18.071 24.229 A 4.803 4.803 0 0 0 19.5 20.75 A 4.973 4.973 0 0 0 19.248 19.151 A 4.942 4.942 0 0 0 18.025 17.225 A 5.962 5.962 0 0 0 17.979 17.18 A 4.803 4.803 0 0 0 14.5 15.75 A 4.973 4.973 0 0 0 12.901 16.003 A 4.942 4.942 0 0 0 10.975 17.225 A 5.962 5.962 0 0 0 10.93 17.272 A 4.803 4.803 0 0 0 9.5 20.75 A 4.973 4.973 0 0 0 9.753 22.35 A 4.942 4.942 0 0 0 10.975 24.275 A 5.962 5.962 0 0 0 11.022 24.321 Z M 20.5 13.5 A 3.846 3.846 0 0 0 23.289 12.362 A 4.701 4.701 0 0 0 23.325 12.325 A 3.848 3.848 0 0 0 24.5 9.552 A 4.604 4.604 0 0 0 24.5 9.5 A 3.846 3.846 0 0 0 23.362 6.712 A 4.701 4.701 0 0 0 23.325 6.675 A 3.848 3.848 0 0 0 20.552 5.501 A 4.604 4.604 0 0 0 20.5 5.5 A 3.846 3.846 0 0 0 17.712 6.639 A 4.701 4.701 0 0 0 17.675 6.675 A 3.848 3.848 0 0 0 16.501 9.449 A 4.604 4.604 0 0 0 16.5 9.5 A 3.846 3.846 0 0 0 17.639 12.289 A 4.701 4.701 0 0 0 17.675 12.325 A 3.848 3.848 0 0 0 20.449 13.5 A 4.604 4.604 0 0 0 20.5 13.5 Z M 8.5 13.5 A 3.846 3.846 0 0 0 11.289 12.362 A 4.701 4.701 0 0 0 11.325 12.325 A 3.848 3.848 0 0 0 12.5 9.552 A 4.604 4.604 0 0 0 12.5 9.5 A 3.846 3.846 0 0 0 11.362 6.712 A 4.701 4.701 0 0 0 11.325 6.675 A 3.848 3.848 0 0 0 8.552 5.501 A 4.604 4.604 0 0 0 8.5 5.5 A 3.846 3.846 0 0 0 5.712 6.639 A 4.701 4.701 0 0 0 5.675 6.675 A 3.848 3.848 0 0 0 4.501 9.449 A 4.604 4.604 0 0 0 4.5 9.5 A 3.846 3.846 0 0 0 5.639 12.289 A 4.701 4.701 0 0 0 5.675 12.325 A 3.848 3.848 0 0 0 8.449 13.5 A 4.604 4.604 0 0 0 8.5 13.5 Z M 20.5 36 A 3.846 3.846 0 0 0 23.289 34.862 A 4.701 4.701 0 0 0 23.325 34.825 A 3.848 3.848 0 0 0 24.5 32.052 A 4.604 4.604 0 0 0 24.5 32 A 3.846 3.846 0 0 0 23.362 29.212 A 4.701 4.701 0 0 0 23.325 29.175 A 3.848 3.848 0 0 0 20.552 28.001 A 4.604 4.604 0 0 0 20.5 28 A 3.846 3.846 0 0 0 17.712 29.139 A 4.701 4.701 0 0 0 17.675 29.175 A 3.848 3.848 0 0 0 16.501 31.949 A 4.604 4.604 0 0 0 16.5 32 A 3.846 3.846 0 0 0 17.639 34.789 A 4.701 4.701 0 0 0 17.675 34.825 A 3.848 3.848 0 0 0 20.449 36 A 4.604 4.604 0 0 0 20.5 36 Z M 14.5 24.75 A 3.846 3.846 0 0 0 17.289 23.612 A 4.701 4.701 0 0 0 17.325 23.575 A 3.848 3.848 0 0 0 18.5 20.802 A 4.604 4.604 0 0 0 18.5 20.75 A 3.846 3.846 0 0 0 17.362 17.962 A 4.701 4.701 0 0 0 17.325 17.925 A 3.848 3.848 0 0 0 14.552 16.751 A 4.604 4.604 0 0 0 14.5 16.75 A 3.846 3.846 0 0 0 11.712 17.889 A 4.701 4.701 0 0 0 11.675 17.925 A 3.848 3.848 0 0 0 10.501 20.699 A 4.604 4.604 0 0 0 10.5 20.75 A 3.846 3.846 0 0 0 11.639 23.539 A 4.701 4.701 0 0 0 11.675 23.575 A 3.848 3.848 0 0 0 14.449 24.75 A 4.604 4.604 0 0 0 14.5 24.75 Z M 8.5 36 A 3.846 3.846 0 0 0 11.289 34.862 A 4.701 4.701 0 0 0 11.325 34.825 A 3.848 3.848 0 0 0 12.5 32.052 A 4.604 4.604 0 0 0 12.5 32 A 3.846 3.846 0 0 0 11.362 29.212 A 4.701 4.701 0 0 0 11.325 29.175 A 3.848 3.848 0 0 0 8.552 28.001 A 4.604 4.604 0 0 0 8.5 28 A 3.846 3.846 0 0 0 5.712 29.139 A 4.701 4.701 0 0 0 5.675 29.175 A 3.848 3.848 0 0 0 4.501 31.949 A 4.604 4.604 0 0 0 4.5 32 A 3.846 3.846 0 0 0 5.639 34.789 A 4.701 4.701 0 0 0 5.675 34.825 A 3.848 3.848 0 0 0 8.449 36 A 4.604 4.604 0 0 0 8.5 36 Z M 8.5 35.5 Q 7.05 35.5 6.025 34.475 Q 5 33.45 5 32 Q 5 30.55 6.025 29.525 Q 7.05 28.5 8.5 28.5 Q 9.95 28.5 10.975 29.525 Q 12 30.55 12 32 Q 12 33.45 10.975 34.475 Q 9.95 35.5 8.5 35.5 Z M 20.5 35.5 Q 19.05 35.5 18.025 34.475 Q 17 33.45 17 32 Q 17 30.55 18.025 29.525 Q 19.05 28.5 20.5 28.5 Q 21.95 28.5 22.975 29.525 Q 24 30.55 24 32 Q 24 33.45 22.975 34.475 Q 21.95 35.5 20.5 35.5 Z M 20.5 13 Q 19.05 13 18.025 11.975 Q 17 10.95 17 9.5 Q 17 8.05 18.025 7.025 Q 19.05 6 20.5 6 Q 21.95 6 22.975 7.025 Q 24 8.05 24 9.5 Q 24 10.95 22.975 11.975 Q 21.95 13 20.5 13 Z M 8.5 13 Q 7.05 13 6.025 11.975 Q 5 10.95 5 9.5 Q 5 8.05 6.025 7.025 Q 7.05 6 8.5 6 Q 9.95 6 10.975 7.025 Q 12 8.05 12 9.5 Q 12 10.95 10.975 11.975 Q 9.95 13 8.5 13 Z M 14.5 24.25 Q 13.05 24.25 12.025 23.225 Q 11 22.2 11 20.75 Q 11 19.3 12.025 18.275 Q 13.05 17.25 14.5 17.25 Q 15.95 17.25 16.975 18.275 Q 18 19.3 18 20.75 Q 18 22.2 16.975 23.225 Q 15.95 24.25 14.5 24.25 Z M 11.05 32.55 L 11.5 32.2 L 11.5 32 Q 11.5 30.9 10.8 30.05 L 10.2 30.05 L 9.65 30.85 Q 9.688 30.964 9.784 31.165 A 8.241 8.241 0 0 0 9.85 31.3 A 1.322 1.322 0 0 1 9.958 31.615 Q 10 31.811 10 32.05 L 10.1 32.25 L 11.05 32.55 Z M 11.05 10.05 L 11.5 9.7 L 11.5 9.5 Q 11.5 8.4 10.8 7.55 L 10.2 7.55 L 9.65 8.35 Q 9.688 8.464 9.784 8.665 A 8.241 8.241 0 0 0 9.85 8.8 A 1.322 1.322 0 0 1 9.958 9.115 Q 10 9.311 10 9.55 L 10.1 9.75 L 11.05 10.05 Z M 17.05 21.3 L 17.5 20.95 L 17.5 20.75 Q 17.5 19.65 16.8 18.8 L 16.2 18.8 L 15.65 19.6 Q 15.688 19.714 15.784 19.915 A 8.241 8.241 0 0 0 15.85 20.05 A 1.322 1.322 0 0 1 15.958 20.365 Q 16 20.561 16 20.8 L 16.1 21 L 17.05 21.3 Z M 23.05 10.05 L 23.5 9.7 L 23.5 9.5 Q 23.5 8.4 22.8 7.55 L 22.2 7.55 L 21.65 8.35 A 1.548 1.548 0 0 0 21.682 8.435 Q 21.72 8.53 21.784 8.665 A 8.241 8.241 0 0 0 21.85 8.8 A 1.322 1.322 0 0 1 21.958 9.115 Q 22 9.311 22 9.55 L 22.1 9.75 L 23.05 10.05 Z M 23.05 32.55 L 23.5 32.2 L 23.5 32 Q 23.5 30.9 22.8 30.05 L 22.2 30.05 L 21.65 30.85 A 1.548 1.548 0 0 0 21.682 30.935 Q 21.72 31.03 21.784 31.165 A 8.241 8.241 0 0 0 21.85 31.3 A 1.322 1.322 0 0 1 21.958 31.615 Q 22 31.811 22 32.05 L 22.1 32.25 L 23.05 32.55 Z M 17.95 10.05 L 18.9 9.75 L 19 9.55 Q 19 9.188 19.098 8.923 A 1.192 1.192 0 0 1 19.15 8.8 Q 19.3 8.5 19.35 8.35 L 18.8 7.55 L 18.2 7.55 Q 17.5 8.4 17.5 9.5 L 17.5 9.7 L 17.95 10.05 Z M 17.95 32.55 L 18.9 32.25 L 19 32.05 Q 19 31.688 19.098 31.423 A 1.192 1.192 0 0 1 19.15 31.3 Q 19.3 31 19.35 30.85 L 18.8 30.05 L 18.2 30.05 Q 17.5 30.9 17.5 32 L 17.5 32.2 L 17.95 32.55 Z M 5.95 10.05 L 6.9 9.75 L 7 9.55 Q 7 9.188 7.098 8.923 A 1.192 1.192 0 0 1 7.15 8.8 A 8.17 8.17 0 0 0 7.219 8.66 Q 7.313 8.463 7.35 8.35 L 6.8 7.55 L 6.2 7.55 Q 5.5 8.4 5.5 9.5 L 5.5 9.7 L 5.95 10.05 Z M 11.95 21.3 L 12.9 21 L 13 20.8 Q 13 20.438 13.098 20.173 A 1.192 1.192 0 0 1 13.15 20.05 A 8.17 8.17 0 0 0 13.219 19.91 Q 13.313 19.713 13.35 19.6 L 12.8 18.8 L 12.2 18.8 Q 11.5 19.65 11.5 20.75 L 11.5 20.95 L 11.95 21.3 Z M 5.95 32.55 L 6.9 32.25 L 7 32.05 Q 7 31.688 7.098 31.423 A 1.192 1.192 0 0 1 7.15 31.3 A 8.17 8.17 0 0 0 7.219 31.16 Q 7.313 30.963 7.35 30.85 L 6.8 30.05 L 6.2 30.05 Q 5.5 30.9 5.5 32 L 5.5 32.2 L 5.95 32.55 Z M 7.8 12.4 L 8.25 12.1 L 8.25 11.1 L 8.1 10.95 A 1.523 1.523 0 0 1 7.574 10.697 A 1.42 1.42 0 0 1 7.25 10.35 L 7.05 10.25 L 6.15 10.55 L 5.95 11.1 Q 6.55 12.1 7.8 12.4 Z M 19.8 12.4 L 20.25 12.1 L 20.25 11.1 L 20.1 10.95 A 1.523 1.523 0 0 1 19.574 10.697 A 1.42 1.42 0 0 1 19.25 10.35 L 19.05 10.25 L 18.15 10.55 L 17.95 11.1 Q 18.55 12.1 19.8 12.4 Z M 7.8 34.9 L 8.25 34.6 L 8.25 33.6 L 8.1 33.45 A 1.523 1.523 0 0 1 7.574 33.197 A 1.42 1.42 0 0 1 7.25 32.85 L 7.05 32.75 L 6.15 33.05 L 5.95 33.6 Q 6.55 34.6 7.8 34.9 Z M 13.8 23.65 L 14.25 23.35 L 14.25 22.35 L 14.1 22.2 A 1.523 1.523 0 0 1 13.574 21.947 A 1.42 1.42 0 0 1 13.25 21.6 L 13.05 21.5 L 12.15 21.8 L 11.95 22.35 Q 12.55 23.35 13.8 23.65 Z M 19.8 34.9 L 20.25 34.6 L 20.25 33.6 L 20.1 33.45 A 1.523 1.523 0 0 1 19.574 33.197 A 1.42 1.42 0 0 1 19.25 32.85 L 19.05 32.75 L 18.15 33.05 L 17.95 33.6 Q 18.55 34.6 19.8 34.9 Z M 23.05 11.1 L 22.85 10.55 L 21.95 10.25 Q 21.345 10.775 20.935 11.007 A 2.173 2.173 0 0 1 20.75 11.1 L 20.75 12.1 L 21.2 12.4 A 3.243 3.243 0 0 0 22.139 12.023 A 2.674 2.674 0 0 0 23.05 11.1 Z M 23.05 33.6 L 22.85 33.05 L 21.95 32.75 Q 21.345 33.275 20.935 33.507 A 2.173 2.173 0 0 1 20.75 33.6 L 20.75 34.6 L 21.2 34.9 A 3.243 3.243 0 0 0 22.139 34.523 A 2.674 2.674 0 0 0 23.05 33.6 Z M 17.05 22.35 L 16.85 21.8 L 15.95 21.5 A 11.185 11.185 0 0 1 15.594 21.797 Q 15.218 22.097 14.935 22.257 A 2.173 2.173 0 0 1 14.75 22.35 L 14.75 23.35 L 15.2 23.65 A 3.243 3.243 0 0 0 16.139 23.273 A 2.674 2.674 0 0 0 17.05 22.35 Z M 11.05 33.6 L 10.85 33.05 L 9.95 32.75 A 11.184 11.184 0 0 1 9.594 33.047 Q 9.218 33.347 8.935 33.507 A 2.173 2.173 0 0 1 8.75 33.6 L 8.75 34.6 L 9.2 34.9 A 3.243 3.243 0 0 0 10.139 34.523 A 2.674 2.674 0 0 0 11.05 33.6 Z M 11.05 11.1 L 10.85 10.55 L 9.95 10.25 A 11.184 11.184 0 0 1 9.594 10.547 Q 9.218 10.847 8.935 11.007 A 2.173 2.173 0 0 1 8.75 11.1 L 8.75 12.1 L 9.2 12.4 A 3.243 3.243 0 0 0 10.139 12.023 A 2.674 2.674 0 0 0 11.05 11.1 Z M 19.75 8.05 L 19.95 8.05 A 1.342 1.342 0 0 1 20.09 8.024 Q 20.26 8 20.5 8 A 3.979 3.979 0 0 1 20.705 8.005 Q 20.891 8.015 21.021 8.043 A 1.074 1.074 0 0 1 21.05 8.05 L 21.25 8.05 L 21.8 7.25 L 21.6 6.7 A 4.296 4.296 0 0 0 21.095 6.564 Q 20.821 6.508 20.571 6.501 A 2.554 2.554 0 0 0 20.5 6.5 Q 20.032 6.5 19.475 6.676 A 4.943 4.943 0 0 0 19.4 6.7 L 19.2 7.25 L 19.75 8.05 Z M 13.75 19.3 L 13.95 19.3 A 1.342 1.342 0 0 1 14.09 19.274 Q 14.26 19.25 14.5 19.25 A 3.979 3.979 0 0 1 14.705 19.255 Q 14.891 19.265 15.021 19.293 A 1.074 1.074 0 0 1 15.05 19.3 L 15.25 19.3 L 15.8 18.5 L 15.6 17.95 A 4.296 4.296 0 0 0 15.095 17.814 Q 14.821 17.758 14.571 17.751 A 2.554 2.554 0 0 0 14.5 17.75 Q 14.032 17.75 13.475 17.926 A 4.943 4.943 0 0 0 13.4 17.95 L 13.2 18.5 L 13.75 19.3 Z M 7.75 30.55 L 7.95 30.55 A 1.342 1.342 0 0 1 8.09 30.524 Q 8.26 30.5 8.5 30.5 A 3.979 3.979 0 0 1 8.705 30.505 Q 8.891 30.515 9.021 30.543 A 1.074 1.074 0 0 1 9.05 30.55 L 9.25 30.55 L 9.8 29.75 L 9.6 29.2 A 4.296 4.296 0 0 0 9.095 29.064 Q 8.821 29.008 8.571 29.001 A 2.554 2.554 0 0 0 8.5 29 Q 8.032 29 7.475 29.176 A 4.943 4.943 0 0 0 7.4 29.2 L 7.2 29.75 L 7.75 30.55 Z M 7.75 8.05 L 7.95 8.05 A 1.342 1.342 0 0 1 8.09 8.024 Q 8.26 8 8.5 8 A 3.979 3.979 0 0 1 8.705 8.005 Q 8.891 8.015 9.021 8.043 A 1.074 1.074 0 0 1 9.05 8.05 L 9.25 8.05 L 9.8 7.25 L 9.6 6.7 A 4.296 4.296 0 0 0 9.095 6.564 Q 8.821 6.508 8.571 6.501 A 2.554 2.554 0 0 0 8.5 6.5 Q 8.032 6.5 7.475 6.676 A 4.943 4.943 0 0 0 7.4 6.7 L 7.2 7.25 L 7.75 8.05 Z M 19.75 30.55 L 19.95 30.55 A 1.342 1.342 0 0 1 20.09 30.524 Q 20.26 30.5 20.5 30.5 A 3.979 3.979 0 0 1 20.705 30.505 Q 20.891 30.515 21.021 30.543 A 1.074 1.074 0 0 1 21.05 30.55 L 21.25 30.55 L 21.8 29.75 L 21.6 29.2 A 4.296 4.296 0 0 0 21.095 29.064 Q 20.821 29.008 20.571 29.001 A 2.554 2.554 0 0 0 20.5 29 Q 20.032 29 19.475 29.176 A 4.943 4.943 0 0 0 19.4 29.2 L 19.2 29.75 L 19.75 30.55 Z M 8.5 10.5 A 0.954 0.954 0 0 0 9.181 10.219 A 1.253 1.253 0 0 0 9.2 10.2 A 1.045 1.045 0 0 0 9.418 9.892 A 0.94 0.94 0 0 0 9.5 9.5 A 0.954 0.954 0 0 0 9.219 8.82 A 1.253 1.253 0 0 0 9.2 8.8 A 1.045 1.045 0 0 0 8.892 8.583 A 0.94 0.94 0 0 0 8.5 8.5 A 0.954 0.954 0 0 0 7.82 8.781 A 1.253 1.253 0 0 0 7.8 8.8 A 1.045 1.045 0 0 0 7.583 9.109 A 0.94 0.94 0 0 0 7.5 9.5 A 0.954 0.954 0 0 0 7.781 10.181 A 1.253 1.253 0 0 0 7.8 10.2 A 1.045 1.045 0 0 0 8.109 10.418 A 0.94 0.94 0 0 0 8.5 10.5 Z M 8.5 33 A 0.954 0.954 0 0 0 9.181 32.719 A 1.253 1.253 0 0 0 9.2 32.7 A 1.045 1.045 0 0 0 9.418 32.392 A 0.94 0.94 0 0 0 9.5 32 A 0.954 0.954 0 0 0 9.219 31.32 A 1.253 1.253 0 0 0 9.2 31.3 A 1.045 1.045 0 0 0 8.892 31.083 A 0.94 0.94 0 0 0 8.5 31 A 0.954 0.954 0 0 0 7.82 31.281 A 1.253 1.253 0 0 0 7.8 31.3 A 1.045 1.045 0 0 0 7.583 31.609 A 0.94 0.94 0 0 0 7.5 32 A 0.954 0.954 0 0 0 7.781 32.681 A 1.253 1.253 0 0 0 7.8 32.7 A 1.045 1.045 0 0 0 8.109 32.918 A 0.94 0.94 0 0 0 8.5 33 Z M 14.5 21.75 A 0.954 0.954 0 0 0 15.181 21.469 A 1.253 1.253 0 0 0 15.2 21.45 A 1.045 1.045 0 0 0 15.418 21.142 A 0.94 0.94 0 0 0 15.5 20.75 A 0.954 0.954 0 0 0 15.219 20.07 A 1.253 1.253 0 0 0 15.2 20.05 A 1.045 1.045 0 0 0 14.892 19.833 A 0.94 0.94 0 0 0 14.5 19.75 A 0.954 0.954 0 0 0 13.82 20.031 A 1.253 1.253 0 0 0 13.8 20.05 A 1.045 1.045 0 0 0 13.583 20.359 A 0.94 0.94 0 0 0 13.5 20.75 A 0.954 0.954 0 0 0 13.781 21.431 A 1.253 1.253 0 0 0 13.8 21.45 A 1.045 1.045 0 0 0 14.109 21.668 A 0.94 0.94 0 0 0 14.5 21.75 Z M 20.5 33 A 0.954 0.954 0 0 0 21.181 32.719 A 1.253 1.253 0 0 0 21.2 32.7 A 1.045 1.045 0 0 0 21.418 32.392 A 0.94 0.94 0 0 0 21.5 32 A 0.954 0.954 0 0 0 21.219 31.32 A 1.253 1.253 0 0 0 21.2 31.3 A 1.045 1.045 0 0 0 20.892 31.083 A 0.94 0.94 0 0 0 20.5 31 A 0.954 0.954 0 0 0 19.82 31.281 A 1.253 1.253 0 0 0 19.8 31.3 A 1.045 1.045 0 0 0 19.583 31.609 A 0.94 0.94 0 0 0 19.5 32 A 0.954 0.954 0 0 0 19.781 32.681 A 1.253 1.253 0 0 0 19.8 32.7 A 1.045 1.045 0 0 0 20.109 32.918 A 0.94 0.94 0 0 0 20.5 33 Z M 20.5 10.5 A 0.954 0.954 0 0 0 21.181 10.219 A 1.253 1.253 0 0 0 21.2 10.2 A 1.045 1.045 0 0 0 21.418 9.892 A 0.94 0.94 0 0 0 21.5 9.5 A 0.954 0.954 0 0 0 21.219 8.82 A 1.253 1.253 0 0 0 21.2 8.8 A 1.045 1.045 0 0 0 20.892 8.583 A 0.94 0.94 0 0 0 20.5 8.5 A 0.954 0.954 0 0 0 19.82 8.781 A 1.253 1.253 0 0 0 19.8 8.8 A 1.045 1.045 0 0 0 19.583 9.109 A 0.94 0.94 0 0 0 19.5 9.5 A 0.954 0.954 0 0 0 19.781 10.181 A 1.253 1.253 0 0 0 19.8 10.2 A 1.045 1.045 0 0 0 20.109 10.418 A 0.94 0.94 0 0 0 20.5 10.5 Z M 20.303 9.976 A 0.72 0.72 0 0 0 20.5 10 Q 20.889 10 20.976 9.698 A 0.72 0.72 0 0 0 21 9.5 Q 21 9.112 20.698 9.025 A 0.72 0.72 0 0 0 20.5 9 Q 20.112 9 20.025 9.303 A 0.72 0.72 0 0 0 20 9.5 Q 20 9.889 20.303 9.976 Z M 8.303 9.976 A 0.72 0.72 0 0 0 8.5 10 Q 8.889 10 8.976 9.698 A 0.72 0.72 0 0 0 9 9.5 Q 9 9.112 8.698 9.025 A 0.72 0.72 0 0 0 8.5 9 Q 8.112 9 8.025 9.303 A 0.72 0.72 0 0 0 8 9.5 Q 8 9.889 8.303 9.976 Z M 14.303 21.226 A 0.72 0.72 0 0 0 14.5 21.25 Q 14.889 21.25 14.976 20.948 A 0.72 0.72 0 0 0 15 20.75 Q 15 20.362 14.698 20.275 A 0.72 0.72 0 0 0 14.5 20.25 Q 14.112 20.25 14.025 20.553 A 0.72 0.72 0 0 0 14 20.75 Q 14 21.139 14.303 21.226 Z M 20.303 32.476 A 0.72 0.72 0 0 0 20.5 32.5 Q 20.889 32.5 20.976 32.198 A 0.72 0.72 0 0 0 21 32 Q 21 31.612 20.698 31.525 A 0.72 0.72 0 0 0 20.5 31.5 Q 20.112 31.5 20.025 31.803 A 0.72 0.72 0 0 0 20 32 Q 20 32.389 20.303 32.476 Z M 8.303 32.476 A 0.72 0.72 0 0 0 8.5 32.5 Q 8.889 32.5 8.976 32.198 A 0.72 0.72 0 0 0 9 32 Q 9 31.612 8.698 31.525 A 0.72 0.72 0 0 0 8.5 31.5 Q 8.112 31.5 8.025 31.803 A 0.72 0.72 0 0 0 8 32 Q 8 32.389 8.303 32.476 Z" vector-effect="non-scaling-stroke"/></g></svg></svg>