<svg width="58" height="83" viewBox="0 0 29 41.5" xmlns="http://www.w3.org/2000/svg"><g id="svgGroup" stroke-linecap="round" fill-rule="evenodd" font-size="9pt" stroke="#000" stroke-width="0.05mm" fill="#000" style="stroke:#000;stroke-width:0.05mm;fill:#000"><path d="M 0 38.5 L 0 3 A 2.89 2.89 0 0 1 0.848 0.903 A 3.442 3.442 0 0 1 0.875 0.875 A 2.889 2.889 0 0 1 2.961 0.001 A 3.547 3.547 0 0 1 3 0 L 26 0 A 2.89 2.89 0 0 1 28.098 0.848 A 3.442 3.442 0 0 1 28.125 0.875 A 2.889 2.889 0 0 1 29 2.961 A 3.547 3.547 0 0 1 29 3 L 29 38.5 A 2.89 2.89 0 0 1 28.153 40.598 A 3.442 3.442 0 0 1 28.125 40.625 A 2.889 2.889 0 0 1 26.039 41.5 A 3.547 3.547 0 0 1 26 41.5 L 3 41.5 A 2.89 2.89 0 0 1 0.903 40.653 A 3.442 3.442 0 0 1 0.875 40.625 A 2.889 2.889 0 0 1 0.001 38.539 A 3.547 3.547 0 0 1 0 38.5 Z M 2.75 40.5 L 3.75 40.5 L 3.75 1 L 2.75 1 L 2.75 40.5 Z M 4.25 40.5 L 5.25 40.5 L 5.25 1 L 4.25 1 L 4.25 40.5 Z M 5.75 40.5 L 6.75 40.5 L 6.75 1 L 5.75 1 L 5.75 40.5 Z M 7.25 40.5 L 8.25 40.5 L 8.25 1 L 7.25 1 L 7.25 40.5 Z M 8.75 40.5 L 9.75 40.5 L 9.75 1 L 8.75 1 L 8.75 40.5 Z M 10.25 40.5 L 11.25 40.5 L 11.25 1 L 10.25 1 L 10.25 40.5 Z M 11.75 40.5 L 12.75 40.5 L 12.75 1 L 11.75 1 L 11.75 40.5 Z M 13.25 40.5 L 14.25 40.5 L 14.25 1 L 13.25 1 L 13.25 40.5 Z M 14.75 40.5 L 15.75 40.5 L 15.75 1 L 14.75 1 L 14.75 40.5 Z M 16.25 40.5 L 17.25 40.5 L 17.25 1 L 16.25 1 L 16.25 40.5 Z M 17.75 40.5 L 18.75 40.5 L 18.75 1 L 17.75 1 L 17.75 40.5 Z M 19.25 40.5 L 20.25 40.5 L 20.25 1 L 19.25 1 L 19.25 40.5 Z M 20.75 40.5 L 21.75 40.5 L 21.75 1 L 20.75 1 L 20.75 40.5 Z M 22.25 40.5 L 23.25 40.5 L 23.25 1 L 22.25 1 L 22.25 40.5 Z M 23.75 40.5 L 24.75 40.5 L 24.75 1 L 23.75 1 L 23.75 40.5 Z M 25.25 40.5 L 26.25 40.5 L 26.25 1 L 25.25 1 L 25.25 40.5 Z M 28 38.5 L 28 3 Q 28 2.35 27.65 1.875 Q 27.3 1.4 26.75 1.15 L 26.75 40.35 Q 27.3 40.1 27.65 39.625 A 1.794 1.794 0 0 0 27.992 38.699 A 2.272 2.272 0 0 0 28 38.5 Z M 2.25 40.35 L 2.25 1.15 Q 1.7 1.4 1.35 1.875 A 1.794 1.794 0 0 0 1.009 2.802 A 2.272 2.272 0 0 0 1 3 L 1 38.5 Q 1 39.15 1.35 39.625 Q 1.7 40.1 2.25 40.35 Z" vector-effect="non-scaling-stroke"/></g></svg>