<svg width="58" height="83" viewBox="0 0 29 41.5" xmlns="http://www.w3.org/2000/svg"><g id="svgGroup" stroke-linecap="round" fill-rule="evenodd" font-size="9pt" stroke="#000" stroke-width="0.05mm" fill="#000" style="stroke:#000;stroke-width:0.05mm;fill:#000"><path d="M 0 38.5 L 0 3 A 2.89 2.89 0 0 1 0.848 0.903 A 3.442 3.442 0 0 1 0.875 0.875 A 2.889 2.889 0 0 1 2.961 0.001 A 3.547 3.547 0 0 1 3 0 L 26 0 A 2.89 2.89 0 0 1 28.098 0.848 A 3.442 3.442 0 0 1 28.125 0.875 A 2.889 2.889 0 0 1 29 2.961 A 3.547 3.547 0 0 1 29 3 L 29 38.5 A 2.89 2.89 0 0 1 28.153 40.598 A 3.442 3.442 0 0 1 28.125 40.625 A 2.889 2.889 0 0 1 26.039 41.5 A 3.547 3.547 0 0 1 26 41.5 L 3 41.5 A 2.89 2.89 0 0 1 0.903 40.653 A 3.442 3.442 0 0 1 0.875 40.625 A 2.889 2.889 0 0 1 0.001 38.539 A 3.547 3.547 0 0 1 0 38.5 Z M 3 40 L 26 40 A 1.628 1.628 0 0 0 26.542 39.914 A 1.403 1.403 0 0 0 27.075 39.575 A 1.436 1.436 0 0 0 27.498 38.602 A 1.91 1.91 0 0 0 27.5 38.5 L 27.5 3 A 1.628 1.628 0 0 0 27.414 2.459 A 1.403 1.403 0 0 0 27.075 1.925 A 1.436 1.436 0 0 0 26.102 1.503 A 1.91 1.91 0 0 0 26 1.5 L 3 1.5 A 1.628 1.628 0 0 0 2.459 1.587 A 1.403 1.403 0 0 0 1.925 1.925 A 1.436 1.436 0 0 0 1.503 2.899 A 1.91 1.91 0 0 0 1.5 3 L 1.5 38.5 A 1.628 1.628 0 0 0 1.587 39.042 A 1.403 1.403 0 0 0 1.925 39.575 A 1.436 1.436 0 0 0 2.899 39.998 A 1.91 1.91 0 0 0 3 40 Z" vector-effect="non-scaling-stroke"/></g><text x="3.5" y="15.1" font-family="'Noto Serif', 'Noto Serif JP', 'Yu Mincho', 'Hiragino Mincho ProN', Georgia, serif" font-size="14.6" font-weight="700" fill="#111111">N</text><svg x="10.8" y="15.9" width="15.9" height="20.9" viewBox="3.764 10.718 21.473 20.165" overflow="visible" preserveAspectRatio="xMidYMid meet"><g id="svgGroup" stroke-linecap="round" fill-rule="evenodd" font-size="9pt" stroke="#000" stroke-width="0.05mm" fill="#000" style="stroke:#000;stroke-width:0.05mm;fill:#000"><path d="M 12.3 22.85 L 12.25 20.4 Q 12.25 19.073 12.068 18.325 A 2.807 2.807 0 0 0 11.95 17.95 Q 11.65 17.2 11.1 16.6 A 1.984 1.984 0 0 1 10.829 16.258 A 2.342 2.342 0 0 1 10.75 16.125 A 1.233 1.233 0 0 1 10.608 15.653 A 1.525 1.525 0 0 1 10.6 15.5 A 1.295 1.295 0 0 1 10.988 14.563 A 1.637 1.637 0 0 1 11 14.55 A 44.984 44.984 0 0 0 11.357 14.668 Q 11.863 14.832 12.2 14.925 Q 12.65 15.05 12.9 15.15 A 9.218 9.218 0 0 1 13.36 15.277 Q 13.772 15.403 14.027 15.535 A 1.427 1.427 0 0 1 14.25 15.675 A 0.984 0.984 0 0 1 14.441 15.884 Q 14.684 16.228 14.9 16.95 Q 14.3 17.3 14.05 17.975 Q 13.85 18.516 13.746 19.601 A 19.213 19.213 0 0 0 13.7 20.175 A 64.049 64.049 0 0 0 13.632 21.407 Q 13.607 21.957 13.587 22.568 A 124.687 124.687 0 0 0 13.55 23.85 A 53.661 53.661 0 0 0 14.078 23.459 Q 14.283 23.305 14.464 23.165 A 25.741 25.741 0 0 0 14.8 22.9 L 15.65 22.3 Q 15.65 20.65 15.9 19.05 Q 15.95 18.6 16 18.05 Q 16.05 17.5 16.05 16.9 Q 16.05 15.991 15.845 15.509 A 1.283 1.283 0 0 0 15.75 15.325 A 2.671 2.671 0 0 0 15.494 14.981 Q 15.298 14.759 15.075 14.625 A 8.812 8.812 0 0 1 14.925 14.533 Q 14.722 14.406 14.633 14.33 A 0.555 0.555 0 0 1 14.6 14.3 Q 14.75 13.75 15.075 13.35 A 6.002 6.002 0 0 1 15.351 13.036 Q 15.607 12.763 15.95 12.45 Q 16.386 12.111 16.822 11.585 A 7.889 7.889 0 0 0 16.85 11.55 A 3.024 3.024 0 0 1 17.112 11.784 Q 17.377 12.045 17.721 12.471 A 18.014 18.014 0 0 1 18.075 12.925 A 7.177 7.177 0 0 1 18.41 13.404 Q 18.713 13.882 18.808 14.245 A 1.217 1.217 0 0 1 18.85 14.55 A 0.339 0.339 0 0 1 18.805 14.711 Q 18.704 14.898 18.38 15.13 A 3.51 3.51 0 0 1 18.35 15.15 A 2.393 2.393 0 0 0 17.848 15.63 Q 17.659 15.87 17.5 16.175 Q 17.213 16.729 17.162 17.872 A 11.747 11.747 0 0 0 17.15 18.4 L 17.15 21.3 A 4.944 4.944 0 0 1 18.082 20.732 A 5.469 5.469 0 0 1 18.15 20.7 A 16.13 16.13 0 0 0 18.544 20.438 Q 18.937 20.167 19.184 19.954 A 3.108 3.108 0 0 0 19.35 19.8 Q 19.64 19.511 19.69 18.981 A 2.462 2.462 0 0 0 19.7 18.75 L 19.65 18.35 A 0.84 0.84 0 0 1 19.931 18.171 Q 20.226 18.05 20.7 18.05 A 2.312 2.312 0 0 1 21.481 18.193 Q 21.769 18.296 22.066 18.473 A 4.091 4.091 0 0 1 22.15 18.525 A 2.235 2.235 0 0 1 22.509 18.802 Q 22.699 18.986 22.796 19.19 A 1.054 1.054 0 0 1 22.9 19.65 A 0.262 0.262 0 0 1 22.837 19.817 Q 22.757 19.917 22.575 20 Q 22.328 20.115 21.98 20.2 A 5.557 5.557 0 0 1 21.75 20.25 A 17.91 17.91 0 0 0 18.617 21.372 A 15.46 15.46 0 0 0 17.25 22.1 L 17.25 22.5 A 33.355 33.355 0 0 0 17.265 23.504 Q 17.307 24.9 17.475 25.65 A 3.086 3.086 0 0 0 17.634 26.16 Q 17.876 26.742 18.325 26.975 A 2.208 2.208 0 0 0 18.774 27.143 Q 19.231 27.265 19.9 27.293 A 9.876 9.876 0 0 0 20.3 27.3 Q 21.45 27.3 22.55 27 A 5.66 5.66 0 0 1 22.711 26.963 Q 22.782 26.947 22.861 26.932 A 10.26 10.26 0 0 1 23.025 26.9 Q 23.233 26.863 23.513 26.853 A 5.695 5.695 0 0 1 23.7 26.85 A 0.857 0.857 0 0 1 24.021 26.91 A 0.812 0.812 0 0 1 24.15 26.975 Q 24.333 27.089 24.349 27.307 A 0.586 0.586 0 0 1 24.35 27.35 Q 24.35 28.001 23.647 28.52 A 3.77 3.77 0 0 1 23.15 28.825 A 3.794 3.794 0 0 1 22.368 29.113 Q 21.508 29.34 20.149 29.414 A 26.646 26.646 0 0 1 18.7 29.45 Q 17.63 29.45 16.882 29.078 A 2.813 2.813 0 0 1 16.575 28.9 Q 15.767 28.361 15.751 27.437 A 2.161 2.161 0 0 1 15.75 27.4 L 15.8 25.7 Q 15.8 25.293 15.754 24.746 A 20.897 20.897 0 0 0 15.7 24.2 L 15.65 23 A 27.209 27.209 0 0 0 14.781 23.67 Q 14.197 24.138 13.55 24.7 Q 13.55 24.95 13.6 25.2 Q 13.65 25.45 13.65 25.7 Q 13.65 26.35 13.225 26.825 Q 12.8 27.3 12.5 27.35 A 0.326 0.326 0 0 1 12.387 27.328 Q 12.294 27.293 12.185 27.205 A 1.325 1.325 0 0 1 12.15 27.175 Q 11.95 27 11.95 26.8 A 0.974 0.974 0 0 0 11.933 26.609 Q 11.899 26.44 11.8 26.325 Q 11.65 26.15 11.6 26.1 Q 10.45 26.9 9.2 28.05 A 32.415 32.415 0 0 1 8.608 28.56 Q 7.974 29.091 7.509 29.414 A 6.745 6.745 0 0 1 7.225 29.6 A 2.998 2.998 0 0 1 5.927 30.032 A 3.744 3.744 0 0 1 5.55 30.05 Q 4.698 30.05 4.653 29.108 A 2.263 2.263 0 0 1 4.65 29 Q 4.65 28.74 4.83 28.438 A 2.235 2.235 0 0 1 4.975 28.225 A 21.545 21.545 0 0 0 5.088 28.078 Q 5.31 27.782 5.35 27.7 Q 6.3 26.4 7.075 25.025 A 10.331 10.331 0 0 0 7.594 23.953 Q 7.834 23.381 8.06 22.693 A 26.481 26.481 0 0 0 8.5 21.2 A 10.673 10.673 0 0 1 7.9 20.758 Q 7.497 20.437 7.2 20.125 A 2.197 2.197 0 0 1 6.648 19.073 A 2.812 2.812 0 0 1 6.6 18.8 A 6.107 6.107 0 0 0 7.673 19.185 Q 8.221 19.328 8.85 19.4 Q 8.9 18.9 9.15 18.45 Q 9.3 18.8 9.35 19.6 A 7.117 7.117 0 0 1 9.745 19.725 Q 10.113 19.854 10.347 19.992 A 1.774 1.774 0 0 1 10.4 20.025 A 0.724 0.724 0 0 1 10.74 20.549 A 1.02 1.02 0 0 1 10.75 20.7 A 0.528 0.528 0 0 1 10.447 21.177 Q 10.058 21.398 9.169 21.4 A 7.205 7.205 0 0 1 9.15 21.4 Q 8.75 23.6 8.2 25.7 Q 8.15 26 8.075 26.275 A 2.564 2.564 0 0 0 8.03 26.471 Q 8.012 26.567 8.005 26.652 A 1.218 1.218 0 0 0 8 26.75 Q 8 27.052 8.057 27.212 A 0.405 0.405 0 0 0 8.1 27.3 A 1.323 1.323 0 0 0 8.38 27.234 Q 8.911 27.057 9.925 26.425 A 35.724 35.724 0 0 0 10.697 25.932 Q 11.459 25.43 11.967 25.027 A 10.246 10.246 0 0 0 12 25 Q 12.279 24.537 12.299 23.086 A 16.797 16.797 0 0 0 12.3 22.85 Z" vector-effect="non-scaling-stroke"/></g></svg></svg>