<svg width="58" height="83" viewBox="0 0 29 41.5" xmlns="http://www.w3.org/2000/svg"><g id="svgGroup" stroke-linecap="round" fill-rule="evenodd" font-size="9pt" stroke="#000" stroke-width="0.05mm" fill="#000" style="stroke:#000;stroke-width:0.05mm;fill:#000"><path d="M 0 38.5 L 0 3 A 2.89 2.89 0 0 1 0.848 0.903 A 3.442 3.442 0 0 1 0.875 0.875 A 2.889 2.889 0 0 1 2.961 0.001 A 3.547 3.547 0 0 1 3 0 L 26 0 A 2.89 2.89 0 0 1 28.098 0.848 A 3.442 3.442 0 0 1 28.125 0.875 A 2.889 2.889 0 0 1 29 2.961 A 3.547 3.547 0 0 1 29 3 L 29 38.5 A 2.89 2.89 0 0 1 28.153 40.598 A 3.442 3.442 0 0 1 28.125 40.625 A 2.889 2.889 0 0 1 26.039 41.5 A 3.547 3.547 0 0 1 26 41.5 L 3 41.5 A 2.89 2.89 0 0 1 0.903 40.653 A 3.442 3.442 0 0 1 0.875 40.625 A 2.889 2.889 0 0 1 0.001 38.539 A 3.547 3.547 0 0 1 0 38.5 Z M 3 40 L 26 40 A 1.628 1.628 0 0 0 26.542 39.914 A 1.403 1.403 0 0 0 27.075 39.575 A 1.436 1.436 0 0 0 27.498 38.602 A 1.91 1.91 0 0 0 27.5 38.5 L 27.5 3 A 1.628 1.628 0 0 0 27.414 2.459 A 1.403 1.403 0 0 0 27.075 1.925 A 1.436 1.436 0 0 0 26.102 1.503 A 1.91 1.91 0 0 0 26 1.5 L 3 1.5 A 1.628 1.628 0 0 0 2.459 1.587 A 1.403 1.403 0 0 0 1.925 1.925 A 1.436 1.436 0 0 0 1.503 2.899 A 1.91 1.91 0 0 0 1.5 3 L 1.5 38.5 A 1.628 1.628 0 0 0 1.587 39.042 A 1.403 1.403 0 0 0 1.925 39.575 A 1.436 1.436 0 0 0 2.899 39.998 A 1.91 1.91 0 0 0 3 40 Z" vector-effect="non-scaling-stroke"/></g><text x="3.5" y="15.1" font-family="'Noto Serif', 'Noto Serif JP', 'Yu Mincho', 'Hiragino Mincho ProN', Georgia, serif" font-size="14.6" font-weight="700" fill="#1f3f99">2</text><svg x="10.8" y="15.9" width="15.9" height="20.9" viewBox="7.361 4.891 14.279 31.719" overflow="visible" preserveAspectRatio="xMidYMid meet"><g id="svgGroup" stroke-linecap="round" fill-rule="evenodd" font-size="9pt" stroke="#000" stroke-width="0.05mm" fill="#000" style="stroke:#000;stroke-width:0.05mm;fill:#000"><path d="M 14.5 35.3 Q 12.75 35.3 11.225 34.425 Q 9.7 33.55 8.825 32.025 Q 7.95 30.5 7.95 28.75 Q 7.95 27 8.825 25.475 Q 9.7 23.95 11.225 23.075 Q 12.75 22.2 14.5 22.2 Q 16.25 22.2 17.775 23.075 Q 19.3 23.95 20.175 25.475 Q 21.05 27 21.05 28.75 Q 21.05 30.5 20.175 32.025 Q 19.3 33.55 17.775 34.425 Q 16.25 35.3 14.5 35.3 Z M 14.5 19.3 Q 12.75 19.3 11.225 18.425 Q 9.7 17.55 8.825 16.025 Q 7.95 14.5 7.95 12.75 Q 7.95 11 8.825 9.475 Q 9.7 7.95 11.225 7.075 Q 12.75 6.2 14.5 6.2 Q 16.25 6.2 17.775 7.075 Q 19.3 7.95 20.175 9.475 Q 21.05 11 21.05 12.75 Q 21.05 14.5 20.175 16.025 Q 19.3 17.55 17.775 18.425 Q 16.25 19.3 14.5 19.3 Z M 14.5 18.15 A 5.203 5.203 0 0 0 18.276 16.624 A 6.197 6.197 0 0 0 18.325 16.575 A 5.2 5.2 0 0 0 19.9 12.821 A 6.386 6.386 0 0 0 19.9 12.75 A 5.203 5.203 0 0 0 18.374 8.975 A 6.197 6.197 0 0 0 18.325 8.925 A 5.2 5.2 0 0 0 14.571 7.351 A 6.386 6.386 0 0 0 14.5 7.35 A 5.203 5.203 0 0 0 10.725 8.877 A 6.197 6.197 0 0 0 10.675 8.925 A 5.2 5.2 0 0 0 9.101 12.68 A 6.386 6.386 0 0 0 9.1 12.75 A 5.203 5.203 0 0 0 10.627 16.526 A 6.197 6.197 0 0 0 10.675 16.575 A 5.2 5.2 0 0 0 14.43 18.15 A 6.386 6.386 0 0 0 14.5 18.15 Z M 14.5 34.15 A 5.203 5.203 0 0 0 18.276 32.624 A 6.197 6.197 0 0 0 18.325 32.575 A 5.2 5.2 0 0 0 19.9 28.821 A 6.386 6.386 0 0 0 19.9 28.75 A 5.203 5.203 0 0 0 18.374 24.975 A 6.197 6.197 0 0 0 18.325 24.925 A 5.2 5.2 0 0 0 14.571 23.351 A 6.386 6.386 0 0 0 14.5 23.35 A 5.203 5.203 0 0 0 10.725 24.877 A 6.197 6.197 0 0 0 10.675 24.925 A 5.2 5.2 0 0 0 9.101 28.68 A 6.386 6.386 0 0 0 9.1 28.75 A 5.203 5.203 0 0 0 10.627 32.526 A 6.197 6.197 0 0 0 10.675 32.575 A 5.2 5.2 0 0 0 14.43 34.15 A 6.386 6.386 0 0 0 14.5 34.15 Z M 11.144 16.194 A 4.624 4.624 0 0 0 14.5 17.55 A 5.671 5.671 0 0 0 14.563 17.55 A 4.622 4.622 0 0 0 17.9 16.15 A 5.506 5.506 0 0 0 17.944 16.107 A 4.624 4.624 0 0 0 19.3 12.75 A 5.671 5.671 0 0 0 19.3 12.688 A 4.622 4.622 0 0 0 17.9 9.35 A 5.506 5.506 0 0 0 17.857 9.307 A 4.624 4.624 0 0 0 14.5 7.95 A 5.671 5.671 0 0 0 14.438 7.951 A 4.622 4.622 0 0 0 11.1 9.35 A 5.506 5.506 0 0 0 11.057 9.394 A 4.624 4.624 0 0 0 9.7 12.75 A 5.671 5.671 0 0 0 9.701 12.813 A 4.622 4.622 0 0 0 11.1 16.15 A 5.506 5.506 0 0 0 11.144 16.194 Z M 11.144 32.194 A 4.624 4.624 0 0 0 14.5 33.55 A 5.671 5.671 0 0 0 14.563 33.55 A 4.622 4.622 0 0 0 17.9 32.15 A 5.506 5.506 0 0 0 17.944 32.107 A 4.624 4.624 0 0 0 19.3 28.75 A 5.671 5.671 0 0 0 19.3 28.688 A 4.622 4.622 0 0 0 17.9 25.35 A 5.506 5.506 0 0 0 17.857 25.307 A 4.624 4.624 0 0 0 14.5 23.95 A 5.671 5.671 0 0 0 14.438 23.951 A 4.622 4.622 0 0 0 11.1 25.35 A 5.506 5.506 0 0 0 11.057 25.394 A 4.624 4.624 0 0 0 9.7 28.75 A 5.671 5.671 0 0 0 9.701 28.813 A 4.622 4.622 0 0 0 11.1 32.15 A 5.506 5.506 0 0 0 11.144 32.194 Z M 11.2 14.45 L 12.85 13.5 L 12.7 12.95 L 11.1 12.95 L 11.1 12.55 L 12.7 12.55 L 12.85 12 L 11.2 11.05 L 10.15 11.55 Q 10 12.15 10 12.75 Q 10 13.35 10.15 13.95 L 11.2 14.45 Z M 17.8 14.45 L 18.85 13.95 Q 19 13.35 19 12.75 Q 19 12.15 18.85 11.55 L 17.8 11.05 L 16.15 12 L 16.3 12.55 L 17.9 12.55 L 17.9 12.95 L 16.3 12.95 L 16.15 13.5 L 17.8 14.45 Z M 11.2 30.45 L 12.85 29.5 L 12.7 28.95 L 11.1 28.95 L 11.1 28.55 L 12.7 28.55 L 12.85 28 L 11.2 27.05 L 10.15 27.55 Q 10 28.15 10 28.75 Q 10 29.35 10.15 29.95 L 11.2 30.45 Z M 17.8 30.45 L 18.85 29.95 Q 19 29.35 19 28.75 Q 19 28.15 18.85 27.55 L 17.8 27.05 L 16.15 28 L 16.3 28.55 L 17.9 28.55 L 17.9 28.95 L 16.3 28.95 L 16.15 29.5 L 17.8 30.45 Z M 15.95 27.7 L 17.65 26.75 L 17.7 25.6 A 3.844 3.844 0 0 0 15.805 24.44 A 4.7 4.7 0 0 0 15.65 24.4 L 14.7 25.05 L 14.7 26.95 L 15.25 27.1 L 16.05 25.7 L 16.35 25.9 L 15.55 27.3 Q 15.8 27.45 15.95 27.7 Z M 13.35 33.1 L 14.3 32.45 L 14.3 30.55 L 13.75 30.4 L 12.95 31.8 L 12.65 31.6 L 13.45 30.2 Q 13.2 30.05 13.05 29.8 L 11.35 30.75 L 11.3 31.9 A 3.844 3.844 0 0 0 13.196 33.061 A 4.7 4.7 0 0 0 13.35 33.1 Z M 15.95 11.7 L 17.65 10.75 L 17.7 9.6 A 3.844 3.844 0 0 0 15.805 8.44 A 4.7 4.7 0 0 0 15.65 8.4 L 14.7 9.05 L 14.7 10.95 L 15.25 11.1 L 16.05 9.7 L 16.35 9.9 L 15.55 11.3 Q 15.8 11.45 15.95 11.7 Z M 13.35 17.1 L 14.3 16.45 L 14.3 14.55 L 13.75 14.4 L 12.95 15.8 L 12.65 15.6 L 13.45 14.2 Q 13.2 14.05 13.05 13.8 L 11.35 14.75 L 11.3 15.9 A 3.844 3.844 0 0 0 13.196 17.061 A 4.7 4.7 0 0 0 13.35 17.1 Z M 17.7 31.9 L 17.65 30.75 L 15.95 29.8 Q 15.8 30.05 15.55 30.2 L 16.35 31.6 L 16.05 31.8 L 15.25 30.4 L 14.7 30.55 L 14.7 32.45 L 15.65 33.1 A 4.068 4.068 0 0 0 17.003 32.515 A 3.762 3.762 0 0 0 17.7 31.9 Z M 13.45 27.3 L 12.65 25.9 L 12.95 25.7 L 13.75 27.1 L 14.3 26.95 L 14.3 25.05 L 13.35 24.4 A 4.068 4.068 0 0 0 11.998 24.986 A 3.762 3.762 0 0 0 11.3 25.6 L 11.35 26.75 L 13.05 27.7 Q 13.2 27.45 13.45 27.3 Z M 17.7 15.9 L 17.65 14.75 L 15.95 13.8 Q 15.8 14.05 15.55 14.2 L 16.35 15.6 L 16.05 15.8 L 15.25 14.4 L 14.7 14.55 L 14.7 16.45 L 15.65 17.1 A 4.068 4.068 0 0 0 17.003 16.515 A 3.762 3.762 0 0 0 17.7 15.9 Z M 13.45 11.3 L 12.65 9.9 L 12.95 9.7 L 13.75 11.1 L 14.3 10.95 L 14.3 9.05 L 13.35 8.4 A 4.068 4.068 0 0 0 11.998 8.986 A 3.762 3.762 0 0 0 11.3 9.6 L 11.35 10.75 L 13.05 11.7 Q 13.2 11.45 13.45 11.3 Z M 14.5 30.25 A 1.628 1.628 0 0 0 15.042 30.164 A 1.403 1.403 0 0 0 15.575 29.825 A 1.436 1.436 0 0 0 15.998 28.852 A 1.91 1.91 0 0 0 16 28.75 A 1.628 1.628 0 0 0 15.914 28.209 A 1.403 1.403 0 0 0 15.575 27.675 A 1.436 1.436 0 0 0 14.602 27.253 A 1.91 1.91 0 0 0 14.5 27.25 A 1.628 1.628 0 0 0 13.959 27.337 A 1.403 1.403 0 0 0 13.425 27.675 A 1.436 1.436 0 0 0 13.003 28.649 A 1.91 1.91 0 0 0 13 28.75 A 1.628 1.628 0 0 0 13.087 29.292 A 1.403 1.403 0 0 0 13.425 29.825 A 1.436 1.436 0 0 0 14.399 30.248 A 1.91 1.91 0 0 0 14.5 30.25 Z M 14.5 14.25 A 1.628 1.628 0 0 0 15.042 14.164 A 1.403 1.403 0 0 0 15.575 13.825 A 1.436 1.436 0 0 0 15.998 12.852 A 1.91 1.91 0 0 0 16 12.75 A 1.628 1.628 0 0 0 15.914 12.209 A 1.403 1.403 0 0 0 15.575 11.675 A 1.436 1.436 0 0 0 14.602 11.253 A 1.91 1.91 0 0 0 14.5 11.25 A 1.628 1.628 0 0 0 13.959 11.337 A 1.403 1.403 0 0 0 13.425 11.675 A 1.436 1.436 0 0 0 13.003 12.649 A 1.91 1.91 0 0 0 13 12.75 A 1.628 1.628 0 0 0 13.087 13.292 A 1.403 1.403 0 0 0 13.425 13.825 A 1.436 1.436 0 0 0 14.399 14.248 A 1.91 1.91 0 0 0 14.5 14.25 Z M 14.237 13.405 A 0.739 0.739 0 0 0 14.5 13.45 A 0.886 0.886 0 0 0 14.52 13.45 A 0.675 0.675 0 0 0 15 13.25 A 0.664 0.664 0 0 0 15.155 13.014 A 0.739 0.739 0 0 0 15.2 12.75 A 0.886 0.886 0 0 0 15.2 12.731 A 0.675 0.675 0 0 0 15 12.25 A 0.664 0.664 0 0 0 14.764 12.096 A 0.739 0.739 0 0 0 14.5 12.05 A 0.886 0.886 0 0 0 14.481 12.051 A 0.675 0.675 0 0 0 14 12.25 A 0.664 0.664 0 0 0 13.846 12.487 A 0.739 0.739 0 0 0 13.8 12.75 A 0.886 0.886 0 0 0 13.801 12.77 A 0.675 0.675 0 0 0 14 13.25 A 0.664 0.664 0 0 0 14.237 13.405 Z M 14.237 29.405 A 0.739 0.739 0 0 0 14.5 29.45 A 0.886 0.886 0 0 0 14.52 29.45 A 0.675 0.675 0 0 0 15 29.25 A 0.664 0.664 0 0 0 15.155 29.014 A 0.739 0.739 0 0 0 15.2 28.75 A 0.886 0.886 0 0 0 15.2 28.731 A 0.675 0.675 0 0 0 15 28.25 A 0.664 0.664 0 0 0 14.764 28.096 A 0.739 0.739 0 0 0 14.5 28.05 A 0.886 0.886 0 0 0 14.481 28.051 A 0.675 0.675 0 0 0 14 28.25 A 0.664 0.664 0 0 0 13.846 28.487 A 0.739 0.739 0 0 0 13.8 28.75 A 0.886 0.886 0 0 0 13.801 28.77 A 0.675 0.675 0 0 0 14 29.25 A 0.664 0.664 0 0 0 14.237 29.405 Z" vector-effect="non-scaling-stroke"/></g></svg></svg>