<svg width="58" height="83" viewBox="0 0 29 41.5" xmlns="http://www.w3.org/2000/svg"><g id="svgGroup" stroke-linecap="round" fill-rule="evenodd" font-size="9pt" stroke="#000" stroke-width="0.05mm" fill="#000" style="stroke:#000;stroke-width:0.05mm;fill:#000"><path d="M 0 38.5 L 0 3 A 2.89 2.89 0 0 1 0.848 0.903 A 3.442 3.442 0 0 1 0.875 0.875 A 2.889 2.889 0 0 1 2.961 0.001 A 3.547 3.547 0 0 1 3 0 L 26 0 A 2.89 2.89 0 0 1 28.098 0.848 A 3.442 3.442 0 0 1 28.125 0.875 A 2.889 2.889 0 0 1 29 2.961 A 3.547 3.547 0 0 1 29 3 L 29 38.5 A 2.89 2.89 0 0 1 28.153 40.598 A 3.442 3.442 0 0 1 28.125 40.625 A 2.889 2.889 0 0 1 26.039 41.5 A 3.547 3.547 0 0 1 26 41.5 L 3 41.5 A 2.89 2.89 0 0 1 0.903 40.653 A 3.442 3.442 0 0 1 0.875 40.625 A 2.889 2.889 0 0 1 0.001 38.539 A 3.547 3.547 0 0 1 0 38.5 Z M 3 40 L 26 40 A 1.628 1.628 0 0 0 26.542 39.914 A 1.403 1.403 0 0 0 27.075 39.575 A 1.436 1.436 0 0 0 27.498 38.602 A 1.91 1.91 0 0 0 27.5 38.5 L 27.5 3 A 1.628 1.628 0 0 0 27.414 2.459 A 1.403 1.403 0 0 0 27.075 1.925 A 1.436 1.436 0 0 0 26.102 1.503 A 1.91 1.91 0 0 0 26 1.5 L 3 1.5 A 1.628 1.628 0 0 0 2.459 1.587 A 1.403 1.403 0 0 0 1.925 1.925 A 1.436 1.436 0 0 0 1.503 2.899 A 1.91 1.91 0 0 0 1.5 3 L 1.5 38.5 A 1.628 1.628 0 0 0 1.587 39.042 A 1.403 1.403 0 0 0 1.925 39.575 A 1.436 1.436 0 0 0 2.899 39.998 A 1.91 1.91 0 0 0 3 40 Z" vector-effect="non-scaling-stroke"/></g><text x="3.5" y="15.1" font-family="'Noto Serif', 'Noto Serif JP', 'Yu Mincho', 'Hiragino Mincho ProN', Georgia, serif" font-size="14.6" font-weight="700" fill="#16703c">5</text><svg x="10.8" y="15.9" width="15.9" height="20.9" viewBox="2.728 2.079 23.544 36.842" overflow="visible" preserveAspectRatio="xMidYMid meet"><g id="svgGroup" stroke-linecap="round" fill-rule="evenodd" font-size="9pt" stroke="#b23227" stroke-width="0.05mm" fill="#b23227" style="stroke:#b23227;stroke-width:0.05mm;fill:#b23227"><path d="M 12.85 25.4 L 12.85 23.05 Q 12.85 22.839 12.404 22.324 A 8.219 8.219 0 0 0 12.225 22.125 A 3.582 3.582 0 0 1 11.93 21.766 Q 11.631 21.343 11.603 20.975 A 0.993 0.993 0 0 1 11.6 20.9 A 1.181 1.181 0 0 1 11.692 20.461 Q 11.83 20.116 12.176 19.729 A 4.379 4.379 0 0 1 12.225 19.675 Q 12.733 19.128 12.828 18.86 A 0.332 0.332 0 0 0 12.85 18.75 L 12.85 16.35 A 0.776 0.776 0 0 0 12.605 15.778 A 1.036 1.036 0 0 0 12.575 15.75 Q 12.3 15.5 12.2 15.4 Q 11.45 14.95 11.45 14.35 A 1.205 1.205 0 0 1 11.506 13.977 A 0.952 0.952 0 0 1 11.85 13.5 A 1.938 1.938 0 0 1 12.096 13.342 Q 12.36 13.2 12.6 13.2 A 0.698 0.698 0 0 0 12.805 13.166 Q 12.995 13.108 13.234 12.95 A 3.406 3.406 0 0 0 13.375 12.85 A 1.794 1.794 0 0 1 14.302 12.509 A 2.272 2.272 0 0 1 14.5 12.5 Q 15.15 12.5 15.625 12.85 A 3.113 3.113 0 0 0 15.852 13.004 Q 16.175 13.2 16.4 13.2 A 0.953 0.953 0 0 1 16.728 13.262 Q 16.855 13.309 16.989 13.39 A 2.079 2.079 0 0 1 17.15 13.5 A 0.971 0.971 0 0 1 17.544 14.213 A 1.389 1.389 0 0 1 17.55 14.35 Q 17.55 14.849 17.034 15.243 A 2.52 2.52 0 0 1 16.8 15.4 A 3.852 3.852 0 0 1 16.742 15.458 Q 16.634 15.561 16.425 15.75 A 0.868 0.868 0 0 0 16.235 15.993 A 0.766 0.766 0 0 0 16.15 16.35 L 16.15 18.75 Q 16.15 18.962 16.597 19.477 A 8.219 8.219 0 0 0 16.775 19.675 A 3.582 3.582 0 0 1 17.071 20.035 Q 17.37 20.458 17.398 20.826 A 0.993 0.993 0 0 1 17.4 20.9 A 1.181 1.181 0 0 1 17.309 21.34 Q 17.171 21.685 16.825 22.072 A 4.379 4.379 0 0 1 16.775 22.125 Q 16.268 22.673 16.173 22.941 A 0.332 0.332 0 0 0 16.15 23.05 L 16.15 25.4 A 0.776 0.776 0 0 0 16.396 25.973 A 1.036 1.036 0 0 0 16.425 26 Q 16.7 26.25 16.8 26.35 Q 17.55 26.8 17.55 27.4 A 1.085 1.085 0 0 1 17.451 27.87 A 1.08 1.08 0 0 1 17.175 28.225 A 1.321 1.321 0 0 1 16.418 28.543 A 1.733 1.733 0 0 1 16.25 28.55 A 1.625 1.625 0 0 1 15.811 28.487 Q 15.63 28.436 15.44 28.345 A 2.777 2.777 0 0 1 15.4 28.325 Q 14.95 28.1 14.5 28.1 A 1.915 1.915 0 0 0 13.811 28.232 A 2.352 2.352 0 0 0 13.6 28.325 Q 13.177 28.537 12.798 28.55 A 1.439 1.439 0 0 1 12.75 28.55 A 1.542 1.542 0 0 1 12.288 28.484 A 1.285 1.285 0 0 1 11.825 28.225 A 1.037 1.037 0 0 1 11.453 27.478 A 1.281 1.281 0 0 1 11.45 27.4 Q 11.45 26.902 11.967 26.508 A 2.52 2.52 0 0 1 12.2 26.35 A 3.852 3.852 0 0 1 12.259 26.293 Q 12.367 26.19 12.575 26 A 0.868 0.868 0 0 0 12.766 25.758 A 0.766 0.766 0 0 0 12.85 25.4 Z M 5.1 34.25 L 5.1 31.9 Q 5.1 31.689 4.654 31.174 A 8.219 8.219 0 0 0 4.475 30.975 A 3.582 3.582 0 0 1 4.18 30.616 Q 3.881 30.193 3.853 29.825 A 0.993 0.993 0 0 1 3.85 29.75 A 1.181 1.181 0 0 1 3.942 29.311 Q 4.08 28.966 4.426 28.579 A 4.379 4.379 0 0 1 4.475 28.525 Q 4.983 27.978 5.078 27.71 A 0.332 0.332 0 0 0 5.1 27.6 L 5.1 25.2 A 0.776 0.776 0 0 0 4.855 24.628 A 1.036 1.036 0 0 0 4.825 24.6 Q 4.55 24.35 4.45 24.25 Q 3.7 23.8 3.7 23.2 A 1.205 1.205 0 0 1 3.756 22.827 A 0.952 0.952 0 0 1 4.1 22.35 A 1.938 1.938 0 0 1 4.346 22.192 Q 4.61 22.05 4.85 22.05 A 0.698 0.698 0 0 0 5.055 22.016 Q 5.245 21.958 5.484 21.8 A 3.406 3.406 0 0 0 5.625 21.7 A 1.794 1.794 0 0 1 6.552 21.359 A 2.272 2.272 0 0 1 6.75 21.35 Q 7.4 21.35 7.875 21.7 A 3.113 3.113 0 0 0 8.102 21.854 Q 8.425 22.05 8.65 22.05 A 0.953 0.953 0 0 1 8.978 22.112 Q 9.105 22.159 9.239 22.24 A 2.079 2.079 0 0 1 9.4 22.35 A 0.971 0.971 0 0 1 9.794 23.063 A 1.389 1.389 0 0 1 9.8 23.2 Q 9.8 23.699 9.284 24.093 A 2.52 2.52 0 0 1 9.05 24.25 A 3.852 3.852 0 0 1 8.992 24.308 Q 8.884 24.411 8.675 24.6 A 0.868 0.868 0 0 0 8.485 24.843 A 0.766 0.766 0 0 0 8.4 25.2 L 8.4 27.6 Q 8.4 27.812 8.847 28.327 A 8.219 8.219 0 0 0 9.025 28.525 A 3.582 3.582 0 0 1 9.321 28.885 Q 9.62 29.308 9.648 29.676 A 0.993 0.993 0 0 1 9.65 29.75 A 1.181 1.181 0 0 1 9.559 30.19 Q 9.421 30.535 9.075 30.922 A 4.379 4.379 0 0 1 9.025 30.975 Q 8.518 31.523 8.423 31.791 A 0.332 0.332 0 0 0 8.4 31.9 L 8.4 34.25 A 0.776 0.776 0 0 0 8.646 34.823 A 1.036 1.036 0 0 0 8.675 34.85 Q 8.95 35.1 9.05 35.2 Q 9.8 35.65 9.8 36.25 A 1.085 1.085 0 0 1 9.701 36.72 A 1.08 1.08 0 0 1 9.425 37.075 A 1.321 1.321 0 0 1 8.668 37.393 A 1.733 1.733 0 0 1 8.5 37.4 A 1.625 1.625 0 0 1 8.061 37.337 Q 7.88 37.286 7.69 37.195 A 2.777 2.777 0 0 1 7.65 37.175 Q 7.2 36.95 6.75 36.95 A 1.915 1.915 0 0 0 6.061 37.082 A 2.352 2.352 0 0 0 5.85 37.175 Q 5.427 37.387 5.048 37.4 A 1.439 1.439 0 0 1 5 37.4 A 1.542 1.542 0 0 1 4.538 37.334 A 1.285 1.285 0 0 1 4.075 37.075 A 1.037 1.037 0 0 1 3.703 36.328 A 1.281 1.281 0 0 1 3.7 36.25 Q 3.7 35.752 4.217 35.358 A 2.52 2.52 0 0 1 4.45 35.2 A 3.852 3.852 0 0 1 4.509 35.143 Q 4.617 35.04 4.825 34.85 A 0.868 0.868 0 0 0 5.016 34.608 A 0.766 0.766 0 0 0 5.1 34.25 Z M 20.6 34.25 L 20.6 31.9 Q 20.6 31.689 20.154 31.174 A 8.219 8.219 0 0 0 19.975 30.975 A 3.582 3.582 0 0 1 19.68 30.616 Q 19.381 30.193 19.353 29.825 A 0.993 0.993 0 0 1 19.35 29.75 A 1.181 1.181 0 0 1 19.442 29.311 Q 19.58 28.966 19.926 28.579 A 4.379 4.379 0 0 1 19.975 28.525 Q 20.483 27.978 20.578 27.71 A 0.332 0.332 0 0 0 20.6 27.6 L 20.6 25.2 A 0.776 0.776 0 0 0 20.355 24.628 A 1.036 1.036 0 0 0 20.325 24.6 Q 20.05 24.35 19.95 24.25 Q 19.2 23.8 19.2 23.2 A 1.205 1.205 0 0 1 19.256 22.827 A 0.952 0.952 0 0 1 19.6 22.35 A 1.938 1.938 0 0 1 19.846 22.192 Q 20.11 22.05 20.35 22.05 A 0.698 0.698 0 0 0 20.555 22.016 Q 20.745 21.958 20.984 21.8 A 3.406 3.406 0 0 0 21.125 21.7 A 1.794 1.794 0 0 1 22.052 21.359 A 2.272 2.272 0 0 1 22.25 21.35 Q 22.9 21.35 23.375 21.7 A 3.113 3.113 0 0 0 23.602 21.854 Q 23.925 22.05 24.15 22.05 A 0.953 0.953 0 0 1 24.478 22.112 Q 24.605 22.159 24.739 22.24 A 2.079 2.079 0 0 1 24.9 22.35 A 0.971 0.971 0 0 1 25.294 23.063 A 1.389 1.389 0 0 1 25.3 23.2 Q 25.3 23.699 24.784 24.093 A 2.52 2.52 0 0 1 24.55 24.25 A 3.852 3.852 0 0 1 24.492 24.308 Q 24.384 24.411 24.175 24.6 A 0.868 0.868 0 0 0 23.985 24.843 A 0.766 0.766 0 0 0 23.9 25.2 L 23.9 27.6 Q 23.9 27.812 24.347 28.327 A 8.219 8.219 0 0 0 24.525 28.525 A 3.582 3.582 0 0 1 24.821 28.885 Q 25.12 29.308 25.148 29.676 A 0.993 0.993 0 0 1 25.15 29.75 A 1.181 1.181 0 0 1 25.059 30.19 Q 24.921 30.535 24.575 30.922 A 4.379 4.379 0 0 1 24.525 30.975 Q 24.018 31.523 23.923 31.791 A 0.332 0.332 0 0 0 23.9 31.9 L 23.9 34.25 A 0.776 0.776 0 0 0 24.146 34.823 A 1.036 1.036 0 0 0 24.175 34.85 Q 24.45 35.1 24.55 35.2 Q 25.3 35.65 25.3 36.25 A 1.085 1.085 0 0 1 25.201 36.72 A 1.08 1.08 0 0 1 24.925 37.075 A 1.321 1.321 0 0 1 24.168 37.393 A 1.733 1.733 0 0 1 24 37.4 A 1.625 1.625 0 0 1 23.561 37.337 Q 23.38 37.286 23.19 37.195 A 2.777 2.777 0 0 1 23.15 37.175 Q 22.7 36.95 22.25 36.95 A 1.915 1.915 0 0 0 21.561 37.082 A 2.352 2.352 0 0 0 21.35 37.175 Q 20.927 37.387 20.548 37.4 A 1.439 1.439 0 0 1 20.5 37.4 A 1.542 1.542 0 0 1 20.038 37.334 A 1.285 1.285 0 0 1 19.575 37.075 A 1.037 1.037 0 0 1 19.203 36.328 A 1.281 1.281 0 0 1 19.2 36.25 Q 19.2 35.752 19.717 35.358 A 2.52 2.52 0 0 1 19.95 35.2 A 3.852 3.852 0 0 1 20.009 35.143 Q 20.117 35.04 20.325 34.85 A 0.868 0.868 0 0 0 20.516 34.608 A 0.766 0.766 0 0 0 20.6 34.25 Z M 20.6 16.5 L 20.6 14.15 Q 20.6 13.939 20.154 13.424 A 8.219 8.219 0 0 0 19.975 13.225 A 3.582 3.582 0 0 1 19.68 12.866 Q 19.381 12.443 19.353 12.075 A 0.993 0.993 0 0 1 19.35 12 A 1.181 1.181 0 0 1 19.442 11.561 Q 19.58 11.216 19.926 10.829 A 4.379 4.379 0 0 1 19.975 10.775 Q 20.483 10.228 20.578 9.96 A 0.332 0.332 0 0 0 20.6 9.85 L 20.6 7.45 A 0.776 0.776 0 0 0 20.355 6.878 A 1.036 1.036 0 0 0 20.325 6.85 Q 20.05 6.6 19.95 6.5 Q 19.2 6.05 19.2 5.45 A 1.205 1.205 0 0 1 19.256 5.077 A 0.952 0.952 0 0 1 19.6 4.6 A 1.938 1.938 0 0 1 19.846 4.442 Q 20.11 4.3 20.35 4.3 A 0.698 0.698 0 0 0 20.555 4.266 Q 20.745 4.208 20.984 4.05 A 3.406 3.406 0 0 0 21.125 3.95 A 1.794 1.794 0 0 1 22.052 3.609 A 2.272 2.272 0 0 1 22.25 3.6 Q 22.9 3.6 23.375 3.95 A 3.113 3.113 0 0 0 23.602 4.104 Q 23.925 4.3 24.15 4.3 A 0.953 0.953 0 0 1 24.478 4.362 Q 24.605 4.409 24.739 4.49 A 2.079 2.079 0 0 1 24.9 4.6 A 0.971 0.971 0 0 1 25.294 5.313 A 1.389 1.389 0 0 1 25.3 5.45 Q 25.3 5.949 24.784 6.343 A 2.52 2.52 0 0 1 24.55 6.5 A 3.852 3.852 0 0 1 24.492 6.558 Q 24.384 6.661 24.175 6.85 A 0.868 0.868 0 0 0 23.985 7.093 A 0.766 0.766 0 0 0 23.9 7.45 L 23.9 9.85 Q 23.9 10.062 24.347 10.577 A 8.219 8.219 0 0 0 24.525 10.775 A 3.582 3.582 0 0 1 24.821 11.135 Q 25.12 11.558 25.148 11.926 A 0.993 0.993 0 0 1 25.15 12 A 1.181 1.181 0 0 1 25.059 12.44 Q 24.921 12.785 24.575 13.172 A 4.379 4.379 0 0 1 24.525 13.225 Q 24.018 13.773 23.923 14.041 A 0.332 0.332 0 0 0 23.9 14.15 L 23.9 16.5 A 0.776 0.776 0 0 0 24.146 17.073 A 1.036 1.036 0 0 0 24.175 17.1 Q 24.45 17.35 24.55 17.45 Q 25.3 17.9 25.3 18.5 A 1.085 1.085 0 0 1 25.201 18.97 A 1.08 1.08 0 0 1 24.925 19.325 A 1.321 1.321 0 0 1 24.168 19.643 A 1.733 1.733 0 0 1 24 19.65 A 1.625 1.625 0 0 1 23.561 19.587 Q 23.38 19.536 23.19 19.445 A 2.777 2.777 0 0 1 23.15 19.425 Q 22.7 19.2 22.25 19.2 A 1.915 1.915 0 0 0 21.561 19.332 A 2.352 2.352 0 0 0 21.35 19.425 Q 20.927 19.637 20.548 19.65 A 1.439 1.439 0 0 1 20.5 19.65 A 1.542 1.542 0 0 1 20.038 19.584 A 1.285 1.285 0 0 1 19.575 19.325 A 1.037 1.037 0 0 1 19.203 18.578 A 1.281 1.281 0 0 1 19.2 18.5 Q 19.2 18.002 19.717 17.608 A 2.52 2.52 0 0 1 19.95 17.45 A 3.852 3.852 0 0 1 20.009 17.393 Q 20.117 17.29 20.325 17.1 A 0.868 0.868 0 0 0 20.516 16.858 A 0.766 0.766 0 0 0 20.6 16.5 Z M 5.1 16.5 L 5.1 14.15 Q 5.1 13.939 4.654 13.424 A 8.219 8.219 0 0 0 4.475 13.225 A 3.582 3.582 0 0 1 4.18 12.866 Q 3.881 12.443 3.853 12.075 A 0.993 0.993 0 0 1 3.85 12 A 1.181 1.181 0 0 1 3.942 11.561 Q 4.08 11.216 4.426 10.829 A 4.379 4.379 0 0 1 4.475 10.775 Q 4.983 10.228 5.078 9.96 A 0.332 0.332 0 0 0 5.1 9.85 L 5.1 7.45 A 0.776 0.776 0 0 0 4.855 6.878 A 1.036 1.036 0 0 0 4.825 6.85 Q 4.55 6.6 4.45 6.5 Q 3.7 6.05 3.7 5.45 A 1.205 1.205 0 0 1 3.756 5.077 A 0.952 0.952 0 0 1 4.1 4.6 A 1.938 1.938 0 0 1 4.346 4.442 Q 4.61 4.3 4.85 4.3 A 0.698 0.698 0 0 0 5.055 4.266 Q 5.245 4.208 5.484 4.05 A 3.406 3.406 0 0 0 5.625 3.95 A 1.794 1.794 0 0 1 6.552 3.609 A 2.272 2.272 0 0 1 6.75 3.6 Q 7.4 3.6 7.875 3.95 A 3.113 3.113 0 0 0 8.102 4.104 Q 8.425 4.3 8.65 4.3 A 0.953 0.953 0 0 1 8.978 4.362 Q 9.105 4.409 9.239 4.49 A 2.079 2.079 0 0 1 9.4 4.6 A 0.971 0.971 0 0 1 9.794 5.313 A 1.389 1.389 0 0 1 9.8 5.45 Q 9.8 5.949 9.284 6.343 A 2.52 2.52 0 0 1 9.05 6.5 A 3.852 3.852 0 0 1 8.992 6.558 Q 8.884 6.661 8.675 6.85 A 0.868 0.868 0 0 0 8.485 7.093 A 0.766 0.766 0 0 0 8.4 7.45 L 8.4 9.85 Q 8.4 10.062 8.847 10.577 A 8.219 8.219 0 0 0 9.025 10.775 A 3.582 3.582 0 0 1 9.321 11.135 Q 9.62 11.558 9.648 11.926 A 0.993 0.993 0 0 1 9.65 12 A 1.181 1.181 0 0 1 9.559 12.44 Q 9.421 12.785 9.075 13.172 A 4.379 4.379 0 0 1 9.025 13.225 Q 8.518 13.773 8.423 14.041 A 0.332 0.332 0 0 0 8.4 14.15 L 8.4 16.5 A 0.776 0.776 0 0 0 8.646 17.073 A 1.036 1.036 0 0 0 8.675 17.1 Q 8.95 17.35 9.05 17.45 Q 9.8 17.9 9.8 18.5 A 1.333 1.333 0 0 1 9.8 18.508 Q 9.799 18.775 9.69 18.992 A 1.087 1.087 0 0 1 9.425 19.325 A 1.321 1.321 0 0 1 8.668 19.643 A 1.733 1.733 0 0 1 8.5 19.65 A 1.625 1.625 0 0 1 8.061 19.587 Q 7.88 19.536 7.69 19.445 A 2.777 2.777 0 0 1 7.65 19.425 Q 7.2 19.2 6.75 19.2 A 1.915 1.915 0 0 0 6.061 19.332 A 2.352 2.352 0 0 0 5.85 19.425 Q 5.427 19.637 5.048 19.65 A 1.439 1.439 0 0 1 5 19.65 A 1.542 1.542 0 0 1 4.538 19.584 A 1.285 1.285 0 0 1 4.075 19.325 Q 3.724 19.021 3.702 18.564 A 1.29 1.29 0 0 1 3.7 18.5 Q 3.7 18.002 4.217 17.608 A 2.52 2.52 0 0 1 4.45 17.45 A 3.852 3.852 0 0 1 4.509 17.393 Q 4.617 17.29 4.825 17.1 A 0.868 0.868 0 0 0 5.016 16.858 A 0.766 0.766 0 0 0 5.1 16.5 Z M 6 28.25 L 7.5 28.25 L 7.5 24.15 A 1.311 1.311 0 0 0 7.79 23.88 A 1.002 1.002 0 0 0 8 23.25 A 0.968 0.968 0 0 0 7.708 22.553 A 1.351 1.351 0 0 0 7.625 22.475 Q 7.25 22.15 6.75 22.15 Q 6.25 22.15 5.875 22.475 A 1.168 1.168 0 0 0 5.636 22.754 A 0.944 0.944 0 0 0 5.5 23.25 A 1.019 1.019 0 0 0 5.856 24.036 A 1.482 1.482 0 0 0 6 24.15 L 6 28.25 Z M 21.5 28.25 L 23 28.25 L 23 24.15 A 1.311 1.311 0 0 0 23.29 23.88 A 1.002 1.002 0 0 0 23.5 23.25 A 0.968 0.968 0 0 0 23.208 22.553 A 1.351 1.351 0 0 0 23.125 22.475 Q 22.75 22.15 22.25 22.15 Q 21.75 22.15 21.375 22.475 A 1.168 1.168 0 0 0 21.136 22.754 A 0.944 0.944 0 0 0 21 23.25 A 1.019 1.019 0 0 0 21.356 24.036 A 1.482 1.482 0 0 0 21.5 24.15 L 21.5 28.25 Z M 13.75 19.4 L 15.25 19.4 L 15.25 15.3 A 1.311 1.311 0 0 0 15.54 15.03 A 1.002 1.002 0 0 0 15.75 14.4 A 0.968 0.968 0 0 0 15.458 13.703 A 1.351 1.351 0 0 0 15.375 13.625 Q 15 13.3 14.5 13.3 Q 14 13.3 13.625 13.625 A 1.168 1.168 0 0 0 13.386 13.904 A 0.944 0.944 0 0 0 13.25 14.4 A 1.019 1.019 0 0 0 13.606 15.186 A 1.482 1.482 0 0 0 13.75 15.3 L 13.75 19.4 Z M 6 10.5 L 7.5 10.5 L 7.5 6.4 A 1.311 1.311 0 0 0 7.79 6.13 A 1.002 1.002 0 0 0 8 5.5 A 0.968 0.968 0 0 0 7.708 4.803 A 1.351 1.351 0 0 0 7.625 4.725 Q 7.25 4.4 6.75 4.4 Q 6.25 4.4 5.875 4.725 A 1.168 1.168 0 0 0 5.636 5.004 A 0.944 0.944 0 0 0 5.5 5.5 A 1.019 1.019 0 0 0 5.856 6.286 A 1.482 1.482 0 0 0 6 6.4 L 6 10.5 Z M 21.5 10.5 L 23 10.5 L 23 6.4 A 1.311 1.311 0 0 0 23.29 6.13 A 1.002 1.002 0 0 0 23.5 5.5 A 0.968 0.968 0 0 0 23.208 4.803 A 1.351 1.351 0 0 0 23.125 4.725 Q 22.75 4.4 22.25 4.4 Q 21.75 4.4 21.375 4.725 A 1.168 1.168 0 0 0 21.136 5.004 A 0.944 0.944 0 0 0 21 5.5 A 1.019 1.019 0 0 0 21.356 6.286 A 1.482 1.482 0 0 0 21.5 6.4 L 21.5 10.5 Z M 15.25 26.8 L 15.25 22.4 L 13.75 22.4 L 13.75 26.8 A 0.8 0.8 0 0 0 13.794 27.075 Q 13.922 27.426 14.429 27.449 A 1.608 1.608 0 0 0 14.5 27.45 A 1.259 1.259 0 0 0 14.784 27.422 Q 15.171 27.332 15.237 26.962 A 0.926 0.926 0 0 0 15.25 26.8 Z M 7.5 35.65 L 7.5 31.25 L 6 31.25 L 6 35.65 A 0.8 0.8 0 0 0 6.044 35.925 Q 6.172 36.276 6.679 36.299 A 1.608 1.608 0 0 0 6.75 36.3 A 1.259 1.259 0 0 0 7.034 36.272 Q 7.421 36.182 7.487 35.812 A 0.926 0.926 0 0 0 7.5 35.65 Z M 23 35.65 L 23 31.25 L 21.5 31.25 L 21.5 35.65 A 0.8 0.8 0 0 0 21.544 35.925 Q 21.672 36.276 22.179 36.299 A 1.608 1.608 0 0 0 22.25 36.3 A 1.259 1.259 0 0 0 22.534 36.272 Q 22.921 36.182 22.987 35.812 A 0.926 0.926 0 0 0 23 35.65 Z M 7.5 17.9 L 7.5 13.5 L 6 13.5 L 6 17.9 A 0.8 0.8 0 0 0 6.044 18.175 Q 6.172 18.526 6.679 18.549 A 1.608 1.608 0 0 0 6.75 18.55 A 1.259 1.259 0 0 0 7.034 18.522 Q 7.421 18.432 7.487 18.062 A 0.926 0.926 0 0 0 7.5 17.9 Z M 23 17.9 L 23 13.5 L 21.5 13.5 L 21.5 17.9 A 0.8 0.8 0 0 0 21.544 18.175 Q 21.672 18.526 22.179 18.549 A 1.608 1.608 0 0 0 22.25 18.55 A 1.259 1.259 0 0 0 22.534 18.522 Q 22.921 18.432 22.987 18.062 A 0.926 0.926 0 0 0 23 17.9 Z M 13.35 20.65 L 15.65 20.65 Q 15.85 20.65 16 20.525 A 0.525 0.525 0 0 0 16.08 20.445 Q 16.124 20.388 16.14 20.326 A 0.29 0.29 0 0 0 16.15 20.25 A 0.34 0.34 0 0 0 16.109 20.078 Q 16.03 19.941 15.8 19.91 A 1.112 1.112 0 0 0 15.65 19.9 L 13.35 19.9 Q 12.864 19.9 12.851 20.232 A 0.47 0.47 0 0 0 12.85 20.25 A 0.453 0.453 0 0 0 12.882 20.425 Q 12.975 20.65 13.35 20.65 Z M 13.35 21.9 L 15.65 21.9 Q 15.85 21.9 16 21.775 A 0.525 0.525 0 0 0 16.08 21.695 Q 16.124 21.638 16.14 21.576 A 0.29 0.29 0 0 0 16.15 21.5 A 0.34 0.34 0 0 0 16.109 21.328 Q 16.03 21.191 15.8 21.16 A 1.112 1.112 0 0 0 15.65 21.15 L 13.35 21.15 Q 12.864 21.15 12.851 21.482 A 0.47 0.47 0 0 0 12.85 21.5 A 0.453 0.453 0 0 0 12.882 21.675 Q 12.975 21.9 13.35 21.9 Z M 21.1 11.75 L 23.4 11.75 Q 23.6 11.75 23.75 11.625 A 0.525 0.525 0 0 0 23.83 11.545 Q 23.874 11.488 23.89 11.426 A 0.29 0.29 0 0 0 23.9 11.35 A 0.34 0.34 0 0 0 23.859 11.178 Q 23.78 11.041 23.55 11.01 A 1.112 1.112 0 0 0 23.4 11 L 21.1 11 Q 20.614 11 20.601 11.332 A 0.47 0.47 0 0 0 20.6 11.35 Q 20.6 11.75 21.1 11.75 Z M 21.1 13 L 23.4 13 Q 23.6 13 23.75 12.875 A 0.525 0.525 0 0 0 23.83 12.795 Q 23.874 12.738 23.89 12.676 A 0.29 0.29 0 0 0 23.9 12.6 A 0.34 0.34 0 0 0 23.859 12.428 Q 23.78 12.291 23.55 12.26 A 1.112 1.112 0 0 0 23.4 12.25 L 21.1 12.25 Q 20.614 12.25 20.601 12.582 A 0.47 0.47 0 0 0 20.6 12.6 Q 20.6 13 21.1 13 Z M 21.1 29.5 L 23.4 29.5 Q 23.6 29.5 23.75 29.375 A 0.525 0.525 0 0 0 23.83 29.295 Q 23.874 29.238 23.89 29.176 A 0.29 0.29 0 0 0 23.9 29.1 A 0.34 0.34 0 0 0 23.859 28.928 Q 23.78 28.791 23.55 28.76 A 1.112 1.112 0 0 0 23.4 28.75 L 21.1 28.75 Q 20.614 28.75 20.601 29.082 A 0.47 0.47 0 0 0 20.6 29.1 Q 20.6 29.5 21.1 29.5 Z M 21.1 30.75 L 23.4 30.75 Q 23.6 30.75 23.75 30.625 A 0.525 0.525 0 0 0 23.83 30.545 Q 23.874 30.488 23.89 30.426 A 0.29 0.29 0 0 0 23.9 30.35 A 0.34 0.34 0 0 0 23.859 30.178 Q 23.78 30.041 23.55 30.01 A 1.112 1.112 0 0 0 23.4 30 L 21.1 30 Q 20.614 30 20.601 30.332 A 0.47 0.47 0 0 0 20.6 30.35 Q 20.6 30.75 21.1 30.75 Z M 5.6 11.75 L 7.9 11.75 Q 8.1 11.75 8.25 11.625 A 0.525 0.525 0 0 0 8.33 11.545 Q 8.374 11.488 8.39 11.426 A 0.29 0.29 0 0 0 8.4 11.35 A 0.34 0.34 0 0 0 8.359 11.178 Q 8.28 11.041 8.05 11.01 A 1.112 1.112 0 0 0 7.9 11 L 5.6 11 Q 5.114 11 5.101 11.332 A 0.47 0.47 0 0 0 5.1 11.35 Q 5.1 11.75 5.6 11.75 Z M 5.6 13 L 7.9 13 Q 8.1 13 8.25 12.875 A 0.525 0.525 0 0 0 8.33 12.795 Q 8.374 12.738 8.39 12.676 A 0.29 0.29 0 0 0 8.4 12.6 A 0.34 0.34 0 0 0 8.359 12.428 Q 8.28 12.291 8.05 12.26 A 1.112 1.112 0 0 0 7.9 12.25 L 5.6 12.25 Q 5.114 12.25 5.101 12.582 A 0.47 0.47 0 0 0 5.1 12.6 Q 5.1 13 5.6 13 Z M 5.6 29.5 L 7.9 29.5 Q 8.1 29.5 8.25 29.375 A 0.525 0.525 0 0 0 8.33 29.295 Q 8.374 29.238 8.39 29.176 A 0.29 0.29 0 0 0 8.4 29.1 A 0.34 0.34 0 0 0 8.359 28.928 Q 8.28 28.791 8.05 28.76 A 1.112 1.112 0 0 0 7.9 28.75 L 5.6 28.75 Q 5.114 28.75 5.101 29.082 A 0.47 0.47 0 0 0 5.1 29.1 Q 5.1 29.5 5.6 29.5 Z M 5.6 30.75 L 7.9 30.75 Q 8.1 30.75 8.25 30.625 A 0.525 0.525 0 0 0 8.33 30.545 Q 8.374 30.488 8.39 30.426 A 0.29 0.29 0 0 0 8.4 30.35 A 0.34 0.34 0 0 0 8.359 30.178 Q 8.28 30.041 8.05 30.01 A 1.112 1.112 0 0 0 7.9 30 L 5.6 30 Q 5.114 30 5.101 30.332 A 0.47 0.47 0 0 0 5.1 30.35 Q 5.1 30.75 5.6 30.75 Z" vector-effect="non-scaling-stroke"/></g></svg></svg>