<svg width="58" height="83" viewBox="0 0 29 41.5" xmlns="http://www.w3.org/2000/svg"><g id="svgGroup" stroke-linecap="round" fill-rule="evenodd" font-size="9pt" stroke="#000" stroke-width="0.05mm" fill="#000" style="stroke:#000;stroke-width:0.05mm;fill:#000"><path d="M 0 38.5 L 0 3 A 2.89 2.89 0 0 1 0.848 0.903 A 3.442 3.442 0 0 1 0.875 0.875 A 2.889 2.889 0 0 1 2.961 0.001 A 3.547 3.547 0 0 1 3 0 L 26 0 A 2.89 2.89 0 0 1 28.098 0.848 A 3.442 3.442 0 0 1 28.125 0.875 A 2.889 2.889 0 0 1 29 2.961 A 3.547 3.547 0 0 1 29 3 L 29 38.5 A 2.89 2.89 0 0 1 28.153 40.598 A 3.442 3.442 0 0 1 28.125 40.625 A 2.889 2.889 0 0 1 26.039 41.5 A 3.547 3.547 0 0 1 26 41.5 L 3 41.5 A 2.89 2.89 0 0 1 0.903 40.653 A 3.442 3.442 0 0 1 0.875 40.625 A 2.889 2.889 0 0 1 0.001 38.539 A 3.547 3.547 0 0 1 0 38.5 Z M 3 40 L 26 40 A 1.628 1.628 0 0 0 26.542 39.914 A 1.403 1.403 0 0 0 27.075 39.575 A 1.436 1.436 0 0 0 27.498 38.602 A 1.91 1.91 0 0 0 27.5 38.5 L 27.5 3 A 1.628 1.628 0 0 0 27.414 2.459 A 1.403 1.403 0 0 0 27.075 1.925 A 1.436 1.436 0 0 0 26.102 1.503 A 1.91 1.91 0 0 0 26 1.5 L 3 1.5 A 1.628 1.628 0 0 0 2.459 1.587 A 1.403 1.403 0 0 0 1.925 1.925 A 1.436 1.436 0 0 0 1.503 2.899 A 1.91 1.91 0 0 0 1.5 3 L 1.5 38.5 A 1.628 1.628 0 0 0 1.587 39.042 A 1.403 1.403 0 0 0 1.925 39.575 A 1.436 1.436 0 0 0 2.899 39.998 A 1.91 1.91 0 0 0 3 40 Z" vector-effect="non-scaling-stroke"/></g><text x="3.5" y="15.1" font-family="'Noto Serif', 'Noto Serif JP', 'Yu Mincho', 'Hiragino Mincho ProN', Georgia, serif" font-size="14.6" font-weight="700" fill="#1f3f99">7</text><svg x="10.8" y="15.9" width="15.9" height="20.9" viewBox="2.237 2.243 24.525 36.515" overflow="visible" preserveAspectRatio="xMidYMid meet"><g id="svgGroup" stroke-linecap="round" fill-rule="evenodd" font-size="9pt" stroke="#000" stroke-width="0.05mm" fill="#000" style="stroke:#000;stroke-width:0.05mm;fill:#000"><path d="M 7.367 35.967 A 4.325 4.325 0 0 0 10.5 37.25 A 5.198 5.198 0 0 0 10.521 37.25 A 4.37 4.37 0 0 0 12.85 36.6 Q 13.9 35.95 14.5 34.85 Q 15.1 35.95 16.15 36.6 A 4.321 4.321 0 0 0 16.691 36.885 A 4.458 4.458 0 0 0 18.5 37.25 A 5.391 5.391 0 0 0 18.589 37.25 A 4.296 4.296 0 0 0 21.7 35.925 A 5.281 5.281 0 0 0 21.711 35.915 A 4.372 4.372 0 0 0 23 32.75 A 5.198 5.198 0 0 0 23 32.73 A 4.37 4.37 0 0 0 22.35 30.4 Q 21.7 29.35 20.6 28.75 Q 21.7 28.15 22.35 27.1 A 4.321 4.321 0 0 0 22.635 26.56 A 4.458 4.458 0 0 0 23 24.75 Q 23 23 21.85 21.7 Q 23.5 21.5 24.625 20.225 Q 25.75 18.95 25.75 17.25 Q 25.75 15.35 24.45 14.05 A 4.385 4.385 0 0 0 23.099 13.117 A 4.571 4.571 0 0 0 21.25 12.75 A 4.518 4.518 0 0 0 19.981 12.94 A 6.185 6.185 0 0 0 18.95 13.35 A 1.087 1.087 0 0 0 18.966 13.277 Q 18.989 13.149 18.997 12.96 A 5.139 5.139 0 0 0 19 12.75 Q 19 10.85 17.7 9.55 A 4.385 4.385 0 0 0 16.349 8.617 A 4.571 4.571 0 0 0 14.5 8.25 A 4.518 4.518 0 0 0 13.231 8.44 A 6.185 6.185 0 0 0 12.2 8.85 A 1.087 1.087 0 0 0 12.216 8.777 Q 12.239 8.649 12.247 8.46 A 5.139 5.139 0 0 0 12.25 8.25 Q 12.25 6.35 10.95 5.05 A 4.385 4.385 0 0 0 9.599 4.117 A 4.571 4.571 0 0 0 7.75 3.75 A 5.32 5.32 0 0 0 7.736 3.75 A 4.372 4.372 0 0 0 4.575 5.05 A 4.397 4.397 0 0 0 3.647 6.352 A 4.481 4.481 0 0 0 3.25 8.25 Q 3.25 10.1 4.575 11.425 A 5.336 5.336 0 0 0 4.617 11.467 A 4.325 4.325 0 0 0 7.75 12.75 A 4.518 4.518 0 0 0 9.02 12.561 A 6.185 6.185 0 0 0 10.05 12.15 A 1.087 1.087 0 0 0 10.035 12.224 Q 10.012 12.352 10.004 12.541 A 5.139 5.139 0 0 0 10 12.75 Q 10 14.6 11.325 15.925 A 5.336 5.336 0 0 0 11.367 15.967 A 4.325 4.325 0 0 0 14.5 17.25 A 4.518 4.518 0 0 0 15.77 17.061 A 6.185 6.185 0 0 0 16.8 16.65 A 1.087 1.087 0 0 0 16.785 16.724 Q 16.762 16.852 16.754 17.041 A 5.139 5.139 0 0 0 16.75 17.25 Q 16.75 19 17.9 20.3 Q 16.8 20.45 15.9 21.075 Q 15 21.7 14.5 22.65 Q 13.9 21.55 12.85 20.9 A 4.321 4.321 0 0 0 12.31 20.616 A 4.458 4.458 0 0 0 10.5 20.25 A 5.32 5.32 0 0 0 10.486 20.25 A 4.372 4.372 0 0 0 7.325 21.55 A 4.397 4.397 0 0 0 6.397 22.852 A 4.481 4.481 0 0 0 6 24.75 A 5.198 5.198 0 0 0 6.001 24.771 A 4.37 4.37 0 0 0 6.65 27.1 Q 7.3 28.15 8.4 28.75 Q 7.3 29.35 6.65 30.4 A 4.321 4.321 0 0 0 6.366 30.941 A 4.458 4.458 0 0 0 6 32.75 Q 6 34.6 7.325 35.925 A 5.336 5.336 0 0 0 7.367 35.967 Z M 7.75 11.75 Q 9.2 11.75 10.225 10.725 Q 11.25 9.7 11.25 8.25 Q 11.25 6.8 10.225 5.775 Q 9.2 4.75 7.75 4.75 Q 6.3 4.75 5.275 5.775 Q 4.25 6.8 4.25 8.25 Q 4.25 9.7 5.275 10.725 Q 6.3 11.75 7.75 11.75 Z M 14.5 16.25 Q 15.95 16.25 16.975 15.225 Q 18 14.2 18 12.75 Q 18 11.3 16.975 10.275 Q 15.95 9.25 14.5 9.25 Q 13.05 9.25 12.025 10.275 Q 11 11.3 11 12.75 Q 11 14.2 12.025 15.225 Q 13.05 16.25 14.5 16.25 Z M 21.25 20.75 Q 22.7 20.75 23.725 19.725 Q 24.75 18.7 24.75 17.25 Q 24.75 15.8 23.725 14.775 Q 22.7 13.75 21.25 13.75 Q 19.8 13.75 18.775 14.775 Q 17.75 15.8 17.75 17.25 Q 17.75 18.7 18.775 19.725 Q 19.8 20.75 21.25 20.75 Z M 10.5 28.25 Q 11.95 28.25 12.975 27.225 Q 14 26.2 14 24.75 Q 14 23.3 12.975 22.275 Q 11.95 21.25 10.5 21.25 Q 9.05 21.25 8.025 22.275 Q 7 23.3 7 24.75 Q 7 26.2 8.025 27.225 Q 9.05 28.25 10.5 28.25 Z M 18.5 28.25 Q 19.95 28.25 20.975 27.225 Q 22 26.2 22 24.75 Q 22 23.3 20.975 22.275 Q 19.95 21.25 18.5 21.25 Q 17.05 21.25 16.025 22.275 Q 15 23.3 15 24.75 Q 15 26.2 16.025 27.225 Q 17.05 28.25 18.5 28.25 Z M 10.5 36.25 Q 11.95 36.25 12.975 35.225 Q 14 34.2 14 32.75 Q 14 31.3 12.975 30.275 Q 11.95 29.25 10.5 29.25 Q 9.05 29.25 8.025 30.275 Q 7 31.3 7 32.75 Q 7 34.2 8.025 35.225 Q 9.05 36.25 10.5 36.25 Z M 18.5 36.25 Q 19.95 36.25 20.975 35.225 Q 22 34.2 22 32.75 Q 22 31.3 20.975 30.275 Q 19.95 29.25 18.5 29.25 Q 17.05 29.25 16.025 30.275 Q 15 31.3 15 32.75 Q 15 34.2 16.025 35.225 Q 17.05 36.25 18.5 36.25 Z M 8.629 34.728 A 2.624 2.624 0 0 0 10.5 35.5 A 3.161 3.161 0 0 0 10.572 35.5 A 2.607 2.607 0 0 0 12.45 34.675 Q 13.25 33.85 13.25 32.75 A 3.285 3.285 0 0 0 13.25 32.715 A 2.649 2.649 0 0 0 12.45 30.8 A 2.75 2.75 0 0 0 11.739 30.281 A 2.721 2.721 0 0 0 10.5 30 Q 9.4 30 8.575 30.8 A 3.154 3.154 0 0 0 8.525 30.851 A 2.607 2.607 0 0 0 7.75 32.75 A 2.584 2.584 0 0 0 7.977 33.827 A 2.875 2.875 0 0 0 8.575 34.675 A 3.445 3.445 0 0 0 8.629 34.728 Z M 19.379 19.228 A 2.624 2.624 0 0 0 21.25 20 A 3.161 3.161 0 0 0 21.322 20 A 2.607 2.607 0 0 0 23.2 19.175 Q 24 18.35 24 17.25 A 3.285 3.285 0 0 0 24 17.215 A 2.649 2.649 0 0 0 23.2 15.3 A 2.75 2.75 0 0 0 22.489 14.781 A 2.721 2.721 0 0 0 21.25 14.5 Q 20.15 14.5 19.325 15.3 A 3.154 3.154 0 0 0 19.275 15.351 A 2.607 2.607 0 0 0 18.5 17.25 A 2.584 2.584 0 0 0 18.727 18.327 A 2.875 2.875 0 0 0 19.325 19.175 A 3.445 3.445 0 0 0 19.379 19.228 Z M 16.629 26.728 A 2.624 2.624 0 0 0 18.5 27.5 A 3.161 3.161 0 0 0 18.572 27.5 A 2.607 2.607 0 0 0 20.45 26.675 Q 21.25 25.85 21.25 24.75 A 3.285 3.285 0 0 0 21.25 24.715 A 2.649 2.649 0 0 0 20.45 22.8 A 2.75 2.75 0 0 0 19.739 22.281 A 2.721 2.721 0 0 0 18.5 22 Q 17.4 22 16.575 22.8 A 3.154 3.154 0 0 0 16.525 22.851 A 2.607 2.607 0 0 0 15.75 24.75 A 2.584 2.584 0 0 0 15.977 25.827 A 2.875 2.875 0 0 0 16.575 26.675 A 3.445 3.445 0 0 0 16.629 26.728 Z M 8.629 26.728 A 2.624 2.624 0 0 0 10.5 27.5 A 3.161 3.161 0 0 0 10.572 27.5 A 2.607 2.607 0 0 0 12.45 26.675 Q 13.25 25.85 13.25 24.75 A 3.285 3.285 0 0 0 13.25 24.715 A 2.649 2.649 0 0 0 12.45 22.8 A 2.75 2.75 0 0 0 11.739 22.281 A 2.721 2.721 0 0 0 10.5 22 Q 9.4 22 8.575 22.8 A 3.154 3.154 0 0 0 8.525 22.851 A 2.607 2.607 0 0 0 7.75 24.75 A 2.584 2.584 0 0 0 7.977 25.827 A 2.875 2.875 0 0 0 8.575 26.675 A 3.445 3.445 0 0 0 8.629 26.728 Z M 16.629 34.728 A 2.624 2.624 0 0 0 18.5 35.5 A 3.161 3.161 0 0 0 18.572 35.5 A 2.607 2.607 0 0 0 20.45 34.675 Q 21.25 33.85 21.25 32.75 A 3.285 3.285 0 0 0 21.25 32.715 A 2.649 2.649 0 0 0 20.45 30.8 A 2.75 2.75 0 0 0 19.739 30.281 A 2.721 2.721 0 0 0 18.5 30 Q 17.4 30 16.575 30.8 A 3.154 3.154 0 0 0 16.525 30.851 A 2.607 2.607 0 0 0 15.75 32.75 Q 15.75 33.842 16.563 34.663 A 3.483 3.483 0 0 0 16.575 34.675 A 3.445 3.445 0 0 0 16.629 34.728 Z M 7.733 11 A 2.922 2.922 0 0 0 7.75 11 A 3.161 3.161 0 0 0 7.822 11 A 2.607 2.607 0 0 0 9.7 10.175 Q 10.5 9.35 10.5 8.25 A 3.285 3.285 0 0 0 10.5 8.215 A 2.649 2.649 0 0 0 9.7 6.3 A 2.75 2.75 0 0 0 8.989 5.781 A 2.721 2.721 0 0 0 7.75 5.5 Q 6.65 5.5 5.825 6.3 A 3.154 3.154 0 0 0 5.775 6.351 A 2.607 2.607 0 0 0 5 8.25 A 2.584 2.584 0 0 0 5.227 9.327 A 2.875 2.875 0 0 0 5.825 10.175 A 3.434 3.434 0 0 0 5.89 10.238 Q 6.687 10.994 7.733 11 Z M 14.483 15.5 A 2.922 2.922 0 0 0 14.5 15.5 A 3.161 3.161 0 0 0 14.572 15.5 A 2.607 2.607 0 0 0 16.45 14.675 Q 17.25 13.85 17.25 12.75 A 3.285 3.285 0 0 0 17.25 12.715 A 2.649 2.649 0 0 0 16.45 10.8 A 2.75 2.75 0 0 0 15.739 10.281 A 2.721 2.721 0 0 0 14.5 10 Q 13.4 10 12.575 10.8 A 3.154 3.154 0 0 0 12.525 10.851 A 2.607 2.607 0 0 0 11.75 12.75 A 2.584 2.584 0 0 0 11.977 13.827 A 2.875 2.875 0 0 0 12.575 14.675 A 3.434 3.434 0 0 0 12.64 14.738 Q 13.437 15.494 14.483 15.5 Z M 14.5 30.65 Q 15.2 29.4 16.45 28.75 Q 15.2 28.1 14.5 26.85 Q 13.8 28.1 12.55 28.75 Q 13.8 29.4 14.5 30.65 Z M 18 26.95 L 18.4 26.7 L 18.4 26.2 L 18.15 25.95 A 1.677 1.677 0 0 1 17.517 25.525 A 2.001 2.001 0 0 1 17.45 25.45 L 17.15 25.3 L 16.7 25.45 L 16.55 25.9 Q 17.15 26.75 18 26.95 Z M 20.75 19.45 L 21.15 19.2 L 21.15 18.7 L 20.9 18.45 A 1.677 1.677 0 0 1 20.267 18.025 A 2.001 2.001 0 0 1 20.2 17.95 L 19.9 17.8 L 19.45 17.95 L 19.3 18.4 Q 19.9 19.25 20.75 19.45 Z M 18 34.95 L 18.4 34.7 L 18.4 34.2 L 18.15 33.95 A 1.677 1.677 0 0 1 17.517 33.525 A 2.001 2.001 0 0 1 17.45 33.45 L 17.15 33.3 L 16.7 33.45 L 16.55 33.9 Q 17.15 34.75 18 34.95 Z M 7.25 10.45 L 7.65 10.2 L 7.65 9.7 L 7.4 9.45 A 1.677 1.677 0 0 1 6.767 9.025 A 2.001 2.001 0 0 1 6.7 8.95 L 6.4 8.8 L 5.95 8.95 L 5.8 9.4 Q 6.4 10.25 7.25 10.45 Z M 14 14.95 L 14.4 14.7 L 14.4 14.2 L 14.15 13.95 A 1.677 1.677 0 0 1 13.517 13.525 A 2.001 2.001 0 0 1 13.45 13.45 L 13.15 13.3 L 12.7 13.45 L 12.55 13.9 Q 13.15 14.75 14 14.95 Z M 10 26.95 L 10.4 26.7 L 10.4 26.2 L 10.15 25.95 A 1.677 1.677 0 0 1 9.517 25.525 A 2.001 2.001 0 0 1 9.45 25.45 L 9.15 25.3 L 8.7 25.45 L 8.55 25.9 Q 9.15 26.75 10 26.95 Z M 10 34.95 L 10.4 34.7 L 10.4 34.2 L 10.15 33.95 A 1.677 1.677 0 0 1 9.517 33.525 A 2.001 2.001 0 0 1 9.45 33.45 L 9.15 33.3 L 8.7 33.45 L 8.55 33.9 Q 9.15 34.75 10 34.95 Z M 23.2 18.4 L 23.05 17.95 L 22.6 17.8 Q 22.374 17.914 22.104 18.113 A 5.831 5.831 0 0 0 21.925 18.25 A 49.04 49.04 0 0 1 21.749 18.391 Q 21.5 18.588 21.35 18.7 L 21.35 19.2 L 21.75 19.45 Q 22.6 19.25 23.2 18.4 Z M 16.45 13.9 L 16.3 13.45 L 15.85 13.3 Q 15.624 13.414 15.354 13.613 A 5.831 5.831 0 0 0 15.175 13.75 A 49.04 49.04 0 0 1 14.999 13.891 Q 14.75 14.088 14.6 14.2 L 14.6 14.7 L 15 14.95 Q 15.85 14.75 16.45 13.9 Z M 12.45 33.9 L 12.3 33.45 L 11.85 33.3 Q 11.624 33.414 11.354 33.613 A 5.831 5.831 0 0 0 11.175 33.75 A 49.04 49.04 0 0 1 10.999 33.891 Q 10.75 34.088 10.6 34.2 L 10.6 34.7 L 11 34.95 Q 11.85 34.75 12.45 33.9 Z M 9.7 9.4 L 9.55 8.95 L 9.1 8.8 Q 8.874 8.914 8.604 9.113 A 5.831 5.831 0 0 0 8.425 9.25 A 49.04 49.04 0 0 1 8.249 9.391 Q 8 9.588 7.85 9.7 L 7.85 10.2 L 8.25 10.45 Q 9.1 10.25 9.7 9.4 Z M 20.45 25.9 L 20.3 25.45 L 19.85 25.3 Q 19.624 25.414 19.354 25.613 A 5.831 5.831 0 0 0 19.175 25.75 A 49.04 49.04 0 0 1 18.999 25.891 Q 18.75 26.088 18.6 26.2 L 18.6 26.7 L 19 26.95 Q 19.85 26.75 20.45 25.9 Z M 12.45 25.9 L 12.3 25.45 L 11.85 25.3 Q 11.624 25.414 11.354 25.613 A 5.831 5.831 0 0 0 11.175 25.75 A 49.04 49.04 0 0 1 10.999 25.891 Q 10.75 26.088 10.6 26.2 L 10.6 26.7 L 11 26.95 Q 11.85 26.75 12.45 25.9 Z M 20.45 33.9 L 20.3 33.45 L 19.85 33.3 Q 19.624 33.414 19.354 33.613 A 5.831 5.831 0 0 0 19.175 33.75 A 49.04 49.04 0 0 1 18.999 33.891 Q 18.75 34.088 18.6 34.2 L 18.6 34.7 L 19 34.95 Q 19.85 34.75 20.45 33.9 Z M 16.4 13.25 L 16.75 12.95 L 16.75 12.75 Q 16.75 11.9 16.2 11.25 L 15.75 11.25 L 15.45 11.65 Q 15.5 11.95 15.625 12.2 Q 15.75 12.45 15.75 12.75 L 15.95 13.1 L 16.4 13.25 Z M 12.4 25.25 L 12.75 24.95 L 12.75 24.75 Q 12.75 23.9 12.2 23.25 L 11.75 23.25 L 11.45 23.65 Q 11.5 23.95 11.625 24.2 Q 11.75 24.45 11.75 24.75 L 11.95 25.1 L 12.4 25.25 Z M 12.4 33.25 L 12.75 32.95 L 12.75 32.75 Q 12.75 31.9 12.2 31.25 L 11.75 31.25 L 11.45 31.65 Q 11.5 31.95 11.625 32.2 Q 11.75 32.45 11.75 32.75 L 11.95 33.1 L 12.4 33.25 Z M 9.65 8.75 L 10 8.45 L 10 8.25 Q 10 7.4 9.45 6.75 L 9 6.75 L 8.7 7.15 Q 8.75 7.45 8.875 7.7 Q 9 7.95 9 8.25 L 9.2 8.6 L 9.65 8.75 Z M 20.4 25.25 L 20.75 24.95 L 20.75 24.75 Q 20.75 23.9 20.2 23.25 L 19.75 23.25 L 19.45 23.65 Q 19.5 23.95 19.625 24.2 Q 19.75 24.45 19.75 24.75 L 19.95 25.1 L 20.4 25.25 Z M 20.4 33.25 L 20.75 32.95 L 20.75 32.75 Q 20.75 31.9 20.2 31.25 L 19.75 31.25 L 19.45 31.65 Q 19.5 31.95 19.625 32.2 Q 19.75 32.45 19.75 32.75 L 19.95 33.1 L 20.4 33.25 Z M 23.15 17.75 L 23.5 17.45 L 23.5 17.25 Q 23.5 16.4 22.95 15.75 L 22.5 15.75 L 22.2 16.15 Q 22.25 16.45 22.375 16.7 Q 22.5 16.95 22.5 17.25 L 22.7 17.6 L 23.15 17.75 Z M 17.55 23.65 L 17.25 23.25 L 16.8 23.25 Q 16.25 23.9 16.25 24.75 L 16.25 24.95 L 16.6 25.25 A 1.121 1.121 0 0 0 16.876 25.16 A 0.727 0.727 0 0 0 17.25 24.75 A 1.252 1.252 0 0 1 17.314 24.349 A 1.154 1.154 0 0 1 17.375 24.2 A 1.885 1.885 0 0 0 17.529 23.761 A 2.177 2.177 0 0 0 17.55 23.65 Z M 13.55 11.65 L 13.25 11.25 L 12.8 11.25 Q 12.25 11.9 12.25 12.75 L 12.25 12.95 L 12.6 13.25 A 1.121 1.121 0 0 0 12.876 13.16 A 0.727 0.727 0 0 0 13.25 12.75 A 1.252 1.252 0 0 1 13.314 12.349 A 1.154 1.154 0 0 1 13.375 12.2 A 1.885 1.885 0 0 0 13.529 11.761 A 2.177 2.177 0 0 0 13.55 11.65 Z M 9.55 23.65 L 9.25 23.25 L 8.8 23.25 Q 8.25 23.9 8.25 24.75 L 8.25 24.95 L 8.6 25.25 A 1.121 1.121 0 0 0 8.876 25.16 A 0.727 0.727 0 0 0 9.25 24.75 A 1.252 1.252 0 0 1 9.314 24.349 A 1.154 1.154 0 0 1 9.375 24.2 A 1.885 1.885 0 0 0 9.529 23.761 A 2.177 2.177 0 0 0 9.55 23.65 Z M 20.3 16.15 L 20 15.75 L 19.55 15.75 Q 19 16.4 19 17.25 L 19 17.45 L 19.35 17.75 A 1.121 1.121 0 0 0 19.626 17.66 A 0.727 0.727 0 0 0 20 17.25 A 1.252 1.252 0 0 1 20.064 16.849 A 1.154 1.154 0 0 1 20.125 16.7 A 1.885 1.885 0 0 0 20.279 16.261 A 2.177 2.177 0 0 0 20.3 16.15 Z M 9.55 31.65 L 9.25 31.25 L 8.8 31.25 Q 8.25 31.9 8.25 32.75 L 8.25 32.95 L 8.6 33.25 A 1.121 1.121 0 0 0 8.876 33.16 A 0.727 0.727 0 0 0 9.25 32.75 A 1.252 1.252 0 0 1 9.314 32.349 A 1.154 1.154 0 0 1 9.375 32.2 A 1.885 1.885 0 0 0 9.529 31.761 A 2.177 2.177 0 0 0 9.55 31.65 Z M 17.55 31.65 L 17.25 31.25 L 16.8 31.25 Q 16.25 31.9 16.25 32.75 L 16.25 32.95 L 16.6 33.25 A 1.121 1.121 0 0 0 16.876 33.16 A 0.727 0.727 0 0 0 17.25 32.75 A 1.252 1.252 0 0 1 17.314 32.349 A 1.154 1.154 0 0 1 17.375 32.2 A 1.885 1.885 0 0 0 17.529 31.761 A 2.177 2.177 0 0 0 17.55 31.65 Z M 6.8 7.15 L 6.5 6.75 L 6.05 6.75 Q 5.5 7.4 5.5 8.25 L 5.5 8.45 L 5.85 8.75 A 1.121 1.121 0 0 0 6.126 8.66 A 0.727 0.727 0 0 0 6.5 8.25 A 1.252 1.252 0 0 1 6.564 7.849 A 1.154 1.154 0 0 1 6.625 7.7 A 1.885 1.885 0 0 0 6.779 7.261 A 2.177 2.177 0 0 0 6.8 7.15 Z M 8.15 7.05 L 8.5 7 L 8.8 6.6 L 8.65 6.2 A 1.904 1.904 0 0 0 7.979 6.011 A 2.337 2.337 0 0 0 7.75 6 A 2.154 2.154 0 0 0 7.22 6.064 A 1.826 1.826 0 0 0 6.85 6.2 L 6.7 6.6 L 7 7 L 7.35 7.05 Q 7.443 7.004 7.708 7.001 A 3.346 3.346 0 0 1 7.75 7 Q 8.03 7 8.136 7.044 A 0.215 0.215 0 0 1 8.15 7.05 Z M 10.9 31.55 L 11.25 31.5 L 11.55 31.1 L 11.4 30.7 A 1.904 1.904 0 0 0 10.729 30.511 A 2.337 2.337 0 0 0 10.5 30.5 A 2.154 2.154 0 0 0 9.97 30.564 A 1.826 1.826 0 0 0 9.6 30.7 L 9.45 31.1 L 9.75 31.5 L 10.1 31.55 Q 10.193 31.504 10.458 31.501 A 3.346 3.346 0 0 1 10.5 31.5 Q 10.78 31.5 10.886 31.544 A 0.215 0.215 0 0 1 10.9 31.55 Z M 10.9 23.55 L 11.25 23.5 L 11.55 23.1 L 11.4 22.7 A 1.904 1.904 0 0 0 10.729 22.511 A 2.337 2.337 0 0 0 10.5 22.5 A 2.154 2.154 0 0 0 9.97 22.564 A 1.826 1.826 0 0 0 9.6 22.7 L 9.45 23.1 L 9.75 23.5 L 10.1 23.55 Q 10.193 23.504 10.458 23.501 A 3.346 3.346 0 0 1 10.5 23.5 Q 10.78 23.5 10.886 23.544 A 0.215 0.215 0 0 1 10.9 23.55 Z M 14.9 11.55 L 15.25 11.5 L 15.55 11.1 L 15.4 10.7 A 1.904 1.904 0 0 0 14.729 10.511 A 2.337 2.337 0 0 0 14.5 10.5 A 2.154 2.154 0 0 0 13.97 10.564 A 1.826 1.826 0 0 0 13.6 10.7 L 13.45 11.1 L 13.75 11.5 L 14.1 11.55 Q 14.193 11.504 14.458 11.501 A 3.346 3.346 0 0 1 14.5 11.5 Q 14.78 11.5 14.886 11.544 A 0.215 0.215 0 0 1 14.9 11.55 Z M 18.9 23.55 L 19.25 23.5 L 19.55 23.1 L 19.4 22.7 A 1.904 1.904 0 0 0 18.729 22.511 A 2.337 2.337 0 0 0 18.5 22.5 A 2.154 2.154 0 0 0 17.97 22.564 A 1.826 1.826 0 0 0 17.6 22.7 L 17.45 23.1 L 17.75 23.5 L 18.1 23.55 Q 18.193 23.504 18.458 23.501 A 3.346 3.346 0 0 1 18.5 23.5 Q 18.78 23.5 18.886 23.544 A 0.215 0.215 0 0 1 18.9 23.55 Z M 18.9 31.55 L 19.25 31.5 L 19.55 31.1 L 19.4 30.7 A 1.904 1.904 0 0 0 18.729 30.511 A 2.337 2.337 0 0 0 18.5 30.5 A 2.154 2.154 0 0 0 17.97 30.564 A 1.826 1.826 0 0 0 17.6 30.7 L 17.45 31.1 L 17.75 31.5 L 18.1 31.55 Q 18.193 31.504 18.458 31.501 A 3.346 3.346 0 0 1 18.5 31.5 Q 18.78 31.5 18.886 31.544 A 0.215 0.215 0 0 1 18.9 31.55 Z M 21.65 16.05 L 22 16 L 22.3 15.6 L 22.15 15.2 A 1.904 1.904 0 0 0 21.479 15.011 A 2.337 2.337 0 0 0 21.25 15 A 2.154 2.154 0 0 0 20.72 15.064 A 1.826 1.826 0 0 0 20.35 15.2 L 20.2 15.6 L 20.5 16 L 20.85 16.05 Q 20.943 16.004 21.208 16.001 A 3.346 3.346 0 0 1 21.25 16 Q 21.53 16 21.636 16.044 A 0.215 0.215 0 0 1 21.65 16.05 Z M 10.5 25.5 A 0.716 0.716 0 0 0 11.011 25.29 A 0.939 0.939 0 0 0 11.025 25.275 Q 11.25 25.05 11.25 24.75 A 0.716 0.716 0 0 0 11.04 24.24 A 0.939 0.939 0 0 0 11.025 24.225 Q 10.8 24 10.5 24 A 0.716 0.716 0 0 0 9.99 24.211 A 0.939 0.939 0 0 0 9.975 24.225 Q 9.75 24.45 9.75 24.75 A 0.716 0.716 0 0 0 9.961 25.261 A 0.939 0.939 0 0 0 9.975 25.275 Q 10.2 25.5 10.5 25.5 Z M 10.5 33.5 A 0.716 0.716 0 0 0 11.011 33.29 A 0.939 0.939 0 0 0 11.025 33.275 Q 11.25 33.05 11.25 32.75 A 0.716 0.716 0 0 0 11.04 32.24 A 0.939 0.939 0 0 0 11.025 32.225 Q 10.8 32 10.5 32 A 0.716 0.716 0 0 0 9.99 32.211 A 0.939 0.939 0 0 0 9.975 32.225 Q 9.75 32.45 9.75 32.75 A 0.716 0.716 0 0 0 9.961 33.261 A 0.939 0.939 0 0 0 9.975 33.275 Q 10.2 33.5 10.5 33.5 Z M 18.5 25.5 A 0.716 0.716 0 0 0 19.011 25.29 A 0.939 0.939 0 0 0 19.025 25.275 Q 19.25 25.05 19.25 24.75 A 0.716 0.716 0 0 0 19.04 24.24 A 0.939 0.939 0 0 0 19.025 24.225 Q 18.8 24 18.5 24 A 0.716 0.716 0 0 0 17.99 24.211 A 0.939 0.939 0 0 0 17.975 24.225 Q 17.75 24.45 17.75 24.75 A 0.716 0.716 0 0 0 17.961 25.261 A 0.939 0.939 0 0 0 17.975 25.275 Q 18.2 25.5 18.5 25.5 Z M 7.75 9 A 0.716 0.716 0 0 0 8.261 8.79 A 0.939 0.939 0 0 0 8.275 8.775 Q 8.5 8.55 8.5 8.25 A 0.716 0.716 0 0 0 8.29 7.74 A 0.939 0.939 0 0 0 8.275 7.725 Q 8.05 7.5 7.75 7.5 A 0.716 0.716 0 0 0 7.24 7.711 A 0.939 0.939 0 0 0 7.225 7.725 Q 7 7.95 7 8.25 A 0.716 0.716 0 0 0 7.211 8.761 A 0.939 0.939 0 0 0 7.225 8.775 Q 7.45 9 7.75 9 Z M 21.25 18 A 0.716 0.716 0 0 0 21.761 17.79 A 0.939 0.939 0 0 0 21.775 17.775 Q 22 17.55 22 17.25 A 0.716 0.716 0 0 0 21.79 16.74 A 0.939 0.939 0 0 0 21.775 16.725 Q 21.55 16.5 21.25 16.5 A 0.716 0.716 0 0 0 20.74 16.711 A 0.939 0.939 0 0 0 20.725 16.725 Q 20.5 16.95 20.5 17.25 A 0.716 0.716 0 0 0 20.711 17.761 A 0.939 0.939 0 0 0 20.725 17.775 Q 20.95 18 21.25 18 Z M 18.5 33.5 A 0.716 0.716 0 0 0 19.011 33.29 A 0.939 0.939 0 0 0 19.025 33.275 Q 19.25 33.05 19.25 32.75 A 0.716 0.716 0 0 0 19.04 32.24 A 0.939 0.939 0 0 0 19.025 32.225 Q 18.8 32 18.5 32 A 0.716 0.716 0 0 0 17.99 32.211 A 0.939 0.939 0 0 0 17.975 32.225 Q 17.75 32.45 17.75 32.75 A 0.716 0.716 0 0 0 17.961 33.261 A 0.939 0.939 0 0 0 17.975 33.275 Q 18.2 33.5 18.5 33.5 Z M 14.5 13.5 A 0.716 0.716 0 0 0 15.011 13.29 A 0.939 0.939 0 0 0 15.025 13.275 Q 15.25 13.05 15.25 12.75 A 0.716 0.716 0 0 0 15.04 12.24 A 0.939 0.939 0 0 0 15.025 12.225 Q 14.8 12 14.5 12 A 0.716 0.716 0 0 0 13.99 12.211 A 0.939 0.939 0 0 0 13.975 12.225 Q 13.75 12.45 13.75 12.75 A 0.716 0.716 0 0 0 13.961 13.261 A 0.939 0.939 0 0 0 13.975 13.275 Q 14.2 13.5 14.5 13.5 Z M 10.402 24.988 A 0.36 0.36 0 0 0 10.5 25 A 0.368 0.368 0 0 0 10.593 24.99 Q 10.706 24.96 10.738 24.849 A 0.36 0.36 0 0 0 10.75 24.75 A 0.368 0.368 0 0 0 10.74 24.658 Q 10.71 24.545 10.599 24.513 A 0.36 0.36 0 0 0 10.5 24.5 A 0.368 0.368 0 0 0 10.408 24.511 Q 10.295 24.541 10.263 24.652 A 0.36 0.36 0 0 0 10.25 24.75 A 0.368 0.368 0 0 0 10.261 24.843 Q 10.291 24.956 10.402 24.988 Z M 18.402 24.988 A 0.36 0.36 0 0 0 18.5 25 A 0.368 0.368 0 0 0 18.593 24.99 Q 18.706 24.96 18.738 24.849 A 0.36 0.36 0 0 0 18.75 24.75 A 0.368 0.368 0 0 0 18.74 24.658 Q 18.71 24.545 18.599 24.513 A 0.36 0.36 0 0 0 18.5 24.5 A 0.368 0.368 0 0 0 18.408 24.511 Q 18.295 24.541 18.263 24.652 A 0.36 0.36 0 0 0 18.25 24.75 A 0.368 0.368 0 0 0 18.261 24.843 Q 18.291 24.956 18.402 24.988 Z M 10.402 32.988 A 0.36 0.36 0 0 0 10.5 33 A 0.368 0.368 0 0 0 10.593 32.99 Q 10.706 32.96 10.738 32.849 A 0.36 0.36 0 0 0 10.75 32.75 A 0.368 0.368 0 0 0 10.74 32.658 Q 10.71 32.545 10.599 32.513 A 0.36 0.36 0 0 0 10.5 32.5 A 0.368 0.368 0 0 0 10.408 32.511 Q 10.295 32.541 10.263 32.652 A 0.36 0.36 0 0 0 10.25 32.75 A 0.368 0.368 0 0 0 10.261 32.843 Q 10.291 32.956 10.402 32.988 Z M 7.652 8.488 A 0.36 0.36 0 0 0 7.75 8.5 A 0.368 0.368 0 0 0 7.843 8.49 Q 7.956 8.46 7.988 8.349 A 0.36 0.36 0 0 0 8 8.25 A 0.368 0.368 0 0 0 7.99 8.158 Q 7.96 8.045 7.849 8.013 A 0.36 0.36 0 0 0 7.75 8 A 0.368 0.368 0 0 0 7.658 8.011 Q 7.545 8.041 7.513 8.152 A 0.36 0.36 0 0 0 7.5 8.25 A 0.368 0.368 0 0 0 7.511 8.343 Q 7.541 8.456 7.652 8.488 Z M 14.402 12.988 A 0.36 0.36 0 0 0 14.5 13 A 0.368 0.368 0 0 0 14.593 12.99 Q 14.706 12.96 14.738 12.849 A 0.36 0.36 0 0 0 14.75 12.75 A 0.368 0.368 0 0 0 14.74 12.658 Q 14.71 12.545 14.599 12.513 A 0.36 0.36 0 0 0 14.5 12.5 A 0.368 0.368 0 0 0 14.408 12.511 Q 14.295 12.541 14.263 12.652 A 0.36 0.36 0 0 0 14.25 12.75 A 0.368 0.368 0 0 0 14.261 12.843 Q 14.291 12.956 14.402 12.988 Z M 18.402 32.988 A 0.36 0.36 0 0 0 18.5 33 A 0.368 0.368 0 0 0 18.593 32.99 Q 18.706 32.96 18.738 32.849 A 0.36 0.36 0 0 0 18.75 32.75 A 0.368 0.368 0 0 0 18.74 32.658 Q 18.71 32.545 18.599 32.513 A 0.36 0.36 0 0 0 18.5 32.5 A 0.368 0.368 0 0 0 18.408 32.511 Q 18.295 32.541 18.263 32.652 A 0.36 0.36 0 0 0 18.25 32.75 A 0.368 0.368 0 0 0 18.261 32.843 Q 18.291 32.956 18.402 32.988 Z M 21.152 17.488 A 0.36 0.36 0 0 0 21.25 17.5 A 0.368 0.368 0 0 0 21.343 17.49 Q 21.456 17.46 21.488 17.349 A 0.36 0.36 0 0 0 21.5 17.25 A 0.368 0.368 0 0 0 21.49 17.158 Q 21.46 17.045 21.349 17.013 A 0.36 0.36 0 0 0 21.25 17 A 0.368 0.368 0 0 0 21.158 17.011 Q 21.045 17.041 21.013 17.152 A 0.36 0.36 0 0 0 21 17.25 A 0.368 0.368 0 0 0 21.011 17.343 Q 21.041 17.456 21.152 17.488 Z" vector-effect="non-scaling-stroke"/></g></svg></svg>