<svg width="58" height="83" viewBox="0 0 29 41.5" xmlns="http://www.w3.org/2000/svg"><g id="svgGroup" stroke-linecap="round" fill-rule="evenodd" font-size="9pt" stroke="#000" stroke-width="0.05mm" fill="#000" style="stroke:#000;stroke-width:0.05mm;fill:#000"><path d="M 0 38.5 L 0 3 A 2.89 2.89 0 0 1 0.848 0.903 A 3.442 3.442 0 0 1 0.875 0.875 A 2.889 2.889 0 0 1 2.961 0.001 A 3.547 3.547 0 0 1 3 0 L 26 0 A 2.89 2.89 0 0 1 28.098 0.848 A 3.442 3.442 0 0 1 28.125 0.875 A 2.889 2.889 0 0 1 29 2.961 A 3.547 3.547 0 0 1 29 3 L 29 38.5 A 2.89 2.89 0 0 1 28.153 40.598 A 3.442 3.442 0 0 1 28.125 40.625 A 2.889 2.889 0 0 1 26.039 41.5 A 3.547 3.547 0 0 1 26 41.5 L 3 41.5 A 2.89 2.89 0 0 1 0.903 40.653 A 3.442 3.442 0 0 1 0.875 40.625 A 2.889 2.889 0 0 1 0.001 38.539 A 3.547 3.547 0 0 1 0 38.5 Z M 3 40 L 26 40 A 1.628 1.628 0 0 0 26.542 39.914 A 1.403 1.403 0 0 0 27.075 39.575 A 1.436 1.436 0 0 0 27.498 38.602 A 1.91 1.91 0 0 0 27.5 38.5 L 27.5 3 A 1.628 1.628 0 0 0 27.414 2.459 A 1.403 1.403 0 0 0 27.075 1.925 A 1.436 1.436 0 0 0 26.102 1.503 A 1.91 1.91 0 0 0 26 1.5 L 3 1.5 A 1.628 1.628 0 0 0 2.459 1.587 A 1.403 1.403 0 0 0 1.925 1.925 A 1.436 1.436 0 0 0 1.503 2.899 A 1.91 1.91 0 0 0 1.5 3 L 1.5 38.5 A 1.628 1.628 0 0 0 1.587 39.042 A 1.403 1.403 0 0 0 1.925 39.575 A 1.436 1.436 0 0 0 2.899 39.998 A 1.91 1.91 0 0 0 3 40 Z" vector-effect="non-scaling-stroke"/></g><text x="3.5" y="15.1" font-family="'Noto Serif', 'Noto Serif JP', 'Yu Mincho', 'Hiragino Mincho ProN', Georgia, serif" font-size="14.6" font-weight="700" fill="#16703c">8</text><svg x="10.8" y="15.9" width="15.9" height="20.9" viewBox="2.728 2.079 23.544 36.842" overflow="visible" preserveAspectRatio="xMidYMid meet"><g id="svgGroup" stroke-linecap="round" fill-rule="evenodd" font-size="9pt" stroke="#000" stroke-width="0.05mm" fill="#000" style="stroke:#000;stroke-width:0.05mm;fill:#000"><path d="M 5.1 16.5 L 5.1 14.15 Q 5.1 13.939 4.654 13.424 A 8.219 8.219 0 0 0 4.475 13.225 A 3.582 3.582 0 0 1 4.18 12.866 Q 3.881 12.443 3.853 12.075 A 0.993 0.993 0 0 1 3.85 12 A 1.181 1.181 0 0 1 3.942 11.561 Q 4.08 11.216 4.426 10.829 A 4.379 4.379 0 0 1 4.475 10.775 Q 4.983 10.228 5.078 9.96 A 0.332 0.332 0 0 0 5.1 9.85 L 5.1 7.45 A 0.776 0.776 0 0 0 4.855 6.878 A 1.036 1.036 0 0 0 4.825 6.85 Q 4.55 6.6 4.45 6.5 Q 3.7 6.05 3.7 5.45 A 1.205 1.205 0 0 1 3.756 5.077 A 0.952 0.952 0 0 1 4.1 4.6 A 1.938 1.938 0 0 1 4.346 4.442 Q 4.61 4.3 4.85 4.3 A 0.698 0.698 0 0 0 5.055 4.266 Q 5.245 4.208 5.484 4.05 A 3.406 3.406 0 0 0 5.625 3.95 A 1.794 1.794 0 0 1 6.552 3.609 A 2.272 2.272 0 0 1 6.75 3.6 Q 7.4 3.6 7.875 3.95 A 3.113 3.113 0 0 0 8.102 4.104 Q 8.425 4.3 8.65 4.3 A 0.953 0.953 0 0 1 8.978 4.362 Q 9.105 4.409 9.239 4.49 A 2.079 2.079 0 0 1 9.4 4.6 A 0.971 0.971 0 0 1 9.794 5.313 A 1.389 1.389 0 0 1 9.8 5.45 Q 9.8 5.949 9.284 6.343 A 2.52 2.52 0 0 1 9.05 6.5 A 3.852 3.852 0 0 1 8.992 6.558 Q 8.884 6.661 8.675 6.85 A 0.868 0.868 0 0 0 8.485 7.093 A 0.766 0.766 0 0 0 8.4 7.45 L 8.4 9.85 Q 8.4 10.062 8.847 10.577 A 8.219 8.219 0 0 0 9.025 10.775 A 3.582 3.582 0 0 1 9.321 11.135 Q 9.62 11.558 9.648 11.926 A 0.993 0.993 0 0 1 9.65 12 A 1.181 1.181 0 0 1 9.559 12.44 Q 9.421 12.785 9.075 13.172 A 4.379 4.379 0 0 1 9.025 13.225 Q 8.518 13.773 8.423 14.041 A 0.332 0.332 0 0 0 8.4 14.15 L 8.4 15.15 L 9.8 13.4 A 0.549 0.549 0 0 0 9.908 13.239 Q 10.008 13.021 10.025 12.625 A 2.253 2.253 0 0 1 10.063 12.293 Q 10.129 11.957 10.3 11.75 A 0.72 0.72 0 0 1 10.48 11.595 Q 10.662 11.48 10.959 11.403 A 3.131 3.131 0 0 1 11.075 11.375 Q 11.65 11.25 11.8 11.05 L 12.6 10.2 Q 12.6 9.915 12.217 9.562 A 3.169 3.169 0 0 0 12.025 9.4 Q 11.45 8.95 11.45 8.5 A 1.138 1.138 0 0 1 11.768 7.709 A 1.552 1.552 0 0 1 11.85 7.625 A 1.445 1.445 0 0 1 12.234 7.363 A 1.221 1.221 0 0 1 12.75 7.25 Q 13.115 7.25 13.501 7.5 A 2.235 2.235 0 0 1 13.575 7.55 Q 14 7.85 14.5 7.85 Q 15 7.85 15.425 7.55 A 1.918 1.918 0 0 1 15.737 7.369 Q 15.933 7.28 16.124 7.258 A 1.089 1.089 0 0 1 16.25 7.25 A 1.254 1.254 0 0 1 17.055 7.543 A 1.661 1.661 0 0 1 17.15 7.625 A 1.339 1.339 0 0 1 17.416 7.963 A 1.11 1.11 0 0 1 17.55 8.5 Q 17.55 8.943 16.995 9.385 A 2.956 2.956 0 0 1 16.975 9.4 Q 16.558 9.727 16.444 10.001 A 0.517 0.517 0 0 0 16.4 10.2 L 17.15 11.05 Q 17.3 11.25 17.9 11.375 A 2.924 2.924 0 0 1 18.175 11.446 Q 18.55 11.563 18.7 11.75 A 1.39 1.39 0 0 1 18.906 12.19 Q 18.964 12.399 18.975 12.65 Q 18.995 13.071 19.087 13.287 A 0.546 0.546 0 0 0 19.15 13.4 L 20.6 15.15 L 20.6 14.15 Q 20.6 13.939 20.154 13.424 A 8.219 8.219 0 0 0 19.975 13.225 A 3.582 3.582 0 0 1 19.68 12.866 Q 19.381 12.443 19.353 12.075 A 0.993 0.993 0 0 1 19.35 12 A 1.181 1.181 0 0 1 19.442 11.561 Q 19.58 11.216 19.926 10.829 A 4.379 4.379 0 0 1 19.975 10.775 Q 20.483 10.228 20.578 9.96 A 0.332 0.332 0 0 0 20.6 9.85 L 20.6 7.45 A 0.776 0.776 0 0 0 20.355 6.878 A 1.036 1.036 0 0 0 20.325 6.85 Q 20.05 6.6 19.95 6.5 Q 19.2 6.05 19.2 5.45 A 1.205 1.205 0 0 1 19.256 5.077 A 0.952 0.952 0 0 1 19.6 4.6 A 1.938 1.938 0 0 1 19.846 4.442 Q 20.11 4.3 20.35 4.3 A 0.698 0.698 0 0 0 20.555 4.266 Q 20.745 4.208 20.984 4.05 A 3.406 3.406 0 0 0 21.125 3.95 A 1.794 1.794 0 0 1 22.052 3.609 A 2.272 2.272 0 0 1 22.25 3.6 Q 22.9 3.6 23.375 3.95 A 3.113 3.113 0 0 0 23.602 4.104 Q 23.925 4.3 24.15 4.3 A 0.953 0.953 0 0 1 24.478 4.362 Q 24.605 4.409 24.739 4.49 A 2.079 2.079 0 0 1 24.9 4.6 A 0.971 0.971 0 0 1 25.294 5.313 A 1.389 1.389 0 0 1 25.3 5.45 Q 25.3 5.949 24.784 6.343 A 2.52 2.52 0 0 1 24.55 6.5 A 3.852 3.852 0 0 1 24.492 6.558 Q 24.384 6.661 24.175 6.85 A 0.868 0.868 0 0 0 23.985 7.093 A 0.766 0.766 0 0 0 23.9 7.45 L 23.9 9.85 Q 23.9 10.062 24.347 10.577 A 8.219 8.219 0 0 0 24.525 10.775 A 3.582 3.582 0 0 1 24.821 11.135 Q 25.12 11.558 25.148 11.926 A 0.993 0.993 0 0 1 25.15 12 A 1.181 1.181 0 0 1 25.059 12.44 Q 24.921 12.785 24.575 13.172 A 4.379 4.379 0 0 1 24.525 13.225 Q 24.018 13.773 23.923 14.041 A 0.332 0.332 0 0 0 23.9 14.15 L 23.9 16.5 A 0.776 0.776 0 0 0 24.146 17.073 A 1.036 1.036 0 0 0 24.175 17.1 Q 24.45 17.35 24.55 17.45 Q 25.3 17.9 25.3 18.5 A 1.085 1.085 0 0 1 25.201 18.97 A 1.08 1.08 0 0 1 24.925 19.325 A 1.321 1.321 0 0 1 24.168 19.643 A 1.733 1.733 0 0 1 24 19.65 A 1.625 1.625 0 0 1 23.561 19.587 Q 23.38 19.536 23.19 19.445 A 2.777 2.777 0 0 1 23.15 19.425 Q 22.7 19.2 22.25 19.2 A 1.915 1.915 0 0 0 21.561 19.332 A 2.352 2.352 0 0 0 21.35 19.425 Q 20.927 19.637 20.548 19.65 A 1.439 1.439 0 0 1 20.5 19.65 A 1.542 1.542 0 0 1 20.038 19.584 A 1.285 1.285 0 0 1 19.575 19.325 A 1.037 1.037 0 0 1 19.203 18.578 A 1.281 1.281 0 0 1 19.2 18.5 Q 19.2 18.3 19.275 18.2 Q 19.347 18.105 19.35 18.055 A 0.072 0.072 0 0 0 19.35 18.05 L 17 15.3 Q 16.85 15.1 16.25 14.975 A 2.924 2.924 0 0 1 15.975 14.905 Q 15.6 14.788 15.45 14.6 A 1.46 1.46 0 0 1 15.26 14.223 Q 15.2 14.049 15.17 13.842 A 2.811 2.811 0 0 1 15.15 13.675 A 3.971 3.971 0 0 0 15.12 13.419 Q 15.083 13.175 15.02 13.027 A 0.596 0.596 0 0 0 14.95 12.9 L 14.5 12.4 L 14 12.9 A 0.57 0.57 0 0 0 13.926 13.041 Q 13.843 13.261 13.825 13.675 A 2.316 2.316 0 0 1 13.778 14.06 Q 13.711 14.376 13.55 14.6 A 0.695 0.695 0 0 1 13.376 14.751 Q 13.199 14.863 12.908 14.939 A 3.251 3.251 0 0 1 12.75 14.975 A 3.589 3.589 0 0 0 12.51 15.034 Q 12.118 15.144 12 15.3 L 9.65 18.05 A 1.34 1.34 0 0 1 9.734 18.213 Q 9.771 18.299 9.787 18.378 A 0.606 0.606 0 0 1 9.8 18.5 A 1.333 1.333 0 0 1 9.8 18.508 Q 9.799 18.775 9.69 18.992 A 1.087 1.087 0 0 1 9.425 19.325 A 1.321 1.321 0 0 1 8.668 19.643 A 1.733 1.733 0 0 1 8.5 19.65 A 1.625 1.625 0 0 1 8.061 19.587 Q 7.88 19.536 7.69 19.445 A 2.777 2.777 0 0 1 7.65 19.425 Q 7.2 19.2 6.75 19.2 A 1.915 1.915 0 0 0 6.061 19.332 A 2.352 2.352 0 0 0 5.85 19.425 Q 5.427 19.637 5.048 19.65 A 1.439 1.439 0 0 1 5 19.65 A 1.542 1.542 0 0 1 4.538 19.584 A 1.285 1.285 0 0 1 4.075 19.325 Q 3.724 19.021 3.702 18.564 A 1.29 1.29 0 0 1 3.7 18.5 Q 3.7 18.002 4.217 17.608 A 2.52 2.52 0 0 1 4.45 17.45 A 3.852 3.852 0 0 1 4.509 17.393 Q 4.617 17.29 4.825 17.1 A 0.868 0.868 0 0 0 5.016 16.858 A 0.766 0.766 0 0 0 5.1 16.5 Z M 5.1 34.25 L 5.1 31.9 Q 5.1 31.689 4.654 31.174 A 8.219 8.219 0 0 0 4.475 30.975 A 3.582 3.582 0 0 1 4.18 30.616 Q 3.881 30.193 3.853 29.825 A 0.993 0.993 0 0 1 3.85 29.75 A 1.181 1.181 0 0 1 3.942 29.311 Q 4.08 28.966 4.426 28.579 A 4.379 4.379 0 0 1 4.475 28.525 Q 4.983 27.978 5.078 27.71 A 0.332 0.332 0 0 0 5.1 27.6 L 5.1 25.2 A 0.776 0.776 0 0 0 4.855 24.628 A 1.036 1.036 0 0 0 4.825 24.6 Q 4.55 24.35 4.45 24.25 Q 3.7 23.8 3.7 23.2 A 1.205 1.205 0 0 1 3.756 22.827 A 0.952 0.952 0 0 1 4.1 22.35 A 1.938 1.938 0 0 1 4.346 22.192 Q 4.61 22.05 4.85 22.05 A 0.698 0.698 0 0 0 5.055 22.016 Q 5.245 21.958 5.484 21.8 A 3.406 3.406 0 0 0 5.625 21.7 A 1.794 1.794 0 0 1 6.552 21.359 A 2.272 2.272 0 0 1 6.75 21.35 Q 7.4 21.35 7.875 21.7 A 3.113 3.113 0 0 0 8.102 21.854 Q 8.425 22.05 8.65 22.05 A 0.953 0.953 0 0 1 8.978 22.112 Q 9.105 22.159 9.239 22.24 A 2.079 2.079 0 0 1 9.4 22.35 A 0.971 0.971 0 0 1 9.794 23.063 A 1.389 1.389 0 0 1 9.8 23.2 Q 9.8 23.321 9.768 23.409 A 0.397 0.397 0 0 1 9.75 23.45 L 9.65 23.65 L 12 26.4 Q 12.15 26.6 12.75 26.725 A 2.924 2.924 0 0 1 13.025 26.796 Q 13.4 26.913 13.55 27.1 Q 13.734 27.321 13.797 27.704 A 2.504 2.504 0 0 1 13.825 28 A 2.945 2.945 0 0 0 13.848 28.268 Q 13.883 28.528 13.965 28.682 A 0.499 0.499 0 0 0 14.05 28.8 L 14.45 29.25 L 14.55 29.25 L 15 28.8 A 0.57 0.57 0 0 0 15.075 28.659 Q 15.157 28.44 15.175 28.025 A 2.316 2.316 0 0 1 15.222 27.641 Q 15.29 27.325 15.45 27.1 A 0.695 0.695 0 0 1 15.625 26.95 Q 15.802 26.838 16.093 26.762 A 3.251 3.251 0 0 1 16.25 26.725 A 3.589 3.589 0 0 0 16.491 26.667 Q 16.883 26.557 17 26.4 L 19.3 23.7 A 2.608 2.608 0 0 1 19.248 23.523 Q 19.2 23.338 19.2 23.2 A 1.205 1.205 0 0 1 19.256 22.827 A 0.952 0.952 0 0 1 19.6 22.35 A 1.938 1.938 0 0 1 19.846 22.192 Q 20.11 22.05 20.35 22.05 A 0.698 0.698 0 0 0 20.555 22.016 Q 20.745 21.958 20.984 21.8 A 3.406 3.406 0 0 0 21.125 21.7 A 1.794 1.794 0 0 1 22.052 21.359 A 2.272 2.272 0 0 1 22.25 21.35 Q 22.9 21.35 23.375 21.7 A 3.113 3.113 0 0 0 23.602 21.854 Q 23.925 22.05 24.15 22.05 A 0.953 0.953 0 0 1 24.478 22.112 Q 24.605 22.159 24.739 22.24 A 2.079 2.079 0 0 1 24.9 22.35 A 0.971 0.971 0 0 1 25.294 23.063 A 1.389 1.389 0 0 1 25.3 23.2 Q 25.3 23.699 24.784 24.093 A 2.52 2.52 0 0 1 24.55 24.25 A 3.852 3.852 0 0 1 24.492 24.308 Q 24.384 24.411 24.175 24.6 A 0.868 0.868 0 0 0 23.985 24.843 A 0.766 0.766 0 0 0 23.9 25.2 L 23.9 27.6 Q 23.9 27.812 24.347 28.327 A 8.219 8.219 0 0 0 24.525 28.525 A 3.582 3.582 0 0 1 24.821 28.885 Q 25.12 29.308 25.148 29.676 A 0.993 0.993 0 0 1 25.15 29.75 A 1.181 1.181 0 0 1 25.059 30.19 Q 24.921 30.535 24.575 30.922 A 4.379 4.379 0 0 1 24.525 30.975 Q 24.018 31.523 23.923 31.791 A 0.332 0.332 0 0 0 23.9 31.9 L 23.9 34.25 A 0.776 0.776 0 0 0 24.146 34.823 A 1.036 1.036 0 0 0 24.175 34.85 Q 24.45 35.1 24.55 35.2 Q 25.3 35.65 25.3 36.25 A 1.085 1.085 0 0 1 25.201 36.72 A 1.08 1.08 0 0 1 24.925 37.075 A 1.321 1.321 0 0 1 24.168 37.393 A 1.733 1.733 0 0 1 24 37.4 A 1.625 1.625 0 0 1 23.561 37.337 Q 23.38 37.286 23.19 37.195 A 2.777 2.777 0 0 1 23.15 37.175 Q 22.7 36.95 22.25 36.95 A 1.915 1.915 0 0 0 21.561 37.082 A 2.352 2.352 0 0 0 21.35 37.175 Q 20.927 37.387 20.548 37.4 A 1.439 1.439 0 0 1 20.5 37.4 A 1.542 1.542 0 0 1 20.038 37.334 A 1.285 1.285 0 0 1 19.575 37.075 A 1.037 1.037 0 0 1 19.203 36.328 A 1.281 1.281 0 0 1 19.2 36.25 Q 19.2 35.752 19.717 35.358 A 2.52 2.52 0 0 1 19.95 35.2 A 3.852 3.852 0 0 1 20.009 35.143 Q 20.117 35.04 20.325 34.85 A 0.868 0.868 0 0 0 20.516 34.608 A 0.766 0.766 0 0 0 20.6 34.25 L 20.6 31.9 Q 20.6 31.689 20.154 31.174 A 8.219 8.219 0 0 0 19.975 30.975 A 3.582 3.582 0 0 1 19.68 30.616 Q 19.381 30.193 19.353 29.825 A 0.993 0.993 0 0 1 19.35 29.75 A 1.181 1.181 0 0 1 19.442 29.311 Q 19.58 28.966 19.926 28.579 A 4.379 4.379 0 0 1 19.975 28.525 Q 20.483 27.978 20.578 27.71 A 0.332 0.332 0 0 0 20.6 27.6 L 20.6 26.55 L 19.2 28.3 A 0.549 0.549 0 0 0 19.093 28.462 Q 18.993 28.68 18.975 29.075 A 2.253 2.253 0 0 1 18.938 29.408 Q 18.872 29.744 18.7 29.95 A 0.72 0.72 0 0 1 18.521 30.106 Q 18.339 30.221 18.042 30.298 A 3.131 3.131 0 0 1 17.925 30.325 Q 17.35 30.45 17.2 30.65 L 16.4 31.5 Q 16.4 31.786 16.784 32.138 A 3.169 3.169 0 0 0 16.975 32.3 Q 17.55 32.75 17.55 33.2 A 1.138 1.138 0 0 1 17.233 33.992 A 1.552 1.552 0 0 1 17.15 34.075 A 1.445 1.445 0 0 1 16.767 34.338 A 1.221 1.221 0 0 1 16.25 34.45 Q 15.886 34.45 15.5 34.201 A 2.235 2.235 0 0 1 15.425 34.15 Q 15 33.85 14.5 33.85 Q 14 33.85 13.575 34.15 A 1.918 1.918 0 0 1 13.263 34.332 Q 13.068 34.421 12.877 34.443 A 1.089 1.089 0 0 1 12.75 34.45 A 1.254 1.254 0 0 1 11.946 34.158 A 1.661 1.661 0 0 1 11.85 34.075 A 1.339 1.339 0 0 1 11.585 33.738 A 1.11 1.11 0 0 1 11.45 33.2 Q 11.45 32.758 12.006 32.316 A 2.956 2.956 0 0 1 12.025 32.3 Q 12.443 31.974 12.557 31.7 A 0.517 0.517 0 0 0 12.6 31.5 L 11.85 30.65 Q 11.7 30.45 11.1 30.325 A 2.924 2.924 0 0 1 10.825 30.255 Q 10.45 30.138 10.3 29.95 A 1.39 1.39 0 0 1 10.095 29.511 Q 10.037 29.302 10.025 29.05 Q 10.006 28.63 9.914 28.414 A 0.546 0.546 0 0 0 9.85 28.3 L 8.4 26.55 L 8.4 27.6 Q 8.4 27.812 8.847 28.327 A 8.219 8.219 0 0 0 9.025 28.525 A 3.582 3.582 0 0 1 9.321 28.885 Q 9.62 29.308 9.648 29.676 A 0.993 0.993 0 0 1 9.65 29.75 A 1.181 1.181 0 0 1 9.559 30.19 Q 9.421 30.535 9.075 30.922 A 4.379 4.379 0 0 1 9.025 30.975 Q 8.518 31.523 8.423 31.791 A 0.332 0.332 0 0 0 8.4 31.9 L 8.4 34.25 A 0.776 0.776 0 0 0 8.646 34.823 A 1.036 1.036 0 0 0 8.675 34.85 Q 8.95 35.1 9.05 35.2 Q 9.8 35.65 9.8 36.25 A 1.085 1.085 0 0 1 9.701 36.72 A 1.08 1.08 0 0 1 9.425 37.075 A 1.321 1.321 0 0 1 8.668 37.393 A 1.733 1.733 0 0 1 8.5 37.4 A 1.625 1.625 0 0 1 8.061 37.337 Q 7.88 37.286 7.69 37.195 A 2.777 2.777 0 0 1 7.65 37.175 Q 7.2 36.95 6.75 36.95 A 1.915 1.915 0 0 0 6.061 37.082 A 2.352 2.352 0 0 0 5.85 37.175 Q 5.427 37.387 5.048 37.4 A 1.439 1.439 0 0 1 5 37.4 A 1.542 1.542 0 0 1 4.538 37.334 A 1.285 1.285 0 0 1 4.075 37.075 A 1.037 1.037 0 0 1 3.703 36.328 A 1.281 1.281 0 0 1 3.7 36.25 Q 3.7 35.752 4.217 35.358 A 2.52 2.52 0 0 1 4.45 35.2 A 3.852 3.852 0 0 1 4.509 35.143 Q 4.617 35.04 4.825 34.85 A 0.868 0.868 0 0 0 5.016 34.608 A 0.766 0.766 0 0 0 5.1 34.25 Z M 12.85 12.85 L 14.5 10.85 L 16.15 12.85 L 16.95 12.15 L 15.05 9.9 L 15.05 8.8 A 0.648 0.648 0 0 0 15.02 8.594 Q 14.922 8.3 14.5 8.3 A 0.877 0.877 0 0 0 14.29 8.324 Q 13.95 8.408 13.95 8.8 L 13.95 9.9 L 12.05 12.15 L 12.85 12.85 Z M 15.05 32.9 L 15.05 31.8 L 16.95 29.55 L 16.15 28.85 L 14.5 30.85 L 12.85 28.85 L 12.05 29.55 L 13.95 31.8 L 13.95 32.9 A 0.648 0.648 0 0 0 13.981 33.107 Q 14.079 33.4 14.5 33.4 A 0.877 0.877 0 0 0 14.711 33.377 Q 15.05 33.293 15.05 32.9 Z M 6 28.25 L 7.5 28.25 L 7.5 24.15 A 1.311 1.311 0 0 0 7.79 23.88 A 1.002 1.002 0 0 0 8 23.25 A 0.968 0.968 0 0 0 7.708 22.553 A 1.351 1.351 0 0 0 7.625 22.475 Q 7.25 22.15 6.75 22.15 Q 6.25 22.15 5.875 22.475 A 1.168 1.168 0 0 0 5.636 22.754 A 0.944 0.944 0 0 0 5.5 23.25 A 1.019 1.019 0 0 0 5.856 24.036 A 1.482 1.482 0 0 0 6 24.15 L 6 28.25 Z M 21.5 28.25 L 23 28.25 L 23 24.15 A 1.311 1.311 0 0 0 23.29 23.88 A 1.002 1.002 0 0 0 23.5 23.25 A 0.968 0.968 0 0 0 23.208 22.553 A 1.351 1.351 0 0 0 23.125 22.475 Q 22.75 22.15 22.25 22.15 Q 21.75 22.15 21.375 22.475 A 1.168 1.168 0 0 0 21.136 22.754 A 0.944 0.944 0 0 0 21 23.25 A 1.019 1.019 0 0 0 21.356 24.036 A 1.482 1.482 0 0 0 21.5 24.15 L 21.5 28.25 Z M 6 10.5 L 7.5 10.5 L 7.5 6.4 A 1.311 1.311 0 0 0 7.79 6.13 A 1.002 1.002 0 0 0 8 5.5 A 0.968 0.968 0 0 0 7.708 4.803 A 1.351 1.351 0 0 0 7.625 4.725 Q 7.25 4.4 6.75 4.4 Q 6.25 4.4 5.875 4.725 A 1.168 1.168 0 0 0 5.636 5.004 A 0.944 0.944 0 0 0 5.5 5.5 A 1.019 1.019 0 0 0 5.856 6.286 A 1.482 1.482 0 0 0 6 6.4 L 6 10.5 Z M 21.5 10.5 L 23 10.5 L 23 6.4 A 1.311 1.311 0 0 0 23.29 6.13 A 1.002 1.002 0 0 0 23.5 5.5 A 0.968 0.968 0 0 0 23.208 4.803 A 1.351 1.351 0 0 0 23.125 4.725 Q 22.75 4.4 22.25 4.4 Q 21.75 4.4 21.375 4.725 A 1.168 1.168 0 0 0 21.136 5.004 A 0.944 0.944 0 0 0 21 5.5 A 1.019 1.019 0 0 0 21.356 6.286 A 1.482 1.482 0 0 0 21.5 6.4 L 21.5 10.5 Z M 7.5 35.65 L 7.5 31.25 L 6 31.25 L 6 35.65 A 0.8 0.8 0 0 0 6.044 35.925 Q 6.172 36.276 6.679 36.299 A 1.608 1.608 0 0 0 6.75 36.3 A 1.259 1.259 0 0 0 7.034 36.272 Q 7.421 36.182 7.487 35.812 A 0.926 0.926 0 0 0 7.5 35.65 Z M 23 35.65 L 23 31.25 L 21.5 31.25 L 21.5 35.65 A 0.8 0.8 0 0 0 21.544 35.925 Q 21.672 36.276 22.179 36.299 A 1.608 1.608 0 0 0 22.25 36.3 A 1.259 1.259 0 0 0 22.534 36.272 Q 22.921 36.182 22.987 35.812 A 0.926 0.926 0 0 0 23 35.65 Z M 7.5 17.9 L 7.5 13.5 L 6 13.5 L 6 17.9 A 0.8 0.8 0 0 0 6.044 18.175 Q 6.172 18.526 6.679 18.549 A 1.608 1.608 0 0 0 6.75 18.55 A 1.259 1.259 0 0 0 7.034 18.522 Q 7.421 18.432 7.487 18.062 A 0.926 0.926 0 0 0 7.5 17.9 Z M 23 17.9 L 23 13.5 L 21.5 13.5 L 21.5 17.9 A 0.8 0.8 0 0 0 21.544 18.175 Q 21.672 18.526 22.179 18.549 A 1.608 1.608 0 0 0 22.25 18.55 A 1.259 1.259 0 0 0 22.534 18.522 Q 22.921 18.432 22.987 18.062 A 0.926 0.926 0 0 0 23 17.9 Z M 10.9 28.2 L 11.75 27.5 L 9.1 24.35 Q 8.678 24.702 8.553 24.98 A 0.538 0.538 0 0 0 8.5 25.2 L 8.5 25.35 L 10.9 28.2 Z M 20.5 16.5 L 20.5 16.35 L 18.1 13.5 L 17.25 14.2 L 19.9 17.35 Q 20.323 16.999 20.448 16.721 A 0.538 0.538 0 0 0 20.5 16.5 Z M 18.1 28.2 L 20.5 25.35 L 20.5 25.2 Q 20.5 24.85 19.9 24.35 L 17.25 27.5 L 18.1 28.2 Z M 9.1 17.35 L 11.75 14.2 L 10.9 13.5 L 8.5 16.35 L 8.5 16.5 Q 8.5 16.85 9.1 17.35 Z M 21.1 11.75 L 23.4 11.75 Q 23.6 11.75 23.75 11.625 A 0.525 0.525 0 0 0 23.83 11.545 Q 23.874 11.488 23.89 11.426 A 0.29 0.29 0 0 0 23.9 11.35 A 0.34 0.34 0 0 0 23.859 11.178 Q 23.78 11.041 23.55 11.01 A 1.112 1.112 0 0 0 23.4 11 L 21.1 11 Q 20.614 11 20.601 11.332 A 0.47 0.47 0 0 0 20.6 11.35 Q 20.6 11.75 21.1 11.75 Z M 21.1 13 L 23.4 13 Q 23.6 13 23.75 12.875 A 0.525 0.525 0 0 0 23.83 12.795 Q 23.874 12.738 23.89 12.676 A 0.29 0.29 0 0 0 23.9 12.6 A 0.34 0.34 0 0 0 23.859 12.428 Q 23.78 12.291 23.55 12.26 A 1.112 1.112 0 0 0 23.4 12.25 L 21.1 12.25 Q 20.614 12.25 20.601 12.582 A 0.47 0.47 0 0 0 20.6 12.6 Q 20.6 13 21.1 13 Z M 21.1 29.5 L 23.4 29.5 Q 23.6 29.5 23.75 29.375 A 0.525 0.525 0 0 0 23.83 29.295 Q 23.874 29.238 23.89 29.176 A 0.29 0.29 0 0 0 23.9 29.1 A 0.34 0.34 0 0 0 23.859 28.928 Q 23.78 28.791 23.55 28.76 A 1.112 1.112 0 0 0 23.4 28.75 L 21.1 28.75 Q 20.614 28.75 20.601 29.082 A 0.47 0.47 0 0 0 20.6 29.1 Q 20.6 29.5 21.1 29.5 Z M 21.1 30.75 L 23.4 30.75 Q 23.6 30.75 23.75 30.625 A 0.525 0.525 0 0 0 23.83 30.545 Q 23.874 30.488 23.89 30.426 A 0.29 0.29 0 0 0 23.9 30.35 A 0.34 0.34 0 0 0 23.859 30.178 Q 23.78 30.041 23.55 30.01 A 1.112 1.112 0 0 0 23.4 30 L 21.1 30 Q 20.614 30 20.601 30.332 A 0.47 0.47 0 0 0 20.6 30.35 Q 20.6 30.75 21.1 30.75 Z M 5.6 11.75 L 7.9 11.75 Q 8.1 11.75 8.25 11.625 A 0.525 0.525 0 0 0 8.33 11.545 Q 8.374 11.488 8.39 11.426 A 0.29 0.29 0 0 0 8.4 11.35 A 0.34 0.34 0 0 0 8.359 11.178 Q 8.28 11.041 8.05 11.01 A 1.112 1.112 0 0 0 7.9 11 L 5.6 11 Q 5.114 11 5.101 11.332 A 0.47 0.47 0 0 0 5.1 11.35 Q 5.1 11.75 5.6 11.75 Z M 5.6 13 L 7.9 13 Q 8.1 13 8.25 12.875 A 0.525 0.525 0 0 0 8.33 12.795 Q 8.374 12.738 8.39 12.676 A 0.29 0.29 0 0 0 8.4 12.6 A 0.34 0.34 0 0 0 8.359 12.428 Q 8.28 12.291 8.05 12.26 A 1.112 1.112 0 0 0 7.9 12.25 L 5.6 12.25 Q 5.114 12.25 5.101 12.582 A 0.47 0.47 0 0 0 5.1 12.6 Q 5.1 13 5.6 13 Z M 5.6 29.5 L 7.9 29.5 Q 8.1 29.5 8.25 29.375 A 0.525 0.525 0 0 0 8.33 29.295 Q 8.374 29.238 8.39 29.176 A 0.29 0.29 0 0 0 8.4 29.1 A 0.34 0.34 0 0 0 8.359 28.928 Q 8.28 28.791 8.05 28.76 A 1.112 1.112 0 0 0 7.9 28.75 L 5.6 28.75 Q 5.114 28.75 5.101 29.082 A 0.47 0.47 0 0 0 5.1 29.1 Q 5.1 29.5 5.6 29.5 Z M 5.6 30.75 L 7.9 30.75 Q 8.1 30.75 8.25 30.625 A 0.525 0.525 0 0 0 8.33 30.545 Q 8.374 30.488 8.39 30.426 A 0.29 0.29 0 0 0 8.4 30.35 A 0.34 0.34 0 0 0 8.359 30.178 Q 8.28 30.041 8.05 30.01 A 1.112 1.112 0 0 0 7.9 30 L 5.6 30 Q 5.114 30 5.101 30.332 A 0.47 0.47 0 0 0 5.1 30.35 Q 5.1 30.75 5.6 30.75 Z M 11.65 29.25 L 12.65 28.4 A 0.902 0.902 0 0 0 12.754 28.279 Q 12.804 28.206 12.829 28.133 A 0.419 0.419 0 0 0 12.85 28 A 0.595 0.595 0 0 0 12.837 27.869 Q 12.796 27.687 12.624 27.656 A 0.424 0.424 0 0 0 12.55 27.65 A 0.676 0.676 0 0 0 12.377 27.672 A 0.492 0.492 0 0 0 12.15 27.8 L 11.15 28.65 A 1.857 1.857 0 0 0 11.053 28.755 Q 10.905 28.928 10.901 29.043 A 0.185 0.185 0 0 0 10.9 29.05 A 0.244 0.244 0 0 0 10.916 29.132 Q 10.939 29.199 11 29.275 Q 11.1 29.4 11.25 29.4 A 0.58 0.58 0 0 0 11.488 29.348 Q 11.564 29.314 11.64 29.258 A 1.026 1.026 0 0 0 11.65 29.25 Z M 12.65 13.3 L 11.65 12.45 A 1.75 1.75 0 0 0 11.525 12.381 Q 11.361 12.3 11.25 12.3 A 0.302 0.302 0 0 0 11.023 12.4 A 0.41 0.41 0 0 0 11 12.425 Q 10.9 12.55 10.9 12.65 A 0.256 0.256 0 0 0 10.921 12.746 Q 10.973 12.873 11.15 13.05 L 12.15 13.9 A 0.502 0.502 0 0 0 12.425 14.04 A 0.716 0.716 0 0 0 12.55 14.05 Q 12.835 14.05 12.85 13.736 A 0.754 0.754 0 0 0 12.85 13.7 Q 12.85 13.5 12.65 13.3 Z M 17.85 28.65 L 16.85 27.8 A 0.502 0.502 0 0 0 16.576 27.661 A 0.716 0.716 0 0 0 16.45 27.65 Q 16.166 27.65 16.151 27.965 A 0.754 0.754 0 0 0 16.15 28 Q 16.15 28.2 16.35 28.4 L 17.35 29.25 A 1.75 1.75 0 0 0 17.476 29.32 Q 17.64 29.4 17.75 29.4 A 0.302 0.302 0 0 0 17.978 29.301 A 0.41 0.41 0 0 0 18 29.275 Q 18.1 29.15 18.1 29.05 A 0.256 0.256 0 0 0 18.08 28.955 Q 18.028 28.828 17.85 28.65 Z M 16.85 13.9 L 17.85 13.05 A 1.857 1.857 0 0 0 17.948 12.946 Q 18.096 12.773 18.1 12.658 A 0.185 0.185 0 0 0 18.1 12.65 A 0.244 0.244 0 0 0 18.085 12.569 Q 18.061 12.502 18.001 12.426 Q 17.9 12.3 17.75 12.3 A 0.415 0.415 0 0 0 17.648 12.315 Q 17.551 12.34 17.425 12.408 A 1.931 1.931 0 0 0 17.35 12.45 L 16.35 13.3 A 0.902 0.902 0 0 0 16.247 13.422 Q 16.197 13.495 16.172 13.568 A 0.419 0.419 0 0 0 16.15 13.7 A 0.595 0.595 0 0 0 16.164 13.832 Q 16.205 14.014 16.377 14.044 A 0.424 0.424 0 0 0 16.45 14.05 A 0.676 0.676 0 0 0 16.624 14.029 A 0.492 0.492 0 0 0 16.85 13.9 Z" vector-effect="non-scaling-stroke"/></g></svg></svg>