<svg width="58" height="83" viewBox="0 0 29 41.5" xmlns="http://www.w3.org/2000/svg"><g id="svgGroup" stroke-linecap="round" fill-rule="evenodd" font-size="9pt" stroke="#000" stroke-width="0.05mm" fill="#000" style="stroke:#000;stroke-width:0.05mm;fill:#000"><path d="M 0 38.5 L 0 3 A 2.89 2.89 0 0 1 0.848 0.903 A 3.442 3.442 0 0 1 0.875 0.875 A 2.889 2.889 0 0 1 2.961 0.001 A 3.547 3.547 0 0 1 3 0 L 26 0 A 2.89 2.89 0 0 1 28.098 0.848 A 3.442 3.442 0 0 1 28.125 0.875 A 2.889 2.889 0 0 1 29 2.961 A 3.547 3.547 0 0 1 29 3 L 29 38.5 A 2.89 2.89 0 0 1 28.153 40.598 A 3.442 3.442 0 0 1 28.125 40.625 A 2.889 2.889 0 0 1 26.039 41.5 A 3.547 3.547 0 0 1 26 41.5 L 3 41.5 A 2.89 2.89 0 0 1 0.903 40.653 A 3.442 3.442 0 0 1 0.875 40.625 A 2.889 2.889 0 0 1 0.001 38.539 A 3.547 3.547 0 0 1 0 38.5 Z M 3 40 L 26 40 A 1.628 1.628 0 0 0 26.542 39.914 A 1.403 1.403 0 0 0 27.075 39.575 A 1.436 1.436 0 0 0 27.498 38.602 A 1.91 1.91 0 0 0 27.5 38.5 L 27.5 3 A 1.628 1.628 0 0 0 27.414 2.459 A 1.403 1.403 0 0 0 27.075 1.925 A 1.436 1.436 0 0 0 26.102 1.503 A 1.91 1.91 0 0 0 26 1.5 L 3 1.5 A 1.628 1.628 0 0 0 2.459 1.587 A 1.403 1.403 0 0 0 1.925 1.925 A 1.436 1.436 0 0 0 1.503 2.899 A 1.91 1.91 0 0 0 1.5 3 L 1.5 38.5 A 1.628 1.628 0 0 0 1.587 39.042 A 1.403 1.403 0 0 0 1.925 39.575 A 1.436 1.436 0 0 0 2.899 39.998 A 1.91 1.91 0 0 0 3 40 Z" vector-effect="non-scaling-stroke"/></g><text x="3.5" y="15.1" font-family="'Noto Serif', 'Noto Serif JP', 'Yu Mincho', 'Hiragino Mincho ProN', Georgia, serif" font-size="14.6" font-weight="700" fill="#111111">S</text><svg x="10.8" y="15.9" width="15.9" height="20.9" viewBox="4.908 7.890 19.184 25.669" overflow="visible" preserveAspectRatio="xMidYMid meet"><g id="svgGroup" stroke-linecap="round" fill-rule="evenodd" font-size="9pt" stroke="#000" stroke-width="0.05mm" fill="#000" style="stroke:#000;stroke-width:0.05mm;fill:#000"><path d="M 12.05 21.55 L 12.9 21.2 A 35.95 35.95 0 0 0 13.3 18.69 A 30.871 30.871 0 0 0 13.4 17.75 Q 12.2 18.05 11 18.05 A 0.651 0.651 0 0 1 10.714 17.989 Q 10.582 17.925 10.482 17.795 A 0.847 0.847 0 0 1 10.45 17.75 Q 10.6 17.6 11.45 17.35 A 9.134 9.134 0 0 0 12.728 16.948 A 7.2 7.2 0 0 0 13.65 16.5 A 140.338 140.338 0 0 0 13.748 15.449 Q 13.865 14.129 13.892 13.454 A 8.923 8.923 0 0 0 13.9 13.1 A 6.671 6.671 0 0 0 13.884 12.613 Q 13.829 11.863 13.585 11.642 A 0.339 0.339 0 0 0 13.35 11.55 L 13.2 11.55 A 4.78 4.78 0 0 1 13.391 11.18 Q 13.603 10.804 13.938 10.332 A 16.13 16.13 0 0 1 14.05 10.175 A 13.167 13.167 0 0 1 14.411 9.701 Q 14.751 9.276 15.034 9.011 A 3.569 3.569 0 0 1 15.1 8.95 Q 15.4 9.05 15.975 9.75 A 8.632 8.632 0 0 1 16.827 11.003 A 9.85 9.85 0 0 1 17 11.325 Q 17.44 12.18 17.45 12.772 A 1.627 1.627 0 0 1 17.45 12.8 L 17.4 13.2 A 0.297 0.297 0 0 0 17.368 13.202 Q 17.322 13.207 17.25 13.225 A 0.734 0.734 0 0 1 17.168 13.241 Q 17.124 13.247 17.073 13.249 A 1.582 1.582 0 0 1 17 13.25 A 1.814 1.814 0 0 1 15.94 12.906 A 2.327 2.327 0 0 1 15.8 12.8 L 15.1 15.75 A 1.954 1.954 0 0 0 15.373 15.598 Q 15.747 15.354 16.25 14.85 A 9.483 9.483 0 0 1 16.514 14.63 Q 17.047 14.2 17.25 14.2 A 0.365 0.365 0 0 1 17.443 14.262 Q 17.666 14.401 17.925 14.85 A 5.769 5.769 0 0 1 18.111 15.196 Q 18.315 15.613 18.35 15.9 A 10.876 10.876 0 0 1 17.426 16.338 Q 16.285 16.819 14.6 17.3 Q 14.15 18.45 13.7 19.9 A 2.975 2.975 0 0 0 14.333 19.718 Q 14.612 19.604 14.901 19.43 A 5.006 5.006 0 0 0 14.95 19.4 A 13.456 13.456 0 0 0 15.391 19.116 Q 15.913 18.766 16.6 18.25 Q 17.7 17.3 18.8 16.7 A 0.462 0.462 0 0 1 18.854 16.733 Q 18.939 16.792 19.096 16.931 A 8.711 8.711 0 0 1 19.2 17.025 A 4.255 4.255 0 0 1 19.389 17.209 Q 19.552 17.378 19.65 17.525 Q 19.764 17.695 19.791 17.851 A 0.566 0.566 0 0 1 19.8 17.95 Q 19.8 18.35 19.425 18.675 Q 19.05 19 18.9 19.25 A 9.014 9.014 0 0 1 19.515 19.27 Q 20.096 19.31 20.468 19.431 A 1.707 1.707 0 0 1 20.7 19.525 A 1.451 1.451 0 0 1 21.007 19.74 Q 21.45 20.132 22 21.05 L 22.65 22 Q 23 22.45 23.15 22.725 A 1.171 1.171 0 0 1 23.266 23.048 Q 23.296 23.189 23.3 23.352 A 2.073 2.073 0 0 1 23.3 23.4 Q 23.3 23.967 22.899 24.824 A 7.751 7.751 0 0 1 22.85 24.925 A 22.151 22.151 0 0 1 22.591 25.44 Q 22.288 26.023 21.839 26.825 A 99.624 99.624 0 0 1 21.4 27.6 L 20.25 29.75 Q 19.43 31.296 18.982 31.885 A 3.621 3.621 0 0 1 18.95 31.925 A 1.791 1.791 0 0 1 18.639 32.241 A 1.179 1.179 0 0 1 17.9 32.5 Q 17.451 32.5 17.123 32.359 A 1.402 1.402 0 0 1 17.05 32.325 A 2.862 2.862 0 0 1 16.849 32.213 Q 16.518 32.011 15.955 31.591 A 27.602 27.602 0 0 1 15.9 31.55 A 62.193 62.193 0 0 0 14.492 30.557 Q 13.927 30.171 13.417 29.844 A 29.116 29.116 0 0 0 12.45 29.25 A 2.988 2.988 0 0 1 13.386 29.396 A 2.838 2.838 0 0 1 13.4 29.4 A 4.761 4.761 0 0 0 13.443 29.051 Q 13.5 28.413 13.5 27.2 A 6.944 6.944 0 0 0 12.811 27.393 A 8.005 8.005 0 0 0 12.575 27.475 A 5.837 5.837 0 0 1 12.362 27.55 Q 12.052 27.65 11.9 27.65 Q 11.55 27.65 11.3 27.15 Q 11.542 27.006 12.203 26.814 A 13.561 13.561 0 0 1 12.25 26.8 A 22.135 22.135 0 0 0 12.903 26.604 Q 13.211 26.505 13.483 26.407 A 13.36 13.36 0 0 0 13.5 26.4 L 13.4 25.7 L 13.3 25 A 6.015 6.015 0 0 0 12.746 25.166 A 4.406 4.406 0 0 0 12.25 25.375 Q 11.818 25.592 11.709 25.6 A 0.108 0.108 0 0 1 11.7 25.6 A 0.974 0.974 0 0 1 11.509 25.583 Q 11.34 25.549 11.225 25.45 A 1.849 1.849 0 0 1 11.087 25.319 Q 11.019 25.248 10.969 25.177 A 1.074 1.074 0 0 1 10.95 25.15 A 1.413 1.413 0 0 1 11.156 25.01 Q 11.514 24.801 12.275 24.52 A 22.796 22.796 0 0 1 12.75 24.35 A 2.794 2.794 0 0 0 12.474 23.41 Q 12.3 23.051 12.021 22.685 A 5.97 5.97 0 0 0 11.7 22.3 Q 11 22.5 10.05 23.025 A 6.954 6.954 0 0 0 9.728 23.214 Q 9.268 23.502 9.145 23.71 A 0.28 0.28 0 0 0 9.1 23.85 Q 9.1 24.639 10.004 26.416 A 23.996 23.996 0 0 0 10.15 26.7 A 1.095 1.095 0 0 1 10.195 26.775 Q 10.298 26.961 10.513 27.441 A 33.209 33.209 0 0 1 10.55 27.525 A 17.677 17.677 0 0 1 10.758 28.011 Q 10.916 28.397 11.025 28.725 A 4.564 4.564 0 0 1 11.118 29.037 Q 11.158 29.196 11.179 29.335 A 1.816 1.816 0 0 1 11.2 29.6 Q 11.2 29.95 10.9 30.225 Q 10.68 30.428 10.46 30.481 A 0.671 0.671 0 0 1 10.3 30.5 A 0.806 0.806 0 0 1 9.875 30.37 Q 9.538 30.162 9.2 29.625 A 10.27 10.27 0 0 1 8.842 29.003 Q 8.489 28.343 8.084 27.412 A 36.644 36.644 0 0 1 7.95 27.1 A 23.514 23.514 0 0 0 7.768 26.701 Q 7.681 26.513 7.599 26.347 A 14.055 14.055 0 0 0 7.575 26.3 A 11.406 11.406 0 0 1 7.455 26.052 Q 7.363 25.857 7.3 25.7 A 25.033 25.033 0 0 1 6.115 23.112 A 21.619 21.619 0 0 1 5.7 21.95 Q 5.747 21.904 5.815 21.858 A 1.144 1.144 0 0 1 5.825 21.85 A 0.298 0.298 0 0 1 5.965 21.802 A 0.375 0.375 0 0 1 6 21.8 Q 6.35 21.8 6.75 21.975 A 6.066 6.066 0 0 1 7.4 22.309 A 6.834 6.834 0 0 1 7.55 22.4 A 46.009 46.009 0 0 0 7.845 22.572 Q 8.357 22.868 8.513 22.936 A 0.479 0.479 0 0 0 8.55 22.95 A 316.227 316.227 0 0 0 9.118 22.737 Q 10.898 22.066 11.221 21.914 A 1.235 1.235 0 0 0 11.25 21.9 A 8.933 8.933 0 0 0 10.699 21.391 Q 10.402 21.141 10.119 20.954 A 4.541 4.541 0 0 0 9.825 20.775 Q 9.15 20.4 8.4 20.15 A 5.081 5.081 0 0 1 8.155 20.062 Q 7.65 19.865 7.65 19.7 A 0.521 0.521 0 0 1 7.671 19.55 A 0.41 0.41 0 0 1 7.775 19.375 Q 7.865 19.286 7.941 19.286 A 0.131 0.131 0 0 1 8 19.3 A 10.185 10.185 0 0 1 8.124 19.351 Q 8.457 19.49 9.35 19.875 A 21.141 21.141 0 0 1 10.116 20.223 Q 10.469 20.393 10.768 20.556 A 9.616 9.616 0 0 1 11.15 20.775 Q 11.7 21.109 11.941 21.396 A 1.057 1.057 0 0 1 12.05 21.55 Z M 18.8 27 L 19.35 25.85 Q 19.672 25.207 19.897 24.676 A 13.397 13.397 0 0 0 20 24.425 A 3.76 3.76 0 0 0 20.18 23.856 A 2.755 2.755 0 0 0 20.25 23.25 A 0.877 0.877 0 0 0 20.185 22.94 Q 20.018 22.504 19.425 21.875 A 586.521 586.521 0 0 0 19.231 21.669 Q 18.588 20.988 18.5 20.9 A 0.744 0.744 0 0 0 18.398 20.875 Q 18.292 20.856 18.141 20.852 A 3.193 3.193 0 0 0 18.05 20.85 Q 17.781 20.85 17.63 20.88 A 0.65 0.65 0 0 0 17.55 20.9 A 15.054 15.054 0 0 1 17.432 21.075 Q 17.247 21.344 16.928 21.792 A 118.596 118.596 0 0 1 16.85 21.9 Q 16.35 22.6 16.05 23.3 A 24.197 24.197 0 0 1 16.507 23.218 Q 17.144 23.109 17.454 23.101 A 1.826 1.826 0 0 1 17.5 23.1 A 0.776 0.776 0 0 1 17.963 23.254 A 1.037 1.037 0 0 1 18.05 23.325 A 0.821 0.821 0 0 1 18.208 23.513 A 0.645 0.645 0 0 1 18.3 23.85 A 0.246 0.246 0 0 1 18.143 24.086 Q 18.006 24.15 17.75 24.15 A 11.221 11.221 0 0 0 16.142 24.261 A 9.031 9.031 0 0 0 15 24.5 A 0.686 0.686 0 0 0 14.98 24.594 Q 14.941 24.835 14.879 25.587 A 72.182 72.182 0 0 0 14.85 25.95 A 27.372 27.372 0 0 0 15.504 25.77 Q 15.767 25.694 15.997 25.62 A 12.652 12.652 0 0 0 16.425 25.475 Q 16.981 25.276 17.122 25.253 A 0.192 0.192 0 0 1 17.15 25.25 Q 17.433 25.25 17.604 25.471 A 0.729 0.729 0 0 1 17.625 25.5 Q 17.8 25.75 17.8 26.05 A 0.595 0.595 0 0 1 17.787 26.182 Q 17.746 26.364 17.574 26.394 A 0.424 0.424 0 0 1 17.5 26.4 A 14.234 14.234 0 0 0 16.936 26.411 Q 16.667 26.422 16.434 26.443 A 6.644 6.644 0 0 0 16.15 26.475 A 7.858 7.858 0 0 0 15.71 26.549 Q 15.466 26.597 15.191 26.664 A 15.683 15.683 0 0 0 14.85 26.75 Q 14.756 28.828 14.528 29.657 A 2.842 2.842 0 0 1 14.5 29.75 A 6.226 6.226 0 0 1 14.642 29.81 Q 14.915 29.927 15.45 30.175 A 7.435 7.435 0 0 0 15.757 30.31 Q 16.193 30.489 16.422 30.5 A 0.607 0.607 0 0 0 16.45 30.5 A 0.27 0.27 0 0 0 16.583 30.455 Q 16.842 30.3 17.34 29.624 A 12.505 12.505 0 0 0 17.375 29.575 Q 17.829 28.954 18.316 28.005 A 23.352 23.352 0 0 0 18.8 27 Z M 13.35 24.15 A 8.528 8.528 0 0 0 14.154 23.951 Q 14.55 23.831 14.884 23.68 A 4.776 4.776 0 0 0 15.05 23.6 A 22.501 22.501 0 0 0 15.64 22.423 Q 15.975 21.697 16.2 21.05 Q 13.8 21.35 12.35 22 Q 13.05 23.1 13.35 24.15 Z M 13.35 21.1 Q 15.75 20.45 16.7 19.8 A 3.403 3.403 0 0 0 16.744 19.66 Q 16.8 19.463 16.8 19.35 A 0.315 0.315 0 0 0 16.772 19.212 Q 16.708 19.079 16.498 19.056 A 0.875 0.875 0 0 0 16.4 19.05 A 0.346 0.346 0 0 0 16.316 19.066 Q 16.117 19.122 15.565 19.377 A 28.113 28.113 0 0 0 15.3 19.5 A 13.274 13.274 0 0 1 14.562 19.825 Q 14.207 19.967 13.886 20.068 A 6.95 6.95 0 0 1 13.6 20.15 Q 13.518 20.315 13.402 20.854 A 16.343 16.343 0 0 0 13.35 21.1 Z" vector-effect="non-scaling-stroke"/></g></svg></svg>