<svg width="58" height="83" viewBox="0 0 29 41.5" xmlns="http://www.w3.org/2000/svg"><g id="svgGroup" stroke-linecap="round" fill-rule="evenodd" font-size="9pt" stroke="#000" stroke-width="0.05mm" fill="#000" style="stroke:#000;stroke-width:0.05mm;fill:#000"><path d="M 0 38.5 L 0 3 A 2.89 2.89 0 0 1 0.848 0.903 A 3.442 3.442 0 0 1 0.875 0.875 A 2.889 2.889 0 0 1 2.961 0.001 A 3.547 3.547 0 0 1 3 0 L 26 0 A 2.89 2.89 0 0 1 28.098 0.848 A 3.442 3.442 0 0 1 28.125 0.875 A 2.889 2.889 0 0 1 29 2.961 A 3.547 3.547 0 0 1 29 3 L 29 38.5 A 2.89 2.89 0 0 1 28.153 40.598 A 3.442 3.442 0 0 1 28.125 40.625 A 2.889 2.889 0 0 1 26.039 41.5 A 3.547 3.547 0 0 1 26 41.5 L 3 41.5 A 2.89 2.89 0 0 1 0.903 40.653 A 3.442 3.442 0 0 1 0.875 40.625 A 2.889 2.889 0 0 1 0.001 38.539 A 3.547 3.547 0 0 1 0 38.5 Z M 3 40 L 26 40 A 1.628 1.628 0 0 0 26.542 39.914 A 1.403 1.403 0 0 0 27.075 39.575 A 1.436 1.436 0 0 0 27.498 38.602 A 1.91 1.91 0 0 0 27.5 38.5 L 27.5 3 A 1.628 1.628 0 0 0 27.414 2.459 A 1.403 1.403 0 0 0 27.075 1.925 A 1.436 1.436 0 0 0 26.102 1.503 A 1.91 1.91 0 0 0 26 1.5 L 3 1.5 A 1.628 1.628 0 0 0 2.459 1.587 A 1.403 1.403 0 0 0 1.925 1.925 A 1.436 1.436 0 0 0 1.503 2.899 A 1.91 1.91 0 0 0 1.5 3 L 1.5 38.5 A 1.628 1.628 0 0 0 1.587 39.042 A 1.403 1.403 0 0 0 1.925 39.575 A 1.436 1.436 0 0 0 2.899 39.998 A 1.91 1.91 0 0 0 3 40 Z" vector-effect="non-scaling-stroke"/></g><text x="3.5" y="15.1" font-family="'Noto Serif', 'Noto Serif JP', 'Yu Mincho', 'Hiragino Mincho ProN', Georgia, serif" font-size="14.6" font-weight="700" fill="#111111">W</text><svg x="10.8" y="15.9" width="15.9" height="20.9" viewBox="4.745 10.883 19.511 19.784" overflow="visible" preserveAspectRatio="xMidYMid meet"><g id="svgGroup" stroke-linecap="round" fill-rule="evenodd" font-size="9pt" stroke="#000" stroke-width="0.05mm" fill="#000" style="stroke:#000;stroke-width:0.05mm;fill:#000"><path d="M 14.75 15.8 L 15.5 15.55 A 5.781 5.781 0 0 0 15.917 15.202 Q 16.312 14.836 16.483 14.505 A 1.335 1.335 0 0 0 16.55 14.35 Q 16.3 14.05 14.85 14.05 A 19.054 19.054 0 0 0 13.018 14.148 Q 10.81 14.363 7.75 15.05 A 6.776 6.776 0 0 0 7.468 15.091 Q 7.247 15.129 7.075 15.175 A 3.318 3.318 0 0 1 6.931 15.212 Q 6.799 15.241 6.705 15.248 A 0.737 0.737 0 0 1 6.65 15.25 Q 5.6 15.25 5.55 14.65 Q 6.748 14.42 9.302 13.808 A 268.56 268.56 0 0 0 9.75 13.7 L 11.45 13.35 A 400.887 400.887 0 0 1 13.106 12.964 Q 18.569 11.7 19.4 11.7 Q 19.8 11.7 20.1 11.85 A 3.072 3.072 0 0 1 20.641 12.198 A 3.395 3.395 0 0 1 20.675 12.225 A 4.261 4.261 0 0 0 21.069 12.51 A 5.158 5.158 0 0 0 21.3 12.65 A 16.929 16.929 0 0 1 21.875 12.986 Q 22.421 13.321 22.75 13.594 A 2.88 2.88 0 0 1 23 13.825 A 1.838 1.838 0 0 1 23.279 14.2 A 1.328 1.328 0 0 1 23.45 14.85 A 0.864 0.864 0 0 1 23.413 15.116 Q 23.289 15.5 22.75 15.5 A 10.843 10.843 0 0 1 21.802 15.456 Q 21.305 15.412 20.746 15.325 A 20.488 20.488 0 0 1 20.3 15.25 Q 18.6 15.05 17.9 15.05 A 1.441 1.441 0 0 0 17.794 15.055 Q 17.622 15.068 17.307 15.117 A 18.563 18.563 0 0 0 17.1 15.15 Q 16.865 15.297 16.751 15.462 A 0.585 0.585 0 0 0 16.65 15.7 Q 17.15 15.95 17.35 16.15 A 0.662 0.662 0 0 1 17.527 16.478 A 0.992 0.992 0 0 1 17.55 16.7 Q 17.55 16.899 17.486 17.025 A 0.373 0.373 0 0 1 17.35 17.175 A 0.82 0.82 0 0 1 17.215 17.242 Q 17.066 17.3 16.836 17.344 A 4.57 4.57 0 0 1 16.65 17.375 A 6.697 6.697 0 0 0 16.389 17.42 Q 16.08 17.479 15.9 17.55 Q 15.69 17.971 15.586 18.569 A 5.864 5.864 0 0 0 15.55 18.8 A 5.775 5.775 0 0 0 16.181 18.647 Q 16.582 18.524 16.9 18.35 Q 17.318 18.123 17.678 18.068 A 1.476 1.476 0 0 1 17.9 18.05 A 1.154 1.154 0 0 1 18.204 18.098 Q 18.658 18.224 19.384 18.683 A 11.168 11.168 0 0 1 19.45 18.725 Q 20.5 19.4 21.35 20.25 A 5.323 5.323 0 0 1 21.717 20.654 Q 22.061 21.076 22.16 21.427 A 1.003 1.003 0 0 1 22.2 21.7 A 1.013 1.013 0 0 1 22.159 21.994 A 0.864 0.864 0 0 1 22.05 22.225 Q 21.9 22.45 21.5 22.8 Q 20.565 23.686 19.606 24.96 A 23.868 23.868 0 0 0 19.575 25 Q 18.6 26.3 17.45 28.95 A 1.475 1.475 0 0 1 17.167 29.378 A 1.921 1.921 0 0 1 16.95 29.575 A 0.924 0.924 0 0 1 16.694 29.711 Q 16.311 29.85 15.6 29.85 A 5.325 5.325 0 0 1 15.262 29.839 Q 14.91 29.816 14.45 29.75 A 11.885 11.885 0 0 0 13.954 29.69 Q 13.709 29.665 13.496 29.656 A 5.739 5.739 0 0 0 13.25 29.65 A 6.539 6.539 0 0 0 12.909 29.66 Q 12.514 29.681 11.986 29.746 A 20.615 20.615 0 0 0 11.95 29.75 A 14.908 14.908 0 0 1 11.619 29.794 Q 11.26 29.837 11 29.847 A 3.874 3.874 0 0 1 10.85 29.85 Q 9.85 29.85 9.4 29.55 Q 9.112 29.358 9.009 29.125 A 0.669 0.669 0 0 1 8.95 28.85 Q 8.95 28.55 9.3 28.375 Q 9.635 28.208 9.695 28.155 A 0.107 0.107 0 0 0 9.7 28.15 A 1040.276 1040.276 0 0 0 9.069 26.472 Q 7.797 23.097 7.35 22 Q 6.5 19.9 6.45 19.55 L 6.6 19.4 A 0.302 0.302 0 0 1 6.64 19.367 Q 6.713 19.315 6.786 19.344 A 0.175 0.175 0 0 1 6.8 19.35 Q 7.4 19.75 7.975 20.3 A 12.968 12.968 0 0 1 8.222 20.542 Q 8.559 20.882 8.682 21.071 A 0.926 0.926 0 0 1 8.7 21.1 Q 9.816 20.74 10.63 20.379 A 10.084 10.084 0 0 0 11.4 20 A 1107.815 1107.815 0 0 1 11.33 19.366 Q 11.1 17.288 11.1 17.2 A 3.259 3.259 0 0 1 11.109 16.949 Q 11.152 16.4 11.4 16.4 A 0.337 0.337 0 0 1 11.652 16.525 Q 11.848 16.739 11.975 17.323 A 5.321 5.321 0 0 1 12 17.45 Q 12.2 18.5 12.2 19.3 Q 13.85 17.6 14.55 16.6 A 0.666 0.666 0 0 1 14.554 16.542 Q 14.563 16.438 14.6 16.25 A 1.937 1.937 0 0 1 14.677 15.971 A 1.593 1.593 0 0 1 14.75 15.8 Z M 15.35 19.7 L 15.1 21.45 L 14.95 22.65 Q 14.6 25.2 14.4 28.2 L 14.75 28.25 A 0.217 0.217 0 0 0 14.781 28.247 Q 14.874 28.232 15.2 28.15 A 9.276 9.276 0 0 0 15.588 27.573 Q 16.206 26.584 17.159 24.707 A 88.361 88.361 0 0 0 17.25 24.525 A 56.627 56.627 0 0 0 17.709 23.597 Q 18.6 21.747 18.6 21.3 Q 18.6 20.744 18.068 20.26 A 2.831 2.831 0 0 0 17.875 20.1 Q 17.257 19.631 16.802 19.562 A 1.013 1.013 0 0 0 16.65 19.55 A 5.011 5.011 0 0 0 16.171 19.575 Q 15.936 19.598 15.675 19.641 A 9.815 9.815 0 0 0 15.35 19.7 Z M 14.1 22 L 14.25 19.95 L 13.25 20.2 Q 12.65 20.35 12.35 20.45 L 12.5 23 A 301.899 301.899 0 0 1 12.636 25.07 Q 12.738 26.707 12.8 28.05 L 13.6 28.1 Q 13.7 26.2 14.1 22 Z M 11.15 28 L 12 28 A 38.398 38.398 0 0 0 11.963 27.609 Q 11.932 27.3 11.9 27.05 Q 11.85 26.65 11.8 26.35 Q 11.55 25 11.55 23.8 L 11.4 20.8 A 7.592 7.592 0 0 0 10.788 21.002 Q 10.143 21.243 9.286 21.659 A 29.407 29.407 0 0 0 9 21.8 A 17.291 17.291 0 0 1 9.265 22.416 Q 9.551 23.119 9.898 24.1 A 70.968 70.968 0 0 1 10.225 25.05 Q 10.95 27.2 11.15 28 Z M 14.4 19.05 L 14.45 18.2 L 14.45 18.05 L 14.25 18 Q 13.95 18 13.65 18.2 A 2.98 2.98 0 0 0 13.323 18.997 A 3.649 3.649 0 0 0 13.25 19.35 Q 13.6 19.3 13.875 19.2 A 3.924 3.924 0 0 1 14.201 19.097 A 3.19 3.19 0 0 1 14.4 19.05 Z" vector-effect="non-scaling-stroke"/></g></svg></svg>