<svg width="58" height="83" viewBox="0 0 29 41.5" xmlns="http://www.w3.org/2000/svg"><g id="svgGroup" stroke-linecap="round" fill-rule="evenodd" font-size="9pt" stroke="#000" stroke-width="0.05mm" fill="#000" style="stroke:#000;stroke-width:0.05mm;fill:#000"><path d="M 0 38.5 L 0 3 A 2.89 2.89 0 0 1 0.848 0.903 A 3.442 3.442 0 0 1 0.875 0.875 A 2.889 2.889 0 0 1 2.961 0.001 A 3.547 3.547 0 0 1 3 0 L 26 0 A 2.89 2.89 0 0 1 28.098 0.848 A 3.442 3.442 0 0 1 28.125 0.875 A 2.889 2.889 0 0 1 29 2.961 A 3.547 3.547 0 0 1 29 3 L 29 38.5 A 2.89 2.89 0 0 1 28.153 40.598 A 3.442 3.442 0 0 1 28.125 40.625 A 2.889 2.889 0 0 1 26.039 41.5 A 3.547 3.547 0 0 1 26 41.5 L 3 41.5 A 2.89 2.89 0 0 1 0.903 40.653 A 3.442 3.442 0 0 1 0.875 40.625 A 2.889 2.889 0 0 1 0.001 38.539 A 3.547 3.547 0 0 1 0 38.5 Z M 3 40 L 26 40 A 1.628 1.628 0 0 0 26.542 39.914 A 1.403 1.403 0 0 0 27.075 39.575 A 1.436 1.436 0 0 0 27.498 38.602 A 1.91 1.91 0 0 0 27.5 38.5 L 27.5 3 A 1.628 1.628 0 0 0 27.414 2.459 A 1.403 1.403 0 0 0 27.075 1.925 A 1.436 1.436 0 0 0 26.102 1.503 A 1.91 1.91 0 0 0 26 1.5 L 3 1.5 A 1.628 1.628 0 0 0 2.459 1.587 A 1.403 1.403 0 0 0 1.925 1.925 A 1.436 1.436 0 0 0 1.503 2.899 A 1.91 1.91 0 0 0 1.5 3 L 1.5 38.5 A 1.628 1.628 0 0 0 1.587 39.042 A 1.403 1.403 0 0 0 1.925 39.575 A 1.436 1.436 0 0 0 2.899 39.998 A 1.91 1.91 0 0 0 3 40 Z M 7.367 35.967 A 4.325 4.325 0 0 0 10.5 37.25 A 5.198 5.198 0 0 0 10.521 37.25 A 4.37 4.37 0 0 0 12.85 36.6 Q 13.9 35.95 14.5 34.85 Q 15.1 35.95 16.15 36.6 A 4.321 4.321 0 0 0 16.691 36.885 A 4.458 4.458 0 0 0 18.5 37.25 A 5.391 5.391 0 0 0 18.589 37.25 A 4.296 4.296 0 0 0 21.7 35.925 A 5.281 5.281 0 0 0 21.711 35.915 A 4.372 4.372 0 0 0 23 32.75 A 5.198 5.198 0 0 0 23 32.73 A 4.37 4.37 0 0 0 22.35 30.4 Q 21.7 29.35 20.6 28.75 Q 21.7 28.15 22.35 27.1 A 4.321 4.321 0 0 0 22.635 26.56 A 4.458 4.458 0 0 0 23 24.75 A 5.198 5.198 0 0 0 23 24.73 A 4.37 4.37 0 0 0 22.35 22.4 Q 21.7 21.35 20.6 20.75 Q 21.7 20.15 22.35 19.1 A 4.321 4.321 0 0 0 22.635 18.56 A 4.458 4.458 0 0 0 23 16.75 A 5.198 5.198 0 0 0 23 16.73 A 4.37 4.37 0 0 0 22.35 14.4 Q 21.7 13.35 20.6 12.75 Q 21.7 12.15 22.35 11.1 A 4.321 4.321 0 0 0 22.635 10.56 A 4.458 4.458 0 0 0 23 8.75 Q 23 6.85 21.7 5.55 A 4.385 4.385 0 0 0 20.349 4.617 A 4.571 4.571 0 0 0 18.5 4.25 A 5.198 5.198 0 0 0 18.48 4.251 A 4.37 4.37 0 0 0 16.15 4.9 Q 15.1 5.55 14.5 6.65 Q 13.9 5.55 12.85 4.9 A 4.321 4.321 0 0 0 12.31 4.616 A 4.458 4.458 0 0 0 10.5 4.25 A 5.32 5.32 0 0 0 10.486 4.25 A 4.372 4.372 0 0 0 7.325 5.55 A 4.397 4.397 0 0 0 6.397 6.852 A 4.481 4.481 0 0 0 6 8.75 A 5.198 5.198 0 0 0 6.001 8.771 A 4.37 4.37 0 0 0 6.65 11.1 Q 7.3 12.15 8.4 12.75 Q 7.3 13.35 6.65 14.4 A 4.321 4.321 0 0 0 6.366 14.941 A 4.458 4.458 0 0 0 6 16.75 A 5.198 5.198 0 0 0 6.001 16.771 A 4.37 4.37 0 0 0 6.65 19.1 Q 7.3 20.15 8.4 20.75 Q 7.3 21.35 6.65 22.4 A 4.321 4.321 0 0 0 6.366 22.941 A 4.458 4.458 0 0 0 6 24.75 A 5.198 5.198 0 0 0 6.001 24.771 A 4.37 4.37 0 0 0 6.65 27.1 Q 7.3 28.15 8.4 28.75 Q 7.3 29.35 6.65 30.4 A 4.321 4.321 0 0 0 6.366 30.941 A 4.458 4.458 0 0 0 6 32.75 Q 6 34.6 7.325 35.925 A 5.336 5.336 0 0 0 7.367 35.967 Z M 10.5 12.25 Q 11.95 12.25 12.975 11.225 Q 14 10.2 14 8.75 Q 14 7.3 12.975 6.275 Q 11.95 5.25 10.5 5.25 Q 9.05 5.25 8.025 6.275 Q 7 7.3 7 8.75 Q 7 10.2 8.025 11.225 Q 9.05 12.25 10.5 12.25 Z M 18.5 12.25 Q 19.95 12.25 20.975 11.225 Q 22 10.2 22 8.75 Q 22 7.3 20.975 6.275 Q 19.95 5.25 18.5 5.25 Q 17.05 5.25 16.025 6.275 Q 15 7.3 15 8.75 Q 15 10.2 16.025 11.225 Q 17.05 12.25 18.5 12.25 Z M 10.5 20.25 Q 11.95 20.25 12.975 19.225 Q 14 18.2 14 16.75 Q 14 15.3 12.975 14.275 Q 11.95 13.25 10.5 13.25 Q 9.05 13.25 8.025 14.275 Q 7 15.3 7 16.75 Q 7 18.2 8.025 19.225 Q 9.05 20.25 10.5 20.25 Z M 18.5 20.25 Q 19.95 20.25 20.975 19.225 Q 22 18.2 22 16.75 Q 22 15.3 20.975 14.275 Q 19.95 13.25 18.5 13.25 Q 17.05 13.25 16.025 14.275 Q 15 15.3 15 16.75 Q 15 18.2 16.025 19.225 Q 17.05 20.25 18.5 20.25 Z M 10.5 28.25 Q 11.95 28.25 12.975 27.225 Q 14 26.2 14 24.75 Q 14 23.3 12.975 22.275 Q 11.95 21.25 10.5 21.25 Q 9.05 21.25 8.025 22.275 Q 7 23.3 7 24.75 Q 7 26.2 8.025 27.225 Q 9.05 28.25 10.5 28.25 Z M 18.5 28.25 Q 19.95 28.25 20.975 27.225 Q 22 26.2 22 24.75 Q 22 23.3 20.975 22.275 Q 19.95 21.25 18.5 21.25 Q 17.05 21.25 16.025 22.275 Q 15 23.3 15 24.75 Q 15 26.2 16.025 27.225 Q 17.05 28.25 18.5 28.25 Z M 10.5 36.25 Q 11.95 36.25 12.975 35.225 Q 14 34.2 14 32.75 Q 14 31.3 12.975 30.275 Q 11.95 29.25 10.5 29.25 Q 9.05 29.25 8.025 30.275 Q 7 31.3 7 32.75 Q 7 34.2 8.025 35.225 Q 9.05 36.25 10.5 36.25 Z M 18.5 36.25 Q 19.95 36.25 20.975 35.225 Q 22 34.2 22 32.75 Q 22 31.3 20.975 30.275 Q 19.95 29.25 18.5 29.25 Q 17.05 29.25 16.025 30.275 Q 15 31.3 15 32.75 Q 15 34.2 16.025 35.225 Q 17.05 36.25 18.5 36.25 Z M 8.629 34.728 A 2.624 2.624 0 0 0 10.5 35.5 A 3.161 3.161 0 0 0 10.572 35.5 A 2.607 2.607 0 0 0 12.45 34.675 Q 13.25 33.85 13.25 32.75 A 3.285 3.285 0 0 0 13.25 32.715 A 2.649 2.649 0 0 0 12.45 30.8 A 2.75 2.75 0 0 0 11.739 30.281 A 2.721 2.721 0 0 0 10.5 30 Q 9.4 30 8.575 30.8 A 3.154 3.154 0 0 0 8.525 30.851 A 2.607 2.607 0 0 0 7.75 32.75 A 2.584 2.584 0 0 0 7.977 33.827 A 2.875 2.875 0 0 0 8.575 34.675 A 3.445 3.445 0 0 0 8.629 34.728 Z M 16.629 18.728 A 2.624 2.624 0 0 0 18.5 19.5 A 3.161 3.161 0 0 0 18.572 19.5 A 2.607 2.607 0 0 0 20.45 18.675 Q 21.25 17.85 21.25 16.75 A 3.285 3.285 0 0 0 21.25 16.715 A 2.649 2.649 0 0 0 20.45 14.8 A 2.75 2.75 0 0 0 19.739 14.281 A 2.721 2.721 0 0 0 18.5 14 Q 17.4 14 16.575 14.8 A 3.154 3.154 0 0 0 16.525 14.851 A 2.607 2.607 0 0 0 15.75 16.75 A 2.584 2.584 0 0 0 15.977 17.827 A 2.875 2.875 0 0 0 16.575 18.675 A 3.445 3.445 0 0 0 16.629 18.728 Z M 16.629 10.728 A 2.624 2.624 0 0 0 18.5 11.5 A 3.161 3.161 0 0 0 18.572 11.5 A 2.607 2.607 0 0 0 20.45 10.675 Q 21.25 9.85 21.25 8.75 A 3.285 3.285 0 0 0 21.25 8.715 A 2.649 2.649 0 0 0 20.45 6.8 A 2.75 2.75 0 0 0 19.739 6.281 A 2.721 2.721 0 0 0 18.5 6 Q 17.4 6 16.575 6.8 A 3.154 3.154 0 0 0 16.525 6.851 A 2.607 2.607 0 0 0 15.75 8.75 A 2.584 2.584 0 0 0 15.977 9.827 A 2.875 2.875 0 0 0 16.575 10.675 A 3.445 3.445 0 0 0 16.629 10.728 Z M 16.629 26.728 A 2.624 2.624 0 0 0 18.5 27.5 A 3.161 3.161 0 0 0 18.572 27.5 A 2.607 2.607 0 0 0 20.45 26.675 Q 21.25 25.85 21.25 24.75 A 3.285 3.285 0 0 0 21.25 24.715 A 2.649 2.649 0 0 0 20.45 22.8 A 2.75 2.75 0 0 0 19.739 22.281 A 2.721 2.721 0 0 0 18.5 22 Q 17.4 22 16.575 22.8 A 3.154 3.154 0 0 0 16.525 22.851 A 2.607 2.607 0 0 0 15.75 24.75 A 2.584 2.584 0 0 0 15.977 25.827 A 2.875 2.875 0 0 0 16.575 26.675 A 3.445 3.445 0 0 0 16.629 26.728 Z M 8.629 26.728 A 2.624 2.624 0 0 0 10.5 27.5 A 3.161 3.161 0 0 0 10.572 27.5 A 2.607 2.607 0 0 0 12.45 26.675 Q 13.25 25.85 13.25 24.75 A 3.285 3.285 0 0 0 13.25 24.715 A 2.649 2.649 0 0 0 12.45 22.8 A 2.75 2.75 0 0 0 11.739 22.281 A 2.721 2.721 0 0 0 10.5 22 Q 9.4 22 8.575 22.8 A 3.154 3.154 0 0 0 8.525 22.851 A 2.607 2.607 0 0 0 7.75 24.75 A 2.584 2.584 0 0 0 7.977 25.827 A 2.875 2.875 0 0 0 8.575 26.675 A 3.445 3.445 0 0 0 8.629 26.728 Z M 16.629 34.728 A 2.624 2.624 0 0 0 18.5 35.5 A 3.161 3.161 0 0 0 18.572 35.5 A 2.607 2.607 0 0 0 20.45 34.675 Q 21.25 33.85 21.25 32.75 A 3.285 3.285 0 0 0 21.25 32.715 A 2.649 2.649 0 0 0 20.45 30.8 A 2.75 2.75 0 0 0 19.739 30.281 A 2.721 2.721 0 0 0 18.5 30 Q 17.4 30 16.575 30.8 A 3.154 3.154 0 0 0 16.525 30.851 A 2.607 2.607 0 0 0 15.75 32.75 Q 15.75 33.842 16.563 34.663 A 3.483 3.483 0 0 0 16.575 34.675 A 3.445 3.445 0 0 0 16.629 34.728 Z M 10.483 11.5 A 2.922 2.922 0 0 0 10.5 11.5 A 3.161 3.161 0 0 0 10.572 11.5 A 2.607 2.607 0 0 0 12.45 10.675 Q 13.25 9.85 13.25 8.75 A 3.285 3.285 0 0 0 13.25 8.715 A 2.649 2.649 0 0 0 12.45 6.8 A 2.75 2.75 0 0 0 11.739 6.281 A 2.721 2.721 0 0 0 10.5 6 Q 9.4 6 8.575 6.8 A 3.154 3.154 0 0 0 8.525 6.851 A 2.607 2.607 0 0 0 7.75 8.75 A 2.584 2.584 0 0 0 7.977 9.827 A 2.875 2.875 0 0 0 8.575 10.675 A 3.434 3.434 0 0 0 8.64 10.738 Q 9.437 11.494 10.483 11.5 Z M 10.483 19.5 A 2.922 2.922 0 0 0 10.5 19.5 A 3.161 3.161 0 0 0 10.572 19.5 A 2.607 2.607 0 0 0 12.45 18.675 Q 13.25 17.85 13.25 16.75 A 3.285 3.285 0 0 0 13.25 16.715 A 2.649 2.649 0 0 0 12.45 14.8 A 2.75 2.75 0 0 0 11.739 14.281 A 2.721 2.721 0 0 0 10.5 14 Q 9.4 14 8.575 14.8 A 3.154 3.154 0 0 0 8.525 14.851 A 2.607 2.607 0 0 0 7.75 16.75 A 2.584 2.584 0 0 0 7.977 17.827 A 2.875 2.875 0 0 0 8.575 18.675 A 3.434 3.434 0 0 0 8.64 18.738 Q 9.437 19.494 10.483 19.5 Z M 14.5 14.65 Q 15.2 13.4 16.45 12.75 Q 15.2 12.1 14.5 10.85 Q 13.8 12.1 12.55 12.75 Q 13.8 13.4 14.5 14.65 Z M 14.5 22.65 Q 15.2 21.4 16.45 20.75 Q 15.2 20.1 14.5 18.85 Q 13.8 20.1 12.55 20.75 Q 13.8 21.4 14.5 22.65 Z M 14.5 30.65 Q 15.2 29.4 16.45 28.75 Q 15.2 28.1 14.5 26.85 Q 13.8 28.1 12.55 28.75 Q 13.8 29.4 14.5 30.65 Z M 18 26.95 L 18.4 26.7 L 18.4 26.2 L 18.15 25.95 A 1.677 1.677 0 0 1 17.517 25.525 A 2.001 2.001 0 0 1 17.45 25.45 L 17.15 25.3 L 16.7 25.45 L 16.55 25.9 Q 17.15 26.75 18 26.95 Z M 18 10.95 L 18.4 10.7 L 18.4 10.2 L 18.15 9.95 A 1.677 1.677 0 0 1 17.517 9.525 A 2.001 2.001 0 0 1 17.45 9.45 L 17.15 9.3 L 16.7 9.45 L 16.55 9.9 Q 17.15 10.75 18 10.95 Z M 18 18.95 L 18.4 18.7 L 18.4 18.2 L 18.15 17.95 A 1.677 1.677 0 0 1 17.517 17.525 A 2.001 2.001 0 0 1 17.45 17.45 L 17.15 17.3 L 16.7 17.45 L 16.55 17.9 Q 17.15 18.75 18 18.95 Z M 18 34.95 L 18.4 34.7 L 18.4 34.2 L 18.15 33.95 A 1.677 1.677 0 0 1 17.517 33.525 A 2.001 2.001 0 0 1 17.45 33.45 L 17.15 33.3 L 16.7 33.45 L 16.55 33.9 Q 17.15 34.75 18 34.95 Z M 10 10.95 L 10.4 10.7 L 10.4 10.2 L 10.15 9.95 A 1.677 1.677 0 0 1 9.517 9.525 A 2.001 2.001 0 0 1 9.45 9.45 L 9.15 9.3 L 8.7 9.45 L 8.55 9.9 Q 9.15 10.75 10 10.95 Z M 10 26.95 L 10.4 26.7 L 10.4 26.2 L 10.15 25.95 A 1.677 1.677 0 0 1 9.517 25.525 A 2.001 2.001 0 0 1 9.45 25.45 L 9.15 25.3 L 8.7 25.45 L 8.55 25.9 Q 9.15 26.75 10 26.95 Z M 10 18.95 L 10.4 18.7 L 10.4 18.2 L 10.15 17.95 A 1.677 1.677 0 0 1 9.517 17.525 A 2.001 2.001 0 0 1 9.45 17.45 L 9.15 17.3 L 8.7 17.45 L 8.55 17.9 Q 9.15 18.75 10 18.95 Z M 10 34.95 L 10.4 34.7 L 10.4 34.2 L 10.15 33.95 A 1.677 1.677 0 0 1 9.517 33.525 A 2.001 2.001 0 0 1 9.45 33.45 L 9.15 33.3 L 8.7 33.45 L 8.55 33.9 Q 9.15 34.75 10 34.95 Z M 20.45 9.9 L 20.3 9.45 L 19.85 9.3 Q 19.624 9.414 19.354 9.613 A 5.831 5.831 0 0 0 19.175 9.75 A 49.04 49.04 0 0 1 18.999 9.891 Q 18.75 10.088 18.6 10.2 L 18.6 10.7 L 19 10.95 Q 19.85 10.75 20.45 9.9 Z M 12.45 33.9 L 12.3 33.45 L 11.85 33.3 Q 11.624 33.414 11.354 33.613 A 5.831 5.831 0 0 0 11.175 33.75 A 49.04 49.04 0 0 1 10.999 33.891 Q 10.75 34.088 10.6 34.2 L 10.6 34.7 L 11 34.95 Q 11.85 34.75 12.45 33.9 Z M 12.45 9.9 L 12.3 9.45 L 11.85 9.3 Q 11.624 9.414 11.354 9.613 A 5.831 5.831 0 0 0 11.175 9.75 A 49.04 49.04 0 0 1 10.999 9.891 Q 10.75 10.088 10.6 10.2 L 10.6 10.7 L 11 10.95 Q 11.85 10.75 12.45 9.9 Z M 12.45 17.9 L 12.3 17.45 L 11.85 17.3 Q 11.624 17.414 11.354 17.613 A 5.831 5.831 0 0 0 11.175 17.75 A 49.04 49.04 0 0 1 10.999 17.891 Q 10.75 18.088 10.6 18.2 L 10.6 18.7 L 11 18.95 Q 11.85 18.75 12.45 17.9 Z M 20.45 25.9 L 20.3 25.45 L 19.85 25.3 Q 19.624 25.414 19.354 25.613 A 5.831 5.831 0 0 0 19.175 25.75 A 49.04 49.04 0 0 1 18.999 25.891 Q 18.75 26.088 18.6 26.2 L 18.6 26.7 L 19 26.95 Q 19.85 26.75 20.45 25.9 Z M 12.45 25.9 L 12.3 25.45 L 11.85 25.3 Q 11.624 25.414 11.354 25.613 A 5.831 5.831 0 0 0 11.175 25.75 A 49.04 49.04 0 0 1 10.999 25.891 Q 10.75 26.088 10.6 26.2 L 10.6 26.7 L 11 26.95 Q 11.85 26.75 12.45 25.9 Z M 20.45 17.9 L 20.3 17.45 L 19.85 17.3 Q 19.624 17.414 19.354 17.613 A 5.831 5.831 0 0 0 19.175 17.75 A 49.04 49.04 0 0 1 18.999 17.891 Q 18.75 18.088 18.6 18.2 L 18.6 18.7 L 19 18.95 Q 19.85 18.75 20.45 17.9 Z M 20.45 33.9 L 20.3 33.45 L 19.85 33.3 Q 19.624 33.414 19.354 33.613 A 5.831 5.831 0 0 0 19.175 33.75 A 49.04 49.04 0 0 1 18.999 33.891 Q 18.75 34.088 18.6 34.2 L 18.6 34.7 L 19 34.95 Q 19.85 34.75 20.45 33.9 Z M 12.4 25.25 L 12.75 24.95 L 12.75 24.75 Q 12.75 23.9 12.2 23.25 L 11.75 23.25 L 11.45 23.65 Q 11.5 23.95 11.625 24.2 Q 11.75 24.45 11.75 24.75 L 11.95 25.1 L 12.4 25.25 Z M 12.4 33.25 L 12.75 32.95 L 12.75 32.75 Q 12.75 31.9 12.2 31.25 L 11.75 31.25 L 11.45 31.65 Q 11.5 31.95 11.625 32.2 Q 11.75 32.45 11.75 32.75 L 11.95 33.1 L 12.4 33.25 Z M 12.4 9.25 L 12.75 8.95 L 12.75 8.75 Q 12.75 7.9 12.2 7.25 L 11.75 7.25 L 11.45 7.65 Q 11.5 7.95 11.625 8.2 Q 11.75 8.45 11.75 8.75 L 11.95 9.1 L 12.4 9.25 Z M 12.4 17.25 L 12.75 16.95 L 12.75 16.75 Q 12.75 15.9 12.2 15.25 L 11.75 15.25 L 11.45 15.65 Q 11.5 15.95 11.625 16.2 Q 11.75 16.45 11.75 16.75 L 11.95 17.1 L 12.4 17.25 Z M 20.4 25.25 L 20.75 24.95 L 20.75 24.75 Q 20.75 23.9 20.2 23.25 L 19.75 23.25 L 19.45 23.65 Q 19.5 23.95 19.625 24.2 Q 19.75 24.45 19.75 24.75 L 19.95 25.1 L 20.4 25.25 Z M 20.4 33.25 L 20.75 32.95 L 20.75 32.75 Q 20.75 31.9 20.2 31.25 L 19.75 31.25 L 19.45 31.65 Q 19.5 31.95 19.625 32.2 Q 19.75 32.45 19.75 32.75 L 19.95 33.1 L 20.4 33.25 Z M 20.4 9.25 L 20.75 8.95 L 20.75 8.75 Q 20.75 7.9 20.2 7.25 L 19.75 7.25 L 19.45 7.65 Q 19.5 7.95 19.625 8.2 Q 19.75 8.45 19.75 8.75 L 19.95 9.1 L 20.4 9.25 Z M 20.4 17.25 L 20.75 16.95 L 20.75 16.75 Q 20.75 15.9 20.2 15.25 L 19.75 15.25 L 19.45 15.65 Q 19.5 15.95 19.625 16.2 Q 19.75 16.45 19.75 16.75 L 19.95 17.1 L 20.4 17.25 Z M 17.55 15.65 L 17.25 15.25 L 16.8 15.25 Q 16.25 15.9 16.25 16.75 L 16.25 16.95 L 16.6 17.25 A 1.121 1.121 0 0 0 16.876 17.16 A 0.727 0.727 0 0 0 17.25 16.75 A 1.252 1.252 0 0 1 17.314 16.349 A 1.154 1.154 0 0 1 17.375 16.2 A 1.885 1.885 0 0 0 17.529 15.761 A 2.177 2.177 0 0 0 17.55 15.65 Z M 17.55 23.65 L 17.25 23.25 L 16.8 23.25 Q 16.25 23.9 16.25 24.75 L 16.25 24.95 L 16.6 25.25 A 1.121 1.121 0 0 0 16.876 25.16 A 0.727 0.727 0 0 0 17.25 24.75 A 1.252 1.252 0 0 1 17.314 24.349 A 1.154 1.154 0 0 1 17.375 24.2 A 1.885 1.885 0 0 0 17.529 23.761 A 2.177 2.177 0 0 0 17.55 23.65 Z M 9.55 23.65 L 9.25 23.25 L 8.8 23.25 Q 8.25 23.9 8.25 24.75 L 8.25 24.95 L 8.6 25.25 A 1.121 1.121 0 0 0 8.876 25.16 A 0.727 0.727 0 0 0 9.25 24.75 A 1.252 1.252 0 0 1 9.314 24.349 A 1.154 1.154 0 0 1 9.375 24.2 A 1.885 1.885 0 0 0 9.529 23.761 A 2.177 2.177 0 0 0 9.55 23.65 Z M 17.55 7.65 L 17.25 7.25 L 16.8 7.25 Q 16.25 7.9 16.25 8.75 L 16.25 8.95 L 16.6 9.25 A 1.121 1.121 0 0 0 16.876 9.16 A 0.727 0.727 0 0 0 17.25 8.75 A 1.252 1.252 0 0 1 17.314 8.349 A 1.154 1.154 0 0 1 17.375 8.2 A 1.885 1.885 0 0 0 17.529 7.761 A 2.177 2.177 0 0 0 17.55 7.65 Z M 9.55 31.65 L 9.25 31.25 L 8.8 31.25 Q 8.25 31.9 8.25 32.75 L 8.25 32.95 L 8.6 33.25 A 1.121 1.121 0 0 0 8.876 33.16 A 0.727 0.727 0 0 0 9.25 32.75 A 1.252 1.252 0 0 1 9.314 32.349 A 1.154 1.154 0 0 1 9.375 32.2 A 1.885 1.885 0 0 0 9.529 31.761 A 2.177 2.177 0 0 0 9.55 31.65 Z M 17.55 31.65 L 17.25 31.25 L 16.8 31.25 Q 16.25 31.9 16.25 32.75 L 16.25 32.95 L 16.6 33.25 A 1.121 1.121 0 0 0 16.876 33.16 A 0.727 0.727 0 0 0 17.25 32.75 A 1.252 1.252 0 0 1 17.314 32.349 A 1.154 1.154 0 0 1 17.375 32.2 A 1.885 1.885 0 0 0 17.529 31.761 A 2.177 2.177 0 0 0 17.55 31.65 Z M 9.55 15.65 L 9.25 15.25 L 8.8 15.25 Q 8.25 15.9 8.25 16.75 L 8.25 16.95 L 8.6 17.25 A 1.121 1.121 0 0 0 8.876 17.16 A 0.727 0.727 0 0 0 9.25 16.75 A 1.252 1.252 0 0 1 9.314 16.349 A 1.154 1.154 0 0 1 9.375 16.2 A 1.885 1.885 0 0 0 9.529 15.761 A 2.177 2.177 0 0 0 9.55 15.65 Z M 9.55 7.65 L 9.25 7.25 L 8.8 7.25 Q 8.25 7.9 8.25 8.75 L 8.25 8.95 L 8.6 9.25 A 1.121 1.121 0 0 0 8.876 9.16 A 0.727 0.727 0 0 0 9.25 8.75 A 1.252 1.252 0 0 1 9.314 8.349 A 1.154 1.154 0 0 1 9.375 8.2 A 1.885 1.885 0 0 0 9.529 7.761 A 2.177 2.177 0 0 0 9.55 7.65 Z M 10.9 31.55 L 11.25 31.5 L 11.55 31.1 L 11.4 30.7 A 1.904 1.904 0 0 0 10.729 30.511 A 2.337 2.337 0 0 0 10.5 30.5 A 2.154 2.154 0 0 0 9.97 30.564 A 1.826 1.826 0 0 0 9.6 30.7 L 9.45 31.1 L 9.75 31.5 L 10.1 31.55 Q 10.193 31.504 10.458 31.501 A 3.346 3.346 0 0 1 10.5 31.5 Q 10.78 31.5 10.886 31.544 A 0.215 0.215 0 0 1 10.9 31.55 Z M 10.9 7.55 L 11.25 7.5 L 11.55 7.1 L 11.4 6.7 A 1.904 1.904 0 0 0 10.729 6.511 A 2.337 2.337 0 0 0 10.5 6.5 A 2.154 2.154 0 0 0 9.97 6.564 A 1.826 1.826 0 0 0 9.6 6.7 L 9.45 7.1 L 9.75 7.5 L 10.1 7.55 Q 10.193 7.504 10.458 7.501 A 3.346 3.346 0 0 1 10.5 7.5 Q 10.78 7.5 10.886 7.544 A 0.215 0.215 0 0 1 10.9 7.55 Z M 18.9 7.55 L 19.25 7.5 L 19.55 7.1 L 19.4 6.7 A 1.904 1.904 0 0 0 18.729 6.511 A 2.337 2.337 0 0 0 18.5 6.5 A 2.154 2.154 0 0 0 17.97 6.564 A 1.826 1.826 0 0 0 17.6 6.7 L 17.45 7.1 L 17.75 7.5 L 18.1 7.55 Q 18.193 7.504 18.458 7.501 A 3.346 3.346 0 0 1 18.5 7.5 Q 18.78 7.5 18.886 7.544 A 0.215 0.215 0 0 1 18.9 7.55 Z M 10.9 23.55 L 11.25 23.5 L 11.55 23.1 L 11.4 22.7 A 1.904 1.904 0 0 0 10.729 22.511 A 2.337 2.337 0 0 0 10.5 22.5 A 2.154 2.154 0 0 0 9.97 22.564 A 1.826 1.826 0 0 0 9.6 22.7 L 9.45 23.1 L 9.75 23.5 L 10.1 23.55 Q 10.193 23.504 10.458 23.501 A 3.346 3.346 0 0 1 10.5 23.5 Q 10.78 23.5 10.886 23.544 A 0.215 0.215 0 0 1 10.9 23.55 Z M 10.9 15.55 L 11.25 15.5 L 11.55 15.1 L 11.4 14.7 A 1.904 1.904 0 0 0 10.729 14.511 A 2.337 2.337 0 0 0 10.5 14.5 A 2.154 2.154 0 0 0 9.97 14.564 A 1.826 1.826 0 0 0 9.6 14.7 L 9.45 15.1 L 9.75 15.5 L 10.1 15.55 Q 10.193 15.504 10.458 15.501 A 3.346 3.346 0 0 1 10.5 15.5 Q 10.78 15.5 10.886 15.544 A 0.215 0.215 0 0 1 10.9 15.55 Z M 18.9 23.55 L 19.25 23.5 L 19.55 23.1 L 19.4 22.7 A 1.904 1.904 0 0 0 18.729 22.511 A 2.337 2.337 0 0 0 18.5 22.5 A 2.154 2.154 0 0 0 17.97 22.564 A 1.826 1.826 0 0 0 17.6 22.7 L 17.45 23.1 L 17.75 23.5 L 18.1 23.55 Q 18.193 23.504 18.458 23.501 A 3.346 3.346 0 0 1 18.5 23.5 Q 18.78 23.5 18.886 23.544 A 0.215 0.215 0 0 1 18.9 23.55 Z M 18.9 31.55 L 19.25 31.5 L 19.55 31.1 L 19.4 30.7 A 1.904 1.904 0 0 0 18.729 30.511 A 2.337 2.337 0 0 0 18.5 30.5 A 2.154 2.154 0 0 0 17.97 30.564 A 1.826 1.826 0 0 0 17.6 30.7 L 17.45 31.1 L 17.75 31.5 L 18.1 31.55 Q 18.193 31.504 18.458 31.501 A 3.346 3.346 0 0 1 18.5 31.5 Q 18.78 31.5 18.886 31.544 A 0.215 0.215 0 0 1 18.9 31.55 Z M 18.9 15.55 L 19.25 15.5 L 19.55 15.1 L 19.4 14.7 A 1.904 1.904 0 0 0 18.729 14.511 A 2.337 2.337 0 0 0 18.5 14.5 A 2.154 2.154 0 0 0 17.97 14.564 A 1.826 1.826 0 0 0 17.6 14.7 L 17.45 15.1 L 17.75 15.5 L 18.1 15.55 Q 18.193 15.504 18.458 15.501 A 3.346 3.346 0 0 1 18.5 15.5 Q 18.78 15.5 18.886 15.544 A 0.215 0.215 0 0 1 18.9 15.55 Z M 10.5 25.5 A 0.716 0.716 0 0 0 11.011 25.29 A 0.939 0.939 0 0 0 11.025 25.275 Q 11.25 25.05 11.25 24.75 A 0.716 0.716 0 0 0 11.04 24.24 A 0.939 0.939 0 0 0 11.025 24.225 Q 10.8 24 10.5 24 A 0.716 0.716 0 0 0 9.99 24.211 A 0.939 0.939 0 0 0 9.975 24.225 Q 9.75 24.45 9.75 24.75 A 0.716 0.716 0 0 0 9.961 25.261 A 0.939 0.939 0 0 0 9.975 25.275 Q 10.2 25.5 10.5 25.5 Z M 10.5 33.5 A 0.716 0.716 0 0 0 11.011 33.29 A 0.939 0.939 0 0 0 11.025 33.275 Q 11.25 33.05 11.25 32.75 A 0.716 0.716 0 0 0 11.04 32.24 A 0.939 0.939 0 0 0 11.025 32.225 Q 10.8 32 10.5 32 A 0.716 0.716 0 0 0 9.99 32.211 A 0.939 0.939 0 0 0 9.975 32.225 Q 9.75 32.45 9.75 32.75 A 0.716 0.716 0 0 0 9.961 33.261 A 0.939 0.939 0 0 0 9.975 33.275 Q 10.2 33.5 10.5 33.5 Z M 10.5 9.5 A 0.716 0.716 0 0 0 11.011 9.29 A 0.939 0.939 0 0 0 11.025 9.275 Q 11.25 9.05 11.25 8.75 A 0.716 0.716 0 0 0 11.04 8.24 A 0.939 0.939 0 0 0 11.025 8.225 Q 10.8 8 10.5 8 A 0.716 0.716 0 0 0 9.99 8.211 A 0.939 0.939 0 0 0 9.975 8.225 Q 9.75 8.45 9.75 8.75 A 0.716 0.716 0 0 0 9.961 9.261 A 0.939 0.939 0 0 0 9.975 9.275 Q 10.2 9.5 10.5 9.5 Z M 10.5 17.5 A 0.716 0.716 0 0 0 11.011 17.29 A 0.939 0.939 0 0 0 11.025 17.275 Q 11.25 17.05 11.25 16.75 A 0.716 0.716 0 0 0 11.04 16.24 A 0.939 0.939 0 0 0 11.025 16.225 Q 10.8 16 10.5 16 A 0.716 0.716 0 0 0 9.99 16.211 A 0.939 0.939 0 0 0 9.975 16.225 Q 9.75 16.45 9.75 16.75 A 0.716 0.716 0 0 0 9.961 17.261 A 0.939 0.939 0 0 0 9.975 17.275 Q 10.2 17.5 10.5 17.5 Z M 18.5 25.5 A 0.716 0.716 0 0 0 19.011 25.29 A 0.939 0.939 0 0 0 19.025 25.275 Q 19.25 25.05 19.25 24.75 A 0.716 0.716 0 0 0 19.04 24.24 A 0.939 0.939 0 0 0 19.025 24.225 Q 18.8 24 18.5 24 A 0.716 0.716 0 0 0 17.99 24.211 A 0.939 0.939 0 0 0 17.975 24.225 Q 17.75 24.45 17.75 24.75 A 0.716 0.716 0 0 0 17.961 25.261 A 0.939 0.939 0 0 0 17.975 25.275 Q 18.2 25.5 18.5 25.5 Z M 18.5 33.5 A 0.716 0.716 0 0 0 19.011 33.29 A 0.939 0.939 0 0 0 19.025 33.275 Q 19.25 33.05 19.25 32.75 A 0.716 0.716 0 0 0 19.04 32.24 A 0.939 0.939 0 0 0 19.025 32.225 Q 18.8 32 18.5 32 A 0.716 0.716 0 0 0 17.99 32.211 A 0.939 0.939 0 0 0 17.975 32.225 Q 17.75 32.45 17.75 32.75 A 0.716 0.716 0 0 0 17.961 33.261 A 0.939 0.939 0 0 0 17.975 33.275 Q 18.2 33.5 18.5 33.5 Z M 18.5 9.5 A 0.716 0.716 0 0 0 19.011 9.29 A 0.939 0.939 0 0 0 19.025 9.275 Q 19.25 9.05 19.25 8.75 A 0.716 0.716 0 0 0 19.04 8.24 A 0.939 0.939 0 0 0 19.025 8.225 Q 18.8 8 18.5 8 A 0.716 0.716 0 0 0 17.99 8.211 A 0.939 0.939 0 0 0 17.975 8.225 Q 17.75 8.45 17.75 8.75 A 0.716 0.716 0 0 0 17.961 9.261 A 0.939 0.939 0 0 0 17.975 9.275 Q 18.2 9.5 18.5 9.5 Z M 18.5 17.5 A 0.716 0.716 0 0 0 19.011 17.29 A 0.939 0.939 0 0 0 19.025 17.275 Q 19.25 17.05 19.25 16.75 A 0.716 0.716 0 0 0 19.04 16.24 A 0.939 0.939 0 0 0 19.025 16.225 Q 18.8 16 18.5 16 A 0.716 0.716 0 0 0 17.99 16.211 A 0.939 0.939 0 0 0 17.975 16.225 Q 17.75 16.45 17.75 16.75 A 0.716 0.716 0 0 0 17.961 17.261 A 0.939 0.939 0 0 0 17.975 17.275 Q 18.2 17.5 18.5 17.5 Z M 10.402 24.988 A 0.36 0.36 0 0 0 10.5 25 A 0.368 0.368 0 0 0 10.593 24.99 Q 10.706 24.96 10.738 24.849 A 0.36 0.36 0 0 0 10.75 24.75 A 0.368 0.368 0 0 0 10.74 24.658 Q 10.71 24.545 10.599 24.513 A 0.36 0.36 0 0 0 10.5 24.5 A 0.368 0.368 0 0 0 10.408 24.511 Q 10.295 24.541 10.263 24.652 A 0.36 0.36 0 0 0 10.25 24.75 A 0.368 0.368 0 0 0 10.261 24.843 Q 10.291 24.956 10.402 24.988 Z M 10.402 8.988 A 0.36 0.36 0 0 0 10.5 9 A 0.368 0.368 0 0 0 10.593 8.99 Q 10.706 8.96 10.738 8.849 A 0.36 0.36 0 0 0 10.75 8.75 A 0.368 0.368 0 0 0 10.74 8.658 Q 10.71 8.545 10.599 8.513 A 0.36 0.36 0 0 0 10.5 8.5 A 0.368 0.368 0 0 0 10.408 8.511 Q 10.295 8.541 10.263 8.652 A 0.36 0.36 0 0 0 10.25 8.75 A 0.368 0.368 0 0 0 10.261 8.843 Q 10.291 8.956 10.402 8.988 Z M 10.402 16.988 A 0.36 0.36 0 0 0 10.5 17 A 0.368 0.368 0 0 0 10.593 16.99 Q 10.706 16.96 10.738 16.849 A 0.36 0.36 0 0 0 10.75 16.75 A 0.368 0.368 0 0 0 10.74 16.658 Q 10.71 16.545 10.599 16.513 A 0.36 0.36 0 0 0 10.5 16.5 A 0.368 0.368 0 0 0 10.408 16.511 Q 10.295 16.541 10.263 16.652 A 0.36 0.36 0 0 0 10.25 16.75 A 0.368 0.368 0 0 0 10.261 16.843 Q 10.291 16.956 10.402 16.988 Z M 18.402 24.988 A 0.36 0.36 0 0 0 18.5 25 A 0.368 0.368 0 0 0 18.593 24.99 Q 18.706 24.96 18.738 24.849 A 0.36 0.36 0 0 0 18.75 24.75 A 0.368 0.368 0 0 0 18.74 24.658 Q 18.71 24.545 18.599 24.513 A 0.36 0.36 0 0 0 18.5 24.5 A 0.368 0.368 0 0 0 18.408 24.511 Q 18.295 24.541 18.263 24.652 A 0.36 0.36 0 0 0 18.25 24.75 A 0.368 0.368 0 0 0 18.261 24.843 Q 18.291 24.956 18.402 24.988 Z M 10.402 32.988 A 0.36 0.36 0 0 0 10.5 33 A 0.368 0.368 0 0 0 10.593 32.99 Q 10.706 32.96 10.738 32.849 A 0.36 0.36 0 0 0 10.75 32.75 A 0.368 0.368 0 0 0 10.74 32.658 Q 10.71 32.545 10.599 32.513 A 0.36 0.36 0 0 0 10.5 32.5 A 0.368 0.368 0 0 0 10.408 32.511 Q 10.295 32.541 10.263 32.652 A 0.36 0.36 0 0 0 10.25 32.75 A 0.368 0.368 0 0 0 10.261 32.843 Q 10.291 32.956 10.402 32.988 Z M 18.402 32.988 A 0.36 0.36 0 0 0 18.5 33 A 0.368 0.368 0 0 0 18.593 32.99 Q 18.706 32.96 18.738 32.849 A 0.36 0.36 0 0 0 18.75 32.75 A 0.368 0.368 0 0 0 18.74 32.658 Q 18.71 32.545 18.599 32.513 A 0.36 0.36 0 0 0 18.5 32.5 A 0.368 0.368 0 0 0 18.408 32.511 Q 18.295 32.541 18.263 32.652 A 0.36 0.36 0 0 0 18.25 32.75 A 0.368 0.368 0 0 0 18.261 32.843 Q 18.291 32.956 18.402 32.988 Z M 18.402 8.988 A 0.36 0.36 0 0 0 18.5 9 A 0.368 0.368 0 0 0 18.593 8.99 Q 18.706 8.96 18.738 8.849 A 0.36 0.36 0 0 0 18.75 8.75 A 0.368 0.368 0 0 0 18.74 8.658 Q 18.71 8.545 18.599 8.513 A 0.36 0.36 0 0 0 18.5 8.5 A 0.368 0.368 0 0 0 18.408 8.511 Q 18.295 8.541 18.263 8.652 A 0.36 0.36 0 0 0 18.25 8.75 A 0.368 0.368 0 0 0 18.261 8.843 Q 18.291 8.956 18.402 8.988 Z M 18.402 16.988 A 0.36 0.36 0 0 0 18.5 17 A 0.368 0.368 0 0 0 18.593 16.99 Q 18.706 16.96 18.738 16.849 A 0.36 0.36 0 0 0 18.75 16.75 A 0.368 0.368 0 0 0 18.74 16.658 Q 18.71 16.545 18.599 16.513 A 0.36 0.36 0 0 0 18.5 16.5 A 0.368 0.368 0 0 0 18.408 16.511 Q 18.295 16.541 18.263 16.652 A 0.36 0.36 0 0 0 18.25 16.75 A 0.368 0.368 0 0 0 18.261 16.843 Q 18.291 16.956 18.402 16.988 Z" vector-effect="non-scaling-stroke"/></g></svg>