<svg width="58" height="83" viewBox="0 0 29 41.5" xmlns="http://www.w3.org/2000/svg"><g id="svgGroup" stroke-linecap="round" fill-rule="evenodd" font-size="9pt" stroke="#000" stroke-width="0.05mm" fill="#000" style="stroke:#000;stroke-width:0.05mm;fill:#000"><path d="M 0 38.5 L 0 3 A 2.89 2.89 0 0 1 0.848 0.903 A 3.442 3.442 0 0 1 0.875 0.875 A 2.889 2.889 0 0 1 2.961 0.001 A 3.547 3.547 0 0 1 3 0 L 26 0 A 2.89 2.89 0 0 1 28.098 0.848 A 3.442 3.442 0 0 1 28.125 0.875 A 2.889 2.889 0 0 1 29 2.961 A 3.547 3.547 0 0 1 29 3 L 29 38.5 A 2.89 2.89 0 0 1 28.153 40.598 A 3.442 3.442 0 0 1 28.125 40.625 A 2.889 2.889 0 0 1 26.039 41.5 A 3.547 3.547 0 0 1 26 41.5 L 3 41.5 A 2.89 2.89 0 0 1 0.903 40.653 A 3.442 3.442 0 0 1 0.875 40.625 A 2.889 2.889 0 0 1 0.001 38.539 A 3.547 3.547 0 0 1 0 38.5 Z M 3 40 L 26 40 A 1.628 1.628 0 0 0 26.542 39.914 A 1.403 1.403 0 0 0 27.075 39.575 A 1.436 1.436 0 0 0 27.498 38.602 A 1.91 1.91 0 0 0 27.5 38.5 L 27.5 3 A 1.628 1.628 0 0 0 27.414 2.459 A 1.403 1.403 0 0 0 27.075 1.925 A 1.436 1.436 0 0 0 26.102 1.503 A 1.91 1.91 0 0 0 26 1.5 L 3 1.5 A 1.628 1.628 0 0 0 2.459 1.587 A 1.403 1.403 0 0 0 1.925 1.925 A 1.436 1.436 0 0 0 1.503 2.899 A 1.91 1.91 0 0 0 1.5 3 L 1.5 38.5 A 1.628 1.628 0 0 0 1.587 39.042 A 1.403 1.403 0 0 0 1.925 39.575 A 1.436 1.436 0 0 0 2.899 39.998 A 1.91 1.91 0 0 0 3 40 Z M 20.8 23 L 20.8 22.65 A 0.362 0.362 0 0 0 20.765 22.507 Q 20.676 22.305 20.364 21.988 A 5.998 5.998 0 0 0 20.225 21.85 A 3.06 3.06 0 0 1 19.967 21.574 Q 19.708 21.255 19.661 20.973 A 0.745 0.745 0 0 1 19.65 20.85 A 0.867 0.867 0 0 1 19.73 20.501 Q 19.847 20.237 20.131 19.944 A 3.599 3.599 0 0 1 20.225 19.85 Q 20.711 19.386 20.787 19.135 A 0.296 0.296 0 0 0 20.8 19.05 L 20.8 18.7 A 0.378 0.378 0 0 0 20.747 18.514 Q 20.674 18.386 20.505 18.252 A 1.964 1.964 0 0 0 20.4 18.175 A 7.253 7.253 0 0 1 20.004 17.883 A 5.564 5.564 0 0 1 19.7 17.625 A 0.919 0.919 0 0 1 19.469 17.303 A 0.902 0.902 0 0 1 19.4 16.95 Q 19.4 16.4 19.75 16.1 A 1.508 1.508 0 0 1 19.991 15.93 Q 20.221 15.8 20.45 15.8 A 0.698 0.698 0 0 0 20.655 15.766 Q 20.845 15.708 21.084 15.55 A 3.406 3.406 0 0 0 21.225 15.45 A 1.794 1.794 0 0 1 22.152 15.109 A 2.272 2.272 0 0 1 22.35 15.1 Q 23 15.1 23.475 15.45 A 3.113 3.113 0 0 0 23.702 15.604 Q 24.025 15.8 24.25 15.8 Q 24.6 15.8 24.95 16.1 A 0.976 0.976 0 0 1 25.276 16.676 A 1.454 1.454 0 0 1 25.3 16.95 A 1.004 1.004 0 0 1 25.267 17.214 A 0.762 0.762 0 0 1 25.1 17.525 A 1.889 1.889 0 0 1 24.964 17.662 Q 24.76 17.849 24.4 18.1 Q 23.9 18.45 23.9 18.7 L 23.9 19.05 A 0.362 0.362 0 0 0 23.936 19.194 Q 24.025 19.395 24.337 19.713 A 5.998 5.998 0 0 0 24.475 19.85 A 3.06 3.06 0 0 1 24.734 20.127 Q 24.993 20.446 25.04 20.728 A 0.745 0.745 0 0 1 25.05 20.85 A 0.867 0.867 0 0 1 24.97 21.2 Q 24.854 21.464 24.57 21.757 A 3.599 3.599 0 0 1 24.475 21.85 Q 23.99 22.315 23.914 22.565 A 0.296 0.296 0 0 0 23.9 22.65 L 23.9 23 A 0.378 0.378 0 0 0 23.954 23.187 Q 24.027 23.315 24.196 23.448 A 1.964 1.964 0 0 0 24.3 23.525 A 7.253 7.253 0 0 1 24.697 23.818 A 5.564 5.564 0 0 1 25 24.075 A 0.919 0.919 0 0 1 25.232 24.398 A 0.902 0.902 0 0 1 25.3 24.75 A 1.085 1.085 0 0 1 25.201 25.22 A 1.08 1.08 0 0 1 24.925 25.575 A 1.321 1.321 0 0 1 24.168 25.893 A 1.733 1.733 0 0 1 24 25.9 A 1.451 1.451 0 0 1 23.343 25.74 A 1.77 1.77 0 0 1 23.225 25.675 Q 22.85 25.45 22.35 25.45 A 1.877 1.877 0 0 0 21.882 25.507 A 1.521 1.521 0 0 0 21.475 25.675 A 1.587 1.587 0 0 1 21.027 25.862 A 1.401 1.401 0 0 1 20.7 25.9 A 1.542 1.542 0 0 1 20.238 25.834 A 1.285 1.285 0 0 1 19.775 25.575 A 1.037 1.037 0 0 1 19.403 24.828 A 1.281 1.281 0 0 1 19.4 24.75 A 1.004 1.004 0 0 1 19.433 24.487 A 0.762 0.762 0 0 1 19.6 24.175 A 1.889 1.889 0 0 1 19.737 24.039 Q 19.941 23.852 20.3 23.6 Q 20.8 23.25 20.8 23 Z M 5.1 23 L 5.1 22.65 A 0.362 0.362 0 0 0 5.065 22.507 Q 4.976 22.305 4.664 21.988 A 5.998 5.998 0 0 0 4.525 21.85 A 3.06 3.06 0 0 1 4.267 21.574 Q 4.008 21.255 3.961 20.973 A 0.745 0.745 0 0 1 3.95 20.85 A 0.867 0.867 0 0 1 4.03 20.501 Q 4.147 20.237 4.431 19.944 A 3.599 3.599 0 0 1 4.525 19.85 Q 5.011 19.386 5.087 19.135 A 0.296 0.296 0 0 0 5.1 19.05 L 5.1 18.7 A 0.378 0.378 0 0 0 5.047 18.514 Q 4.974 18.386 4.805 18.252 A 1.964 1.964 0 0 0 4.7 18.175 A 7.253 7.253 0 0 1 4.304 17.883 A 5.564 5.564 0 0 1 4 17.625 A 0.919 0.919 0 0 1 3.769 17.303 A 0.902 0.902 0 0 1 3.7 16.95 Q 3.7 16.4 4.05 16.1 A 1.508 1.508 0 0 1 4.291 15.93 Q 4.521 15.8 4.75 15.8 A 0.698 0.698 0 0 0 4.955 15.766 Q 5.145 15.708 5.384 15.55 A 3.406 3.406 0 0 0 5.525 15.45 A 1.794 1.794 0 0 1 6.452 15.109 A 2.272 2.272 0 0 1 6.65 15.1 Q 7.3 15.1 7.775 15.45 A 3.113 3.113 0 0 0 8.002 15.604 Q 8.325 15.8 8.55 15.8 Q 8.9 15.8 9.25 16.1 A 0.976 0.976 0 0 1 9.576 16.676 A 1.454 1.454 0 0 1 9.6 16.95 A 1.004 1.004 0 0 1 9.567 17.214 A 0.762 0.762 0 0 1 9.4 17.525 A 1.889 1.889 0 0 1 9.264 17.662 Q 9.06 17.849 8.7 18.1 Q 8.2 18.45 8.2 18.7 L 8.2 19.05 A 0.362 0.362 0 0 0 8.236 19.194 Q 8.325 19.395 8.637 19.713 A 5.998 5.998 0 0 0 8.775 19.85 A 3.06 3.06 0 0 1 9.034 20.127 Q 9.293 20.446 9.34 20.728 A 0.745 0.745 0 0 1 9.35 20.85 A 0.867 0.867 0 0 1 9.27 21.2 Q 9.154 21.464 8.87 21.757 A 3.599 3.599 0 0 1 8.775 21.85 Q 8.29 22.315 8.214 22.565 A 0.296 0.296 0 0 0 8.2 22.65 L 8.2 23 A 0.378 0.378 0 0 0 8.254 23.187 Q 8.327 23.315 8.496 23.448 A 1.964 1.964 0 0 0 8.6 23.525 A 7.253 7.253 0 0 1 8.997 23.818 A 5.564 5.564 0 0 1 9.3 24.075 A 0.919 0.919 0 0 1 9.532 24.398 A 0.902 0.902 0 0 1 9.6 24.75 A 1.085 1.085 0 0 1 9.501 25.22 A 1.08 1.08 0 0 1 9.225 25.575 A 1.321 1.321 0 0 1 8.468 25.893 A 1.733 1.733 0 0 1 8.3 25.9 A 1.451 1.451 0 0 1 7.643 25.74 A 1.77 1.77 0 0 1 7.525 25.675 Q 7.15 25.45 6.65 25.45 A 1.877 1.877 0 0 0 6.182 25.507 A 1.521 1.521 0 0 0 5.775 25.675 A 1.587 1.587 0 0 1 5.327 25.862 A 1.401 1.401 0 0 1 5 25.9 A 1.542 1.542 0 0 1 4.538 25.834 A 1.285 1.285 0 0 1 4.075 25.575 A 1.037 1.037 0 0 1 3.703 24.828 A 1.281 1.281 0 0 1 3.7 24.75 A 1.004 1.004 0 0 1 3.733 24.487 A 0.762 0.762 0 0 1 3.9 24.175 A 1.889 1.889 0 0 1 4.037 24.039 Q 4.241 23.852 4.6 23.6 Q 5.1 23.25 5.1 23 Z M 12.95 23 L 12.95 22.65 A 0.362 0.362 0 0 0 12.915 22.507 Q 12.826 22.305 12.514 21.988 A 5.998 5.998 0 0 0 12.375 21.85 A 3.06 3.06 0 0 1 12.117 21.574 Q 11.858 21.255 11.811 20.973 A 0.745 0.745 0 0 1 11.8 20.85 A 0.867 0.867 0 0 1 11.88 20.501 Q 11.997 20.237 12.281 19.944 A 3.599 3.599 0 0 1 12.375 19.85 Q 12.861 19.386 12.937 19.135 A 0.296 0.296 0 0 0 12.95 19.05 L 12.95 18.7 A 0.378 0.378 0 0 0 12.897 18.514 Q 12.824 18.386 12.655 18.252 A 1.964 1.964 0 0 0 12.55 18.175 A 7.253 7.253 0 0 1 12.154 17.883 A 5.564 5.564 0 0 1 11.85 17.625 A 0.919 0.919 0 0 1 11.619 17.303 A 0.902 0.902 0 0 1 11.55 16.95 Q 11.55 16.4 11.9 16.1 A 1.508 1.508 0 0 1 12.141 15.93 Q 12.371 15.8 12.6 15.8 A 0.698 0.698 0 0 0 12.805 15.766 Q 12.995 15.708 13.234 15.55 A 3.406 3.406 0 0 0 13.375 15.45 A 1.794 1.794 0 0 1 14.302 15.109 A 2.272 2.272 0 0 1 14.5 15.1 Q 15.15 15.1 15.625 15.45 A 3.113 3.113 0 0 0 15.852 15.604 Q 16.175 15.8 16.4 15.8 Q 16.75 15.8 17.1 16.1 A 0.976 0.976 0 0 1 17.426 16.676 A 1.454 1.454 0 0 1 17.45 16.95 A 1.004 1.004 0 0 1 17.417 17.214 A 0.762 0.762 0 0 1 17.25 17.525 A 1.889 1.889 0 0 1 17.114 17.662 Q 16.91 17.849 16.55 18.1 Q 16.05 18.45 16.05 18.7 L 16.05 19.05 A 0.362 0.362 0 0 0 16.086 19.194 Q 16.175 19.395 16.487 19.713 A 5.998 5.998 0 0 0 16.625 19.85 A 3.06 3.06 0 0 1 16.884 20.127 Q 17.143 20.446 17.19 20.728 A 0.745 0.745 0 0 1 17.2 20.85 A 0.867 0.867 0 0 1 17.12 21.2 Q 17.004 21.464 16.72 21.757 A 3.599 3.599 0 0 1 16.625 21.85 Q 16.14 22.315 16.064 22.565 A 0.296 0.296 0 0 0 16.05 22.65 L 16.05 23 A 0.378 0.378 0 0 0 16.104 23.187 Q 16.177 23.315 16.346 23.448 A 1.964 1.964 0 0 0 16.45 23.525 A 7.253 7.253 0 0 1 16.847 23.818 A 5.564 5.564 0 0 1 17.15 24.075 A 0.919 0.919 0 0 1 17.382 24.398 A 0.902 0.902 0 0 1 17.45 24.75 A 1.085 1.085 0 0 1 17.351 25.22 A 1.08 1.08 0 0 1 17.075 25.575 A 1.321 1.321 0 0 1 16.318 25.893 A 1.733 1.733 0 0 1 16.15 25.9 A 1.451 1.451 0 0 1 15.493 25.74 A 1.77 1.77 0 0 1 15.375 25.675 Q 15 25.45 14.5 25.45 A 1.877 1.877 0 0 0 14.032 25.507 A 1.521 1.521 0 0 0 13.625 25.675 A 1.587 1.587 0 0 1 13.177 25.862 A 1.401 1.401 0 0 1 12.85 25.9 A 1.542 1.542 0 0 1 12.388 25.834 A 1.285 1.285 0 0 1 11.925 25.575 A 1.037 1.037 0 0 1 11.553 24.828 A 1.281 1.281 0 0 1 11.55 24.75 A 1.004 1.004 0 0 1 11.583 24.487 A 0.762 0.762 0 0 1 11.75 24.175 A 1.889 1.889 0 0 1 11.887 24.039 Q 12.091 23.852 12.45 23.6 Q 12.95 23.25 12.95 23 Z M 20.8 10.8 L 20.8 10.45 A 0.362 0.362 0 0 0 20.765 10.307 Q 20.676 10.105 20.364 9.788 A 5.998 5.998 0 0 0 20.225 9.65 A 3.06 3.06 0 0 1 19.967 9.374 Q 19.708 9.055 19.661 8.773 A 0.745 0.745 0 0 1 19.65 8.65 A 0.867 0.867 0 0 1 19.73 8.301 Q 19.847 8.037 20.131 7.744 A 3.599 3.599 0 0 1 20.225 7.65 Q 20.711 7.186 20.787 6.935 A 0.296 0.296 0 0 0 20.8 6.85 L 20.8 6.5 A 0.378 0.378 0 0 0 20.747 6.314 Q 20.674 6.186 20.505 6.052 A 1.964 1.964 0 0 0 20.4 5.975 A 7.253 7.253 0 0 1 20.004 5.683 A 5.564 5.564 0 0 1 19.7 5.425 A 0.919 0.919 0 0 1 19.469 5.103 A 0.902 0.902 0 0 1 19.4 4.75 Q 19.4 4.2 19.75 3.9 A 1.508 1.508 0 0 1 19.991 3.73 Q 20.221 3.6 20.45 3.6 A 0.698 0.698 0 0 0 20.655 3.566 Q 20.845 3.508 21.084 3.35 A 3.406 3.406 0 0 0 21.225 3.25 A 1.794 1.794 0 0 1 22.152 2.909 A 2.272 2.272 0 0 1 22.35 2.9 Q 23 2.9 23.475 3.25 A 3.113 3.113 0 0 0 23.702 3.404 Q 24.025 3.6 24.25 3.6 Q 24.6 3.6 24.95 3.9 A 0.976 0.976 0 0 1 25.276 4.476 A 1.454 1.454 0 0 1 25.3 4.75 A 1.004 1.004 0 0 1 25.267 5.014 A 0.762 0.762 0 0 1 25.1 5.325 A 1.889 1.889 0 0 1 24.964 5.462 Q 24.76 5.649 24.4 5.9 Q 23.9 6.25 23.9 6.5 L 23.9 6.85 A 0.362 0.362 0 0 0 23.936 6.994 Q 24.025 7.195 24.337 7.513 A 5.998 5.998 0 0 0 24.475 7.65 A 3.06 3.06 0 0 1 24.734 7.927 Q 24.993 8.246 25.04 8.528 A 0.745 0.745 0 0 1 25.05 8.65 A 0.867 0.867 0 0 1 24.97 9 Q 24.854 9.264 24.57 9.557 A 3.599 3.599 0 0 1 24.475 9.65 Q 23.99 10.115 23.914 10.365 A 0.296 0.296 0 0 0 23.9 10.45 L 23.9 10.8 A 0.378 0.378 0 0 0 23.954 10.987 Q 24.027 11.115 24.196 11.248 A 1.964 1.964 0 0 0 24.3 11.325 A 7.253 7.253 0 0 1 24.697 11.618 A 5.564 5.564 0 0 1 25 11.875 A 0.919 0.919 0 0 1 25.232 12.198 A 0.902 0.902 0 0 1 25.3 12.55 A 1.085 1.085 0 0 1 25.201 13.02 A 1.08 1.08 0 0 1 24.925 13.375 A 1.321 1.321 0 0 1 24.168 13.693 A 1.733 1.733 0 0 1 24 13.7 A 1.451 1.451 0 0 1 23.343 13.54 A 1.77 1.77 0 0 1 23.225 13.475 Q 22.85 13.25 22.35 13.25 A 1.877 1.877 0 0 0 21.882 13.307 A 1.521 1.521 0 0 0 21.475 13.475 A 1.587 1.587 0 0 1 21.027 13.662 A 1.401 1.401 0 0 1 20.7 13.7 A 1.542 1.542 0 0 1 20.238 13.634 A 1.285 1.285 0 0 1 19.775 13.375 A 1.037 1.037 0 0 1 19.403 12.628 A 1.281 1.281 0 0 1 19.4 12.55 A 1.004 1.004 0 0 1 19.433 12.287 A 0.762 0.762 0 0 1 19.6 11.975 A 1.889 1.889 0 0 1 19.737 11.839 Q 19.941 11.652 20.3 11.4 Q 20.8 11.05 20.8 10.8 Z M 12.95 10.8 L 12.95 10.45 A 0.362 0.362 0 0 0 12.915 10.307 Q 12.826 10.105 12.514 9.788 A 5.998 5.998 0 0 0 12.375 9.65 A 3.06 3.06 0 0 1 12.117 9.374 Q 11.858 9.055 11.811 8.773 A 0.745 0.745 0 0 1 11.8 8.65 A 0.867 0.867 0 0 1 11.88 8.301 Q 11.997 8.037 12.281 7.744 A 3.599 3.599 0 0 1 12.375 7.65 Q 12.861 7.186 12.937 6.935 A 0.296 0.296 0 0 0 12.95 6.85 L 12.95 6.5 A 0.378 0.378 0 0 0 12.897 6.314 Q 12.824 6.186 12.655 6.052 A 1.964 1.964 0 0 0 12.55 5.975 A 7.253 7.253 0 0 1 12.154 5.683 A 5.564 5.564 0 0 1 11.85 5.425 A 0.919 0.919 0 0 1 11.619 5.103 A 0.902 0.902 0 0 1 11.55 4.75 Q 11.55 4.2 11.9 3.9 A 1.508 1.508 0 0 1 12.141 3.73 Q 12.371 3.6 12.6 3.6 A 0.698 0.698 0 0 0 12.805 3.566 Q 12.995 3.508 13.234 3.35 A 3.406 3.406 0 0 0 13.375 3.25 A 1.794 1.794 0 0 1 14.302 2.909 A 2.272 2.272 0 0 1 14.5 2.9 Q 15.15 2.9 15.625 3.25 A 3.113 3.113 0 0 0 15.852 3.404 Q 16.175 3.6 16.4 3.6 Q 16.75 3.6 17.1 3.9 A 0.976 0.976 0 0 1 17.426 4.476 A 1.454 1.454 0 0 1 17.45 4.75 A 1.004 1.004 0 0 1 17.417 5.014 A 0.762 0.762 0 0 1 17.25 5.325 A 1.889 1.889 0 0 1 17.114 5.462 Q 16.91 5.649 16.55 5.9 Q 16.05 6.25 16.05 6.5 L 16.05 6.85 A 0.362 0.362 0 0 0 16.086 6.994 Q 16.175 7.195 16.487 7.513 A 5.998 5.998 0 0 0 16.625 7.65 A 3.06 3.06 0 0 1 16.884 7.927 Q 17.143 8.246 17.19 8.528 A 0.745 0.745 0 0 1 17.2 8.65 A 0.867 0.867 0 0 1 17.12 9 Q 17.004 9.264 16.72 9.557 A 3.599 3.599 0 0 1 16.625 9.65 Q 16.14 10.115 16.064 10.365 A 0.296 0.296 0 0 0 16.05 10.45 L 16.05 10.8 A 0.378 0.378 0 0 0 16.104 10.987 Q 16.177 11.115 16.346 11.248 A 1.964 1.964 0 0 0 16.45 11.325 A 7.253 7.253 0 0 1 16.847 11.618 A 5.564 5.564 0 0 1 17.15 11.875 A 0.919 0.919 0 0 1 17.382 12.198 A 0.902 0.902 0 0 1 17.45 12.55 A 1.085 1.085 0 0 1 17.351 13.02 A 1.08 1.08 0 0 1 17.075 13.375 A 1.321 1.321 0 0 1 16.318 13.693 A 1.733 1.733 0 0 1 16.15 13.7 A 1.451 1.451 0 0 1 15.493 13.54 A 1.77 1.77 0 0 1 15.375 13.475 Q 15 13.25 14.5 13.25 A 1.877 1.877 0 0 0 14.032 13.307 A 1.521 1.521 0 0 0 13.625 13.475 A 1.587 1.587 0 0 1 13.177 13.662 A 1.401 1.401 0 0 1 12.85 13.7 A 1.542 1.542 0 0 1 12.388 13.634 A 1.285 1.285 0 0 1 11.925 13.375 A 1.037 1.037 0 0 1 11.553 12.628 A 1.281 1.281 0 0 1 11.55 12.55 A 1.004 1.004 0 0 1 11.583 12.287 A 0.762 0.762 0 0 1 11.75 11.975 A 1.889 1.889 0 0 1 11.887 11.839 Q 12.091 11.652 12.45 11.4 Q 12.95 11.05 12.95 10.8 Z M 20.8 35.2 L 20.8 34.85 A 0.362 0.362 0 0 0 20.765 34.707 Q 20.676 34.505 20.364 34.188 A 5.998 5.998 0 0 0 20.225 34.05 A 3.06 3.06 0 0 1 19.967 33.774 Q 19.708 33.455 19.661 33.173 A 0.745 0.745 0 0 1 19.65 33.05 A 0.867 0.867 0 0 1 19.73 32.701 Q 19.847 32.437 20.131 32.144 A 3.599 3.599 0 0 1 20.225 32.05 Q 20.711 31.586 20.787 31.335 A 0.296 0.296 0 0 0 20.8 31.25 L 20.8 30.9 A 0.378 0.378 0 0 0 20.747 30.714 Q 20.674 30.586 20.505 30.452 A 1.964 1.964 0 0 0 20.4 30.375 A 7.253 7.253 0 0 1 20.004 30.083 A 5.564 5.564 0 0 1 19.7 29.825 A 0.919 0.919 0 0 1 19.469 29.503 A 0.902 0.902 0 0 1 19.4 29.15 Q 19.4 28.6 19.75 28.3 A 1.508 1.508 0 0 1 19.991 28.13 Q 20.221 28 20.45 28 A 0.698 0.698 0 0 0 20.655 27.966 Q 20.845 27.908 21.084 27.75 A 3.406 3.406 0 0 0 21.225 27.65 A 1.794 1.794 0 0 1 22.152 27.309 A 2.272 2.272 0 0 1 22.35 27.3 Q 23 27.3 23.475 27.65 A 3.113 3.113 0 0 0 23.702 27.804 Q 24.025 28 24.25 28 Q 24.6 28 24.95 28.3 A 0.976 0.976 0 0 1 25.276 28.876 A 1.454 1.454 0 0 1 25.3 29.15 A 1.004 1.004 0 0 1 25.267 29.414 A 0.762 0.762 0 0 1 25.1 29.725 A 1.889 1.889 0 0 1 24.964 29.862 Q 24.76 30.049 24.4 30.3 Q 23.9 30.65 23.9 30.9 L 23.9 31.25 A 0.362 0.362 0 0 0 23.936 31.394 Q 24.025 31.595 24.337 31.913 A 5.998 5.998 0 0 0 24.475 32.05 A 3.06 3.06 0 0 1 24.734 32.327 Q 24.993 32.646 25.04 32.928 A 0.745 0.745 0 0 1 25.05 33.05 A 0.867 0.867 0 0 1 24.97 33.4 Q 24.854 33.664 24.57 33.957 A 3.599 3.599 0 0 1 24.475 34.05 Q 23.99 34.515 23.914 34.765 A 0.296 0.296 0 0 0 23.9 34.85 L 23.9 35.2 A 0.378 0.378 0 0 0 23.954 35.387 Q 24.027 35.515 24.196 35.648 A 1.964 1.964 0 0 0 24.3 35.725 A 7.253 7.253 0 0 1 24.697 36.018 A 5.564 5.564 0 0 1 25 36.275 A 0.919 0.919 0 0 1 25.232 36.598 A 0.902 0.902 0 0 1 25.3 36.95 A 1.085 1.085 0 0 1 25.201 37.42 A 1.08 1.08 0 0 1 24.925 37.775 A 1.321 1.321 0 0 1 24.168 38.093 A 1.733 1.733 0 0 1 24 38.1 A 1.451 1.451 0 0 1 23.343 37.94 A 1.77 1.77 0 0 1 23.225 37.875 Q 22.85 37.65 22.35 37.65 A 1.877 1.877 0 0 0 21.882 37.707 A 1.521 1.521 0 0 0 21.475 37.875 A 1.587 1.587 0 0 1 21.027 38.062 A 1.401 1.401 0 0 1 20.7 38.1 A 1.542 1.542 0 0 1 20.238 38.034 A 1.285 1.285 0 0 1 19.775 37.775 A 1.037 1.037 0 0 1 19.403 37.028 A 1.281 1.281 0 0 1 19.4 36.95 A 1.004 1.004 0 0 1 19.433 36.687 A 0.762 0.762 0 0 1 19.6 36.375 A 1.889 1.889 0 0 1 19.737 36.239 Q 19.941 36.052 20.3 35.8 Q 20.8 35.45 20.8 35.2 Z M 5.1 35.2 L 5.1 34.85 A 0.362 0.362 0 0 0 5.065 34.707 Q 4.976 34.505 4.664 34.188 A 5.998 5.998 0 0 0 4.525 34.05 A 3.06 3.06 0 0 1 4.267 33.774 Q 4.008 33.455 3.961 33.173 A 0.745 0.745 0 0 1 3.95 33.05 A 0.867 0.867 0 0 1 4.03 32.701 Q 4.147 32.437 4.431 32.144 A 3.599 3.599 0 0 1 4.525 32.05 Q 5.011 31.586 5.087 31.335 A 0.296 0.296 0 0 0 5.1 31.25 L 5.1 30.9 A 0.378 0.378 0 0 0 5.047 30.714 Q 4.974 30.586 4.805 30.452 A 1.964 1.964 0 0 0 4.7 30.375 A 7.253 7.253 0 0 1 4.304 30.083 A 5.564 5.564 0 0 1 4 29.825 A 0.919 0.919 0 0 1 3.769 29.503 A 0.902 0.902 0 0 1 3.7 29.15 Q 3.7 28.6 4.05 28.3 A 1.508 1.508 0 0 1 4.291 28.13 Q 4.521 28 4.75 28 A 0.698 0.698 0 0 0 4.955 27.966 Q 5.145 27.908 5.384 27.75 A 3.406 3.406 0 0 0 5.525 27.65 A 1.794 1.794 0 0 1 6.452 27.309 A 2.272 2.272 0 0 1 6.65 27.3 Q 7.3 27.3 7.775 27.65 A 3.113 3.113 0 0 0 8.002 27.804 Q 8.325 28 8.55 28 Q 8.9 28 9.25 28.3 A 0.976 0.976 0 0 1 9.576 28.876 A 1.454 1.454 0 0 1 9.6 29.15 A 1.004 1.004 0 0 1 9.567 29.414 A 0.762 0.762 0 0 1 9.4 29.725 A 1.889 1.889 0 0 1 9.264 29.862 Q 9.06 30.049 8.7 30.3 Q 8.2 30.65 8.2 30.9 L 8.2 31.25 A 0.362 0.362 0 0 0 8.236 31.394 Q 8.325 31.595 8.637 31.913 A 5.998 5.998 0 0 0 8.775 32.05 A 3.06 3.06 0 0 1 9.034 32.327 Q 9.293 32.646 9.34 32.928 A 0.745 0.745 0 0 1 9.35 33.05 A 0.867 0.867 0 0 1 9.27 33.4 Q 9.154 33.664 8.87 33.957 A 3.599 3.599 0 0 1 8.775 34.05 Q 8.29 34.515 8.214 34.765 A 0.296 0.296 0 0 0 8.2 34.85 L 8.2 35.2 A 0.378 0.378 0 0 0 8.254 35.387 Q 8.327 35.515 8.496 35.648 A 1.964 1.964 0 0 0 8.6 35.725 A 7.253 7.253 0 0 1 8.997 36.018 A 5.564 5.564 0 0 1 9.3 36.275 A 0.919 0.919 0 0 1 9.532 36.598 A 0.902 0.902 0 0 1 9.6 36.95 A 1.085 1.085 0 0 1 9.501 37.42 A 1.08 1.08 0 0 1 9.225 37.775 A 1.321 1.321 0 0 1 8.468 38.093 A 1.733 1.733 0 0 1 8.3 38.1 A 1.451 1.451 0 0 1 7.643 37.94 A 1.77 1.77 0 0 1 7.525 37.875 Q 7.15 37.65 6.65 37.65 A 1.877 1.877 0 0 0 6.182 37.707 A 1.521 1.521 0 0 0 5.775 37.875 A 1.587 1.587 0 0 1 5.327 38.062 A 1.401 1.401 0 0 1 5 38.1 A 1.542 1.542 0 0 1 4.538 38.034 A 1.285 1.285 0 0 1 4.075 37.775 A 1.037 1.037 0 0 1 3.703 37.028 A 1.281 1.281 0 0 1 3.7 36.95 A 1.004 1.004 0 0 1 3.733 36.687 A 0.762 0.762 0 0 1 3.9 36.375 A 1.889 1.889 0 0 1 4.037 36.239 Q 4.241 36.052 4.6 35.8 Q 5.1 35.45 5.1 35.2 Z M 12.95 35.2 L 12.95 34.85 A 0.362 0.362 0 0 0 12.915 34.707 Q 12.826 34.505 12.514 34.188 A 5.998 5.998 0 0 0 12.375 34.05 A 3.06 3.06 0 0 1 12.117 33.774 Q 11.858 33.455 11.811 33.173 A 0.745 0.745 0 0 1 11.8 33.05 A 0.867 0.867 0 0 1 11.88 32.701 Q 11.997 32.437 12.281 32.144 A 3.599 3.599 0 0 1 12.375 32.05 Q 12.861 31.586 12.937 31.335 A 0.296 0.296 0 0 0 12.95 31.25 L 12.95 30.9 A 0.378 0.378 0 0 0 12.897 30.714 Q 12.824 30.586 12.655 30.452 A 1.964 1.964 0 0 0 12.55 30.375 A 7.253 7.253 0 0 1 12.154 30.083 A 5.564 5.564 0 0 1 11.85 29.825 A 0.919 0.919 0 0 1 11.619 29.503 A 0.902 0.902 0 0 1 11.55 29.15 Q 11.55 28.6 11.9 28.3 A 1.508 1.508 0 0 1 12.141 28.13 Q 12.371 28 12.6 28 A 0.698 0.698 0 0 0 12.805 27.966 Q 12.995 27.908 13.234 27.75 A 3.406 3.406 0 0 0 13.375 27.65 A 1.794 1.794 0 0 1 14.302 27.309 A 2.272 2.272 0 0 1 14.5 27.3 Q 15.15 27.3 15.625 27.65 A 3.113 3.113 0 0 0 15.852 27.804 Q 16.175 28 16.4 28 Q 16.75 28 17.1 28.3 A 0.976 0.976 0 0 1 17.426 28.876 A 1.454 1.454 0 0 1 17.45 29.15 A 1.004 1.004 0 0 1 17.417 29.414 A 0.762 0.762 0 0 1 17.25 29.725 A 1.889 1.889 0 0 1 17.114 29.862 Q 16.91 30.049 16.55 30.3 Q 16.05 30.65 16.05 30.9 L 16.05 31.25 A 0.362 0.362 0 0 0 16.086 31.394 Q 16.175 31.595 16.487 31.913 A 5.998 5.998 0 0 0 16.625 32.05 A 3.06 3.06 0 0 1 16.884 32.327 Q 17.143 32.646 17.19 32.928 A 0.745 0.745 0 0 1 17.2 33.05 A 0.867 0.867 0 0 1 17.12 33.4 Q 17.004 33.664 16.72 33.957 A 3.599 3.599 0 0 1 16.625 34.05 Q 16.14 34.515 16.064 34.765 A 0.296 0.296 0 0 0 16.05 34.85 L 16.05 35.2 A 0.378 0.378 0 0 0 16.104 35.387 Q 16.177 35.515 16.346 35.648 A 1.964 1.964 0 0 0 16.45 35.725 A 7.253 7.253 0 0 1 16.847 36.018 A 5.564 5.564 0 0 1 17.15 36.275 A 0.919 0.919 0 0 1 17.382 36.598 A 0.902 0.902 0 0 1 17.45 36.95 A 1.085 1.085 0 0 1 17.351 37.42 A 1.08 1.08 0 0 1 17.075 37.775 A 1.321 1.321 0 0 1 16.318 38.093 A 1.733 1.733 0 0 1 16.15 38.1 A 1.451 1.451 0 0 1 15.493 37.94 A 1.77 1.77 0 0 1 15.375 37.875 Q 15 37.65 14.5 37.65 A 1.877 1.877 0 0 0 14.032 37.707 A 1.521 1.521 0 0 0 13.625 37.875 A 1.587 1.587 0 0 1 13.177 38.062 A 1.401 1.401 0 0 1 12.85 38.1 A 1.542 1.542 0 0 1 12.388 38.034 A 1.285 1.285 0 0 1 11.925 37.775 A 1.037 1.037 0 0 1 11.553 37.028 A 1.281 1.281 0 0 1 11.55 36.95 A 1.004 1.004 0 0 1 11.583 36.687 A 0.762 0.762 0 0 1 11.75 36.375 A 1.889 1.889 0 0 1 11.887 36.239 Q 12.091 36.052 12.45 35.8 Q 12.95 35.45 12.95 35.2 Z M 5.1 10.8 L 5.1 10.45 A 0.362 0.362 0 0 0 5.065 10.307 Q 4.976 10.105 4.664 9.788 A 5.998 5.998 0 0 0 4.525 9.65 A 3.06 3.06 0 0 1 4.267 9.374 Q 4.008 9.055 3.961 8.773 A 0.745 0.745 0 0 1 3.95 8.65 A 0.867 0.867 0 0 1 4.03 8.301 Q 4.147 8.037 4.431 7.744 A 3.599 3.599 0 0 1 4.525 7.65 Q 5.011 7.186 5.087 6.935 A 0.296 0.296 0 0 0 5.1 6.85 L 5.1 6.5 A 0.378 0.378 0 0 0 5.047 6.314 Q 4.974 6.186 4.805 6.052 A 1.964 1.964 0 0 0 4.7 5.975 A 7.253 7.253 0 0 1 4.304 5.683 A 5.564 5.564 0 0 1 4 5.425 A 0.919 0.919 0 0 1 3.769 5.103 A 0.902 0.902 0 0 1 3.7 4.75 Q 3.7 4.2 4.05 3.9 A 1.508 1.508 0 0 1 4.291 3.73 Q 4.521 3.6 4.75 3.6 A 0.698 0.698 0 0 0 4.955 3.566 Q 5.145 3.508 5.384 3.35 A 3.406 3.406 0 0 0 5.525 3.25 A 1.794 1.794 0 0 1 6.452 2.909 A 2.272 2.272 0 0 1 6.65 2.9 Q 7.3 2.9 7.775 3.25 A 3.113 3.113 0 0 0 8.002 3.404 Q 8.325 3.6 8.55 3.6 Q 8.9 3.6 9.25 3.9 A 0.976 0.976 0 0 1 9.576 4.476 A 1.454 1.454 0 0 1 9.6 4.75 A 1.004 1.004 0 0 1 9.567 5.014 A 0.762 0.762 0 0 1 9.4 5.325 A 1.889 1.889 0 0 1 9.264 5.462 Q 9.06 5.649 8.7 5.9 Q 8.2 6.25 8.2 6.5 L 8.2 6.85 A 0.362 0.362 0 0 0 8.236 6.994 Q 8.325 7.195 8.637 7.513 A 5.998 5.998 0 0 0 8.775 7.65 A 3.06 3.06 0 0 1 9.034 7.927 Q 9.293 8.246 9.34 8.528 A 0.745 0.745 0 0 1 9.35 8.65 A 0.867 0.867 0 0 1 9.27 9 Q 9.154 9.264 8.87 9.557 A 3.599 3.599 0 0 1 8.775 9.65 Q 8.29 10.115 8.214 10.365 A 0.296 0.296 0 0 0 8.2 10.45 L 8.2 10.8 A 0.378 0.378 0 0 0 8.254 10.987 Q 8.327 11.115 8.496 11.248 A 1.964 1.964 0 0 0 8.6 11.325 A 7.253 7.253 0 0 1 8.997 11.618 A 5.564 5.564 0 0 1 9.3 11.875 A 0.919 0.919 0 0 1 9.532 12.198 A 0.902 0.902 0 0 1 9.6 12.55 A 1.333 1.333 0 0 1 9.6 12.558 Q 9.599 12.825 9.49 13.042 A 1.087 1.087 0 0 1 9.225 13.375 A 1.321 1.321 0 0 1 8.468 13.693 A 1.733 1.733 0 0 1 8.3 13.7 A 1.451 1.451 0 0 1 7.643 13.54 A 1.77 1.77 0 0 1 7.525 13.475 Q 7.15 13.25 6.65 13.25 A 1.877 1.877 0 0 0 6.182 13.307 A 1.521 1.521 0 0 0 5.775 13.475 A 1.587 1.587 0 0 1 5.327 13.662 A 1.401 1.401 0 0 1 5 13.7 A 1.542 1.542 0 0 1 4.538 13.634 A 1.285 1.285 0 0 1 4.075 13.375 A 1.037 1.037 0 0 1 3.703 12.628 A 1.281 1.281 0 0 1 3.7 12.55 A 1.004 1.004 0 0 1 3.733 12.287 A 0.762 0.762 0 0 1 3.9 11.975 A 1.889 1.889 0 0 1 4.037 11.839 Q 4.241 11.652 4.6 11.4 Q 5.1 11.05 5.1 10.8 Z M 5.9 7.8 L 7.4 7.8 L 7.4 5.55 A 3.166 3.166 0 0 0 7.613 5.317 Q 7.816 5.07 7.875 4.865 A 0.586 0.586 0 0 0 7.9 4.7 A 1.019 1.019 0 0 0 7.654 4.037 A 1.434 1.434 0 0 0 7.525 3.9 Q 7.15 3.55 6.65 3.55 Q 6.15 3.55 5.775 3.9 A 1.293 1.293 0 0 0 5.54 4.188 A 0.992 0.992 0 0 0 5.4 4.7 A 0.646 0.646 0 0 0 5.453 4.943 Q 5.537 5.148 5.753 5.393 A 3.442 3.442 0 0 0 5.9 5.55 L 5.9 7.8 Z M 13.75 7.8 L 15.25 7.8 L 15.25 5.55 A 3.166 3.166 0 0 0 15.463 5.317 Q 15.666 5.07 15.725 4.865 A 0.586 0.586 0 0 0 15.75 4.7 A 1.019 1.019 0 0 0 15.504 4.037 A 1.434 1.434 0 0 0 15.375 3.9 Q 15 3.55 14.5 3.55 Q 14 3.55 13.625 3.9 A 1.293 1.293 0 0 0 13.39 4.188 A 0.992 0.992 0 0 0 13.25 4.7 A 0.646 0.646 0 0 0 13.303 4.943 Q 13.387 5.148 13.603 5.393 A 3.442 3.442 0 0 0 13.75 5.55 L 13.75 7.8 Z M 21.6 7.8 L 23.1 7.8 L 23.1 5.55 A 3.166 3.166 0 0 0 23.313 5.317 Q 23.516 5.07 23.575 4.865 A 0.586 0.586 0 0 0 23.6 4.7 A 1.019 1.019 0 0 0 23.354 4.037 A 1.434 1.434 0 0 0 23.225 3.9 Q 22.85 3.55 22.35 3.55 Q 21.85 3.55 21.475 3.9 A 1.293 1.293 0 0 0 21.24 4.188 A 0.992 0.992 0 0 0 21.1 4.7 A 0.646 0.646 0 0 0 21.153 4.943 Q 21.237 5.148 21.453 5.393 A 3.442 3.442 0 0 0 21.6 5.55 L 21.6 7.8 Z M 5.9 20 L 7.4 20 L 7.4 17.75 A 3.166 3.166 0 0 0 7.613 17.517 Q 7.816 17.27 7.875 17.065 A 0.586 0.586 0 0 0 7.9 16.9 A 1.019 1.019 0 0 0 7.654 16.237 A 1.434 1.434 0 0 0 7.525 16.1 Q 7.15 15.75 6.65 15.75 Q 6.15 15.75 5.775 16.1 A 1.293 1.293 0 0 0 5.54 16.388 A 0.992 0.992 0 0 0 5.4 16.9 A 0.646 0.646 0 0 0 5.453 17.143 Q 5.537 17.348 5.753 17.593 A 3.442 3.442 0 0 0 5.9 17.75 L 5.9 20 Z M 13.75 20 L 15.25 20 L 15.25 17.75 A 3.166 3.166 0 0 0 15.463 17.517 Q 15.666 17.27 15.725 17.065 A 0.586 0.586 0 0 0 15.75 16.9 A 1.019 1.019 0 0 0 15.504 16.237 A 1.434 1.434 0 0 0 15.375 16.1 Q 15 15.75 14.5 15.75 Q 14 15.75 13.625 16.1 A 1.293 1.293 0 0 0 13.39 16.388 A 0.992 0.992 0 0 0 13.25 16.9 A 0.646 0.646 0 0 0 13.303 17.143 Q 13.387 17.348 13.603 17.593 A 3.442 3.442 0 0 0 13.75 17.75 L 13.75 20 Z M 21.6 20 L 23.1 20 L 23.1 17.75 A 3.166 3.166 0 0 0 23.313 17.517 Q 23.516 17.27 23.575 17.065 A 0.586 0.586 0 0 0 23.6 16.9 A 1.019 1.019 0 0 0 23.354 16.237 A 1.434 1.434 0 0 0 23.225 16.1 Q 22.85 15.75 22.35 15.75 Q 21.85 15.75 21.475 16.1 A 1.293 1.293 0 0 0 21.24 16.388 A 0.992 0.992 0 0 0 21.1 16.9 A 0.646 0.646 0 0 0 21.153 17.143 Q 21.237 17.348 21.453 17.593 A 3.442 3.442 0 0 0 21.6 17.75 L 21.6 20 Z M 13.75 32.2 L 15.25 32.2 L 15.25 29.95 A 3.166 3.166 0 0 0 15.463 29.717 Q 15.666 29.47 15.725 29.265 A 0.586 0.586 0 0 0 15.75 29.1 A 1.019 1.019 0 0 0 15.504 28.437 A 1.434 1.434 0 0 0 15.375 28.3 Q 15 27.95 14.5 27.95 Q 14 27.95 13.625 28.3 A 1.293 1.293 0 0 0 13.39 28.588 A 0.992 0.992 0 0 0 13.25 29.1 A 0.646 0.646 0 0 0 13.303 29.343 Q 13.387 29.548 13.603 29.793 A 3.442 3.442 0 0 0 13.75 29.95 L 13.75 32.2 Z M 21.6 32.2 L 23.1 32.2 L 23.1 29.95 A 3.166 3.166 0 0 0 23.313 29.717 Q 23.516 29.47 23.575 29.265 A 0.586 0.586 0 0 0 23.6 29.1 A 1.019 1.019 0 0 0 23.354 28.437 A 1.434 1.434 0 0 0 23.225 28.3 Q 22.85 27.95 22.35 27.95 Q 21.85 27.95 21.475 28.3 A 1.293 1.293 0 0 0 21.24 28.588 A 0.992 0.992 0 0 0 21.1 29.1 A 0.646 0.646 0 0 0 21.153 29.343 Q 21.237 29.548 21.453 29.793 A 3.442 3.442 0 0 0 21.6 29.95 L 21.6 32.2 Z M 5.9 32.2 L 7.4 32.2 L 7.4 29.95 A 3.166 3.166 0 0 0 7.613 29.717 Q 7.816 29.47 7.875 29.265 A 0.586 0.586 0 0 0 7.9 29.1 A 1.019 1.019 0 0 0 7.654 28.437 A 1.434 1.434 0 0 0 7.525 28.3 Q 7.15 27.95 6.65 27.95 Q 6.15 27.95 5.775 28.3 A 1.293 1.293 0 0 0 5.54 28.588 A 0.992 0.992 0 0 0 5.4 29.1 A 0.646 0.646 0 0 0 5.453 29.343 Q 5.537 29.548 5.753 29.793 A 3.442 3.442 0 0 0 5.9 29.95 L 5.9 32.2 Z M 23.1 11.95 L 23.1 9.55 L 21.6 9.55 L 21.6 11.95 Q 21.6 12.25 21.8 12.475 A 0.657 0.657 0 0 0 22.203 12.69 A 0.95 0.95 0 0 0 22.35 12.7 Q 22.7 12.7 22.9 12.475 Q 23.1 12.25 23.1 11.95 Z M 7.4 11.95 L 7.4 9.55 L 5.9 9.55 L 5.9 11.95 Q 5.9 12.25 6.1 12.475 A 0.657 0.657 0 0 0 6.503 12.69 A 0.95 0.95 0 0 0 6.65 12.7 Q 7 12.7 7.2 12.475 Q 7.4 12.25 7.4 11.95 Z M 15.25 11.95 L 15.25 9.55 L 13.75 9.55 L 13.75 11.95 Q 13.75 12.25 13.95 12.475 A 0.657 0.657 0 0 0 14.353 12.69 A 0.95 0.95 0 0 0 14.5 12.7 Q 14.85 12.7 15.05 12.475 Q 15.25 12.25 15.25 11.95 Z M 23.1 24.15 L 23.1 21.75 L 21.6 21.75 L 21.6 24.15 Q 21.6 24.45 21.8 24.675 A 0.657 0.657 0 0 0 22.203 24.89 A 0.95 0.95 0 0 0 22.35 24.9 Q 22.7 24.9 22.9 24.675 Q 23.1 24.45 23.1 24.15 Z M 23.1 36.35 L 23.1 33.95 L 21.6 33.95 L 21.6 36.35 Q 21.6 36.65 21.8 36.875 A 0.657 0.657 0 0 0 22.203 37.09 A 0.95 0.95 0 0 0 22.35 37.1 Q 22.7 37.1 22.9 36.875 Q 23.1 36.65 23.1 36.35 Z M 7.4 24.15 L 7.4 21.75 L 5.9 21.75 L 5.9 24.15 Q 5.9 24.45 6.1 24.675 A 0.657 0.657 0 0 0 6.503 24.89 A 0.95 0.95 0 0 0 6.65 24.9 Q 7 24.9 7.2 24.675 Q 7.4 24.45 7.4 24.15 Z M 7.4 36.35 L 7.4 33.95 L 5.9 33.95 L 5.9 36.35 Q 5.9 36.65 6.1 36.875 A 0.657 0.657 0 0 0 6.503 37.09 A 0.95 0.95 0 0 0 6.65 37.1 Q 7 37.1 7.2 36.875 Q 7.4 36.65 7.4 36.35 Z M 15.25 24.15 L 15.25 21.75 L 13.75 21.75 L 13.75 24.15 Q 13.75 24.45 13.95 24.675 A 0.657 0.657 0 0 0 14.353 24.89 A 0.95 0.95 0 0 0 14.5 24.9 Q 14.85 24.9 15.05 24.675 Q 15.25 24.45 15.25 24.15 Z M 15.25 36.35 L 15.25 33.95 L 13.75 33.95 L 13.75 36.35 Q 13.75 36.65 13.95 36.875 A 0.657 0.657 0 0 0 14.353 37.09 A 0.95 0.95 0 0 0 14.5 37.1 Q 14.85 37.1 15.05 36.875 Q 15.25 36.65 15.25 36.35 Z M 13.35 21.25 L 15.65 21.25 Q 15.85 21.25 16 21.125 A 0.525 0.525 0 0 0 16.08 21.045 Q 16.124 20.988 16.14 20.926 A 0.29 0.29 0 0 0 16.15 20.85 A 0.34 0.34 0 0 0 16.109 20.678 Q 16.03 20.541 15.8 20.51 A 1.112 1.112 0 0 0 15.65 20.5 L 13.35 20.5 Q 12.864 20.5 12.851 20.832 A 0.47 0.47 0 0 0 12.85 20.85 A 0.453 0.453 0 0 0 12.882 21.025 Q 12.975 21.25 13.35 21.25 Z M 13.35 9.05 L 15.65 9.05 Q 15.85 9.05 16 8.925 A 0.525 0.525 0 0 0 16.08 8.845 Q 16.124 8.788 16.14 8.726 A 0.29 0.29 0 0 0 16.15 8.65 A 0.34 0.34 0 0 0 16.109 8.478 Q 16.03 8.341 15.8 8.31 A 1.112 1.112 0 0 0 15.65 8.3 L 13.35 8.3 Q 12.864 8.3 12.851 8.632 A 0.47 0.47 0 0 0 12.85 8.65 A 0.453 0.453 0 0 0 12.882 8.825 Q 12.975 9.05 13.35 9.05 Z M 13.35 33.45 L 15.65 33.45 Q 15.85 33.45 16 33.325 A 0.525 0.525 0 0 0 16.08 33.245 Q 16.124 33.188 16.14 33.126 A 0.29 0.29 0 0 0 16.15 33.05 A 0.34 0.34 0 0 0 16.109 32.878 Q 16.03 32.741 15.8 32.71 A 1.112 1.112 0 0 0 15.65 32.7 L 13.35 32.7 Q 12.864 32.7 12.851 33.032 A 0.47 0.47 0 0 0 12.85 33.05 A 0.453 0.453 0 0 0 12.882 33.225 Q 12.975 33.45 13.35 33.45 Z M 21.2 21.25 L 23.5 21.25 Q 23.7 21.25 23.85 21.125 A 0.525 0.525 0 0 0 23.93 21.045 Q 23.974 20.988 23.99 20.926 A 0.29 0.29 0 0 0 24 20.85 A 0.34 0.34 0 0 0 23.959 20.678 Q 23.88 20.541 23.65 20.51 A 1.112 1.112 0 0 0 23.5 20.5 L 21.2 20.5 Q 20.714 20.5 20.701 20.832 A 0.47 0.47 0 0 0 20.7 20.85 A 0.453 0.453 0 0 0 20.732 21.025 Q 20.825 21.25 21.2 21.25 Z M 21.2 33.45 L 23.5 33.45 Q 23.7 33.45 23.85 33.325 A 0.525 0.525 0 0 0 23.93 33.245 Q 23.974 33.188 23.99 33.126 A 0.29 0.29 0 0 0 24 33.05 A 0.34 0.34 0 0 0 23.959 32.878 Q 23.88 32.741 23.65 32.71 A 1.112 1.112 0 0 0 23.5 32.7 L 21.2 32.7 Q 20.714 32.7 20.701 33.032 A 0.47 0.47 0 0 0 20.7 33.05 A 0.453 0.453 0 0 0 20.732 33.225 Q 20.825 33.45 21.2 33.45 Z M 21.2 9.05 L 23.5 9.05 Q 23.7 9.05 23.85 8.925 A 0.525 0.525 0 0 0 23.93 8.845 Q 23.974 8.788 23.99 8.726 A 0.29 0.29 0 0 0 24 8.65 A 0.34 0.34 0 0 0 23.959 8.478 Q 23.88 8.341 23.65 8.31 A 1.112 1.112 0 0 0 23.5 8.3 L 21.2 8.3 Q 20.714 8.3 20.701 8.632 A 0.47 0.47 0 0 0 20.7 8.65 A 0.453 0.453 0 0 0 20.732 8.825 Q 20.825 9.05 21.2 9.05 Z M 5.5 21.25 L 7.8 21.25 Q 8 21.25 8.15 21.125 A 0.525 0.525 0 0 0 8.23 21.045 Q 8.274 20.988 8.29 20.926 A 0.29 0.29 0 0 0 8.3 20.85 A 0.34 0.34 0 0 0 8.259 20.678 Q 8.18 20.541 7.95 20.51 A 1.112 1.112 0 0 0 7.8 20.5 L 5.5 20.5 Q 5.014 20.5 5.001 20.832 A 0.47 0.47 0 0 0 5 20.85 Q 5 21.25 5.5 21.25 Z M 5.5 33.45 L 7.8 33.45 Q 8 33.45 8.15 33.325 A 0.525 0.525 0 0 0 8.23 33.245 Q 8.274 33.188 8.29 33.126 A 0.29 0.29 0 0 0 8.3 33.05 A 0.34 0.34 0 0 0 8.259 32.878 Q 8.18 32.741 7.95 32.71 A 1.112 1.112 0 0 0 7.8 32.7 L 5.5 32.7 Q 5.014 32.7 5.001 33.032 A 0.47 0.47 0 0 0 5 33.05 Q 5 33.45 5.5 33.45 Z M 5.5 9.05 L 7.8 9.05 Q 8 9.05 8.15 8.925 A 0.525 0.525 0 0 0 8.23 8.845 Q 8.274 8.788 8.29 8.726 A 0.29 0.29 0 0 0 8.3 8.65 A 0.34 0.34 0 0 0 8.259 8.478 Q 8.18 8.341 7.95 8.31 A 1.112 1.112 0 0 0 7.8 8.3 L 5.5 8.3 Q 5.014 8.3 5.001 8.632 A 0.47 0.47 0 0 0 5 8.65 Q 5 9.05 5.5 9.05 Z" vector-effect="non-scaling-stroke"/></g></svg>