<svg width="58" height="83" viewBox="0 0 29 41.5" xmlns="http://www.w3.org/2000/svg"><g id="svgGroup" stroke-linecap="round" fill-rule="evenodd" font-size="9pt" stroke="#000" stroke-width="0.05mm" fill="#000" style="stroke:#000;stroke-width:0.05mm;fill:#000"><path d="M 0 38.5 L 0 3 A 2.89 2.89 0 0 1 0.848 0.903 A 3.442 3.442 0 0 1 0.875 0.875 A 2.889 2.889 0 0 1 2.961 0.001 A 3.547 3.547 0 0 1 3 0 L 26 0 A 2.89 2.89 0 0 1 28.098 0.848 A 3.442 3.442 0 0 1 28.125 0.875 A 2.889 2.889 0 0 1 29 2.961 A 3.547 3.547 0 0 1 29 3 L 29 38.5 A 2.89 2.89 0 0 1 28.153 40.598 A 3.442 3.442 0 0 1 28.125 40.625 A 2.889 2.889 0 0 1 26.039 41.5 A 3.547 3.547 0 0 1 26 41.5 L 3 41.5 A 2.89 2.89 0 0 1 0.903 40.653 A 3.442 3.442 0 0 1 0.875 40.625 A 2.889 2.889 0 0 1 0.001 38.539 A 3.547 3.547 0 0 1 0 38.5 Z M 3 40 L 26 40 A 1.628 1.628 0 0 0 26.542 39.914 A 1.403 1.403 0 0 0 27.075 39.575 A 1.436 1.436 0 0 0 27.498 38.602 A 1.91 1.91 0 0 0 27.5 38.5 L 27.5 3 A 1.628 1.628 0 0 0 27.414 2.459 A 1.403 1.403 0 0 0 27.075 1.925 A 1.436 1.436 0 0 0 26.102 1.503 A 1.91 1.91 0 0 0 26 1.5 L 3 1.5 A 1.628 1.628 0 0 0 2.459 1.587 A 1.403 1.403 0 0 0 1.925 1.925 A 1.436 1.436 0 0 0 1.503 2.899 A 1.91 1.91 0 0 0 1.5 3 L 1.5 38.5 A 1.628 1.628 0 0 0 1.587 39.042 A 1.403 1.403 0 0 0 1.925 39.575 A 1.436 1.436 0 0 0 2.899 39.998 A 1.91 1.91 0 0 0 3 40 Z M 5.6 27.85 L 5.2 27.85 A 2.717 2.717 0 0 1 4.887 27.834 Q 4.6 27.8 4.4 27.7 Q 7.75 26 9.3 24.7 L 9.1 24.05 L 9.55 24.4 Q 10.45 23.65 11.15 22.25 Q 10.65 22.2 10.2 21.65 Q 10.155 21.605 10.214 21.517 A 0.398 0.398 0 0 1 10.225 21.5 A 0.427 0.427 0 0 0 10.272 21.424 Q 10.298 21.368 10.3 21.312 A 0.267 0.267 0 0 0 10.3 21.3 A 0.118 0.118 0 0 0 10.282 21.255 Q 10.17 21.059 9.387 20.137 A 86.359 86.359 0 0 0 9.1 19.8 A 63.341 63.341 0 0 1 8.463 19.049 Q 7.225 17.563 7.008 17.067 A 1.022 1.022 0 0 1 7 17.05 A 0.619 0.619 0 0 1 7.104 16.919 A 0.416 0.416 0 0 1 7.4 16.8 A 0.889 0.889 0 0 1 7.567 16.818 Q 7.733 16.85 7.958 16.94 A 4.171 4.171 0 0 1 8.1 17 A 12.587 12.587 0 0 1 8.295 17.089 Q 8.535 17.2 8.655 17.272 A 1.078 1.078 0 0 1 8.7 17.3 Q 11.15 16.8 13.15 16.2 Q 13.104 15.922 13.101 15.215 A 23.878 23.878 0 0 1 13.1 15.1 A 6.009 6.009 0 0 0 12.817 15.149 Q 12.563 15.197 12.25 15.275 Q 11.803 15.387 11.436 15.399 A 2.664 2.664 0 0 1 11.35 15.4 A 2.786 2.786 0 0 1 11.063 15.387 Q 10.76 15.355 10.57 15.252 A 0.757 0.757 0 0 1 10.525 15.225 A 1.044 1.044 0 0 1 10.203 14.898 A 1.389 1.389 0 0 1 10.1 14.7 L 11.1 14.55 A 8.785 8.785 0 0 0 12.888 14.187 A 8.158 8.158 0 0 0 13 14.15 L 13 14 A 9.331 9.331 0 0 0 12.978 13.336 Q 12.932 12.684 12.786 12.25 A 2.409 2.409 0 0 0 12.75 12.15 A 5.812 5.812 0 0 0 12.336 11.297 A 7.067 7.067 0 0 0 12.05 10.85 Q 11.706 10.353 11.508 9.928 A 3.794 3.794 0 0 1 11.4 9.675 Q 11.201 9.153 11.2 8.26 A 8.162 8.162 0 0 1 11.2 8.25 Q 12.95 9.05 14.7 9.45 A 11.302 11.302 0 0 1 15.124 9.57 Q 15.729 9.755 15.975 9.925 A 0.721 0.721 0 0 1 16.267 10.358 Q 16.298 10.482 16.3 10.631 A 1.516 1.516 0 0 1 16.3 10.65 Q 16.3 10.91 15.907 11.133 A 2.129 2.129 0 0 1 15.775 11.2 A 2.725 2.725 0 0 0 14.907 11.86 A 3.158 3.158 0 0 0 14.85 11.925 Q 14.45 12.4 14.35 13.75 A 5.103 5.103 0 0 0 14.806 13.586 Q 15.252 13.398 15.508 13.166 A 1.473 1.473 0 0 0 15.525 13.15 A 3.021 3.021 0 0 1 15.681 13.014 Q 15.944 12.8 16.1 12.8 Q 16.476 12.8 16.903 13.027 A 2.929 2.929 0 0 1 17.075 13.125 Q 17.6 13.45 17.6 13.7 A 0.283 0.283 0 0 1 17.514 13.9 Q 17.426 13.993 17.245 14.066 A 1.646 1.646 0 0 1 17.15 14.1 A 5.703 5.703 0 0 1 16.696 14.23 Q 16.488 14.281 16.257 14.323 A 9.552 9.552 0 0 1 16.1 14.35 Q 15.25 14.5 14.3 14.8 Q 14.3 15.1 14.25 15.4 Q 14.2 15.7 14.2 15.95 L 16.05 15.6 A 126.212 126.212 0 0 1 16.775 15.465 Q 18.01 15.237 18.361 15.205 A 1.058 1.058 0 0 1 18.45 15.2 A 0.685 0.685 0 0 1 18.723 15.266 Q 19.119 15.44 19.7 16.075 A 5.448 5.448 0 0 1 20.05 16.496 Q 20.5 17.1 20.5 17.55 Q 20.5 18.05 19.4 18.2 Q 19 19.2 18.2 20.25 Q 17.95 20.55 17.75 20.875 Q 17.571 21.166 17.553 21.437 A 0.914 0.914 0 0 0 17.55 21.5 A 1.567 1.567 0 0 1 17.512 21.854 A 1.341 1.341 0 0 1 17.45 22.05 Q 17.35 22.3 17.1 22.3 A 0.685 0.685 0 0 1 16.888 22.263 Q 16.653 22.186 16.35 21.95 Q 16.251 21.95 15.905 22 A 19.375 19.375 0 0 0 15.9 22 A 2.916 2.916 0 0 0 15.696 22.037 Q 15.488 22.082 15.35 22.15 Q 16.5 23.6 17.8 24.35 A 17.314 17.314 0 0 0 18.964 24.96 Q 19.893 25.405 21.05 25.85 Q 22.237 26.348 22.955 26.699 A 12.774 12.774 0 0 1 23.35 26.9 A 3.416 3.416 0 0 1 24.561 27.992 A 4.001 4.001 0 0 1 24.6 28.05 Q 23.8 27.95 23.05 27.6 A 8.582 8.582 0 0 0 22.744 27.464 Q 22.281 27.27 22.045 27.252 A 0.602 0.602 0 0 0 22 27.25 A 0.507 0.507 0 0 0 21.866 27.273 Q 21.646 27.336 21.235 27.571 A 10.219 10.219 0 0 0 20.975 27.725 Q 20.2 28.2 19.65 28.2 Q 19.035 28.2 18.437 27.662 A 3.633 3.633 0 0 1 18.175 27.4 A 9.204 9.204 0 0 1 17.738 26.875 Q 17.281 26.288 16.71 25.413 A 40.072 40.072 0 0 1 16.35 24.85 Q 15.7 23.8 14.55 22.25 Q 14.458 22.297 14.193 22.3 A 3.346 3.346 0 0 1 14.15 22.3 L 14.1 23.8 A 4.795 4.795 0 0 0 14.076 24.057 Q 14.059 24.31 14.053 24.661 A 21.509 21.509 0 0 0 14.05 25 Q 14.05 26.35 14.275 27.75 A 325.684 325.684 0 0 0 14.354 28.235 Q 14.482 29.025 14.532 29.303 A 5.613 5.613 0 0 0 14.55 29.4 Q 14.767 30.482 14.796 30.965 A 2.271 2.271 0 0 1 14.8 31.1 A 8.51 8.51 0 0 1 14.772 31.823 Q 14.637 33.4 13.85 33.4 A 0.536 0.536 0 0 1 13.507 33.26 Q 13.142 32.957 12.8 32 A 9.986 9.986 0 0 1 12.486 30.952 Q 12.358 30.415 12.319 29.93 A 5.242 5.242 0 0 1 12.3 29.5 Q 12.3 29.075 10.525 26.584 A 94.627 94.627 0 0 0 9.85 25.65 Q 8.75 26.55 7.55 27.2 A 8.327 8.327 0 0 1 6.911 27.515 Q 6.14 27.85 5.6 27.85 Z M 13.25 22.35 L 12.45 22.3 A 10.757 10.757 0 0 1 12.038 22.958 Q 11.609 23.595 10.949 24.44 A 50.573 50.573 0 0 1 10.3 25.25 L 11 26.05 A 8.985 8.985 0 0 0 11.611 26.741 A 7.83 7.83 0 0 0 11.825 26.95 Q 12.249 27.349 12.498 27.35 A 0.313 0.313 0 0 0 12.5 27.35 A 0.323 0.323 0 0 0 12.764 27.176 Q 13.077 26.704 13.15 24.95 A 1160.886 1160.886 0 0 0 13.174 24.385 Q 13.25 22.525 13.25 22.35 Z M 14.1 18.4 Q 14.8 18.3 15.225 18 Q 15.65 17.7 16.2 17.7 A 0.887 0.887 0 0 1 16.697 17.855 A 1.229 1.229 0 0 1 16.85 17.975 Q 17.144 18.244 17.342 18.394 A 3.222 3.222 0 0 0 17.35 18.4 A 9.754 9.754 0 0 0 17.53 18.07 Q 17.649 17.843 17.775 17.575 A 3.007 3.007 0 0 0 17.901 17.27 Q 17.954 17.118 17.979 16.98 A 1.299 1.299 0 0 0 18 16.75 A 0.266 0.266 0 0 0 17.856 16.521 Q 17.628 16.378 17.039 16.355 A 6.124 6.124 0 0 0 16.8 16.35 A 9.515 9.515 0 0 0 15.408 16.458 A 12.585 12.585 0 0 0 14.2 16.7 Q 14.15 17.05 14.15 17.55 A 8.404 8.404 0 0 1 14.143 17.904 Q 14.136 18.078 14.121 18.228 A 4.058 4.058 0 0 1 14.1 18.4 Z M 13.2 18.5 L 13.15 16.85 A 18.851 18.851 0 0 0 10.725 17.487 A 15.843 15.843 0 0 0 9.4 18 Q 10.072 18.672 10.306 18.969 A 1.321 1.321 0 0 1 10.4 19.1 Q 10.71 18.924 11.156 18.845 A 3.599 3.599 0 0 1 11.275 18.825 Q 11.722 18.762 11.898 18.716 A 0.844 0.844 0 0 0 11.95 18.7 Q 12.089 18.7 12.443 18.658 A 16.268 16.268 0 0 0 12.5 18.65 Q 12.9 18.6 13.2 18.5 Z M 15.35 19.1 L 14.15 19.35 Q 14.101 19.598 14.1 20.191 A 13.297 13.297 0 0 0 14.1 20.2 A 11.757 11.757 0 0 0 14.105 20.551 Q 14.115 20.872 14.143 21.098 A 3.17 3.17 0 0 0 14.15 21.15 A 5.78 5.78 0 0 0 14.748 21.117 Q 15.061 21.084 15.418 21.02 A 13.185 13.185 0 0 0 16 20.9 Q 16.25 20.5 16.5 20 Q 16.75 19.5 17 19.1 A 0.293 0.293 0 0 0 16.969 19.074 Q 16.913 19.032 16.8 18.975 A 0.699 0.699 0 0 0 16.596 18.911 A 0.93 0.93 0 0 0 16.45 18.9 A 0.93 0.93 0 0 0 16.351 18.907 Q 16.082 18.938 15.35 19.1 Z M 13.25 21.25 L 13.2 19.45 A 17.277 17.277 0 0 0 12.512 19.504 Q 11.48 19.606 11.031 19.81 A 1.254 1.254 0 0 0 10.95 19.85 A 5.01 5.01 0 0 0 11.305 20.524 A 3.621 3.621 0 0 0 11.8 21.15 Q 12.039 21.198 12.437 21.223 A 10.022 10.022 0 0 0 12.475 21.225 Q 12.9 21.25 13.25 21.25 Z" vector-effect="non-scaling-stroke"/></g></svg>